<svg width="49" height="39" viewBox="0 0 49 39" fill="none" xmlns="http://www.w3.org/2000/svg">
<path d="M34.6028 4.6933C33.0167 8.67126 33.6079 12.4139 35.8256 15.9817C36.3595 16.8406 37.0963 17.4298 38.0382 17.8026C39.4629 18.3668 40.2102 18.1388 40.7461 16.7292C41.6755 14.2879 42.1095 11.7508 41.4809 9.17098C40.8658 6.64324 40.1644 4.11861 37.8394 2.38C41.485 1.45969 45.1306 1.32125 48.7294 0.574793C48.3152 0.466521 47.9073 0.323893 47.4868 0.256223C46.8322 0.152115 46.1714 0.0604966 45.5105 0.0313464C36.1618 -0.385086 28.5479 3.37007 22.2162 9.95906C20.0734 12.1891 18.2178 14.7189 17.7266 17.9379C17.6766 18.2648 17.5289 18.4283 17.2645 18.4876C16.7608 18.6011 16.8638 18.1107 16.7525 17.8838C15.2986 14.9073 12.5324 13.2176 9.33639 13.5758C5.56901 13.9974 2.78719 16.0067 1.18137 19.411C-0.570152 23.1256 -0.262102 26.9131 1.36974 30.6079C4.10889 36.8075 7.75762 39.0094 14.6607 38.2015C20.0765 37.5685 24.127 34.2704 27.168 29.9686C29.8249 26.2093 28.3377 21.2944 24.2841 19.0654C22.5045 18.0868 20.6115 17.7016 18.4853 18.0628C21.9561 10.6764 27.7643 6.16435 35.2668 3.10982C34.965 3.82817 34.7755 4.25709 34.6028 4.6933ZM38.1412 14.2712C38.7823 10.5108 37.7405 6.86185 37.3305 3.13374C37.9154 3.39297 38.2723 3.85419 38.5242 4.35182C40.3527 7.96749 40.9834 11.7133 39.6596 15.6517C39.4744 16.2024 39.2798 16.8708 38.6782 16.9541C38.1662 17.0249 37.9903 16.3419 37.7156 15.9661C34.8193 12.0038 34.3551 7.71137 36.1357 3.13374C37.0474 6.80667 36.5937 10.7045 38.1412 14.2712ZM18.4353 19.8525C20.4553 19.3965 22.2901 19.8608 24.0011 20.956C26.8256 22.7623 27.5457 26.7736 25.4966 29.4543C24.9075 30.2247 24.2196 30.9202 23.5775 31.65C22.0466 32.9451 20.4595 34.1434 18.7173 35.1209C15.2965 37.0407 11.7175 37.1052 8.06672 35.9309C6.27773 35.3552 5.17041 33.9435 4.1859 32.4579C2.19293 29.446 1.12933 26.1593 1.72878 22.526C2.35113 18.752 4.49497 16.1868 8.19366 15.0354C12.2056 13.7861 15.2903 16.3253 16.5974 18.9082C17.0741 19.8452 17.5622 20.0492 18.4353 19.8525Z" fill="#EAEAEA"/>
<path d="M4.31389 20.3013C2.19708 25.3401 3.92156 31.9103 7.78781 33.4043C5.12983 29.418 4.05788 25.0382 4.31389 20.3013Z" fill="#EAEAEA"/>
<path d="M11.5073 34.7869C9.72668 31.7469 8.20723 28.8985 8.19578 25.5369C7.26851 29.518 8.63393 33.5292 11.5073 34.7869Z" fill="#EAEAEA"/>
<path d="M13.6991 34.1382C12.7968 32.9993 12.3066 31.6552 11.1597 30.458C11.4865 33.094 12.1911 34.0945 13.6991 34.1382Z" fill="#EAEAEA"/>
</svg>
