<svg width="56" height="67" viewBox="0 0 56 67" fill="none" xmlns="http://www.w3.org/2000/svg">
<path d="M0.0293438 30.8579C0.264545 34.6609 3.08487 36.4526 6.57126 34.8463C7.17279 34.5693 7.21235 34.7848 7.3466 35.2637C8.51948 39.4364 9.79331 43.583 10.8965 47.7734C12.3743 53.3827 14.5587 58.7796 15.9658 64.4067C16.1437 65.1177 16.4445 65.6612 17.3822 65.8881C24.0386 67.4956 30.6461 67.2301 37.1859 65.4144C45.1453 63.2042 51.4156 58.8838 54.8676 51.2193C55.1611 50.5676 55.3588 49.9804 55.0758 49.2163C51.3157 39.0689 47.7117 28.8653 43.6737 18.8178C43.5363 18.4753 43.2522 18.1494 43.3875 17.6924C44.294 18.1276 45.1682 18.4628 46.1339 18.5003C49.024 18.6127 50.6267 16.4837 49.6724 13.7956C49.408 13.0502 48.9824 12.4058 48.4443 11.8186C46.2588 9.4283 43.35 9.60528 40.3965 9.54698C40.3871 7.65326 40.2841 7.49711 38.5326 6.95575C38.3182 6.88912 38.21 6.75065 38.1506 6.59553C37.624 5.21297 36.8706 3.87101 36.7155 2.40725C36.5844 1.16629 35.9433 0.639507 34.8766 0.35321C33.5496 -0.00283887 32.1926 -0.0517569 30.8303 0.0408992C23.6785 0.528125 16.916 2.54572 10.323 5.16716C7.55786 6.26654 4.90612 7.61161 2.59054 9.51054C1.59978 10.3236 1.23865 11.3033 1.47177 12.5693C1.70177 13.8185 2.07851 15.0116 2.54371 16.187C2.82886 16.9084 3.32632 17.6247 2.45421 18.3274C2.22421 18.5127 2.22629 18.9167 2.37616 19.1697C2.72167 19.7496 2.45108 20.2305 2.23565 20.7438C0.881682 23.9826 -0.193369 27.261 0.0293438 30.8579ZM53.2462 48.7832C53.9591 50.6124 53.6801 51.8606 52.6967 53.3473C48.9636 58.992 43.5426 62.2402 37.113 64.0496C31.1831 65.7174 25.1584 66.0068 19.0744 64.9834C17.4644 64.7127 17.4654 64.7065 17.2958 62.9429C23.2726 64.2162 24.6932 64.2401 26.3646 63.0366C23.4964 63.1355 20.7208 63.0481 17.9671 62.5723C17.2729 62.4526 16.7151 62.2641 16.8004 61.3219C18.4687 61.6187 20.1411 62.3505 21.9509 61.5614C20.6396 61.0305 19.2971 61.0586 18.0076 60.918C16.7921 60.7848 16.1375 60.3298 16.1104 59.0399C17.7277 59.2242 19.3574 60.0748 21.2349 59.041C19.884 58.8806 18.7434 58.738 17.6007 58.61C15.7483 58.4028 15.7472 58.4059 15.2883 56.5247C16.3508 56.4726 17.4946 57.2014 18.5603 56.2165C17.9827 56.1259 17.5133 56.0385 17.0408 55.9791C14.4089 55.6491 15.1259 56.0749 14.3537 53.7939C14.8387 53.5951 15.3008 53.9501 15.7764 53.8512C16.2364 53.7554 16.7463 53.8002 17.2084 53.3504C16.8379 53.2775 16.5694 53.2088 16.2957 53.1724C15.588 53.0797 14.8772 53.01 14.1705 52.9079C14.0967 52.8975 14.0217 52.7435 13.9884 52.6435C13.7241 51.8367 13.4691 51.0278 13.2058 50.2001C14.0665 49.9013 14.9781 50.451 15.9075 49.7982C15.5724 49.7431 15.3882 49.7046 15.2009 49.6848C12.7874 49.4256 12.7874 49.4255 12.3316 46.904C13.0736 46.8457 13.9301 47.0998 14.4349 46.2471C14.3391 46.2003 14.2829 46.1514 14.2257 46.1482C11.7946 46.0493 11.8175 46.0441 11.1993 43.7381C11.0442 43.1603 11.1629 43.0187 11.7363 43.0521C12.4554 43.0937 13.1309 42.9771 13.6564 42.2244C12.8905 42.2244 12.264 42.1807 11.6468 42.2369C11.0328 42.2931 10.7404 42.1307 10.501 41.5133C10.1034 40.4889 10.1294 39.8882 11.4491 39.8882C11.8841 39.8882 12.2109 39.6259 12.5668 39.1293C12.1328 39.1699 11.8331 39.1855 11.5386 39.2271C9.65386 39.4916 9.65385 39.4937 9.24693 37.501C10.17 37.322 11.2087 37.8373 12.1849 36.9732C11.7415 36.9732 11.4387 36.969 11.1369 36.9732C8.51324 37.0117 9.16055 37.5874 8.15002 34.764C9.68507 34.764 11.1723 34.8171 12.6532 34.7494C14.1799 34.6797 15.6046 34.2601 16.7297 33.1149C13.8375 33.9041 10.8663 34.054 7.86383 34.3007C8.98884 33.3711 9.632 31.8552 11.4647 31.8896C12.4804 31.9083 13.4368 31.5544 14.2829 30.8027C13.1288 30.7236 12.138 31.1484 10.8361 31.3035C12.6834 29.214 14.1549 27.1131 16.3841 25.7274C17.4644 25.0559 17.9244 25.184 18.5634 26.2938C19.1535 27.3213 19.6156 28.4124 20.7447 29.0558C22.8522 30.2572 24.2415 29.6409 24.5673 27.2891C24.7702 25.8232 24.7203 24.3303 25.0855 22.8801C25.6121 20.7865 26.6216 20.3076 28.6219 21.2893C30.6596 22.2887 32.7369 23.1352 35.0441 23.2924C36.2992 23.3777 37.5387 23.2903 38.7314 22.8853C40.1613 22.4002 40.7337 21.5277 40.8128 20.0546C40.8836 18.7429 40.4714 17.4977 40.3112 16.0871C41.5371 16.6399 42.4758 17.1313 42.8567 18.519C45.6791 28.8174 49.3695 38.8367 53.2462 48.7832ZM37.8655 8.0218C38.0351 7.77923 38.2734 7.54497 38.6179 7.64283C38.9811 7.7459 39.207 8.05929 39.1966 8.3914C39.1632 9.4408 39.2049 10.4871 38.21 11.2804C35.9787 13.0596 33.3467 14.1007 30.7741 15.2198C25.1428 17.6695 19.3252 19.5757 13.2058 20.471C12.0891 20.6345 10.9589 20.7063 9.85054 20.8198C8.28843 20.6678 6.74714 20.5523 5.21625 20.3555C4.42427 20.2535 3.68328 19.9432 3.18478 19.2696C2.96935 18.9781 2.9319 18.6679 3.17022 18.3472C3.38357 18.0609 3.61772 17.9985 3.94555 18.1598C6.65556 19.4924 9.54666 19.2259 12.3857 18.9209C20.342 18.0661 27.7165 15.5457 34.3833 11.145C35.6966 10.2789 36.9517 9.33044 37.8655 8.0218ZM6.39123 9.42206C5.18192 9.88742 3.97156 10.3528 2.55203 10.8983C3.32944 9.77706 4.26297 9.1649 5.19753 8.59022C11.4553 4.74447 18.2522 2.39269 25.6007 1.62854C28.3711 1.3412 31.1446 0.944542 33.9389 1.39845C34.2355 1.44634 34.5269 1.52547 34.8172 1.60147C35.5031 1.78158 35.5353 2.18343 35.1565 2.67378C34.7153 3.24325 34.1064 3.62533 33.4935 3.98867C27.8892 7.30867 21.7396 9.28776 15.4933 11.0243C14.6295 11.2648 13.7491 11.4501 12.8759 11.6604C14.2673 10.8036 15.8617 10.3132 17.4363 9.16179C13.517 9.91657 10.6217 12.9284 6.60145 12.4162C7.69836 11.9644 8.80671 11.5282 9.89737 11.0545C10.9901 10.5797 12.1224 10.1779 13.0528 9.33773C11.5323 9.92907 10.0244 10.5537 8.48826 11.1034C7.01461 11.6312 5.73556 12.9055 3.84563 12.2788C4.97064 11.4792 6.38081 11.3553 7.33826 10.4756C5.63045 10.4506 4.30355 12.1518 2.50936 11.8457C2.47918 11.7353 2.44901 11.6239 2.41883 11.5125C3.76655 10.8764 5.11426 10.2403 6.46094 9.60423C6.43804 9.54281 6.41412 9.48244 6.39123 9.42206ZM2.41154 12.9721C7.10203 14.0236 11.626 13.0263 16.1115 11.8769C22.2163 10.3143 28.1692 8.33307 33.6673 5.21503C34.4832 4.7528 35.2502 4.22396 36.0827 3.48687C36.37 4.82986 36.5781 6.06351 37.0454 7.22536C37.2452 7.72195 36.7311 7.85316 36.4803 8.06345C33.0595 10.9316 29.1433 12.9669 24.996 14.6139C20.3087 16.4754 15.4371 17.53 10.399 17.886C9.50712 17.9485 8.62354 18.0755 8.50282 16.82C8.48721 16.6555 8.34256 16.4795 8.08446 16.5274C7.89505 16.6586 7.98871 16.8356 8.03659 17.0074C8.11672 17.2926 8.49346 17.6841 8.16459 17.8465C7.61822 18.1172 7.54641 17.5165 7.34139 17.1916C7.16031 16.9053 7.1093 16.3619 6.6337 16.5097C6.23406 16.6347 6.57958 17.0178 6.6004 17.2864C6.61185 17.4259 6.69406 17.6049 6.50569 17.6664C6.26424 17.7455 6.0457 17.6351 5.93642 17.4238C5.71475 16.9959 5.54928 16.5389 5.32033 16.1151C5.03205 15.5831 4.80205 14.996 4.03713 14.5296C4.39513 15.5207 4.67821 16.3067 4.96441 17.0979C3.85813 16.898 3.09008 15.656 2.41154 12.9721ZM3.04013 20.2597C4.23383 21.0166 5.46499 21.3372 6.76067 21.4059C7.23524 21.4309 7.39447 21.5871 7.16447 22.0045C6.96882 22.3596 6.75339 22.7073 6.50987 23.0321C5.45458 24.4386 4.46486 25.8774 3.99862 27.5972C3.77903 28.4082 3.74469 29.1974 4.27961 30.0677C5.05598 28.0053 5.68874 25.9659 6.84081 24.0388C6.84081 25.0008 6.81687 25.8493 6.84705 26.6946C6.88035 27.5931 7.16864 28.4259 7.69212 29.3556C8.05949 27.5514 7.87527 25.8857 7.8836 24.2283C7.88776 23.3798 7.51206 22.3189 8.01161 21.7422C8.4768 21.2039 9.55498 21.7047 10.3647 21.661C13.3151 21.5007 16.2062 21.0145 19.0494 20.2357C19.4032 20.1389 19.7633 20.0629 20.2421 19.9474C20.1099 21.5964 19.4823 23.2695 21.0736 24.676C20.9893 23.207 20.9206 21.8588 20.8301 20.5116C20.7968 20.014 20.8831 19.7329 21.4826 19.5799C24.0407 18.9271 26.5103 18.0016 28.9403 16.9917C30.1621 16.4837 31.1081 16.8158 32.0052 17.5862C32.8243 18.2889 33.4581 19.1884 34.5061 19.887C34.274 18.8959 33.4955 18.4253 32.9211 17.5518C34.3177 17.9318 35.5166 18.2587 36.7145 18.5846C35.3459 17.0282 33.6267 16.2213 31.3361 16.1297C33.5059 14.8971 35.6498 14.1663 37.5439 12.9555C38.442 12.3808 39.2715 11.7468 39.848 10.8806C40.2081 10.3403 40.6109 10.2247 41.1573 10.3663C42.1501 10.6245 43.171 10.6474 44.1805 10.7723C46.3816 11.0451 48.0051 12.1247 48.7742 14.2089C49.5038 16.187 48.4121 17.6258 46.2734 17.5831C44.6551 17.5508 43.3615 16.6711 41.9981 15.9611C41.3071 15.6009 40.639 14.6597 39.8054 15.2458C38.9832 15.8236 39.49 16.8127 39.5983 17.632C39.642 17.962 39.7377 18.2837 39.7939 18.6127C40.2352 21.1831 39.4255 22.1669 36.7561 22.3804C34.3042 22.5771 32.0531 21.9171 29.8728 20.9104C29.2931 20.6428 28.727 20.3367 28.1255 20.1306C26.3417 19.5205 24.9742 20.1671 24.3549 21.8942C23.8107 23.4152 23.7597 25.0153 23.5942 26.5999C23.5203 27.3036 23.717 28.2854 22.8261 28.5155C21.8895 28.757 21.0715 28.148 20.4898 27.4411C20.0693 26.9309 19.8195 26.2865 19.4751 25.7129C18.4937 24.0805 17.4748 23.8202 15.8138 24.8144C14.5462 25.5734 13.492 26.5811 12.5283 27.6847C11.1285 29.2869 9.81099 30.9641 8.19685 32.3727C7.66296 32.838 7.10307 33.2878 6.50258 33.6646C3.78528 35.3689 1.33544 34.1352 1.13146 30.9433C0.998253 28.8642 1.10128 26.7966 1.71842 24.778C2.16385 23.3226 2.57389 21.8588 3.04013 20.2597Z" fill="#EAEAEA"/>
<path d="M37.6886 28.4416C30.3817 32.1041 22.8355 34.991 14.488 35.22C14.0301 35.2325 13.9249 35.3366 14.0186 35.7989C14.4141 37.7592 14.7138 39.7394 15.1374 41.6924C16.0886 46.0837 17.9692 50.1981 19.1524 54.5217C19.2492 54.8756 19.4553 55.0693 19.807 55.2004C22.5348 56.2186 25.2937 57.0786 28.2691 56.9661C31.029 56.912 33.7474 56.531 36.4075 55.7783C39.9043 54.7903 43.3011 53.6066 46.0455 51.1048C46.6835 50.5239 47.0123 49.918 46.7771 49.0581C46.6502 48.5948 46.6397 48.1013 46.5024 47.6422C44.6301 41.3905 42.3531 35.2763 39.9043 29.2245C39.3256 27.7919 39.0498 27.7597 37.6886 28.4416ZM45.5064 47.7755C46.0642 48.7437 45.7832 49.3038 44.986 49.9638C41.8327 52.5738 38.0632 53.8096 34.1543 54.7059C30.0019 55.6575 25.8203 56.0073 21.6262 54.8558C21.0309 54.6924 20.7437 54.4498 20.5366 53.8096C19.295 49.9721 17.9202 46.1764 16.6662 42.3421C15.9887 40.2724 15.4621 38.1549 14.8262 35.9165C18.221 36.2663 21.4222 35.8197 24.5694 35.0483C29.3369 33.8791 33.9597 32.3113 38.1236 29.6753C38.8948 29.187 39.1279 29.314 39.4005 30.1385C41.0636 35.168 42.7725 40.1829 44.4803 45.1978C44.779 46.0733 45.0474 46.9811 45.5064 47.7755Z" fill="#EAEAEA"/>
</svg>
