<svg width="79" height="44" viewBox="0 0 79 44" fill="none" xmlns="http://www.w3.org/2000/svg">
<path d="M64.7738 28.8336C66.6068 28.0986 67.0197 26.5847 66.4666 24.3691C66.1492 23.0991 65.8387 21.8014 66.6436 20.5498C67.4578 19.2821 68.7021 18.9278 70.0107 19.6342C70.2108 19.7423 70.4903 19.8734 70.6743 19.8148C72.1669 19.3351 73.2973 19.8067 74.3725 20.9018C75.4305 21.9786 75.9319 23.1232 75.5075 24.6359C75.9307 24.7291 76.3056 24.8764 76.6805 24.8798C77.758 24.8902 78.4008 25.4838 78.6619 26.5294C79.1391 28.4413 78.318 29.8172 77.0968 31.1666C75.8157 32.5827 74.3518 33.7238 72.6016 34.414C71.5758 34.819 70.4373 35.0031 69.3322 35.1307C67.6096 35.3309 65.8697 35.3735 64.1436 35.5495C63.8964 35.5748 63.6399 35.9406 63.4663 36.2006C61.4826 39.1812 58.8941 41.3001 55.3073 42.041C52.7533 42.569 50.2211 43.2247 47.6474 43.6216C46.3146 43.8275 44.9014 43.6986 43.5456 43.5364C41.0191 43.2339 38.4823 42.9164 35.9983 42.3758C34.201 41.9846 32.4841 41.2254 30.7327 40.6295C27.9234 39.6724 25.4245 38.0895 22.9118 36.5767C21.4042 35.6691 20.1232 34.3853 18.7409 33.2683C18.0153 32.6827 17.3115 32.0684 16.5652 31.5128C13.8398 29.4859 11.5755 27.0736 10.5946 23.7502C10.0518 21.9096 9.65737 19.9919 10.0852 18.034C10.2025 17.4968 10.3819 16.9596 10.4037 16.4177C10.4141 16.1589 10.1829 15.7873 9.95176 15.6424C9.19854 15.1719 8.37057 14.8222 7.61735 14.3528C6.43634 13.6177 5.25878 12.8689 4.14217 12.0429C3.00255 11.1997 1.84917 10.3438 0.86365 9.33493C-0.58875 7.84981 -0.125322 6.3578 1.62607 5.47432C2.17345 5.19823 2.87263 5.23617 3.44186 4.98999C3.7374 4.8623 4.02027 4.45969 4.10307 4.12953C4.27786 3.43471 4.27098 2.69502 4.42278 1.99215C4.74247 0.505879 5.89356 -0.278688 7.35056 0.0905794C8.27743 0.325254 9.202 0.686487 10.0323 1.15929C10.8786 1.64129 11.5088 1.56535 12.3345 1.08219C12.9716 0.709476 13.826 0.526567 14.5712 0.556476C16.3536 0.6301 17.0838 2.82618 16.1477 4.11574C15.3474 5.21779 14.4481 6.25195 13.6983 7.38621C12.9785 8.47561 13.2131 9.64898 13.78 10.7384C13.8674 10.9063 14.3745 11.0444 14.5562 10.9478C17.7956 9.23601 20.9385 9.78356 24.0618 11.2721C25.8776 12.1372 27.1494 13.658 28.6156 14.9556C30.2394 16.3924 31.9126 17.8005 33.7065 19.0072C34.7461 19.7066 36.0627 19.9988 37.2622 20.4544C37.8233 20.6672 38.3926 20.8789 38.9756 21.0123C41.632 21.6231 44.3275 21.8567 47.0541 21.8889C48.3386 21.9038 49.6196 22.1788 50.9041 22.3111C52.6038 22.4848 54.3092 22.6079 56.0042 22.8092C56.6436 22.8851 57.2841 23.0657 57.8902 23.29C59.0907 23.7364 60.343 24.1194 61.4366 24.7636C63.0029 25.6885 63.9389 27.2243 64.7738 28.8336ZM20.5556 11.7806C18.8812 11.233 17.1931 11.2181 15.7188 12.2212C14.7092 12.908 13.8927 13.8823 12.998 14.7359C11.9987 15.6896 11.3708 16.7467 11.3099 18.2388C11.2248 20.3382 11.4985 22.3364 12.2931 24.254C12.599 24.9926 13.0222 25.7265 13.5535 26.3189C14.9656 27.8961 16.3663 29.5077 17.9555 30.8951C19.9875 32.6678 22.1505 34.3036 24.3516 35.8635C25.6959 36.8172 27.1828 37.5948 28.6731 38.3092C30.0439 38.9661 31.4917 39.4711 32.9303 39.9726C34.5873 40.5513 36.2422 41.1874 37.951 41.5498C39.7047 41.9225 41.517 42.0709 43.3133 42.1756C45.0302 42.2757 46.7689 42.3079 48.4789 42.1549C50.0083 42.018 51.5228 41.6384 53.0224 41.2737C54.4023 40.9389 55.8363 40.6513 57.0944 40.0336C58.3904 39.3974 59.5461 38.4415 60.6823 37.5258C61.6919 36.7125 62.4854 35.6818 62.6935 34.3473C62.8936 33.0612 62.9454 31.7498 63.1915 30.4741C63.4686 29.0361 62.8108 28.01 61.8794 27.1139C60.5167 25.8024 58.8009 25.0547 57.0081 24.6187C55.3763 24.2218 53.6813 24.0539 52.0046 23.879C49.9232 23.6616 47.8303 23.5523 45.7443 23.3728C44.0343 23.2256 42.3116 23.1382 40.6246 22.8506C39.0975 22.5906 37.6048 22.1166 36.1076 21.7014C32.4841 20.6959 29.6862 18.3779 27.1563 15.7643C25.2761 13.8271 23.3396 12.1441 20.5556 11.7806ZM64.6048 33.9723C65.4764 33.9389 66.2354 33.9424 66.9875 33.8734C68.257 33.7583 69.5738 33.771 70.7789 33.4156C72.5798 32.8852 74.2817 32.0512 75.5455 30.5603C76.27 29.7044 77.3049 29.0257 77.4084 27.7914C77.5154 26.5214 77.206 26.0624 75.9997 26.3005C74.5347 26.5893 73.9574 25.3377 74.1149 24.1102C74.361 22.188 73.0363 20.8156 71.1365 21.1745C70.4833 21.2976 69.9889 21.2205 69.4553 20.8938C68.8677 20.5337 67.9316 20.8363 67.7787 21.4782C67.6499 22.0177 67.5705 22.6251 67.6844 23.1554C68.0201 24.7107 68.3398 26.2534 67.8592 27.8271C67.72 28.2826 67.4946 28.7128 67.2865 29.2086C69.1517 29.1787 69.7129 27.4129 71.0779 26.526C71.3734 28.9889 69.614 29.7999 68.2133 30.8537C69.1195 31.4392 69.2264 31.7693 68.3479 32.3054C67.2508 32.9784 65.9859 33.3753 64.6048 33.9723ZM11.8503 10.7004C11.8446 9.9757 11.725 9.12788 11.8573 8.32032C12.1333 6.63619 13.1544 5.34202 14.3584 4.19971C15.1289 3.46923 15.2726 2.69733 14.5792 2.2809C13.8593 1.84836 13.1073 2.11293 12.5886 2.62024C12.0539 3.14251 11.4916 3.25179 10.8786 3.06658C10.2025 2.86297 9.55502 2.54316 8.92025 2.22336C8.09228 1.80578 7.26777 1.17768 6.3202 1.69305C5.54513 2.11523 5.73601 2.98031 5.70381 3.7223C5.67851 4.31704 5.66701 4.94052 5.48072 5.495C5.16678 6.43024 4.09617 6.79149 2.81396 6.67415C2.43678 6.63964 1.94576 6.91916 1.66172 7.20791C1.52373 7.34825 1.62146 7.96946 1.8181 8.15121C3.05891 9.29928 4.27444 10.5049 5.65784 11.4585C7.16199 12.4961 8.8317 13.2968 10.4474 14.1676C10.8648 14.3931 11.3835 14.6094 11.5226 13.9513C10.4945 13.2508 9.45613 12.6652 8.57871 11.8945C8.12218 11.493 7.16656 11.095 7.80019 10.0723C8.50511 10.491 9.18476 10.9087 9.88049 11.2963C10.0599 11.3964 10.3324 11.4965 10.4934 11.4298C10.9465 11.2457 11.3628 10.9731 11.8503 10.7004Z" fill="#EAEAEA"/>
<path d="M14.7907 23.4788C16.2005 23.718 16.5156 25.0018 17.2286 25.8635C17.3654 26.0291 17.0848 26.6365 16.8663 26.9494C16.7858 27.0656 16.2856 27.0035 16.0545 26.8781C15.246 26.4421 14.4813 24.3036 14.7907 23.4788Z" fill="#EAEAEA"/>
<path d="M61.7903 30.428C60.9519 30.2819 58.6337 27.5694 58.621 26.7192C60.5322 27.4842 62.0996 29.3179 61.7903 30.428Z" fill="#EAEAEA"/>
<path d="M15.4699 16.8778C15.156 17.5323 14.9559 18.1029 14.6201 18.5768C14.4752 18.7816 13.9876 18.9323 13.7703 18.8391C13.5702 18.7528 13.3563 18.2375 13.4414 18.035C13.6771 17.4759 14.0324 16.956 14.4131 16.4774C14.5522 16.3026 14.9501 16.1645 15.1318 16.2416C15.3158 16.3187 15.3768 16.6845 15.4699 16.8778Z" fill="#EAEAEA"/>
<path d="M17.5843 18.1479C16.8667 18.1353 16.286 18.0501 16.4677 17.2932C16.5298 17.0332 17.0634 16.6409 17.2577 16.7019C18.0811 16.9607 17.5751 17.5912 17.5843 18.1479Z" fill="#EAEAEA"/>
<path d="M56.016 28.4357C55.7883 27.7938 55.6089 27.4084 55.5399 27.0035C55.5249 26.9172 55.9102 26.7631 56.1114 26.6411C56.2931 26.9943 56.5277 27.3325 56.6289 27.7075C56.6622 27.8329 56.3541 28.0492 56.016 28.4357Z" fill="#EAEAEA"/>
<path d="M14.6835 21.3298C14.4662 21.607 14.2696 21.8578 14.0798 22.0982C13.2657 21.6577 13.2449 21.3195 13.9717 20.6028C14.1925 20.8271 14.4122 21.0526 14.6835 21.3298Z" fill="#EAEAEA"/>
<path d="M8.6847 3.84762C8.50645 4.76101 7.70261 5.45353 7.16558 5.24187C6.94019 5.15329 6.68607 4.73799 6.70792 4.49526C6.76542 3.86716 7.85096 3.13207 8.37994 3.33914C8.56508 3.41161 8.63985 3.76709 8.6847 3.84762Z" fill="#EAEAEA"/>
<path d="M11.9294 5.04057C11.5165 5.52833 11.2682 5.90911 10.9289 6.17254C10.8151 6.26112 10.308 6.10353 10.262 5.96549C10.1516 5.63533 10.0584 5.11649 10.2343 4.91633C10.5011 4.61494 10.9899 4.45159 11.4096 4.37682C11.5419 4.35381 11.7569 4.80935 11.9294 5.04057Z" fill="#EAEAEA"/>
</svg>
