<svg width="67" height="73" viewBox="0 0 67 73" fill="none" xmlns="http://www.w3.org/2000/svg">
<path d="M66.0535 21.4132C65.7788 19.8401 65.8298 18.1952 65.1335 16.7055C62.768 11.6396 59.497 7.27848 55.1614 3.71486C52.6575 1.65665 49.7986 0.562468 46.6161 0.141871C42.6541 -0.381792 38.9534 0.611392 35.3338 2.01893C27.3702 5.11406 20.8148 9.84473 17.2191 17.9256C15.2897 22.2627 14.2604 26.8216 13.7754 31.5377C13.2166 36.9763 11.2933 41.7257 6.505 44.8906C6.18863 45.0999 5.90868 45.3653 5.62352 45.6183C1.28895 49.4651 -0.723795 54.1697 0.234702 60.0144C0.582299 62.1319 0.801892 64.264 3.15078 65.2489C3.3329 65.3249 3.45884 65.5342 3.60974 65.6831C5.4799 67.5268 7.34798 69.3737 9.22334 71.2122C9.51787 71.5017 9.76243 71.8348 10.2255 71.9451C12.3361 72.448 14.4571 72.802 16.6384 72.5844C22.2187 72.0274 27.6804 70.9624 32.9984 69.1165C38.8285 67.0927 44.4681 64.7856 49.2741 60.7494C59.6833 52.0085 65.8339 41.1073 66.4917 27.3682C66.7456 25.3423 66.3949 23.3694 66.0535 21.4132ZM3.54834 64.0402C2.64708 63.8351 2.01745 63.3344 1.66465 62.3682C-0.460486 56.5434 1.137 50.4906 5.90763 46.5397C6.3312 46.1888 6.72771 45.7943 7.18562 45.4955C12.2029 42.2234 14.1261 37.2501 14.7402 31.6064C15.196 27.414 16.0712 23.3423 17.6281 19.4133C20.7534 11.5282 26.7656 6.65486 34.3305 3.47124C37.7233 2.04288 41.2003 0.863335 45.0072 1.03199C51.5283 1.32141 56.8307 5.03079 59.0121 11.1836C60.8458 16.3577 61.6263 21.7339 60.9748 27.1933C60.4545 31.5512 58.9621 35.701 56.6965 39.4478C50.3273 49.9773 41.3866 57.5501 29.8679 61.9487C23.8984 64.2276 19.9541 64.8419 12.2175 65.0563C9.60008 65.3364 6.56744 64.7273 3.54834 64.0402ZM40.1023 65.2156C32.655 68.5585 24.8621 70.8458 16.6905 71.6536C16.5645 71.6661 16.4386 71.688 16.3116 71.6953C13.7941 71.839 11.3297 72.0951 9.49497 69.6339C8.53231 68.343 7.08884 67.4091 5.65474 66.1286C7.55924 66.1005 8.90489 66.6367 10.0622 67.8839C11.3755 69.2998 12.8252 70.6115 14.8203 71.0946C13.4757 69.3362 11.617 68.1515 9.81238 66.6658C11.3381 66.3806 12.5547 66.492 13.6172 67.5705C14.6652 68.6335 15.9339 69.3653 17.4793 69.6339C16.499 68.2941 15.0399 67.6351 13.6818 66.5752C15.0274 66.2994 16.0338 66.1869 17.0203 67.2624C17.7436 68.0505 18.6616 68.7959 19.9864 69.2019C19.0903 68.0015 18.0059 67.3155 17.0422 66.3098C18.3951 66.0183 19.5451 65.7674 20.6493 66.8147C21.2925 67.4248 22.1209 67.9235 23.3958 67.8298C22.4321 67.1395 21.6598 66.5867 20.6785 65.884C21.7743 65.758 22.6787 65.5081 23.5498 65.5946C24.4011 65.6778 24.8351 66.7783 25.9538 66.8636C25.448 66.2983 25.0245 65.8246 24.5114 65.251C40.8038 60.6473 52.8021 50.958 60.2953 35.7218C61.0695 36.1049 61.5587 37.272 62.8117 37.2553C62.6098 36.5422 62.0697 36.1924 61.6107 35.7791C61.3589 35.5521 61.1039 35.3272 60.8344 35.1242C60.1787 34.6318 60.6137 34.0675 60.8427 33.6532C61.1226 33.1493 61.4765 33.673 61.7731 33.8114C62.0957 33.9624 62.3226 34.3309 62.8304 34.2289C62.2789 33.2909 60.3306 32.9255 61.7127 31.2951C62.0114 31.5034 62.3496 31.7386 62.6879 31.9739C62.0988 31.0401 61.5379 30.0739 62.256 29.0131C62.5942 28.5134 62.8866 29.4493 63.3498 29.2161C63.4736 28.7664 63.0719 28.605 62.794 28.3989C62.4984 28.1792 62.333 27.947 62.3757 27.5535C62.9886 21.8963 62.1269 16.4139 60.4118 11.017C62.4277 13.9383 63.9554 16.9845 64.6444 20.5668C68.6147 41.2041 53.4442 59.2273 40.1023 65.2156Z" fill="#EAEAEA"/>
<path d="M32.8069 38.8678C39.5008 38.8543 47.1646 32.8442 48.7715 26.3468C50.4376 19.6131 44.5795 12.8825 37.768 13.6977C36.6617 13.8299 35.646 14.2713 34.5959 14.592C29.1166 16.265 25.4501 19.8275 23.5852 25.2443C20.7628 33.448 27.2329 39.1823 32.8069 38.8678ZM24.0889 27.3108C25.1733 19.764 32.3927 14.8595 38.0115 14.9126C43.6408 14.9969 47.8712 19.2185 47.6007 24.528C47.4935 26.6195 46.6432 28.4695 45.4443 30.1467C42.7593 33.9019 39.2698 36.5233 34.6813 37.4645C28.3038 38.77 23.1637 33.7509 24.0889 27.3108Z" fill="#EAEAEA"/>
<path d="M44.7085 37.525C44.2204 37.4074 43.7094 37.3876 43.5419 37.3657C39.9035 37.4209 37.3122 39.121 36.0425 42.087C35.4389 43.4966 35.3723 44.8969 36.3838 46.1535C37.3892 47.4028 38.766 47.6859 40.2761 47.3976C42.9216 46.8926 45.0509 45.4893 46.7285 43.4342C48.8276 40.8617 47.9306 38.2996 44.7085 37.525ZM46.2508 42.2369C44.7397 44.5533 42.6531 46.1628 39.8525 46.6001C37.3028 46.9978 35.724 44.9979 36.5899 42.5565C37.5151 39.9507 39.5924 38.4422 42.3013 38.411C43.2401 38.386 44.158 38.5047 45.0384 38.8357C46.714 39.4645 47.2333 40.7305 46.2508 42.2369Z" fill="#EAEAEA"/>
<path d="M32.0378 40.5879C31.1251 39.4031 29.5755 38.9992 28.1591 39.6363C26.5283 40.3692 25.4636 41.6851 24.8215 43.2978C24.0795 45.1634 25.2545 46.7084 27.2849 46.6698C28.7502 46.6417 30.5538 45.6246 31.6933 44.1848C32.7278 42.8772 32.8465 41.6362 32.0378 40.5879ZM31.2146 43.5331C30.2228 44.9437 28.9251 45.8786 27.4181 46.0306C25.6042 46.0129 24.8205 44.9416 25.2951 43.4883C25.7811 42.0027 27.9083 40.4202 29.4589 40.4213C30.3196 40.4213 31.0315 40.7815 31.4831 41.5217C31.9202 42.239 31.6444 42.923 31.2146 43.5331Z" fill="#EAEAEA"/>
<path d="M3.52751 61.6509C7.47493 63.3062 11.464 64.1557 15.5956 62.3869C11.5389 62.6763 7.51968 62.3723 3.52751 61.6509Z" fill="#EAEAEA"/>
<path d="M12.1883 59.8103C9.42108 60.0768 6.63821 59.8467 3.85222 60.1226C6.64653 60.7358 9.46375 61.4417 12.1883 59.8103Z" fill="#EAEAEA"/>
<path d="M9.83214 57.7114C7.99945 57.9019 6.16676 58.0914 4.33302 58.2809C6.23649 58.968 8.08479 59.0804 9.83214 57.7114Z" fill="#EAEAEA"/>
<path d="M32.8288 56.4956C32.3303 56.5674 31.9754 56.8329 31.9046 57.3451C31.8599 57.6668 32.041 57.9365 32.4052 57.9C32.9048 57.85 33.2523 57.5367 33.3554 57.0557C33.4293 56.7132 33.1587 56.5487 32.8288 56.4956Z" fill="#EAEAEA"/>
<path d="M8.12954 56.2227C6.76204 56.1373 5.57667 56.1238 4.44022 56.5943C5.63808 56.686 6.8453 56.9067 8.12954 56.2227Z" fill="#EAEAEA"/>
<path d="M54.9064 11.8249C55.356 11.9186 55.4851 11.5677 55.5194 11.2262C55.5631 10.7848 55.3144 10.5308 54.9002 10.4475C54.4891 10.4673 54.2643 10.6797 54.23 11.0649C54.1894 11.5406 54.5224 11.7447 54.9064 11.8249Z" fill="#EAEAEA"/>
<path d="M56.863 16.9648C57.298 17.0501 57.3875 16.5483 57.45 16.1954C57.4146 15.7779 57.3199 15.4063 56.8526 15.3573C56.4665 15.3167 56.3582 15.6051 56.378 15.9237C56.403 16.336 56.4332 16.8815 56.863 16.9648Z" fill="#EAEAEA"/>
</svg>
