<svg width="42" height="49" viewBox="0 0 42 49" fill="none" xmlns="http://www.w3.org/2000/svg">
<path d="M36.1449 10.5398C37.4133 10.6306 38.6047 10.794 39.6742 11.6131C41.3416 12.89 42.0051 15.4541 41.0127 17.3476C40.4825 18.3588 39.9501 19.3688 39.4189 20.3788C39.3234 20.3604 39.228 20.342 39.1326 20.3236C39.3775 20.6917 39.6017 21.0771 39.872 21.4257C40.516 22.2539 40.4516 23.3146 39.8064 24.1751C38.791 25.5279 37.2443 25.7787 35.9805 26.2078C35.6021 27.5111 35.2951 28.742 34.8846 29.9372C34.3119 31.6041 32.8997 32.4416 31.169 32.2242C30.1007 32.0896 29.0347 31.94 27.6467 31.7537C26.3174 34.0429 24.9063 36.4989 23.4666 38.94C22.925 39.858 22.2304 40.6943 21.7624 41.6457C21.1943 42.8006 20.7884 44.035 20.3227 45.2383C20.0329 45.9883 19.8396 46.7889 19.4533 47.4826C19.1957 47.9462 18.715 48.5329 18.2631 48.6019C15.5883 49.0114 13.1538 48.3603 11.1793 46.4565C10.8331 46.1229 10.6526 45.3636 10.7469 44.8678C11.4001 41.4489 12.051 38.0324 11.9877 34.5318C11.9463 32.2253 11.5473 29.9752 10.625 27.8482C10.5376 27.6457 10.0524 27.4352 9.83041 27.4996C7.19355 28.2692 4.05758 25.8247 3.21351 23.4273C2.75927 22.1366 2.50057 20.9207 3.0054 19.6323C3.22619 19.0686 2.88924 18.8235 2.50286 18.6521C1.09415 18.0263 0.635337 16.7506 0.220202 15.4311C-0.549121 12.9878 0.8182 11.3496 2.46839 10.2993C3.30901 9.76443 4.3037 9.47107 5.40422 8.99367C3.92882 4.92368 6.02289 2.15244 9.50726 0.617851C12.2419 -0.587732 15.1605 0.00587963 17.2695 2.09379C18.27 1.6371 19.1612 0.948038 20.0972 0.880166C21.0551 0.811144 22.0441 1.36792 22.4524 2.48607C23.8795 1.7924 25.2709 1.63018 26.7624 2.14554C27.6824 2.46304 28.3229 3.00026 28.7588 3.82622C29.6155 5.44824 29.6408 5.53912 31.322 4.95703C32.3731 4.59237 33.1919 5.01685 34.0624 5.34356C34.4798 5.50001 34.8156 5.86698 35.2008 6.11776C36.5785 7.01389 36.3577 8.34832 36.1795 9.66894C36.1519 9.87831 36.0805 10.0819 36.0437 10.2913C36.0345 10.3385 36.084 10.3983 36.1449 10.5398ZM29.1854 8.21259C28.8691 7.85483 28.485 7.5914 28.3631 7.23709C28.2263 6.83791 28.3068 6.35706 28.3229 5.91302C28.377 4.45435 27.6582 3.40177 26.3128 2.99224C24.6637 2.49068 23.9381 2.76792 23.0411 4.24729C22.9181 4.4509 22.848 4.7166 22.6743 4.85235C22.4731 5.00995 22.1384 5.18022 21.9452 5.11235C21.7486 5.04217 21.6083 4.70166 21.5312 4.45203C21.4852 4.30478 21.6255 4.10692 21.652 3.92631C21.7658 3.14866 21.4002 2.61491 20.7757 2.20308C20.1858 1.81426 19.5326 1.81425 19.1371 2.33076C18.8415 2.71728 18.8817 3.35229 18.7288 3.86305C18.6333 4.18285 18.4539 4.47733 18.3125 4.78333C17.979 4.60847 17.5455 4.51416 17.3293 4.24497C16.5002 3.21769 15.6998 2.20766 14.3532 1.78893C12.7639 1.29542 11.3127 1.34835 9.73608 2.07308C6.78988 3.42936 5.21794 6.571 7.40977 9.30082C7.74441 9.71725 7.57533 10.0474 7.10845 10.2142C6.85891 10.3039 6.58407 10.3661 6.32073 10.3684C5.00403 10.3776 3.90698 10.9527 2.86741 11.6763C1.94744 12.3171 1.31609 13.2305 1.37128 14.3245C1.47248 16.3457 2.96746 17.5858 5.02934 17.6272C5.27543 17.6318 5.63767 17.8112 5.72392 18.0079C5.81017 18.2035 5.65378 18.5406 5.53189 18.7799C5.42724 18.9858 5.25124 19.1836 5.05805 19.3102C4.43822 19.7185 4.2416 20.2914 4.23355 21.0058C4.2117 23.0305 5.97112 25.4474 7.9387 26.0421C9.22781 26.4321 11.7761 25.3622 12.5512 23.9496C12.8847 23.341 13.1894 23.31 13.6862 23.5286C14.2002 23.754 14.5418 24.0761 14.2899 24.7238C14.1726 25.0252 13.9909 25.5359 14.1174 25.6556C14.6395 26.1479 15.2179 26.676 15.8746 26.906C16.5117 27.1292 16.5864 26.3964 16.8199 25.9512C16.974 25.6556 17.4224 25.2391 17.611 25.2966C17.9457 25.399 18.2584 25.7787 18.4447 26.1169C18.8001 26.7611 19.075 27.4513 19.3555 28.1335C19.9294 29.53 21.1345 30.1167 22.4696 30.1915C23.7955 30.2662 24.4556 29.1953 24.9236 28.0805C25.1939 27.4363 25.8206 27.2362 26.3564 27.686C26.6117 27.9 26.8095 28.2083 26.9671 28.5085C27.3109 29.1642 27.6467 29.7819 28.4827 29.9303C29.3831 30.0902 30.2652 30.41 31.169 30.4768C31.7371 30.5193 32.4409 30.3767 32.8905 30.0511C33.9554 29.2781 34.3257 27.4294 33.7254 26.003C33.5529 25.5946 33.5103 25.1299 33.4241 24.7583C34.7431 24.5616 35.8839 24.4166 37.0155 24.2165C37.9239 24.0554 38.5771 23.5562 38.7059 22.5852C38.8174 21.7466 38.0757 21.6304 37.5651 21.2968C36.698 20.7286 36.5646 19.9187 37.2719 19.5437C38.6472 18.8132 39.4718 17.7744 39.8455 16.2099C40.2687 14.4338 39.596 12.9015 37.7974 12.4517C36.9131 12.2308 35.9759 12.1894 35.0594 12.1399C34.3867 12.1031 34.0612 11.7787 34.236 11.1357C34.4189 10.4592 34.6247 9.78859 34.8202 9.11447C35.1123 8.1079 34.5983 6.98054 33.584 6.64463C31.5831 5.98202 30.5182 5.94982 29.1854 8.21259ZM12.688 26.4562C11.7945 26.6311 11.6405 26.9958 11.9498 27.824C12.4477 29.1619 12.9457 30.5492 13.0974 31.9538C13.3136 33.9543 13.3378 35.9962 13.2228 38.0082C13.094 40.2675 12.7594 42.5176 12.4328 44.7597C12.2787 45.8134 12.396 46.1137 13.4447 46.5198C14.5039 46.9293 15.525 47.3239 16.7175 47.3181C17.6007 47.3147 18.0595 47.0915 18.3171 46.269C18.7058 45.0289 19.1198 43.7957 19.5752 42.5786C20.8171 39.2575 22.9583 36.4357 24.7178 33.4021C25.2445 32.4945 25.8988 31.6605 26.5209 30.754C26.2231 30.4733 26.0138 30.2766 25.885 30.1547C25.0513 31.0761 24.1371 31.8768 23.4827 32.8511C22.1281 34.8712 20.9195 36.9901 19.6315 39.055C19.3371 39.5267 18.9875 40.1364 18.3263 39.889C17.7157 39.6613 17.4247 39.1252 17.7214 38.4097C17.8065 38.2061 17.741 37.9415 17.7582 37.7057C17.8663 36.2228 17.8249 34.7297 18.6 33.3515C19.7131 31.374 19.6545 31.1279 18.3171 29.7612C18.2999 29.744 18.2584 29.7509 18.1205 29.7313C18.0285 30.2432 17.933 30.7632 17.8422 31.2832C17.5351 33.0559 17.2637 34.8355 16.8934 36.5956C16.8302 36.8935 16.338 37.318 16.0689 37.2996C15.7734 37.28 15.3249 36.8556 15.2582 36.5415C14.9385 35.0288 14.597 33.4999 14.505 31.963C14.3866 29.9533 13.7495 28.1737 12.688 26.4562ZM19.5107 35.658C19.5832 35.681 19.6556 35.704 19.7292 35.727C19.9121 35.4348 20.0892 35.1403 20.2778 34.8516C20.8275 34.0095 21.3944 33.179 21.928 32.3277C22.1316 32.001 22.166 31.6984 21.6049 31.7088C21.3783 31.7134 21.1495 31.6202 20.9172 31.5708C20.3157 32.9362 19.7373 34.2454 19.5107 35.658ZM16.8532 28.329C16.1563 28.405 15.6389 28.4613 15.0351 28.5269C15.3617 29.7371 15.6676 30.8748 15.9747 32.0125C16.0575 32.0113 16.1403 32.0102 16.2231 32.0102C16.4232 30.8403 16.6232 29.6715 16.8532 28.329Z" fill="#EAEAEA"/>
<path d="M14.4475 19.554C14.1945 19.301 13.7092 18.9064 13.3562 18.4163C13.2262 18.2357 13.408 17.8308 13.4471 17.5282C13.7737 17.6099 14.2014 17.5869 14.4072 17.7905C15.2134 18.5866 15.8447 18.5532 16.56 17.6433C16.7382 17.4166 17.0832 17.32 17.3511 17.1636C17.427 17.5984 17.6916 18.1195 17.5409 18.452C17.1016 19.4217 15.7504 19.9176 14.4475 19.554Z" fill="#EAEAEA"/>
<path d="M28.4886 28.3439C29.9352 28.1529 30.5746 27.4051 30.5482 26.1144C30.5436 25.8671 30.7736 25.6163 30.8955 25.3667C31.1623 25.5243 31.5165 25.6209 31.6798 25.8522C32.0868 26.4262 31.8269 27.9182 31.3094 28.368C30.5999 28.9835 29.2947 28.9984 28.4886 28.3439Z" fill="#EAEAEA"/>
<path d="M36.1992 14.2554C37.0628 14.5154 37.1445 15.2481 37.1882 15.867C37.2227 16.3548 37.0352 16.9242 36.3418 17.0116C36.2935 16.0844 36.2509 15.2389 36.1992 14.2554Z" fill="#EAEAEA"/>
<path d="M9.35667 24.2074C9.14163 23.7438 8.93919 23.4355 8.8794 23.103C8.85985 22.9972 9.21979 22.8235 9.40609 22.6797C9.60388 23.0213 9.82472 23.3526 9.97307 23.715C9.99492 23.7668 9.66831 23.9623 9.35667 24.2074Z" fill="#EAEAEA"/>
<path d="M23.6487 25.8914C23.3417 25.6935 23.0346 25.4945 22.7276 25.2967C22.8587 25.1253 22.9898 24.9539 23.1209 24.7825C23.4072 25.0183 23.6936 25.2553 23.9799 25.4911C23.8695 25.6234 23.7591 25.758 23.6487 25.8914Z" fill="#EAEAEA"/>
<path d="M34.8579 22.1733C35.6158 21.9294 35.6399 21.9421 36.0884 23.074C35.4927 22.8244 35.1098 22.6645 34.728 22.5046C34.7706 22.3942 34.8142 22.2837 34.8579 22.1733Z" fill="#EAEAEA"/>
<path d="M16.405 44.8182C16.6833 43.8588 16.9375 42.9857 17.1974 42.093C18.1139 42.5371 18.4669 43.4861 18.1185 44.2902C17.816 44.9873 17.2077 45.1587 16.405 44.8182Z" fill="#EAEAEA"/>
<path d="M13.7974 44.1524C14.3425 43.9384 14.6598 43.6876 14.9301 43.7313C15.7224 43.8613 15.5281 44.5952 15.5373 45.1025C15.5396 45.2222 14.7541 45.5546 14.5448 45.4304C14.2343 45.2463 14.1159 44.7402 13.7974 44.1524Z" fill="#EAEAEA"/>
</svg>
