<svg width="55" height="90" viewBox="0 0 55 90" fill="none" xmlns="http://www.w3.org/2000/svg">
<path d="M83.9326 40.4238C81.0353 31.6985 76.1522 24.3464 69.1982 18.3341C67.2666 16.8058 65.3424 15.2682 63.4035 13.7503C56.1175 8.04306 48.2882 3.36966 39.2038 1.10844C35.4843 0.182916 31.718 -0.404256 27.9027 0.333869C24.0479 1.07824 22.3849 5.21133 24.6162 8.49698C25.1938 9.3465 25.1386 9.91805 24.6994 10.7467C20.1245 19.3919 16.4403 28.4024 13.5472 37.7503C9.40929 51.124 4.85823 64.3686 1.07732 77.8537C0.558001 79.7058 0.0147775 81.5641 0.000207527 83.5078C-0.0258103 87.0475 2.39695 89.3847 5.92809 89.2858C7.93354 89.2296 9.80578 88.6247 11.6333 87.8741C16.2665 85.9721 20.9154 84.0815 25.3676 81.7942C42.4821 72.9981 59.249 63.6117 74.5807 51.8736C75.2739 51.3426 75.8619 50.9824 76.7923 51.5633C80.0122 53.5726 82.4486 52.0724 83.5684 48.9627C84.5342 46.2871 84.9109 43.3679 83.9326 40.4238ZM68.4114 53.8266C53.9112 63.7825 38.7844 72.6754 23.001 80.4335C19.1555 82.3241 15.1623 83.9159 11.2316 85.6316C9.6705 86.3125 8.06157 86.8643 6.35688 87.0433C3.57922 87.3348 1.97652 85.7472 2.26584 82.981C2.48127 80.9249 3.07343 78.95 3.65102 76.974C8.64332 59.8951 13.9988 42.9296 19.7175 26.0798C21.5544 20.6682 24.2165 15.5701 25.8411 9.97634C28.9299 12.6478 32.5464 14.1438 35.9995 15.9168C41.0396 18.5049 45.6864 21.6479 49.9534 25.3854C54.9571 29.7683 59.3343 34.7239 63.6138 39.7939C66.6974 43.446 69.808 47.1002 73.9251 49.9882C72.031 51.3072 70.2285 52.5784 68.4114 53.8266ZM77.577 49.6842C74.8659 48.1892 72.4442 46.3454 70.3097 44.1081C67.4966 41.1588 64.8834 38.0345 62.239 34.9352C55.4494 26.9793 47.9042 19.9072 38.6169 14.9027C36.1785 13.5889 33.6797 12.3885 31.2184 11.1163C29.6199 10.2897 28.1588 9.26426 26.8683 8.00143C25.8421 6.99679 25.5799 5.80475 25.9118 4.43365C26.2511 3.03443 27.2669 2.52326 28.5584 2.37751C29.4742 2.27444 30.3952 2.21406 31.6732 2.1037C28.2108 5.26963 27.7206 6.53871 29.2026 8.24816C29.418 6.07231 30.6554 4.53775 32.0593 3.07816C32.6786 2.43477 33.3165 2.21199 34.2053 2.34316C41.0282 3.34884 47.3318 5.7454 53.2108 9.31943C59.5456 13.1714 65.4506 17.5918 70.754 22.7754C73.1852 25.1511 75.4113 27.7205 77.27 30.6012C77.8736 31.5371 77.783 32.194 77.1576 32.9738C75.6017 34.9154 73.7347 36.5031 71.6928 37.9044C70.5907 38.6612 69.4594 39.39 68.6726 40.5341C71.0735 41.2337 75.5112 37.7066 78.4408 32.7468C80.3484 35.7098 81.9303 38.7029 82.1187 42.2727C82.2019 43.8416 82.2903 45.3991 82.0499 46.9607C81.9604 47.5406 81.8585 48.1069 81.5765 48.6254C80.6242 50.3755 79.341 50.6565 77.577 49.6842Z" fill="#EAEAEA"/>
<path d="M61.8685 39.3649C60.3272 38.6559 58.713 38.4352 57.051 38.3769C52.0285 38.201 48.1612 40.1842 45.779 44.6557C44.2898 47.451 44.5968 50.2411 46.3004 52.925C49.049 57.2517 57.3955 58.9685 61.6114 54.0056C63.9905 51.3634 65.2955 48.8138 65.6182 45.8207C65.9345 42.8671 64.566 40.6059 61.8685 39.3649ZM48.4391 53.1988C46.085 51.0261 45.5334 47.9976 46.9675 45.1273C49.0021 41.0567 53.9122 38.5935 58.1542 39.621C56.666 40.7339 55.2402 41.7761 53.8404 42.8525C52.4646 43.9103 50.8921 44.7567 49.9679 46.4547C51.7361 45.9071 52.9308 44.6307 54.2744 43.5948C55.7626 42.4476 57.2404 41.2826 58.6766 40.0718C59.6226 39.2743 60.3594 39.9417 61.1025 40.3446C61.5583 40.5913 61.1795 40.8568 60.9183 41.0296C60.1357 41.5481 59.3635 42.0842 58.558 42.5652C56.5307 43.7739 54.9196 45.449 53.1078 47.3823C56.1404 45.8467 58.8442 44.3871 61.0161 42.1061C61.4387 41.6626 61.8893 40.9401 62.5772 41.9145C63.0767 42.6225 63.4951 43.093 62.4242 43.7843C60.3927 45.0961 58.5809 46.7077 56.9459 48.5056C56.4994 48.997 56.0155 49.4551 55.8001 50.1703C58.5892 48.4848 61.1785 46.6139 63.6751 44.1726C63.7709 47.755 62.4336 50.4368 60.2689 52.7719C57.178 56.1065 51.7871 56.2887 48.4391 53.1988Z" fill="#EAEAEA"/>
<path d="M39.8054 27.4695C39.8678 24.845 38.6116 22.8107 37.1255 20.7733C35.7518 18.89 34.0586 17.9884 31.7825 18.0759C26.8527 18.2653 22.0727 23.4218 22.0706 28.547C22.0695 31.7879 23.9803 34.4812 27.1711 35.7347C30.8344 37.1734 34.8849 36.4478 37.2671 33.9305C38.9468 32.1054 39.7471 29.94 39.8054 27.4695ZM25.3113 32.6447C24.0531 31.4298 23.436 29.9296 23.5047 28.1806C23.6535 24.3754 26.8953 20.2559 30.5565 19.2034C30.9832 19.0805 31.4308 19.0274 31.872 18.9629C32.1978 18.915 32.562 18.9701 32.6921 19.2793C32.8732 19.7104 32.3892 19.7416 32.1686 19.8957C30.6596 20.9586 29.2692 22.1434 28.1785 23.6488C28.0557 23.8174 27.8476 23.9684 28.0307 24.2786C29.8561 23.2344 31.3329 21.7311 33.0418 20.5432C33.7255 20.0674 35.0389 20.5276 35.2512 21.3094C35.373 21.7582 34.9442 21.78 34.7371 21.9591C33.4112 23.1074 31.8012 23.985 31.104 25.8746C32.8628 25.3665 33.8452 23.9767 34.965 22.8315C35.7341 22.0455 36.089 22.0507 36.6905 22.9627C38.8812 26.2806 38.3192 30.8176 35.3438 33.3152C32.8107 35.4432 27.8736 35.1204 25.3113 32.6447Z" fill="#EAEAEA"/>
<path d="M28.7436 56.7709C26.8995 54.9948 24.9773 54.4159 22.6565 54.4222C15.0364 54.443 10.9703 63.7607 14.693 70.1133C18.0805 75.8944 26.0575 76.3463 30.0289 70.9597C33.1771 66.6882 32.818 61.0205 28.7436 56.7709ZM26.1023 56.6272C22.6086 56.8146 19.55 58.3585 16.0855 59.2184C18.6373 55.2644 23.5848 54.0016 26.1023 56.6272ZM26.4894 71.9706C23.8908 73.603 20.4616 73.5187 17.9181 71.549C15.5495 69.7156 14.3818 67.2327 14.6243 64.176C14.6441 63.7357 14.6357 63.2922 14.6899 62.856C14.9136 61.0664 15.5339 59.8681 17.6538 59.4693C20.3878 58.954 23.1269 58.2575 25.7256 57.1831C26.3354 56.9312 26.7684 57.0197 27.0889 57.5475C27.4625 58.1628 28.2743 58.4813 28.2951 59.3319C25.6631 59.4756 23.18 60.3012 20.7333 61.1632C18.9058 61.8066 17.0388 62.4468 15.4496 63.6378C17.76 63.3203 19.9548 62.5374 22.1237 61.7628C24.203 61.0205 26.4249 60.602 28.3065 59.3454C29.5845 60.3719 29.9342 61.8649 30.2131 63.3494C30.8261 66.6143 29.2203 70.2549 26.4894 71.9706Z" fill="#EAEAEA"/>
<path d="M11.4449 59.7316C9.33121 65.1952 7.61924 70.7942 5.88645 76.3848C5.65021 77.1468 5.58674 77.9651 5.46706 78.7605C5.40566 79.1717 5.3713 79.5965 5.8417 80.1077C7.93874 73.172 10.0462 66.4091 11.8466 59.2913C11.6114 59.5442 11.4876 59.6223 11.4449 59.7316Z" fill="#EAEAEA"/>
<path d="M24.3394 48.284C24.6308 48.6421 26.657 48.7826 27.0275 48.4776C27.4594 48.1216 27.2908 47.7114 26.9984 47.4459C26.196 46.7192 25.3821 46.9431 24.6464 47.5032C24.4289 47.7624 24.023 47.8946 24.3394 48.284Z" fill="#EAEAEA"/>
<path d="M40.2258 66.2728C39.9146 65.8564 39.2819 66.2249 38.8437 66.5102C38.5846 66.6788 38.3317 66.8547 38.1173 66.9984C37.8467 67.3482 37.4482 67.6314 37.7573 68.0676C37.9945 68.4028 38.4056 68.3352 38.7386 68.2175C39.0665 68.1009 39.3818 67.9229 39.6701 67.7241C40.1863 67.369 40.5973 66.7704 40.2258 66.2728Z" fill="#EAEAEA"/>
<path d="M45.8363 34.4012C46.7594 34.5345 47.4463 34.0941 48.002 33.4007C48.0291 33.3664 48.0447 33.3227 48.1196 33.179C47.1205 33.0353 46.3535 33.2487 45.7655 33.9608C45.6375 34.117 45.6583 34.3752 45.8363 34.4012Z" fill="#EAEAEA"/>
<path d="M43.2761 62.8923C44.1524 62.9703 44.6811 62.581 44.7987 61.6294C43.9484 61.5753 43.1554 61.6107 42.7516 62.4446C42.6215 62.7132 43.0347 62.8714 43.2761 62.8923Z" fill="#EAEAEA"/>
<path d="M22.8875 40.7652C23.1914 40.3123 23.36 39.7991 22.9791 39.316C22.7315 39.0026 22.4088 39.2046 22.1799 39.4326C21.775 39.8355 21.7646 40.3102 22.0727 40.7569C22.2891 41.0723 22.5951 41.0265 22.8875 40.7652Z" fill="#EAEAEA"/>
<path d="M50.9462 61.2277C50.5601 60.9518 50.201 61.007 49.9138 61.3693C49.7306 61.5993 49.4767 61.895 49.8087 62.1636C50.176 62.4603 50.6194 62.553 50.9982 62.1709C51.3011 61.8659 51.2001 61.5337 50.9462 61.2277Z" fill="#EAEAEA"/>
<path d="M40.3674 54.6959C40.8045 54.5325 40.7784 54.0661 40.9033 53.7069C41.0063 53.4092 41.0365 53.0937 40.7097 52.8064C40.5245 52.974 40.3143 53.126 40.154 53.3196C39.8855 53.6445 39.7471 54.0276 39.9625 54.4284C40.0343 54.5596 40.2747 54.7313 40.3674 54.6959Z" fill="#EAEAEA"/>
<path d="M16.0126 48.0986C15.7451 47.8384 15.4402 47.8904 15.1904 48.1372C14.9354 48.3881 14.9042 48.7004 15.1571 48.9596C15.4183 49.2272 15.7149 49.1428 15.9845 48.9232C16.1968 48.6546 16.2852 48.3641 16.0126 48.0986Z" fill="#EAEAEA"/>
<path d="M60.2481 16.101C57.4684 16.0667 53.1307 21.0045 53.5678 23.4198C55.5357 20.8421 57.7514 18.482 60.2481 16.101Z" fill="#EAEAEA"/>
<path d="M35.1086 3.50391C32.0177 4.14938 30.0133 6.75936 30.8136 9.04973C31.7117 6.79059 33.3769 5.28311 35.1086 3.50391Z" fill="#EAEAEA"/>
<path d="M35.0337 9.4172C36.0723 7.88265 37.2837 6.59795 38.6991 5.04883C36.0442 5.55271 34.4956 7.47454 35.0337 9.4172Z" fill="#EAEAEA"/>
<path d="M32.9606 8.89464C34.1397 7.43504 35.3251 6.17325 36.2576 4.59497C34.2095 4.9531 32.5901 7.03631 32.9606 8.89464Z" fill="#EAEAEA"/>
<path d="M37.6355 9.81178C38.8812 8.70199 39.8626 7.65362 40.4163 6.21484C39.1258 7.00919 37.905 7.89515 37.6355 9.81178Z" fill="#EAEAEA"/>
<path d="M27.4989 63.9126C24.2738 64.227 20.291 65.6283 17.4987 67.4137C21.2016 67.0348 24.2571 65.6325 27.4989 63.9126Z" fill="#EAEAEA"/>
<path d="M25.148 70.3882C23.9533 70.3903 23.0312 70.9316 22.1809 71.6385C23.3486 71.625 24.4018 71.3397 25.148 70.3882Z" fill="#EAEAEA"/>
</svg>
