<svg width="120" height="66" viewBox="0 0 120 66" fill="none" xmlns="http://www.w3.org/2000/svg">
<path d="M3.99324 49.3169C4.28984 49.1909 4.5417 48.9629 4.83414 48.8244C5.66567 48.4299 6.50032 48.0416 7.34642 47.6803C8.18523 47.3232 8.57758 47.6574 8.5474 48.5381C8.50889 49.676 8.44437 50.8129 8.42043 51.9508C8.39441 53.1387 8.78468 54.3359 10.0106 54.4567C11.655 54.6191 11.8027 55.6758 12.0588 56.8428C12.2097 57.531 12.5136 58.1942 12.6031 58.8865C12.9923 61.9056 14.9613 63.3798 17.6547 64.1637C18.4852 64.4063 19.3229 64.6728 20.1763 64.7842C25.4881 65.4838 30.8134 65.8451 36.1846 65.6962C42.5662 65.5192 48.9551 65.8596 55.3389 65.4609C62.0369 65.0424 68.7058 63.9378 75.4527 64.601C75.8555 64.6405 76.3238 64.4812 76.6964 64.2887C78.3802 63.4193 80.0922 62.5875 81.7022 61.5933C94.5321 53.6738 106.188 44.0719 118.694 35.6871C119.679 35.027 119.97 34.1244 119.545 32.9948C118.78 30.9668 118.073 28.9148 117.253 26.9097C116.867 25.9655 116.964 25.5261 118.063 25.4709C118.644 25.4418 119.322 25.3866 119.507 24.6547C119.684 23.952 119.122 23.5762 118.7 23.1722C116.698 21.2577 114.684 19.339 112.317 17.8919C110.888 17.0184 110.134 15.7046 109.308 14.3657C108.537 13.1164 106.588 12.3742 107.701 10.367C107.739 10.2993 107.663 10.1587 107.625 10.0578C106.609 7.36968 105.53 4.70348 104.597 1.9873C104.171 0.7505 103.413 0.353841 102.199 0.251815C97.2099 -0.16774 92.2269 -0.0292725 87.2544 0.418392C78.3667 1.21794 69.4957 2.24236 60.5955 2.84619C56.8021 3.10334 53.4656 4.15171 50.1135 5.84971C37.3897 12.294 24.7201 18.8247 12.6155 26.3933C9.21866 28.5171 5.63549 30.339 2.40095 32.7231C2.38638 32.72 2.37285 32.7158 2.35828 32.7127C1.81815 32.694 1.64852 33.1739 1.73073 33.4675C2.36765 35.7495 2.19385 38.2804 3.62483 40.3042C4.13582 41.0278 3.92247 41.4068 3.51243 41.9637C2.44674 43.4087 1.49449 44.9391 0.849249 46.6142C0.469389 47.6012 -0.64105 48.7328 0.504774 49.7166C1.62666 50.6817 2.86407 49.7958 3.99324 49.3169ZM14.1537 58.7647C13.8321 57.6872 13.2566 56.6877 12.857 55.63C12.6905 55.1886 11.8298 54.5181 12.9319 54.2703C13.65 54.1079 14.6148 53.7748 14.9447 55.1126C15.5098 57.405 15.9958 59.7381 17.3987 62.0149C15.4546 61.4465 14.62 60.3253 14.1537 58.7647ZM13.5917 53.4604C14.7573 52.336 15.6305 51.4053 16.5952 50.5828C18.5851 48.8879 19.835 49.1024 21.1379 51.3209C21.5126 51.9581 21.7884 52.6535 22.2296 53.5718C19.2886 53.5343 16.6171 53.4999 13.5917 53.4604ZM115.472 35.1936C104.698 42.5644 94.4759 50.714 83.5391 57.8579C81.0923 59.456 78.5634 60.8822 75.8773 62.1013C75.2415 60.9041 75.4777 59.355 74.2455 58.3815C73.3172 59.8005 74.1966 60.9582 74.8658 62.3116C70.8632 62.2117 67.0438 62.2075 63.2368 62.6687C54.6666 63.7067 46.0474 64.0607 37.4293 63.9878C31.9707 63.942 26.5184 63.3683 21.062 63.0518C19.7351 62.9748 18.9493 62.4366 18.4706 61.0936C17.6786 58.8667 16.6337 56.7294 15.6867 54.5348C17.3425 54.1267 18.2156 54.5858 18.6746 56.1849C19.1054 57.6819 19.8558 59.0968 20.5531 60.5033C20.8309 61.0623 21.2878 61.5777 22.2057 61.7359C21.0963 59.3477 20.0431 57.0823 18.9847 54.8034C21.2118 54.3547 21.294 54.3515 21.5938 56.4889C21.8862 58.571 22.8988 60.2128 24.4599 61.9223C24.0218 59.279 22.8551 57.1448 22.1245 54.5483C23.5753 55.1823 24.8585 55.2625 25.1447 57.1323C25.4319 59.0072 25.4767 61.2081 27.735 62.3189C27.659 60.2607 26.6121 58.6168 26.0158 56.8335C25.9002 56.4878 25.2873 56.0402 25.8919 55.7539C26.7422 55.352 27.5394 54.694 28.6207 54.9397C29.344 55.1042 28.8798 55.6269 28.9974 55.961C29.7113 57.9932 29.7571 60.3586 32.0103 61.8379C31.8791 59.2342 30.6865 57.2374 29.5146 54.9606C32.156 55.0345 34.7213 55.099 37.2856 55.1834C37.8788 55.2031 38.496 55.4259 39.058 55.3208C45.4375 54.1214 51.9201 54.5816 58.3434 54.1006C62.9819 53.7529 67.5058 54.8512 72.034 55.6779C74.2757 56.087 74.3537 56.036 75.2456 53.9112C76.0553 51.981 77.6278 50.7067 79.3793 49.6729C85.9629 45.7866 92.459 41.7597 98.9239 37.6786C102.878 35.1821 106.655 32.4712 110.093 29.2927C111.171 28.2964 112.36 27.4334 113.675 26.7723C114.052 26.5828 114.516 26.0904 114.888 26.8316C115.168 27.3897 114.915 27.6947 114.473 28.0393C111.396 30.4358 108.302 32.8147 105.48 35.5205C105.222 35.7683 104.955 36.0056 104.622 36.3127C108.886 34.5054 112.161 31.5467 115.178 28.2673C116.308 29.4812 116.283 30.3474 114.925 31.3322C112.965 32.7533 111.208 34.4419 109.237 36.5522C112.394 35.3477 114.263 33.1364 116.435 31.3124C117.539 33.7777 117.54 33.7788 115.472 35.1936ZM34.764 53.602C32.5473 53.8664 30.5335 53.7352 28.3147 53.7154C29.6239 51.7395 30.7198 49.904 32.8251 48.5132C32.9074 50.5183 33.3882 52.1465 34.764 53.602ZM43.1501 53.2365C47.4586 48.4174 47.0319 49.5678 52.2677 52.9034C48.9926 53.0231 46.1494 53.1272 43.1501 53.2365ZM110.697 19.29C111.17 18.7091 111.472 19.2692 111.766 19.466C113.619 20.7007 115.28 22.1686 117.062 23.8718C112.412 24.7047 109.381 27.8238 106.105 30.5962C101.493 34.4981 96.2243 37.4454 91.1373 40.6488C87.2398 43.1027 83.2508 45.4107 79.3138 47.8011C76.8806 49.2784 74.565 50.8868 73.5753 53.7571C73.2756 54.6253 72.6751 54.1183 72.2234 54.0465C68.0626 53.3864 63.9424 52.4214 59.534 52.4911C61.0451 50.1039 61.9578 47.4231 64.775 46.2686C65.491 45.975 66.1456 46.0989 66.8169 46.2207C69.2709 46.6673 71.7082 47.2191 74.1716 47.5991C77.1928 48.0645 78.0441 47.2639 77.9567 44.2895C77.9223 43.137 78.0836 42.0116 78.5717 40.958C79.2035 39.5911 80.0985 38.7333 81.7855 38.676C84.5465 38.5802 87.295 38.2169 90.0175 37.6963C93.1511 37.0977 94.2407 35.9546 94.556 32.8272C94.7413 30.9939 95.2335 30.4952 97.1266 30.4265C98.595 30.3723 100.058 30.3203 101.463 29.8456C103.023 29.3188 103.87 28.3037 103.805 26.5662C103.752 25.1607 103.822 23.75 103.863 22.3425C103.897 21.1942 104.463 20.7319 105.652 20.8423C107.523 21.0162 109.366 20.9277 110.697 19.29ZM102.925 5.77579C100.811 7.95061 98.7917 10.2191 96.7259 12.4429C96.1702 13.0415 95.6249 13.6412 95.3647 14.4376C97.5658 13.7182 100.881 10.4648 104.202 5.74143C104.54 6.35151 104.88 6.87517 104.627 7.57061C104.619 7.56749 104.57 7.54771 104.57 7.54771C104.584 7.56645 104.589 7.58311 104.601 7.6008L104.605 7.59663C105.986 9.38105 106.266 10.6855 104.856 12.3054C100.759 17.0111 95.6706 20.531 90.8802 24.4174C84.9607 29.2188 78.1992 32.4837 71.2493 35.4341C68.6975 36.5178 66.3871 38.0451 64.0288 39.4839C63.3045 39.9253 62.6176 40.3011 62.398 38.9144C62.2097 37.7192 61.3188 36.802 60.7194 35.7828C60.2989 35.0676 60.251 34.7095 61.043 34.3087C68.5559 30.5056 75.5506 25.8499 82.3828 20.9745C89.2214 16.0939 95.602 10.6272 101.594 4.72326C102.181 4.14442 102.633 3.4927 102.759 2.45995C103.858 3.68634 104.036 4.63373 102.925 5.77579ZM33.768 15.7858C40.0144 12.6719 46.2274 9.49869 52.4009 6.24324C54.7373 5.0106 57.1913 4.44633 59.9066 4.52753C64.0642 4.65246 68.1865 3.94141 72.3191 3.47084C76.0834 3.04191 79.8934 3.02838 83.6723 2.70252C88.9008 2.25173 94.0825 1.15131 99.3756 1.64687C100.218 1.72599 101.06 1.78325 102.129 1.86861C97.5835 7.16979 92.3581 11.2956 87.1961 15.4766C78.8746 22.2176 69.8735 27.9435 60.4675 33.0375C58.717 33.9859 56.7282 34.1671 54.7842 34.2972C38.6406 35.3789 22.5054 35.8151 6.40145 33.6538C5.03083 33.4696 3.7518 33.0104 2.41864 32.7273C13.1494 27.5989 23.1351 21.087 33.768 15.7858ZM18.2552 41.8273C18.3873 42.2229 18.6142 42.5873 18.8119 42.9881C17.6411 43.315 17.0198 42.9246 16.5838 41.8211C16.0998 40.5957 15.5909 39.3173 14.3192 38.3887C14.0257 40.1252 15.0737 41.3661 15.4869 42.8205C11.528 43.162 12.3991 39.0414 10.3843 37.5277C10.1386 39.2267 11.1086 40.6655 11.195 42.2469C10.1262 42.5009 9.64951 41.9835 9.28422 41.034C8.69206 39.4932 8.26953 37.866 7.10393 36.0816C6.97905 38.1627 7.5504 39.7015 7.72836 41.3422C6.07154 39.2996 5.59282 36.7667 4.72174 34.1421C6.81461 34.4492 8.71599 34.7365 10.6195 35.0051C24.1029 36.9062 37.6374 36.6261 51.1802 35.9328C53.6696 35.8057 56.1683 35.7152 58.6088 35.1592C59.4258 34.9729 59.7151 35.1988 59.9638 35.9786C60.4509 37.5079 60.7329 39.1195 61.8589 40.6551C57.8376 40.9237 54.0786 41.1434 50.3247 41.4307C41.6816 42.0907 33.0406 42.7726 24.3798 43.1849C21.882 43.3036 19.4197 43.5899 18.2937 40.5354C17.8274 41.1173 18.1376 41.4775 18.2552 41.8273ZM3.25746 33.5643C3.77677 33.5112 3.92768 33.9943 3.97763 34.4638C4.16808 36.2451 4.64889 37.9681 5.1349 39.843C4.21595 39.3787 4.04632 38.6063 3.84338 37.8692C3.54053 36.7729 3.21791 35.6777 2.99416 34.5648C2.93171 34.2608 2.55394 33.6361 3.25746 33.5643ZM1.54861 47.6168C2.35516 45.899 3.24705 44.2197 4.03487 42.4936C4.44491 41.5952 4.84767 41.4276 5.72603 41.9877C7.21112 42.9351 8.86065 43.4056 10.633 43.6857C19.1221 45.0266 27.6049 44.4321 36.1034 43.8762C44.8651 43.3026 53.605 42.3916 62.3887 42.1761C63.47 42.149 64.0413 41.4026 64.7677 40.9185C69.3125 37.89 74.3506 35.8567 79.2878 33.6309C85.2875 30.9262 90.3838 26.8847 95.5208 22.8974C99.2445 20.0084 102.962 17.1048 106.147 13.2736C106.867 14.6989 107.618 15.8128 108.473 16.8706C109.58 18.2386 109.37 18.7143 107.62 19.0954C106.864 19.2599 106.114 19.1818 105.354 19.1526C103.552 19.0818 102.448 19.9511 102.242 21.7355C102.074 23.1847 101.942 24.6641 102.05 26.1112C102.163 27.6218 101.433 28.2059 100.151 28.3933C99.1341 28.5411 98.1059 28.6348 97.0787 28.6848C94.1418 28.8274 92.8368 29.9268 92.817 32.8595C92.8045 34.7011 91.8596 35.3768 90.3932 35.7599C87.8653 36.421 85.2687 36.6605 82.6753 36.8822C78.221 37.2622 75.9658 39.7004 76.2229 44.2156C76.3196 45.9073 75.7639 46.1478 74.3173 45.8969C72.29 45.5461 70.2419 45.3014 68.1958 45.0693C64.3317 44.6299 61.1107 45.4368 59.4029 49.4522C58.1332 52.438 56.0226 52.6338 53.066 51.2616C51.6974 50.6266 50.46 49.7073 49.1602 48.9213C47.6282 47.9957 46.1452 48.104 44.7985 49.2565C43.7297 50.1726 42.7025 51.144 41.7243 52.1559C40.5077 53.4135 39.0143 53.8643 37.4251 53.374C35.7985 52.8722 34.9961 51.5052 34.6256 49.852C34.3904 48.8026 34.6828 47.3284 33.2248 47.0119C31.8448 46.7111 30.9227 47.775 30.0475 48.6589C28.8194 49.8988 27.9265 51.4011 26.9045 52.8045C25.9034 54.1808 24.412 54.0382 23.5763 52.5255C23.0008 51.4834 22.5772 50.3632 21.8123 49.421C20.4688 47.7667 19.0055 47.42 17.0698 48.3393C15.5046 49.0826 14.4607 50.4329 13.2389 51.5771C12.8039 51.9841 12.3897 52.4141 11.9516 52.817C11.5509 53.1845 11.093 53.2199 10.5914 53.0169C10.0158 52.7847 9.99399 52.3193 10.0179 51.8071C10.0679 50.7244 10.1688 49.6396 10.1303 48.559C10.0471 46.2165 8.89396 45.4888 6.69181 46.2311C5.16821 46.7444 3.94225 47.7313 2.61638 48.5673C2.22611 48.813 1.73073 49.2398 1.30716 48.8005C0.975176 48.4528 1.37897 47.978 1.54861 47.6168Z" fill="#EAEAEA"/>
<path d="M51.1615 9.72047C54.4314 7.77885 57.7211 6.91788 61.5072 7.46237C65.0633 7.97354 68.6361 7.58001 72.2171 6.97827C71.7873 6.5837 71.2815 6.61909 70.8153 6.55142C66.5744 5.92677 62.294 5.87055 58.0229 5.67379C56.5128 5.60404 55.138 5.97883 53.8174 6.68885C47.6095 10.0255 41.5734 13.6495 35.6267 17.4297C32.9011 19.162 30.189 20.9152 27.684 22.9724C28.0691 22.8912 28.4094 22.7402 28.732 22.557C36.2179 18.2927 43.7547 14.1169 51.1615 9.72047Z" fill="#EAEAEA"/>
<path d="M56.2484 8.63988C55.8499 8.59407 55.522 8.79291 55.2358 9.07192C54.37 9.91519 53.2782 10.4232 52.2719 11.0593C49.8168 12.6116 47.2796 14.0504 45.1753 16.1065C48.4722 14.3991 51.7338 12.6376 54.9465 10.7928C55.6989 10.3608 56.3952 10.2306 57.2402 10.265C62.0057 10.4545 66.769 10.5221 71.4439 9.40507C71.2951 9.3728 71.1473 9.3374 70.9974 9.30929C66.1123 8.40042 61.1502 9.19998 56.2484 8.63988Z" fill="#EAEAEA"/>
<path d="M98.1028 2.76404C96.7488 2.54021 95.3106 2.60892 93.8182 3.30957C94.7215 3.95504 95.6353 3.54797 96.3346 4.11224C95.3449 5.20329 94.1502 6.11528 93.6943 7.69564C95.5988 6.99915 96.9601 5.68531 98.313 4.39229C98.8656 3.86446 99.1362 2.93478 98.1028 2.76404Z" fill="#EAEAEA"/>
<path d="M54.5823 13.9586C57.8106 13.0622 60.7912 14.0866 64.238 13.8982C62.2908 12.98 60.5601 12.9821 59.0677 12.321C57.1299 11.461 55.828 12.0961 54.5823 13.9586Z" fill="#EAEAEA"/>
<path d="M104.232 9.0614C104.478 8.64913 105.015 8.20563 104.601 7.60181C101.864 10.2711 99.3267 13.1102 97.2234 16.3177C100.136 14.4469 102.461 12.0118 104.232 9.0614Z" fill="#EAEAEA"/>
</svg>
