<svg width="49" height="28" viewBox="0 0 49 28" fill="none" xmlns="http://www.w3.org/2000/svg">
<path d="M102.029 72.8178C99.9074 74.4543 98.212 74.2253 95.9693 73.382C94.8828 72.9729 94.4613 72.62 94.1845 71.5956C93.2354 68.0902 91.1217 65.4251 88.0703 63.4814C84.4247 61.1598 80.4252 59.6846 76.303 58.4779C69.7829 56.5696 63.3825 54.3199 57.389 51.0863C50.0406 47.1208 43.4591 42.2173 39.5658 34.5654C37.4448 30.3979 35.8026 25.99 33.7971 21.7611C31.9384 17.8404 29.1129 15.0087 24.5036 14.5829C22.2744 14.3768 21.7145 13.0577 23.0029 11.114C24.3922 9.01728 25.5557 6.77478 26.0761 4.31783C26.6714 1.50067 24.9781 0.153526 22.2681 1.04885C20.3386 1.686 18.8629 3.03105 17.1603 4.40631C17.0614 3.52972 16.9771 2.91133 16.9241 2.28981C16.845 1.35179 16.564 0.535591 15.6086 0.15872C14.57 -0.251465 13.7187 0.188915 12.9527 0.845837C11.9391 1.71618 11.3354 2.8697 10.9473 4.10858C10.4706 5.63064 10.1126 7.19121 9.68799 8.79656C8.52864 8.1032 8.30281 6.89971 7.63675 6.01479C6.97798 5.13925 6.26301 4.31783 5.02664 4.81546C1.76713 6.12722 0.737866 9.04329 0.107194 12.0947C-0.385063 14.4756 0.846101 16.6276 3.22413 17.8342C4.94547 18.7066 6.70635 19.5457 8.63375 19.8997C10.2427 20.1943 10.7131 20.7856 9.66926 22.3493C7.85218 25.0728 7.43589 28.1929 7.66173 31.4047C8.35588 41.2585 12.1732 49.7401 18.609 57.2109C27.0721 67.0366 36.12 76.1555 47.3181 82.9058C60.0939 90.6077 73.2797 93.3479 87.3085 86.332C87.8039 86.0843 88.2087 85.8864 88.8477 86.2529C91.3371 87.6771 93.6704 89.1242 94.0159 92.3921C94.1345 93.5123 94.9005 94.4639 95.6644 95.3103C96.9746 96.7616 98.5357 97.9109 100.544 97.0541C102.521 96.2108 102.517 94.3244 102.349 92.4754C102.24 91.2751 101.768 89.8228 102.26 88.9202C102.989 87.5834 104.513 88.8442 105.696 88.7453C107.616 88.5849 108.895 87.6073 109.498 85.8677C110.104 84.1166 108.816 83.1609 107.594 82.3582C106.547 81.6711 105.373 81.1777 103.986 80.4583C105.166 79.8711 106.124 79.5077 106.958 78.957C109.079 77.5588 109.178 75.3143 107.181 73.7454C105.639 72.5315 103.558 71.6393 102.029 72.8178ZM51.4122 50.5616C52.4602 51.2872 53.5228 51.991 54.652 52.753C50.9585 54.7436 50.2716 58.4831 48.6408 62.3976C48.1735 58.0323 48.8417 54.4521 50.1519 50.9405C50.4288 50.1993 50.8107 50.1451 51.4122 50.5616ZM34.6828 36.5913C31.2526 37.9676 28.8475 40.9534 26.2301 43.5738C27.5216 38.9348 29.7404 34.9318 33.6952 32.047C34.6255 31.3682 35.1834 31.2797 35.889 32.5374C36.9776 34.48 37.3533 35.52 34.6828 36.5913ZM9.12497 18.6889C7.13409 18.0153 5.14424 17.322 3.35942 16.2049C1.6412 15.1294 1.0532 13.522 1.77025 11.5992C2.1907 10.4727 2.70377 9.34939 3.36358 8.34995C4.86221 6.08248 5.55429 6.1439 6.97798 8.50194C7.52019 9.40039 8.0291 10.3197 8.61502 11.189C9.04379 11.8251 9.30917 12.8266 10.3218 12.6475C11.3511 12.4653 11.2147 11.4784 11.3667 10.7007C11.7059 8.95898 12.0358 7.21099 12.4896 5.49737C12.8351 4.19394 13.3211 2.91028 14.6043 2.06388C15.4358 3.26633 14.9217 4.4969 14.9956 5.65978C15.0581 6.63736 14.3598 7.93455 15.7304 8.4072C16.9876 8.84133 17.2737 7.50145 17.8035 6.78102C18.9316 5.24439 20.3636 4.1065 22.0537 3.28301C22.5356 3.04877 23.1153 2.64066 23.6304 3.08936C24.1643 3.55368 23.7428 4.13772 23.5773 4.64472C22.8353 6.91636 21.217 8.91003 21.498 11.5106C21.5833 12.2977 20.8767 11.9719 20.4562 12.0562C16.3715 12.8703 12.96 14.8348 10.4508 18.1861C10.0189 18.7597 9.75356 18.9013 9.12497 18.6889ZM20.9818 14.0821C21.1317 14.6839 20.7258 14.9441 20.2294 15.0868C16.9532 16.0279 14.1485 17.8248 11.0607 20.4317C11.9963 17.6978 17.9669 13.4252 20.0264 13.5491C20.4354 13.5741 20.8642 13.6095 20.9818 14.0821ZM86.3562 83.1911C75.8783 88.9972 65.2839 88.3496 54.7602 83.4441C44.1429 78.4948 35.3946 71.0157 27.4363 62.5538C25.4496 60.4404 23.6408 58.1594 21.651 56.048C15.8272 49.8682 12.4938 42.4661 10.7454 34.253C10.4269 32.756 10.0835 31.2568 9.6141 29.8024C8.96054 27.7754 9.54646 25.99 10.4654 24.2368C12.5916 20.1797 19.7631 16.2247 24.3215 16.689C28.0493 17.069 30.0464 19.6956 31.6595 22.6991C32.1924 23.6913 32.5764 24.7657 33.0093 25.8099C33.5359 27.0779 34.4101 28.3376 34.4694 29.6306C34.5506 31.4109 32.4619 30.6665 31.4982 31.4806C27.2916 35.0359 24.9896 39.6219 23.7563 44.8533C23.5888 45.5654 23.5617 46.3983 24.4547 46.694C25.4256 47.0156 26.1625 46.4243 26.7994 45.7913C29.1462 43.4604 31.4732 41.1231 34.2946 39.3283C37.9059 37.0296 37.8757 36.9869 40.3443 40.3902C42.5412 43.4198 45.1492 46.0568 48.2016 48.2066C49.3381 49.0072 49.5317 49.5965 48.8989 50.9072C47.0236 54.7925 46.6041 58.9485 47.2598 63.1971C47.4003 64.1102 47.444 65.3949 48.6429 65.4729C49.7669 65.5458 49.8283 64.3257 50.026 63.498C50.8679 59.975 52.8401 57.0069 54.5947 53.9232C55.0121 53.1903 55.3649 53.0685 56.1048 53.4329C58.9272 54.8237 61.7476 56.224 64.6262 57.4889C65.7033 57.9616 65.5014 58.5675 65.3349 59.4024C64.5575 63.2992 64.1839 67.2313 64.826 71.1791C64.9946 72.2181 64.9394 73.7391 66.3308 73.9286C67.8326 74.1337 68.2551 72.6887 68.6714 71.5779C69.9171 68.2495 70.9058 64.8514 71.2326 60.6444C68.023 64.2184 68.3686 68.6035 66.3881 72.5481C65.2527 67.5176 65.9052 63.0233 66.6576 58.3218C71.8289 60.4893 77.1699 61.5647 82.1112 63.801C84.1759 64.7348 86.1814 65.7759 87.9079 67.2688C93.4466 72.0515 92.7129 79.6691 86.3562 83.1911ZM90.2215 85.3638C89.5439 84.3644 90.7449 84.026 91.2445 83.5326C93.073 81.7242 94.2219 79.5942 94.6486 77.055C94.7662 76.3554 94.4748 75.2695 95.8028 75.4184C96.7696 75.5267 97.4305 76.0274 97.6053 77.0414C97.9623 79.1111 94.6164 85.0015 92.6713 85.7261C91.8002 85.9166 90.7855 86.1967 90.2215 85.3638ZM106.376 76.3158C106.507 77.207 105.683 77.309 105.171 77.5828C103.798 78.3178 101.753 78.4896 101.783 80.5311C101.814 82.6299 103.956 82.8298 105.34 83.6929C106.077 84.152 107.468 84.3279 107.007 85.6126C106.604 86.736 105.432 86.4726 104.467 86.3497C100.348 85.8292 99.6066 86.5382 99.9667 90.6942C100.057 91.7363 100.226 92.7711 100.326 93.8122C100.386 94.4441 100.525 95.1749 99.8002 95.5154C99.1581 95.8173 98.5274 95.5071 97.9914 95.1354C95.5926 93.4686 94.8152 90.7545 93.661 88.2965C93.2385 87.3981 94.2407 87.3054 94.6674 86.9317C98.5555 83.5201 100.33 79.539 99.6753 75.4913C101.48 75.3663 103.166 74.1868 105.071 75.0269C105.681 75.2955 106.269 75.5818 106.376 76.3158Z" fill="#EAEAEA"/>
</svg>
