<svg width="94" height="43" viewBox="0 0 94 43" fill="none" xmlns="http://www.w3.org/2000/svg">
<path d="M93.7379 19.2924C92.743 16.5315 91.1736 14.2307 88.6665 12.6045C85.1562 10.3266 81.316 9.28244 77.1521 9.35115C76.5766 9.36052 76.0479 9.38238 75.539 8.93784C73.0714 6.78697 70.3875 4.93177 67.5369 3.32539C64.1036 1.39106 60.4611 0.126153 56.4773 0.0230864C55.4397 -0.00398172 54.2824 -0.120592 53.5102 0.618575C52.3602 1.71795 51.1499 1.70026 49.7907 1.32131C49.4754 1.23386 49.1361 1.19637 48.8083 1.19741C39.0141 1.23593 30.8487 4.70794 24.8126 12.6347C24.4369 13.1282 24.1455 13.6435 23.4659 13.8247C21.6592 14.3077 20.1918 15.3655 18.8992 16.6845C16.3953 19.2414 14.6771 22.2782 13.4532 25.617C13.2877 26.0678 13.243 26.5675 12.6737 26.7965C8.09872 28.6351 4.92143 32.0571 2.39146 36.1288C0.776271 38.7283 -0.282134 41.5434 0.0665046 44.7083C0.271525 46.5718 1.60572 48.2157 3.43841 48.4937C7.79275 49.1537 11.7069 48.0595 15.111 45.2403C15.3546 45.0383 15.4337 44.7739 15.8978 44.9613C18.8503 46.1554 21.5614 45.4079 24.1371 43.8067C24.4369 43.6204 24.6502 43.2508 25.1019 43.5319C27.4268 44.979 29.9911 44.649 32.4576 44.2731C37.0545 43.5725 41.2985 41.9036 45.0128 39.0126C45.3073 38.7835 45.5779 38.112 46.2179 38.7315C47.9216 40.3785 50.0613 40.7335 52.3186 40.5419C55.7155 40.2546 58.8626 39.1344 61.7776 37.4145C64.7509 35.6603 67.3382 33.422 69.5955 30.7995C69.8473 30.5069 69.9993 29.9208 70.6393 30.1884C73.6168 31.4356 76.4621 30.6548 79.0888 29.2826C81.5637 27.9896 83.8605 26.3697 86.2313 26.3947C89.8404 25.2151 91.9468 23.0684 93.6671 20.4511C93.9284 20.0555 93.8878 19.7078 93.7379 19.2924ZM14.4793 43.1581C14.7811 43.8057 14.6885 44.1555 14.0599 44.5532C11.1792 46.3803 8.11017 47.6181 4.66021 47.666C2.28114 47.6983 1.25292 46.6957 1.15821 44.3512C1.0479 41.6486 1.97517 39.2197 3.31353 36.9523C5.37934 33.4511 8.11017 30.5548 11.5216 28.3196C11.8651 28.0948 12.1814 27.8168 12.7809 27.7856C11.8963 31.5178 11.8203 35.1491 12.7486 38.7856C13.1389 40.3222 13.8185 41.736 14.4793 43.1581ZM21.8049 38.5274C22.0994 39.7819 22.7374 40.925 23.5575 41.9193C24.057 42.5252 24.0799 42.8354 23.3025 43.1654C20.8537 44.2034 18.4153 44.9956 15.8135 43.6287C15.4493 43.4371 15.2349 43.2289 15.1079 42.8521C12.1877 34.1924 13.2659 26.1615 18.8878 18.8541C20.0024 17.405 21.3397 16.1921 23.2161 15.1885C22.4855 16.8074 21.8746 18.1597 21.4386 19.5808C19.4852 25.9366 20.3292 32.2424 21.8049 38.5274ZM45.3177 35.9872C45.5727 36.4484 45.7142 36.7742 45.171 37.2323C41.2475 40.5471 36.71 42.5887 31.7042 43.4507C26.6453 44.3221 24.4442 43.307 22.778 36.7742C21.9038 33.346 22.2545 29.7865 21.9745 26.2947C21.22 16.8636 26.2154 10.8357 33.7127 6.43196C38.5999 3.56171 44.0376 2.27286 49.7428 2.2916C50.0738 2.29264 50.4037 2.30096 50.7346 2.31554C50.8991 2.32283 51.0614 2.35093 51.4069 2.39049C51.0468 2.80484 50.8023 3.13696 50.5088 3.41805C46.1222 7.59903 44.0647 12.8825 43.5537 18.7719C43.2248 22.5749 42.744 26.4082 43.4528 30.2363C43.8233 32.2362 44.3228 34.1913 45.3177 35.9872ZM68.9669 29.2066C64.9841 33.8738 60.3238 37.479 54.1877 38.8106C53.3052 39.0021 52.3956 39.1292 51.4944 39.1666C49.2756 39.2603 47.7166 38.4327 46.6842 36.2735C45.4759 33.7468 44.9524 31.1139 44.6954 28.3967C44.2042 23.2152 44.2385 18.0306 46.092 13.099C47.6468 8.96284 49.8344 5.17434 53.8058 2.7861C54.017 2.65909 54.2325 2.53624 54.4541 2.42693C54.5197 2.39466 54.6092 2.41132 54.7768 2.39883C55.1982 7.03267 56.9487 11.1845 58.8387 15.2811C59.6681 17.0791 60.6006 18.8323 61.5487 20.5719C63.2679 23.7222 65.7511 26.1708 68.715 28.151C69.1511 28.4414 69.4966 28.5861 68.9669 29.2066ZM82.0278 25.4369C79.9818 27.291 77.611 28.4914 74.9343 29.0369C72.9809 29.4357 71.1732 29.065 69.6725 27.5992C65.9675 23.9783 62.6362 20.0816 60.278 15.4165C59.3621 13.604 58.6149 11.7279 57.902 10.0508C57.0091 7.51781 56.3763 5.12333 55.8268 2.70178C55.626 1.81374 55.7769 1.54201 56.726 1.62321C58.7107 1.79395 60.6786 2.05006 62.5332 2.7861C69.814 5.67718 75.7221 10.3797 80.4262 16.6012C81.6771 18.2555 82.5024 20.1555 82.9603 22.2106C83.2475 23.4942 83.0425 24.5176 82.0278 25.4369ZM92.6441 19.2029C90.5991 22.5739 87.8672 25.0381 84.0114 25.9272C85.0521 22.1054 83.9646 18.7479 81.904 15.5789C80.7717 13.8393 79.3657 12.3391 77.8254 10.9513C78.1054 10.5713 78.4582 10.792 78.7517 10.817C84.3923 11.2896 88.8039 14.0464 92.4485 18.2212C92.7097 18.5199 92.896 18.7865 92.6441 19.2029Z" fill="#EAEAEA"/>
<path d="M37.8527 26.7246C40.1631 29.7188 41.3578 33.0856 42.7961 36.3452C43.1874 32.9326 40.2047 27.0015 37.8527 26.7246Z" fill="#EAEAEA"/>
<path d="M28.5675 41.2823C26.3726 37.9498 24.9853 34.4612 25.6378 30.4072C23.3587 32.8964 25.7835 40.5276 28.5675 41.2823Z" fill="#EAEAEA"/>
<path d="M28.9067 32.5413C28.6445 32.6235 28.6591 32.9463 28.6892 33.1919C28.9203 35.119 29.2252 37.0315 30.2774 38.7159C30.6541 39.3187 30.9955 39.9767 31.8853 40.5378C30.9143 37.8695 29.987 35.4719 29.3928 32.9702C29.3324 32.7162 29.1804 32.4549 28.9067 32.5413Z" fill="#EAEAEA"/>
<path d="M36.8869 31.1636C36.5466 31.2448 36.6299 31.5436 36.7027 31.7675C37.2241 33.3572 37.7007 34.9698 38.8778 36.2556C38.8539 34.5378 38.321 32.997 37.4229 31.5759C37.2907 31.3635 37.1866 31.0918 36.8869 31.1636Z" fill="#EAEAEA"/>
<path d="M33.387 32.7881C33.2101 32.8464 33.2049 33.0546 33.2631 33.216C33.9885 35.2419 34.358 37.4407 36.2156 39.2532C35.6224 36.9441 34.7233 35.1243 33.9781 33.2472C33.8792 32.9984 33.7741 32.659 33.387 32.7881Z" fill="#EAEAEA"/>
<path d="M50.463 38.3255C48.8395 34.6287 47.6448 30.8318 46.9548 26.8716C45.7944 30 48.1329 37.3521 50.463 38.3255Z" fill="#EAEAEA"/>
<path d="M56.3992 23.261C55.9809 23.7066 56.5116 24.0033 56.7749 24.2573C59.1353 26.531 61.3759 28.9141 63.5968 31.7312C62.7674 27.7543 60.0698 25.6284 57.3692 23.515C57.108 23.3099 56.7302 22.9091 56.3992 23.261Z" fill="#EAEAEA"/>
<path d="M49.9104 28.833C49.2974 30.8808 51.2945 35.9269 53.0825 37.0065C51.7296 34.409 50.9979 31.5471 49.9104 28.833Z" fill="#EAEAEA"/>
<path d="M55.9403 27.4429C55.7353 27.5418 55.6874 27.7614 55.781 27.9728C56.5533 29.7218 57.2484 31.5281 59.0468 32.5556C58.5077 30.7795 57.4462 29.3033 56.521 27.7531C56.4003 27.5512 56.2369 27.3013 55.9403 27.4429Z" fill="#EAEAEA"/>
<path d="M53.3396 29.0961C53.0096 29.1825 53.0929 29.4709 53.172 29.6989C53.402 30.362 53.6476 31.021 53.8901 31.68C54.3043 32.8065 54.7903 33.8798 56.1495 34.3473C55.3627 32.7128 54.5759 31.0783 53.7891 29.4438C53.6955 29.2491 53.5643 29.0367 53.3396 29.0961Z" fill="#EAEAEA"/>
<path d="M73.0912 26.4458C70.7715 23.8109 68.868 21.2144 67.3184 18.3691C67.3267 21.1915 70.5404 25.7754 73.0912 26.4458Z" fill="#EAEAEA"/>
<path d="M74.3921 17.607C74.084 17.9214 74.467 18.2087 74.6585 18.4533C76.1259 20.3346 77.6454 22.1721 79.5853 24.0575C78.7298 21.3705 77.0178 19.6266 75.3069 17.887C75.0654 17.6413 74.7605 17.2322 74.3921 17.607Z" fill="#EAEAEA"/>
<path d="M70.8235 19.8505C70.6299 20.0525 70.7829 20.3221 70.939 20.5137C72.2899 22.1648 73.801 23.6432 75.617 24.8029C74.3713 23.0747 72.9622 21.4892 71.4719 19.9754C71.2929 19.7932 71.0306 19.634 70.8235 19.8505Z" fill="#EAEAEA"/>
<path d="M16.03 35.8206C15.7657 35.8622 15.7313 36.1007 15.7469 36.2964C15.9166 38.3442 16.1518 40.3743 17.7722 42.319C17.2633 40.063 16.8324 38.1401 16.388 36.2193C16.3485 36.0434 16.3266 35.7748 16.03 35.8206Z" fill="#EAEAEA"/>
<path d="M20.044 40.3929C19.6902 38.571 19.5372 36.6939 18.638 35.022C18.4299 36.9979 19.0356 38.7511 20.044 40.3929Z" fill="#EAEAEA"/>
<path d="M9.89917 38.19C9.54949 38.1984 9.57967 38.5024 9.59008 38.7356C9.64836 40.0817 10.1698 41.2831 11.0367 42.4126C10.7827 41.1467 10.5298 39.8797 10.2707 38.6148C10.2291 38.4107 10.1354 38.1848 9.89917 38.19Z" fill="#EAEAEA"/>
<path d="M84.8461 16.1129C84.59 16.2388 84.6847 16.4721 84.7607 16.647C85.6255 18.6354 86.4664 20.6374 87.9328 22.2823C87.4364 20.121 86.4581 18.2044 85.3341 16.3534C85.2332 16.1858 85.0906 15.9921 84.8461 16.1129Z" fill="#EAEAEA"/>
<path d="M87.044 15.1782C86.7464 15.3833 86.9972 15.6966 87.1377 15.9434C87.8881 17.2614 88.6415 18.5773 89.9018 19.8859C89.5241 18.1015 88.6738 16.8345 87.7944 15.5873C87.63 15.3541 87.4281 14.9148 87.044 15.1782Z" fill="#EAEAEA"/>
</svg>
