<svg width="39" height="28" viewBox="0 0 39 28" fill="none" xmlns="http://www.w3.org/2000/svg">
<path d="M0.331414 17.2332C4.24591 23.737 10.0042 27.2662 17.5667 27.7025C22.0456 27.9608 26.0281 26.3799 29.6142 23.8027C35.8781 19.3015 38.501 12.9544 38.7645 5.44887C38.7661 4.08805 38.6049 2.75167 38.3765 1.42295C38.0977 -0.199944 38.0932 -0.204514 36.5128 0.282201C29.2979 2.50413 22.2289 5.12871 15.2829 8.07957C10.1807 10.2472 5.20525 12.6709 0.642284 15.8609C-0.146726 16.411 -0.157421 16.4217 0.331414 17.2332ZM21.6652 6.4903C25.5179 5.0867 29.3713 3.68233 33.2239 2.27796C33.4485 2.19621 33.67 2.03422 33.7242 2.47509C34.1084 5.62384 34.0633 8.7321 32.9191 11.7471C32.415 13.0766 31.7123 14.2907 30.8676 15.433C30.6346 15.7478 30.5307 15.7043 30.2206 15.5003C28.0109 14.0485 26.3481 12.0245 24.5341 10.1579C23.5488 9.14392 22.5574 8.13459 21.5698 7.12296C21.4514 7.00147 21.3307 6.88533 21.1459 6.89909C21.1963 6.61256 21.4453 6.56977 21.6652 6.4903ZM17.391 8.14528C18.5008 7.71434 19.6083 7.27806 20.7158 6.84254C20.8671 6.78294 21.0053 6.78448 21.1222 6.90596C23.2509 9.66809 25.4445 12.3737 27.9888 14.7713C28.6159 15.362 29.2911 15.8938 30.187 16.2147C29.2926 17.2882 28.2752 18.1432 27.1753 18.9019C24.2713 20.9046 21.1436 22.364 17.6041 22.8132C16.7677 22.9194 15.9291 22.8835 15.0912 22.8973C14.7116 22.9034 14.6596 22.7567 14.7192 22.4266C15.0942 20.3422 15.4563 18.2563 15.8206 16.1704C16.2651 13.6283 16.9342 11.1252 17.113 8.53879C17.1275 8.33096 17.2039 8.21786 17.391 8.14528ZM2.87183 15.1022C5.99503 13.1362 13.475 9.53743 16.9434 8.36992C16.4645 10.4398 16.0184 12.4157 15.5495 14.3855C14.9308 16.9856 14.458 19.6133 14.057 22.2532C13.9821 22.7445 13.8042 22.8124 13.3833 22.7215C8.92345 21.7519 5.29003 19.5407 2.729 15.689C2.52277 15.378 2.58922 15.2802 2.87183 15.1022ZM1.00891 16.1704C1.96825 15.6424 1.9797 15.6111 2.54263 16.5608C5.8163 22.0797 13.8011 25.7847 21.5354 23.0852C25.2307 21.7955 28.5922 19.9456 31.2502 17.0039C33.7883 14.1952 35.086 10.8593 35.3007 7.09316C35.3954 5.43435 35.3618 3.77478 35.0509 2.13967C34.9455 1.58571 35.2778 1.52535 35.6322 1.39851C36.687 1.02106 36.7275 1.01188 36.8642 2.07165C37.8044 9.35098 36.0324 15.7883 30.7744 21.0612C28.1645 23.6782 25.0161 25.4065 21.3887 26.2286C20.8686 26.3463 20.4439 26.3983 20.1651 25.8367C20.1124 25.7312 19.9994 25.6349 19.842 25.6647C19.7336 25.9497 20.0223 26.1476 20.0085 26.425C19.5274 26.5014 19.0072 26.7482 18.7658 26.0239C18.7116 25.8604 18.6161 25.5685 18.3763 25.6785C18.1601 25.7771 18.3076 26.03 18.3519 26.2133C18.3778 26.3195 18.4244 26.4204 18.4618 26.5258C17.7599 26.629 17.7599 26.629 16.9396 25.5219C16.8113 25.6968 16.9319 25.8443 16.977 25.9971C17.0267 26.1645 17.0755 26.3325 17.1328 26.5289C16.7326 26.561 16.3285 26.5686 16.0238 26.3837C15.7465 26.2149 15.7557 25.7557 15.4563 25.5196C15.2607 25.8023 15.5151 26.0353 15.4845 26.2836C14.555 26.6191 14.4488 25.7534 14.0677 25.23C13.9355 25.3897 13.9775 25.5096 14.0058 25.6212C14.0371 25.748 14.0822 25.8718 14.1219 26.0002C13.5162 26.0674 13.5162 26.0674 12.676 24.9381C12.5752 25.0558 12.6355 25.1841 12.6585 25.3033C12.6829 25.4325 12.7318 25.5562 12.7799 25.7152C12.0176 25.7962 11.7052 25.3247 11.5059 24.673C11.2103 24.8892 11.4814 25.1146 11.4035 25.2934C10.5656 25.3859 10.5694 24.5973 10.2739 24.0457C10.0256 24.3612 10.1509 24.5927 10.1998 24.8204C9.36646 24.8395 9.63455 23.957 9.1778 23.669C8.96317 23.889 9.1969 24.1397 9.12357 24.3612C8.33762 24.2642 8.66682 23.4314 8.25283 23.099C7.97481 23.3488 8.26581 23.6117 8.2261 23.8615C7.58145 23.8065 7.45695 23.2709 7.24385 22.707C7.20948 22.9492 7.18885 23.0913 7.169 23.2319C6.45789 23.0684 6.44414 22.4274 6.1875 21.9109C6.15084 22.0843 6.11342 22.257 6.07828 22.422C5.21824 22.2233 5.52757 21.47 5.3962 20.8641C5.06013 21.0551 5.16248 21.3485 5.0693 21.5548C4.34979 21.3393 4.55831 20.7181 4.48498 20.2077C4.16266 20.2635 4.24668 20.5806 4.10384 20.6753C3.33851 20.3995 3.77006 19.7875 3.71507 19.2014C3.23082 19.9181 2.94286 19.5812 2.60297 19.1434C2.00644 18.3755 1.39845 17.619 0.849275 16.8152C0.634646 16.5004 0.666725 16.3591 1.00891 16.1704Z" fill="#EAEAEA"/>
<path d="M21.8093 15.5439C22.1668 14.397 22.1293 13.2356 21.7558 12.0979C21.6604 11.8076 21.4549 11.7785 21.2716 12.0926C20.8637 12.7886 20.5803 13.5199 20.5574 14.125C20.5406 14.7905 20.6361 15.2214 20.9103 15.5859C21.1922 15.9603 21.684 15.9473 21.8093 15.5439ZM21.3991 12.7672C21.6695 13.6092 21.6015 14.4535 21.403 15.3689C20.8538 14.6996 20.8736 13.5626 21.3991 12.7672Z" fill="#EAEAEA"/>
<path d="M9.8728 18.2363C10.0026 18.2592 10.1371 18.2562 10.2005 18.2607C11.3599 18.2669 12.1039 17.622 12.4774 16.3452C12.708 15.5574 12.4682 15.2809 11.6738 15.4818C10.7756 15.7087 10.0004 16.171 9.39237 16.8793C9.1869 17.1192 8.80424 17.3202 8.94325 17.6999C9.08761 18.0911 9.49853 18.169 9.8728 18.2363ZM9.82621 17.1872C10.4151 16.5362 11.159 16.1366 12.0519 15.8142C11.7212 17.2934 11.1025 17.8611 10.0385 17.7481C9.86287 17.7297 9.64595 17.7305 9.58332 17.5517C9.52985 17.395 9.72615 17.298 9.82621 17.1872Z" fill="#EAEAEA"/>
<path d="M29.9698 8.93153C30.5518 8.06507 31.0216 7.15047 30.8955 6.05173C30.868 5.81181 30.8581 5.5459 30.5862 5.44428C30.3082 5.34036 30.0798 5.47104 29.8705 5.65442C29.3106 6.14343 29.1586 6.78905 29.1449 7.628C29.0922 7.96725 29.2297 8.40737 29.3939 8.84136C29.5306 9.20124 29.7727 9.22494 29.9698 8.93153ZM30.2341 5.91954C30.5381 6.65764 30.3166 7.50882 29.5528 8.38368C29.5237 7.40796 29.4619 6.55907 30.2341 5.91954Z" fill="#EAEAEA"/>
</svg>
