<svg width="39" height="29" viewBox="0 0 39 29" fill="none" xmlns="http://www.w3.org/2000/svg">
<path d="M25.7426 13.5353C24.1361 13.2961 22.4732 13.242 20.9358 12.7749C18.7393 12.1077 16.8327 10.9321 15.7759 8.69C14.7455 6.502 15.0641 3.81129 16.4969 1.88558C17.5445 0.477528 18.8359 -0.0769485 20.4148 0.224447C21.5153 0.434964 22.5859 0.968758 23.5772 1.52208C24.1441 1.83843 24.4661 2.0409 25.1469 1.68084C26.4164 1.01017 27.7585 0.323403 29.1476 0.0691718C30.8461 -0.240277 32.379 0.509733 33.468 1.89477C33.9959 2.56659 34.4432 3.32584 34.802 4.10233C35.7656 6.19025 34.7928 8.01013 33.6577 9.60224C31.9719 11.972 28.7819 13.4353 25.7426 13.5353ZM25.4873 3.28442C26.1577 4.28984 27.0604 4.36461 28 4.40832C28.2357 4.41982 28.4622 4.6476 28.6934 4.77645C28.5163 5.02147 28.3933 5.37005 28.1541 5.49198C27.3617 5.89691 26.5326 5.70939 25.884 5.21703C24.6501 4.27833 23.537 3.18091 22.3065 2.23531C20.5712 0.900881 18.4081 1.30121 17.3456 3.16826C17.0052 3.76645 16.9028 4.51534 16.7671 5.21131C16.536 6.39388 16.6499 7.62017 17.2478 8.61754C18.2069 10.2177 19.8812 11.0264 21.5958 11.4796C23.1379 11.8869 24.7191 12.2285 26.4038 11.9317C28.6462 11.536 30.7323 10.9263 32.1019 8.99714C33.1713 7.49017 34.3776 5.91763 33.1679 3.90219C32.6159 2.98305 32.0398 1.94885 30.9634 1.69232C28.8946 1.19766 27.1593 2.13521 25.4873 3.28442Z" fill="#EAEAEA"/>
<path d="M27.8705 17.2154C28.5134 16.6057 29.0056 15.9787 29.6415 15.5749C30.5086 15.0251 31.4538 14.5672 32.4187 14.2118C34.8451 13.3202 36.4401 14.42 37.3198 16.3894C38.4111 18.8305 38.3927 21.3912 36.9437 23.6551C35.8076 25.4301 34.0953 26.6507 32.0679 27.4697C29.3574 28.5649 26.6136 28.2957 23.8675 27.9575C22.4416 27.7826 21.4158 26.6909 20.6799 25.5854C19.385 23.6402 18.8687 21.3981 20.0485 19.2446C20.8477 17.7836 22.1035 16.5275 24.0285 16.669C25.3843 16.7702 26.7275 17.0474 27.8705 17.2154ZM27.1403 27.0061C29.9761 26.9003 30.8213 26.6208 33.1753 25.2058C36.0157 23.4987 37.2404 20.7435 36.1043 17.373C35.4879 15.5427 34.6277 14.9859 32.8602 15.6048C31.7401 15.9971 30.765 16.8105 29.7358 17.4535C29.6334 17.5179 29.5207 17.7629 29.5598 17.817C29.6507 17.9424 29.8243 18.0586 29.9773 18.0758C30.3545 18.1196 30.7385 18.0942 31.118 18.1195C31.7149 18.1587 31.8529 18.4359 31.5458 18.9582C31.1548 19.6208 30.5132 19.6426 29.9186 19.4885C28.5111 19.1238 27.1346 18.6407 25.7305 18.2587C23.6674 17.6985 22.2265 18.3876 21.4055 20.1177C20.8374 21.3141 20.9903 22.6255 21.4319 23.7966C21.8586 24.9297 22.5658 26.0582 23.7836 26.462C24.845 26.814 26.0168 26.8382 27.1403 27.0061Z" fill="#EAEAEA"/>
<path d="M7.39052 23.8555C6.11061 23.4425 4.79389 23.1181 3.56113 22.5935C2.07539 21.962 1.59012 20.4412 1.01514 19.1148C0.58735 18.1267 0.524109 16.9855 0.237769 15.9294C-0.678749 12.5543 1.22557 10.1684 3.031 7.71929C4.20051 6.13293 5.78403 5.51172 7.67341 5.49102C10.4161 5.46111 12.2986 7.7216 11.2877 10.4825C10.983 11.3142 10.6771 12.162 10.531 13.0282C10.4781 13.3457 10.8059 13.8438 11.1014 14.0831C12.1605 14.9367 13.1058 15.8972 13.4807 17.2075C13.8809 18.6052 13.4577 20.0052 12.6205 21.0946C11.3613 22.7327 9.61455 23.6484 7.47103 23.6116C7.44458 23.6944 7.41697 23.775 7.39052 23.8555ZM9.24885 12.9523C9.58579 11.6501 9.89857 10.6009 10.1251 9.53341C10.4609 7.94591 9.49724 6.78172 7.89994 6.76906C5.67937 6.75066 4.28908 8.1426 3.19777 9.78417C2.48595 10.854 2.08576 12.1436 1.63153 13.3676C1.42913 13.914 1.28423 14.5674 1.38313 15.1242C1.59127 16.2872 1.87877 17.4583 2.31575 18.5534C2.90108 20.019 3.52778 21.4811 5.37462 21.8975C7.69178 22.4198 10.1987 22.3186 11.5166 19.7371C12.2525 18.2957 11.8478 16.1181 10.2309 15.3174C8.93262 14.6744 7.69525 13.8841 7.11682 12.4404C7.03172 12.2276 7.12141 11.9446 7.13061 11.6938C7.38935 11.7214 7.70445 11.665 7.89419 11.7939C8.32427 12.0826 8.69227 12.4634 9.24885 12.9523Z" fill="#EAEAEA"/>
<path d="M31.3447 4.819C30.8284 4.54637 30.2523 4.34159 29.8222 3.97002C29.6198 3.79517 29.6969 3.29707 29.6474 2.94506C30.0855 2.98187 30.6858 2.85416 30.9227 3.09114C31.2953 3.46385 31.4241 4.08274 31.6564 4.59695C31.5529 4.67173 31.4482 4.74538 31.3447 4.819Z" fill="#EAEAEA"/>
<path d="M31.7582 7.25993C31.4121 7.15984 31.0372 7.1081 30.7359 6.93094C30.6485 6.88033 30.6888 6.39832 30.8222 6.24532C30.9533 6.09347 31.3926 5.9819 31.4903 6.07393C31.726 6.2948 31.8399 6.64336 32.0032 6.9413C31.9227 7.04713 31.8399 7.15294 31.7582 7.25993Z" fill="#EAEAEA"/>
<path d="M34.4759 20.8771C34.3241 20.6172 34.1965 20.4228 34.093 20.2157C33.8365 19.7003 33.6376 19.1504 33.3305 18.6696C33.0568 18.2416 32.7383 17.8494 33.2501 17.433C33.7284 17.043 34.1459 17.3133 34.484 17.6975C35.3867 18.7248 35.4177 20.0144 34.4759 20.8771Z" fill="#EAEAEA"/>
<path d="M34.6661 23.1591C34.2464 23.4283 33.9681 23.7435 33.7036 23.7331C33.4747 23.7239 33.2597 23.3466 33.0389 23.1315C33.2919 22.9244 33.5299 22.5851 33.8036 22.5517C34.0221 22.5253 34.2855 22.8738 34.6661 23.1591Z" fill="#EAEAEA"/>
<path d="M9.47444 19.0881C9.1858 18.3783 8.88914 17.7456 8.6856 17.0853C8.6235 16.8829 8.75229 16.4549 8.90178 16.3939C9.11682 16.3054 9.50551 16.3686 9.6895 16.5228C10.4749 17.1831 10.399 18.3496 9.47444 19.0881Z" fill="#EAEAEA"/>
</svg>
