<svg width="79" height="102" viewBox="0 0 79 102" fill="none" xmlns="http://www.w3.org/2000/svg">
<path d="M76.6235 56.4083C73.7689 55.4088 70.9444 55.845 67.9523 56.4853C68.0991 56.046 68.175 55.7784 68.277 55.5202C70.7789 49.2279 74.1789 43.4312 77.9744 37.8479C78.5624 36.9827 79.4449 36.0697 78.7164 34.9068C78.0212 33.797 76.814 33.7627 75.6515 33.7783C75.2332 33.7835 74.8169 33.873 74.3996 33.922C70.8476 34.3436 67.5287 35.4086 64.6116 37.7313C64.2838 36.7037 63.9976 35.9146 63.7843 35.1057C63.5564 34.2426 62.4032 33.7148 62.7311 32.7143C64.0892 28.5802 61.8891 25.0072 60.6101 21.4717C59.6485 18.8159 57.4755 16.5942 57.2632 13.5272C57.2163 12.8578 56.4743 12.3914 56.7085 11.5304C57.4401 8.84236 56.2152 6.62174 54.2128 5.22253C52.684 4.15542 51.6423 2.79369 50.5266 1.45902C49.3329 0.0296202 47.8884 -0.29832 46.3326 0.252411C44.8454 0.779197 43.8088 1.9806 43.8692 3.6786C43.9087 4.7884 43.4238 5.18192 42.5048 5.61397C39.0954 7.21619 37.6801 10.0375 38.4263 13.7104C38.5689 14.4111 38.2077 14.6714 37.9246 15.1055C36.3667 17.5 35.3291 20.034 36.3063 22.9323C36.5904 23.7756 36.0128 23.8932 35.6007 24.3055C33.1301 26.7698 31.3005 29.512 32.2184 33.2598C32.31 33.6326 32.464 33.9563 32.0592 34.1979C31.5982 34.4737 31.4275 34.0094 31.2006 33.7939C25.7941 28.6572 19.2511 28.4199 12.4272 29.4474C11.2751 29.6202 10.8276 30.198 11.6269 31.3193C12.9892 33.2297 14.3046 35.1744 15.6388 37.1045C17.4465 39.7197 19.0919 42.4255 20.4511 45.4415C20.1399 45.4238 19.9671 45.4467 19.8152 45.4009C13.6292 43.5561 7.57227 44.0496 1.59545 46.3431C-0.191449 47.0292 -0.444343 47.6361 0.671301 49.0655C7.04046 57.2172 14.4556 64.3434 22.34 70.9927C23.1413 71.6684 23.4536 72.2868 23.4348 73.2446C23.3776 76.1346 23.3932 79.0267 23.3016 81.9147C23.1434 86.8744 25.1905 90.9586 28.4875 94.4077C35.9046 102.168 47.7812 103.314 57.3204 97.3747C61.3698 94.8532 63.674 91.3136 64.2016 86.5309C64.6127 82.8007 64.3442 79.0674 64.5325 75.3392C64.5877 74.2482 64.7126 73.2383 65.5514 72.3597C69.5842 68.1381 73.1954 63.5292 77.4166 59.4753C78.9246 58.0303 78.5759 57.0922 76.6235 56.4083ZM64.1069 55.6316C65.0664 54.0398 65.745 52.3886 65.0061 50.5074C64.799 49.9785 64.9842 49.5923 65.2652 49.1759C66.0759 47.9745 66.4329 46.6721 66.0447 45.2333C65.8636 44.5628 66.1737 44.1214 66.6046 43.6373C67.3893 42.7555 68.0845 41.7936 68.711 40.7567C67.5006 41.1887 66.6983 42.1205 65.8158 43.0533C65.6981 42.9211 65.5597 42.8253 65.5025 42.6941C63.9237 39.0888 63.9362 39.1128 67.5818 37.5199C70.2742 36.3446 73.1278 36.2061 76.0148 35.9188C75.995 36.7995 75.459 37.2618 75.0989 37.7875C71.0308 43.7081 67.3768 49.8328 65.3464 56.8039C64.9842 58.0469 63.649 57.82 62.5781 58.1458C63.087 57.3057 63.6011 56.4718 64.1069 55.6316ZM30.7406 40.6984C31.3744 38.6662 32.4214 36.8391 33.8888 35.2868C34.4778 34.6632 34.8035 34.0896 34.4174 33.2088C33.3008 30.6582 34.8556 26.5761 37.4678 25.5017C38.9341 24.8979 39.1308 24.3128 38.2681 22.9761C37.0869 21.1479 37.5656 17.957 39.3817 16.1143C40.4151 15.0659 40.7803 14.4215 39.9301 12.9817C38.879 11.2035 40.7845 7.69717 43.2999 7.03088C45.194 6.52908 45.4105 5.56608 45.3626 3.96074C45.3064 2.11699 46.6614 1.04467 48.4254 1.39135C49.6337 1.62872 50.1842 2.675 50.4028 3.66299C50.6744 4.89146 51.3238 5.54838 52.2792 6.30421C53.8704 7.56183 54.9882 9.24005 54.3075 11.4992C54.2565 11.6699 54.1587 11.8771 54.2108 12.0208C54.9726 14.131 55.9644 16.1799 55.3639 18.5577C55.2619 18.9617 55.8832 19.301 56.3234 19.5353C57.0894 19.9434 57.7918 20.5441 58.0187 21.3436C59.1052 25.1592 61.7226 28.702 60.1865 33.0089C59.9107 33.7825 60.1303 34.4259 60.8235 34.8954C61.5873 35.4128 62.0296 36.2925 61.9589 37.0567C61.6997 39.8634 62.8955 42.3204 63.6021 44.8908C63.9508 46.1578 63.803 47.2634 62.9964 48.2868C62.294 49.179 62.1733 50.0972 62.7207 51.1373C63.1089 51.8733 63.0568 52.6926 62.5947 53.3798C61.0867 55.6191 60.1668 58.2072 58.4465 60.3154C58.2217 60.5913 57.9781 60.8984 57.6743 61.0567C55.3722 62.2498 53.1867 63.6281 51.073 65.1231C48.9604 66.6181 47.1183 68.4348 45.1784 70.3202C43.4144 65.9851 41.0655 62.154 38.4565 58.3384C39.3681 58.0667 40.3058 59.216 40.5889 58.4352C40.975 57.3744 39.7011 56.8413 38.9383 56.6789C34.892 55.82 33.0385 51.9108 29.6478 50.1795C28.9953 49.8463 29.2961 49.3737 29.4772 48.9625C29.9133 47.9713 30.3524 46.9782 31.2412 46.2744C32.079 45.6102 32.1487 44.8429 31.3119 44.162C30.0735 43.1511 30.3649 41.9071 30.7406 40.6984ZM29.702 35.3889C30.4367 36.0093 30.5522 36.5059 30.0163 37.3346C29.4688 38.181 29.115 39.1513 28.628 40.1695C27.1179 37.2378 25.0469 35.0172 22.1141 33.6044C24.1748 37.7552 28.9714 40.3225 28.8808 45.6924C27.4644 42.4651 25.2071 39.8842 22.7823 37.419C20.3876 34.9839 17.7598 32.8434 14.6626 30.9539C20.5385 30.1033 25.4049 31.7586 29.702 35.3889ZM15.4546 34.1219C14.9114 33.3483 14.4087 32.5457 13.8873 31.7565C18.1345 35.3149 22.2692 38.9983 25.7348 43.3354C26.481 44.2693 27.0596 45.3343 27.7309 46.3285C28.2283 47.0656 27.9546 47.7413 27.4904 48.3066C26.9659 48.9458 26.5445 48.1973 26.0886 48.0557C23.3713 47.2176 21.6719 45.5217 20.6624 42.7399C19.5165 39.5782 17.3924 36.8776 15.4546 34.1219ZM63.3586 70.6554C62.0786 71.9953 62.2273 73.6589 62.0941 75.2174C61.8548 78.0356 61.8475 80.8736 61.7538 83.7033C61.5165 90.8826 58.9689 94.4431 52.2303 96.9989C42.0302 100.867 31.3265 97.0874 26.8494 88.0425C25.9564 86.2393 25.4611 84.3623 25.407 82.3249C25.3206 79.0757 25.5006 75.8296 25.2644 72.5721C25.1218 70.6127 24.1633 69.4728 22.8239 68.3526C16.0645 62.7005 9.79212 56.5519 4.06924 49.8484C2.7465 48.2982 2.77043 48.2868 4.64788 47.6767C13.0568 44.9428 20.6738 47.026 27.8297 51.5881C33.2643 55.0528 37.7259 59.4034 40.0924 65.6041C40.949 67.8476 42.0303 70.0068 43.0397 72.19C43.7693 73.7682 44.4593 73.8932 45.6353 72.6741C51.1146 66.995 57.7086 62.9629 64.8687 59.8303C67.9024 58.5029 71.1161 57.719 74.9855 58.2562C70.5583 62.2706 67.1749 66.6618 63.3586 70.6554Z" fill="#EAEAEA"/>
<path d="M31.0518 83.776C30.6678 81.6116 30.8281 79.341 30.8405 77.1193C30.8624 73.5078 29.498 70.4554 27.2199 67.7569C26.9358 67.4206 26.6985 66.7554 25.8503 67.1343C26.2832 67.8599 26.6392 68.5439 27.0773 69.1717C28.8299 71.6817 29.5157 74.4781 29.4512 77.5087C29.4106 79.4315 29.3825 81.3586 29.4772 83.2783C29.6271 86.3422 30.5741 89.1844 32.3443 91.6892C34.2176 94.3388 36.6165 95.0696 39.8552 93.812C33.8711 92.7865 31.9145 88.6389 31.0518 83.776Z" fill="#EAEAEA"/>
<path d="M15.4369 48.9769C22.1131 51.3256 27.2834 55.8813 32.7211 60.6557C30.75 54.7122 21.7509 48.8416 15.4369 48.9769Z" fill="#EAEAEA"/>
<path d="M56.5264 88.2464C54.9372 90.8835 51.9524 91.6841 49.2268 93.127C51.9285 93.7808 56.6898 91.5269 58.2581 89.0585C60.197 86.005 60.3728 82.2488 58.5859 79.897C58.0885 82.7985 58.0354 85.7437 56.5264 88.2464Z" fill="#EAEAEA"/>
<path d="M34.2239 84.6155C34.1063 84.4031 33.9075 84.2251 33.6369 84.324C33.2571 84.4624 33.3788 84.7862 33.4049 85.0725C33.7035 88.3321 36.707 90.5611 40.6139 89.8136C37.4397 88.8225 35.555 87.0193 34.2239 84.6155Z" fill="#EAEAEA"/>
<path d="M26.8504 57.4356C25.2508 55.8667 23.2433 54.8995 21.2472 53.9417C20.9527 53.8001 20.5614 53.4545 20.2866 53.8501C19.8964 54.4123 20.5322 54.5393 20.8247 54.7423C23.3744 56.5194 26.0251 58.1591 28.322 60.4964C28.4979 59.0222 27.6341 58.2029 26.8504 57.4356Z" fill="#EAEAEA"/>
<path d="M42.3425 88.6964C40.5379 86.9567 39.0954 85.5461 37.2784 84.5664C38.2025 86.6215 39.7428 87.9291 42.3425 88.6964Z" fill="#EAEAEA"/>
<path d="M23.7137 59.8493C22.4565 58.6978 21.6188 57.8202 20.2534 57.8493C21.0807 58.7749 22.0246 59.4818 23.7137 59.8493Z" fill="#EAEAEA"/>
<path d="M38.5751 47.8702C38.9831 47.9066 39.4795 47.8879 39.5565 47.3424C39.6252 46.852 39.2339 46.6209 38.8353 46.446C36.5197 45.4299 33.8888 46.953 33.5162 49.8347C35.0981 48.4584 36.6654 47.6974 38.5751 47.8702Z" fill="#EAEAEA"/>
<path d="M44.2033 35.5948C43.89 36.0238 43.4946 36.5641 43.8838 37.0586C44.3667 37.6708 44.6851 36.9566 45.039 36.7359C45.5489 36.4173 46.0963 36.4589 46.6021 36.6286C47.5388 36.943 48.4817 36.9337 49.7295 36.4256C49.2528 36.0717 48.7897 35.699 48.2985 35.3689C46.8883 34.4195 44.989 34.5184 44.2033 35.5948Z" fill="#EAEAEA"/>
<path d="M56.1299 47.4259C54.9549 46.8461 53.7841 47.1261 52.7174 47.8288C52.4187 48.0256 52.095 48.2921 52.3208 48.6992C52.4062 48.8533 52.7507 49.0136 52.9005 48.9594C55.0121 48.2026 56.4858 49.1708 57.8137 50.7959C57.8845 49.2874 57.438 48.0724 56.1299 47.4259Z" fill="#EAEAEA"/>
<path d="M55.9883 57.9875C54.7655 57.2754 53.5655 57.7356 52.4114 58.2728C51.966 58.48 51.5299 58.7871 51.6715 59.3493C51.838 60.0083 52.4322 59.8636 52.8516 59.7272C54.2587 59.2691 55.5481 59.5158 56.7855 60.3029C57.2466 59.2233 56.823 58.4737 55.9883 57.9875Z" fill="#EAEAEA"/>
<path d="M48.6128 26.1794C48.8782 26.4875 49.1602 26.2648 49.4089 26.118C50.3528 25.5599 51.2562 25.8108 52.1554 26.2335C52.9619 26.6135 53.7778 26.956 54.8976 26.8478C54.4023 25.942 53.8091 25.3257 52.9911 24.9103C51.5341 24.1711 50.1197 24.0223 48.8396 25.2591C48.5992 25.4902 48.2818 25.7952 48.6128 26.1794Z" fill="#EAEAEA"/>
<path d="M54.2555 35.9071C52.8485 36.1486 52.0294 37.1605 51.9045 38.8367C53.527 36.9273 55.3691 37.4708 57.4214 38.2526C56.9666 36.1757 55.7323 35.6541 54.2555 35.9071Z" fill="#EAEAEA"/>
<path d="M45.8185 57.1597C44.7871 57.1889 44.2022 57.8687 43.7266 58.6672C43.5424 58.9775 43.4196 59.3679 43.7079 59.6667C43.8359 59.7989 44.2636 59.879 44.3302 59.7978C45.5458 58.3164 47.1849 59.4199 48.772 59.0274C48.0726 57.7365 47.1433 57.1233 45.8185 57.1597Z" fill="#EAEAEA"/>
<path d="M47.6699 48.5833C46.9882 46.905 46.0506 45.8463 44.3646 46.2231C43.1189 46.5011 42.6609 47.4985 42.9669 48.8539C44.1741 47.9701 44.1741 47.9701 47.6699 48.5833Z" fill="#EAEAEA"/>
<path d="M40.8959 36.5507C40.0227 35.2484 38.9394 34.8028 37.7269 35.3337C36.5134 35.8647 36.0733 36.9276 36.4115 38.5923C37.5927 36.9318 38.9945 36.2082 40.8959 36.5507Z" fill="#EAEAEA"/>
<path d="M45.0171 26.778C45.2971 26.8102 45.679 26.8342 45.6926 26.4188C45.6988 26.222 45.5292 25.9805 45.373 25.8254C44.2137 24.6739 42.2832 25.1206 41.2268 27.0372C42.6318 26.6915 43.8193 26.6374 45.0171 26.778Z" fill="#EAEAEA"/>
</svg>
