<svg width="83" height="63" viewBox="0 0 83 63" fill="none" xmlns="http://www.w3.org/2000/svg">
<path d="M76.1697 17.6745C75.6483 16.2701 75.7888 14.6846 74.7346 13.4207C70.7913 8.69316 66.029 5.12434 60.2791 2.89643C56.9218 1.59612 53.5738 0.247915 49.9219 0.0344939C49.0956 -0.0144368 48.2786 -0.0873027 47.4742 0.421785C41.6316 4.1145 35.8744 7.93629 30.2702 11.9778C20.245 19.2081 10.0002 26.1646 1.11771 34.8534C0.94703 35.02 0.658773 35.3032 0.546376 35.2542C-0.234159 34.9117 0.0426552 35.4656 0.0686731 35.7862C0.0884466 36.0257 0.142566 36.263 0.194602 36.4983C2.02313 44.7395 4.73627 52.7006 7.74914 60.5712C8.04262 61.3374 8.48493 61.758 9.2894 61.9111C10.8016 62.1995 12.3179 62.4337 13.8581 62.4327C19.6705 62.4306 25.3642 61.4207 31.0476 60.3495C38.5386 58.9378 45.8101 56.6942 53.0815 54.457C54.6665 53.9687 56.2443 53.4565 57.8116 52.9141C58.2237 52.7714 58.8793 52.6673 58.564 51.9511C58.0749 50.8423 58.3361 49.7409 58.4922 48.5363C59.817 48.9267 60.5861 49.7169 61.0253 50.8163C61.4405 51.8574 62.1524 52.2342 63.2254 51.9906C65.3161 51.5149 67.4038 51.0547 69.4041 50.2374C73.4077 48.6009 77.3853 46.8904 81.5273 45.613C82.873 45.1976 83.0114 44.9009 82.6315 43.4611C81.2047 38.0599 79.6686 32.6869 78.5301 27.2129C77.8609 24.0022 77.3103 20.7489 76.1697 17.6745ZM12.4365 26.3145C24.0842 17.7974 36.018 9.69468 47.903 1.51908C49.0914 0.700796 50.1436 0.420746 51.4705 0.837178C59.5693 3.37949 67.0677 6.91396 72.75 13.5269C73.4358 14.3244 73.3619 14.5451 72.3836 14.8813C62.4323 18.3065 52.3551 21.336 42.307 24.453C34.1905 26.9704 26.1219 29.6532 17.8794 31.751C12.8944 33.0201 7.85215 34.007 2.79013 34.9023C2.47479 34.9575 2.15218 34.97 1.57562 35.0283C5.10468 31.7395 8.75238 29.0078 12.4365 26.3145ZM75.767 20.3262C76.7536 28.0198 78.7007 35.4999 80.7915 42.9468C81.0319 43.8025 80.9508 44.1752 80.0162 44.474C75.8138 45.817 71.7894 47.6348 67.6754 49.2141C66.922 49.5035 66.1383 49.7148 65.364 49.9439C63.8362 50.3946 62.6915 50.5945 61.5019 48.7935C59.6099 45.9263 56.1277 46.5853 55.2431 49.9959C54.678 52.1759 53.4229 52.71 51.6318 53.2857C44.224 55.6625 36.7424 57.7478 29.089 59.1533C24.1601 60.058 19.2095 60.8721 14.1724 60.896C12.8361 60.9023 11.5207 60.6795 10.1969 60.5275C9.32893 60.4286 8.96574 59.982 8.67539 59.2397C5.79261 51.849 3.13462 44.3803 0.742017 36.8148C0.465188 35.9413 0.882513 35.8518 1.49549 35.7664C4.17845 35.3958 6.86871 35.0658 9.54542 34.6504C18.4518 33.2689 27.0752 30.7443 35.6663 28.0968C44.8329 25.2724 53.9932 22.4302 63.1588 19.6037C67.101 18.3877 70.9672 16.9645 74.8408 15.2863C75.2789 16.9781 75.5526 18.648 75.767 20.3262Z" fill="#EAEAEA"/>
<path d="M25.5255 36.0911C22.3056 35.2322 20.1492 37.1156 19.5061 39.3112C18.9555 41.1914 18.7297 43.1903 19.4395 44.9299C19.9806 47.1214 20.8049 48.9422 22.1942 50.4778C22.9373 51.2992 23.8011 51.9562 24.8595 52.3091C26.8067 52.9577 28.7445 52.2862 30.2192 50.4778C34.1822 45.6191 31.5846 37.7058 25.5255 36.0911ZM22.1828 37.6767C22.4148 39.0051 21.3283 39.0853 20.475 39.6589C20.8215 38.6251 21.1899 37.8901 22.1828 37.6767ZM21.8706 39.2581C22.7687 41.2289 20.5447 41.8764 20.1138 43.31C19.6403 41.5006 20.1222 40.0931 21.8706 39.2581ZM20.6633 43.1569C21.0421 42.5968 21.4553 42.0596 21.8654 41.4964C22.5356 42.752 22.4939 43.0914 21.7488 44.1002C21.2763 44.7415 20.8403 45.4192 20.8215 46.2614C19.94 45.0892 19.8911 44.299 20.6633 43.1569ZM20.8392 46.2948C21.3679 45.4775 21.8966 44.6592 22.4846 43.7493C23.6283 45.5566 21.2992 46.2615 21.6822 47.8855C20.9006 47.3712 20.8746 46.8309 20.8392 46.2948ZM24.0717 50.787C21.4418 49.2014 21.2576 48.3519 23.084 45.3765C23.8333 47.2078 25.6379 48.6872 24.0717 50.787ZM25.9491 51.4221C24.285 51.3659 24.2288 51.2003 25.1706 49.0807C26.024 49.5231 26.4435 50.152 26.1333 51.1327C26.5985 49.9011 27.4529 50.5143 28.3427 50.7183C27.6111 51.4096 26.8504 51.6345 25.9491 51.4221ZM30.7301 45.2152C30.7177 46.2365 30.5251 47.2265 30.1609 48.1791C29.6468 49.5221 28.962 49.8053 27.6236 49.2452C26.5611 48.8006 25.8919 47.923 25.2872 47.0162C24.3402 45.5962 23.6106 44.0627 23.1819 42.399C22.8301 41.1831 22.7146 39.9442 22.7448 38.6782C22.7687 37.6913 23.1652 37.3592 24.1726 37.4674C27.6694 37.8422 30.778 41.4735 30.7301 45.2152Z" fill="#EAEAEA"/>
<path d="M59.6651 24.2042C56.1943 27.7418 58.1124 34.1184 61.3209 36.009C63.2504 37.1459 65.2839 37.0397 67.0739 35.653C69.3146 33.9165 70.3366 30.8255 69.4853 27.6627C68.9753 25.9335 67.7597 24.276 65.8209 23.2121C63.5792 21.9825 61.452 22.3823 59.6651 24.2042ZM60.4664 24.9757C60.5476 25.9897 60.5476 25.9897 58.4381 28.8724C58.129 27.1099 58.5963 26.2135 60.4664 24.9757ZM59.076 28.7079C59.5402 28.1697 59.894 27.5357 60.3946 26.8017C60.582 27.771 60.7256 28.4539 60.1344 29.2222C59.5652 29.9604 59.1728 30.8744 59.1104 31.8634C58.3902 30.8203 58.1373 29.7959 59.076 28.7079ZM59.1156 31.877C59.611 31.0691 60.1095 30.2529 60.609 29.4346C61.9036 31.0535 60.5278 32.2643 60.0179 33.703C59.4601 33.1481 59.0823 32.6161 59.1156 31.877ZM61.4374 35.1949C60.9681 34.8555 60.0252 34.666 60.5424 33.6708C60.8015 33.1721 60.9899 32.637 61.2105 32.1185C61.3198 32.1612 61.4291 32.2039 61.5384 32.2466C61.6966 33.0451 62.7914 33.5604 62.1992 34.5692C62.0358 34.8482 62.1514 35.7102 61.4374 35.1949ZM63.5501 35.7779C63.318 36.1693 62.833 35.9341 62.5822 35.7685C61.8683 35.2959 62.9017 35.0554 62.7966 34.5932C63.1265 34.9929 63.9539 35.097 63.5501 35.7779ZM65.2059 24.5238C66.8419 25.4275 67.8649 26.8361 68.4487 28.6809C68.8889 31.0098 68.2926 33.0773 66.5619 34.8274C66.0311 35.3646 65.5878 35.3636 64.9904 34.9211C64.0871 34.2517 63.4033 33.399 62.9204 32.4246C61.8298 30.2248 61.2522 27.8823 61.2282 25.4108C61.2209 24.6498 61.5103 24.249 62.2887 24.0678C63.3492 23.819 64.3046 24.0262 65.2059 24.5238Z" fill="#EAEAEA"/>
<path d="M14.1724 55.0453C13.5625 55.1046 13.4304 55.5856 13.5605 56.1384C13.7624 57.0712 14.6522 58.0019 15.209 57.8072C15.8677 57.5761 15.8115 56.9879 15.671 56.483C15.4619 55.7324 15.1663 54.9484 14.1724 55.0453ZM14.9821 57.4397C14.5054 57.4751 14.2203 57.0347 14.0298 56.6298C13.88 56.3081 13.932 55.8729 14.3067 55.8531C14.8197 55.8271 14.9477 56.358 15.1236 56.7599C15.1392 57.0077 15.4161 57.4074 14.9821 57.4397Z" fill="#EAEAEA"/>
<path d="M52.5705 27.4587C53.9359 27.6909 55.0859 27.8866 56.544 28.1344C55.0963 27.1974 53.8652 26.9913 52.5705 27.4587Z" fill="#EAEAEA"/>
<path d="M77.0398 40.9229C77.5341 40.723 77.5362 40.2525 77.4436 39.7913C77.3333 39.4477 77.2042 38.9178 76.7952 39.1052C76.2874 39.3384 76.6016 39.9964 76.4924 40.4576C76.432 40.7137 76.7182 41.0531 77.0398 40.9229Z" fill="#EAEAEA"/>
<path d="M69.7954 13.0429C67.5047 9.5667 54.5396 2.30828 50.0936 1.98242C53.7725 3.36602 57.0206 5.13377 60.2625 6.9161C63.5064 8.69947 66.4515 10.9545 69.7954 13.0429Z" fill="#EAEAEA"/>
<path d="M53.0607 4.9254C52.8057 4.67971 52.506 4.55477 52.0929 4.55894C52.3624 4.86189 52.6486 5.01076 52.9952 5.04928C53.2252 5.20336 53.4437 5.38034 53.6872 5.50944C57.8053 7.68634 61.8297 10.0142 65.5919 12.7751C65.8521 12.9667 66.1081 13.1656 66.3808 13.3394C66.6129 13.4872 66.8647 13.6038 67.1082 13.735C63.1244 9.6342 58.2601 7.0086 53.0607 4.9254Z" fill="#EAEAEA"/>
<path d="M57.0092 9.24292C59.7494 10.9992 62.4885 12.7555 65.2277 14.5108C62.8809 12.1361 60.1032 10.4339 57.0092 9.24292Z" fill="#EAEAEA"/>
<path d="M56.8094 11.5457C58.7857 12.9199 60.762 14.2951 62.7393 15.6694C61.2334 13.6164 59.1395 12.4108 56.8094 11.5457Z" fill="#EAEAEA"/>
<path d="M22.9945 25.8305C23.5201 25.514 24.2548 25.1912 24.1934 24.3282C24.1643 23.9222 23.6856 23.8368 23.3057 23.9878C22.6011 24.2678 21.9902 24.7082 22.0235 25.539C22.0433 26.0355 22.5137 25.9595 22.9945 25.8305Z" fill="#EAEAEA"/>
<path d="M56.3244 13.302C57.7096 14.3931 58.9438 15.6653 60.712 16.6709C59.663 14.6929 57.8761 14.1369 56.3244 13.302Z" fill="#EAEAEA"/>
<path d="M48.4087 8.46737C48.9343 8.21959 49.2912 7.82191 49.2975 7.22328C49.0925 6.82039 48.7875 6.62882 48.4098 6.82038C47.8613 7.09939 47.6677 7.67199 47.6677 8.21439C47.6677 8.63915 48.1132 8.60583 48.4087 8.46737Z" fill="#EAEAEA"/>
<path d="M55.752 15.3789C56.4097 16.0754 57.0602 16.7739 58.2081 17.3226C57.5306 16.1108 56.6439 15.7422 55.752 15.3789Z" fill="#EAEAEA"/>
<path d="M23.0591 48.9819C23.2662 48.5477 23.5878 48.275 23.4015 47.8127C23.0508 48.1063 22.9248 48.4041 23.0591 48.9819Z" fill="#EAEAEA"/>
</svg>
