<svg width="55" height="66" viewBox="0 0 55 66" fill="none" xmlns="http://www.w3.org/2000/svg">
<path d="M0.070905 11.3469C0.615198 15.6612 0.475734 20.066 0.563154 24.4323C0.773378 34.9472 0.809786 45.4652 1.48937 55.9666C1.51955 56.4236 1.48939 56.8359 1.94001 57.1899C3.30335 58.2622 4.54284 59.5031 5.95925 60.4953C13.3389 65.6622 21.5325 66.9541 30.2578 65.3353C34.8858 64.4764 38.902 62.3401 42.3217 59.0836C42.7026 58.7213 42.7932 58.3715 42.7849 57.8811C42.7453 55.3305 42.6901 52.7798 42.9607 50.2334C43.019 49.6868 43.1554 49.3911 43.7038 49.2849C49.1644 48.2251 52.0399 44.5741 53.2482 39.4509C54.4356 34.4131 54.1869 29.3233 53.3127 24.2532C52.8954 21.8317 52.2262 19.4955 50.6453 17.5455C49.282 15.8632 47.6939 15.4852 45.6822 16.3056C44.9808 16.5919 44.3064 16.9438 43.4769 17.3321C43.5404 16.3951 43.5768 15.5956 43.6518 14.8002C44.2304 8.60474 42.2614 5.17126 36.5791 2.56752C35.6352 2.13547 34.6559 1.74715 33.6557 1.47856C27.9505 -0.0570372 22.1642 -0.389147 16.3164 0.447881C11.8455 1.0871 7.54529 2.27498 3.65823 4.65697C1.18134 6.17278 -0.355787 7.97073 0.070905 11.3469ZM45.7134 17.658C47.7126 16.822 48.8866 17.176 50.0116 19.027C51.2448 21.054 51.6778 23.3329 51.9806 25.6337C52.5748 30.1436 52.7049 34.6703 51.6174 39.1126C50.4955 43.6964 47.9374 46.9925 42.9066 47.664C42.0574 47.7775 41.8316 48.3209 41.8087 49.034C41.7285 51.5056 41.6328 53.9771 41.6141 56.4497C41.6089 57.1607 41.4017 57.5771 40.871 58.0935C31.9562 66.7563 14.0123 66.2316 4.01623 57.5397C3.04525 56.6953 2.6092 55.8552 2.58214 54.5195C2.38128 44.7427 2.39377 34.9597 1.94522 25.1902C1.78079 21.6026 1.42591 18.0234 1.16053 14.44C1.11474 13.8268 1.08558 13.2115 1.03771 12.412C4.5574 15.403 8.62762 16.5846 12.7811 17.507C19.885 19.0853 27.0243 19.2186 34.1615 17.7111C37.8477 16.9323 39.5545 16.1109 42.5673 13.8518C42.5673 15.7486 42.5673 17.5726 42.5673 19.6006C43.6736 18.7959 44.6259 18.114 45.7134 17.658ZM3.81328 12.9169C7.89496 11.1471 12.164 10.4266 16.4122 9.66457C21.3805 8.7734 26.3811 8.51833 31.3984 9.30851C34.5965 9.8124 37.37 11.3063 40.0728 12.9825C40.821 13.4468 40.6847 13.7612 40.0228 14.1547C37.3138 15.7642 34.3218 16.5097 31.2527 16.9355C23.1685 18.0567 15.2289 17.4643 7.50262 14.7128C6.23712 14.263 4.97472 13.78 3.81328 12.9169ZM34.4945 3.11617C37.1744 3.96153 39.5389 5.43987 41.2321 7.79583C41.8753 8.69116 42.2947 9.67081 42.3602 10.8774C42.3248 11.0565 42.2936 11.3261 42.2177 11.5822C41.7556 13.1407 41.4049 13.2438 40.2611 12.1257C37.4169 9.34599 33.8972 8.10711 30.0392 7.7698C20.9237 6.97233 12.241 8.88896 3.8008 12.1642C3.20656 12.3953 2.85272 12.3818 2.39377 11.9497C0.775462 10.4256 0.713005 8.81921 2.28864 7.2326C4.27536 5.23269 6.79807 4.1635 9.38841 3.23798C17.7401 0.255281 26.1314 0.479117 34.4945 3.11617Z" fill="#EAEAEA"/>
<path d="M42.0969 23.9597C42.0751 29.9449 41.7931 35.9321 42.3093 41.4946C42.329 44.0598 42.7953 44.3836 44.9058 43.761C45.6697 43.5362 46.2973 43.1197 46.8572 42.5742C47.5315 41.9173 47.9988 41.1229 48.3932 40.2797C50.0709 36.6911 50.4112 32.864 50.3269 28.9808C50.2863 27.0819 49.9262 25.2173 49.1353 23.4714C48.3194 21.6714 47.0518 21.104 45.191 21.7089C44.4999 21.9327 43.8589 22.4709 43.1741 22.5105C42.0709 22.573 42.1001 23.1581 42.0969 23.9597ZM45.8165 23.0477C46.7531 22.8218 47.3078 23.2736 47.6242 24.0752C48.3714 25.9669 48.6129 27.9512 48.6524 30.2895C48.4484 33.091 48.2694 36.2153 46.9883 39.1366C46.5845 40.0569 46.111 40.9428 45.3034 41.5904C44.9527 41.8715 44.5104 42.0047 44.1128 41.8444C43.7153 41.6841 43.9119 41.2302 43.9036 40.9105C43.7777 35.6219 43.6653 30.3321 43.5529 25.0435C43.5342 24.1325 44.3969 23.3902 45.8165 23.0477Z" fill="#EAEAEA"/>
<path d="M39.0414 56.7244C39.9749 51.5991 39.976 33.3657 39.1257 29.8406C38.6282 38.8001 38.9488 47.7628 39.0414 56.7244Z" fill="#EAEAEA"/>
<path d="M4.89775 55.9698C5.85832 54.1687 6.47128 36.4558 5.64808 34.2737C5.02677 36.9201 4.50123 52.1178 4.89775 55.9698Z" fill="#EAEAEA"/>
<path d="M8.31436 56.6318C9.17711 53.8074 8.99291 41.4893 8.41323 38.3723C7.26949 44.5855 7.58378 50.5311 8.31436 56.6318Z" fill="#EAEAEA"/>
<path d="M35.1471 57.9268C35.1315 50.0084 35.043 42.2149 34.403 34.4536C33.7286 40.4981 34.2416 56.1497 35.1471 57.9268Z" fill="#EAEAEA"/>
<path d="M31.6191 57.192C32.0072 52.4332 32.1862 47.6775 31.3943 42.9375C30.2255 47.7077 31.0196 52.4488 31.6191 57.192Z" fill="#EAEAEA"/>
<path d="M11.6093 57.1773C12.2139 52.1561 12.9445 47.1413 12.3742 42.0608C11.0327 47.0444 11.6051 52.1249 11.6093 57.1773Z" fill="#EAEAEA"/>
<path d="M16.4985 56.7433C17.1937 52.8861 17.2031 47.0924 16.5163 45.4944C15.82 49.2298 15.8127 53.7033 16.4985 56.7433Z" fill="#EAEAEA"/>
<path d="M27.4812 56.4975C27.5426 56.0425 27.6508 55.5896 27.6581 55.1336C27.7029 52.557 27.8444 49.9751 27.4063 47.2371C26.5612 50.4436 26.6923 53.4794 27.4812 56.4975Z" fill="#EAEAEA"/>
<path d="M21.8874 54.9225C22.365 53.1162 21.9821 51.3526 21.7031 49.5828C21.3868 51.3765 21.5346 53.1537 21.8874 54.9225Z" fill="#EAEAEA"/>
<path d="M26.5955 13.6176C26.9442 13.6645 27.17 13.4896 27.2096 13.0877C27.0274 12.6369 26.6684 12.4131 26.1699 12.4183C25.8306 12.4214 25.5153 12.5922 25.5569 12.9368C25.6256 13.5041 26.148 13.5572 26.5955 13.6176Z" fill="#EAEAEA"/>
<path d="M16.7712 11.6292C16.3872 11.6718 15.9917 11.726 16.0302 12.1809C16.0718 12.6765 16.5204 12.7087 16.8992 12.7087C17.2135 12.7087 17.5372 12.5869 17.5403 12.2049C17.5444 11.676 17.1271 11.6552 16.7712 11.6292Z" fill="#EAEAEA"/>
<path d="M34.3176 12.0881C34.6454 12.0985 34.9202 12.0038 34.9722 11.6311C34.8827 11.1303 34.4852 11.2011 34.1615 11.1782C33.8868 11.1584 33.5683 11.2105 33.5756 11.5582C33.586 12.0017 33.9596 12.0756 34.3176 12.0881Z" fill="#EAEAEA"/>
<path d="M23.8553 15.9288C24.0437 15.756 24.0177 15.5009 23.8148 15.3343C23.3017 14.9158 22.9229 15.2823 22.4077 15.6487C22.9229 16.0173 23.3246 16.4181 23.8553 15.9288Z" fill="#EAEAEA"/>
<path d="M11.1233 14.5139C10.8589 14.5045 10.6487 14.6316 10.6477 14.9002C10.6466 15.2895 10.9505 15.3905 11.2627 15.4342C11.5344 15.4249 11.7602 15.3291 11.7508 15.0469C11.7415 14.6711 11.4688 14.5264 11.1233 14.5139Z" fill="#EAEAEA"/>
<path d="M22.6762 10.8244C22.5898 10.4798 22.3307 10.4507 22.0518 10.4861C21.7697 10.5225 21.4991 10.6579 21.5283 10.9681C21.5605 11.3075 21.8759 11.3169 22.1475 11.2856C22.4223 11.2544 22.6731 11.1722 22.6762 10.8244Z" fill="#EAEAEA"/>
<path d="M16.2092 13.6957C15.9355 13.7092 15.6868 13.7852 15.6889 14.1829C15.7721 14.4547 16.0167 14.5234 16.2904 14.4953C16.5516 14.4682 16.6776 14.2693 16.6786 14.0289C16.6786 13.728 16.4382 13.6853 16.2092 13.6957Z" fill="#EAEAEA"/>
</svg>
