<svg width="94" height="64" viewBox="0 0 94 64" fill="none" xmlns="http://www.w3.org/2000/svg">
<path d="M88.5875 41.548C88.0806 40.8734 87.5738 40.1988 87.0888 39.5086C86.9473 39.3076 86.7173 39.0505 86.8692 38.809C87.0441 38.5331 87.3449 38.7579 87.579 38.7996C88.3439 38.9349 89.0797 39.2202 89.8738 39.2087C91.3527 39.1869 92.4704 38.4758 92.8513 37.2921C93.28 35.9606 92.8325 34.6603 91.6628 33.7618C90.6502 32.9841 89.4544 32.7009 88.2451 32.4323C85.7182 31.8722 85.6391 31.5974 87.3698 29.6443C88.2711 28.6261 89.2858 27.7006 89.8915 26.4441C90.8635 24.4275 89.7666 22.4526 87.5426 22.2829C86.7131 22.2194 85.9399 22.4588 85.227 22.8992C83.5151 23.9559 82.5555 25.5581 81.9519 27.4862C81.8457 27.3644 81.7708 27.3081 81.7333 27.2321C79.1857 22.2006 75.4485 18.1872 70.9703 14.8516C63.8248 9.52755 55.7676 6.10761 47.2348 3.7329C41.9375 2.25769 36.5497 1.21139 31.0787 0.664818C28.222 0.379563 25.3965 -0.282543 22.4731 0.133889C17.2227 0.880344 13.0744 3.4133 10.0969 7.74107C5.6073 14.2655 2.63814 21.449 1.11454 29.2341C0.0467659 34.6894 -0.387206 40.1644 0.411021 45.6915C1.06147 50.1973 2.39463 54.4502 5.43663 57.9596C8.20076 61.1495 11.4988 63.5086 15.9176 63.5669C19.7756 63.6179 23.6345 63.7522 27.4914 63.7366C37.3698 63.696 47.088 62.3353 56.6053 59.6972C64.6282 57.4734 72.3003 54.4658 78.7788 48.9564C78.8797 49.4946 78.9422 50.0433 79.0889 50.5669C79.3095 51.3571 79.7487 52.0078 80.6104 52.1764C81.4815 52.3461 82.108 51.8703 82.6055 51.2228C83.0238 50.6794 83.3173 50.0661 83.5119 49.403C83.8262 48.3338 84.0166 47.2396 84.1821 46.0174C84.5526 46.4661 84.8315 46.818 85.1261 47.1563C85.7838 47.9132 86.5935 48.4348 87.578 48.6492C89.6698 49.1052 90.9572 47.9059 90.647 45.7925C90.4087 44.1643 89.5501 42.8307 88.5875 41.548ZM13.2461 61.8293C10.0782 60.8486 7.60546 58.8144 5.65829 56.1554C2.60588 51.988 1.58181 47.1605 1.24879 42.1404C0.889741 36.7164 1.52771 31.3798 2.9462 25.7288C4.40944 19.1919 7.39211 12.9485 11.8401 7.41624C13.6936 5.11129 16.0508 3.4716 18.8119 2.43676C23.8572 0.546163 28.3084 1.4696 32.0778 5.36636C35.8421 9.25687 37.8153 14.0458 38.8643 19.2564C39.8561 24.1859 39.6625 29.1363 38.8102 34.0627C37.7154 40.3904 35.789 46.4317 32.1996 51.8235C29.7789 55.459 26.8545 58.627 22.8613 60.58C19.8193 62.0709 16.5993 62.8673 13.2461 61.8293ZM78.3593 46.9492C78.2469 45.8852 78.7017 44.9378 78.4717 43.6854C77.941 45.3105 78.1325 46.8534 77.2614 48.0642C77.0366 48.3765 76.7296 48.7107 76.203 48.8169C76.5038 47.2729 76.5537 45.7696 76.2488 44.2392C75.9178 44.4485 76.0781 44.7598 76.0406 45.0055C75.9959 45.2897 76.024 45.5874 76.0313 45.8789C76.05 46.6285 75.9085 47.3635 75.8429 48.1058C75.7336 49.3457 75.0905 50.1234 73.8645 50.6138C74.312 48.5285 74.2766 46.4963 73.7917 44.3506C73.5232 44.8535 73.697 45.2626 73.7209 45.6436C73.8052 46.944 73.7605 48.2339 73.6043 49.5279C73.4701 50.6408 73.0579 51.5028 71.9361 51.9245C71.5208 52.0806 71.1462 52.344 70.5852 52.6491C71.3335 50.2973 71.3137 48.1162 70.5478 45.9476C70.5925 46.9845 70.6373 48.0225 70.681 49.0594C70.6862 49.1885 70.6914 49.3197 70.6851 49.4488C70.5301 52.496 69.7974 53.434 66.7169 54.4439C67.7878 51.5455 68.048 48.6336 67.4006 45.6634C67.2164 47.3219 67.3018 48.9959 67.0728 50.6554C66.9022 51.8922 66.5046 53.0541 66.1268 54.2284C65.9665 54.7271 65.6585 55.0456 65.1558 55.2258C64.2796 55.5402 63.4189 55.8962 62.3407 56.3168C64.0891 52.7459 64.4835 49.1979 63.8071 45.5114C63.7831 46.0788 63.7602 46.6462 63.7353 47.2136C63.7082 47.8299 63.6582 48.4452 63.653 49.0615C63.6322 51.5226 62.835 53.7776 61.8443 55.9847C61.6632 56.3876 61.4165 56.6739 60.9649 56.8082C60.1635 57.0466 59.3788 57.3381 58.3714 57.6806C60.2301 53.6662 61.1772 49.6997 60.2843 45.4708C60.1812 47.3063 60.2915 49.1573 59.9835 50.9813C59.6015 53.2404 58.8148 55.3694 57.8438 57.4349C57.7158 57.7066 57.5711 57.9326 57.2495 58.0158C56.2182 58.2834 55.191 58.5676 53.9432 58.9049C56.4326 54.1399 57.2069 49.2551 56.5647 44.1351C56.469 45.7165 56.3639 47.2969 56.2775 48.8793C56.0881 52.3555 54.8715 55.5277 53.428 58.6363C53.2979 58.9174 53.1085 59.1183 52.7963 59.1902C51.7952 59.4223 50.795 59.6576 49.5483 59.9502C52.7391 54.3918 53.3313 48.5472 52.7526 42.5048C52.6829 44.0227 52.6225 45.5416 52.5424 47.0595C52.3176 51.3352 51.2914 55.3902 49.2829 59.1933C48.9113 59.896 48.4638 60.2864 47.6739 60.3749C46.9371 60.4572 46.2118 60.6394 45.3209 60.808C49.2423 52.9853 50.7128 44.8483 49.5327 36.275C49.5181 37.9501 49.5097 39.6262 49.4889 41.3013C49.4036 48.0236 47.6396 54.319 44.6579 60.3052C44.4675 60.6862 44.2895 61.0246 43.7713 61.0933C42.1988 61.3025 40.6335 61.5659 39.0579 61.8095C38.9205 61.4035 39.2057 61.2234 39.3493 61.0068C42.0708 56.8967 44.2771 52.5481 45.7101 47.8081C47.035 43.4272 47.2171 39.0047 46.4802 34.5176C46.4615 34.4062 46.4043 34.3001 46.2534 34.2074C46.3127 35.9793 46.4417 37.7523 46.4188 39.5221C46.3502 44.8389 44.6132 49.7143 42.3278 54.4293C41.1789 56.8009 39.7583 59.0142 38.3356 61.2265C37.9849 61.7721 37.5717 62.0042 36.9244 62.0469C35.5455 62.1364 34.1728 62.3155 32.5451 62.4852C40.0018 53.2498 43.9191 43.0618 42.9522 31.2809C42.8398 32.9217 42.7014 34.5603 42.6182 36.2031C42.1634 45.1575 38.6031 52.9052 33.3808 60.0012C31.4232 62.6622 31.3962 62.6601 28.0794 62.7653C25.7472 62.8392 23.4128 62.8548 20.8256 62.9006C21.7331 62.5383 22.4367 62.302 23.1037 61.9844C27.1771 60.047 30.2337 56.9467 32.825 53.3466C35.8618 49.1271 37.782 44.3819 39.1016 39.3941C41.0009 32.2116 41.7169 24.9491 39.9768 17.6282C38.7092 12.2937 36.4644 7.44436 32.3557 3.63921C31.7885 3.11346 31.1682 2.64602 30.575 2.15359C30.6677 1.93496 30.8435 2.00782 30.9861 2.03073C41.8272 3.80681 52.4352 6.35745 62.2553 11.5025C68.176 14.6038 73.5044 18.4465 77.5569 23.8632C80.7936 28.1889 82.6658 32.982 82.2506 38.4529C82.0081 41.6771 80.7197 44.5162 78.3593 46.9492ZM87.8683 47.731C86.964 47.578 86.2594 47.0678 85.6807 46.3745C85.2645 45.8758 84.8648 45.3646 84.4444 44.8691C84.2134 44.5963 83.9615 44.2882 83.5431 44.4839C83.1914 44.6484 83.1851 45.0034 83.2059 45.3303C83.2882 46.5858 82.9801 47.782 82.6492 48.972C82.465 49.6331 82.1798 50.2587 81.7156 50.772C81.1079 51.4456 80.4106 51.3925 80.1307 50.5596C79.7321 49.3707 79.3719 48.1495 80.446 47.0189C81.2712 46.1496 81.8561 45.0856 82.491 43.8967C82.62 44.2371 82.6971 44.4402 82.773 44.6432C82.6023 42.511 83.9272 40.7287 84.0021 38.4862C84.5839 39.0963 85.0137 39.5471 85.4435 39.9979C85.4882 39.9593 85.533 39.9208 85.5767 39.8823C85.4841 39.7407 85.4216 39.5617 85.2957 39.4617C84.2394 38.6226 83.9188 37.5545 84.0271 36.2167C84.1228 35.033 84.0156 35.0246 85.1458 34.2834C84.5849 34.451 84.2977 34.5374 83.9397 34.6446C83.8398 33.3173 83.0967 31.9711 83.7045 30.7135C83.6108 30.8384 83.5171 30.9634 83.4224 31.0883C82.6252 30.0524 82.6252 30.0524 84.6421 26.2192C83.9542 26.4909 83.9542 26.4909 82.5399 28.9176C82.159 28.4387 82.4171 27.9682 82.5503 27.5487C83.0977 25.8236 84.0708 24.3994 85.6599 23.4666C86.3177 23.0803 87.0295 22.8763 87.8049 23.0543C89.2868 23.3947 89.8686 24.5347 89.2733 25.9298C88.8164 27.0021 87.9891 27.7922 87.2314 28.6355C86.6903 29.2393 86.0991 29.8036 85.7193 30.5334C85.1375 31.6505 85.4091 32.3949 86.6039 32.8113C87.4916 33.1215 88.4064 33.3547 89.3087 33.6265C90.0663 33.8545 90.7501 34.2272 91.3235 34.7685C91.9406 35.3505 92.1654 36.0907 91.9219 36.9017C91.6815 37.7054 91.0384 38.0552 90.2422 38.1791C89.3826 38.3134 88.5677 38.0531 87.7372 37.9251C87.1586 37.8355 86.5185 37.6575 86.1127 38.2124C85.6974 38.7777 86.0804 39.3618 86.3687 39.8448C86.8339 40.6225 87.3917 41.345 87.9225 42.0832C88.7644 43.2544 89.4846 44.486 89.7094 45.9351C89.931 47.3198 89.2619 47.9663 87.8683 47.731Z" fill="#EAEAEA"/>
<path d="M13.8123 40.6944C15.0539 39.2817 15.645 37.5837 15.8822 35.742C16.0248 34.6312 16.0103 33.5495 15.4857 32.5105C14.9612 31.4704 13.4532 31.3216 12.91 32.473C13.0702 32.4293 13.2232 32.3887 13.3762 32.347C13.4678 32.6843 13.2794 32.9467 13.1441 33.2351C12.1929 35.2683 11.352 37.3421 11.1397 39.6023C11.0752 40.2884 11.1605 41.0057 11.9296 41.3336C12.7278 41.6741 13.3263 41.2472 13.8123 40.6944ZM12.1627 40.9568C11.479 40.7527 11.5092 40.1301 11.5154 39.5867C11.5362 37.8346 12.2137 36.2427 12.7788 34.627C12.9589 34.1117 13.2284 33.6276 13.422 33.1153C13.5157 32.8707 13.7071 32.5854 13.3918 32.345C14.5834 32.2783 14.981 32.5292 15.1558 33.7337C15.5013 36.1137 14.9144 38.2989 13.5334 40.2561C13.2201 40.7007 12.8048 41.1483 12.1627 40.9568Z" fill="#EAEAEA"/>
<path d="M32.4764 25.8183C33.6951 24.7512 34.0979 21.2886 33.1498 19.9758C32.8188 19.5177 32.44 19.1877 31.7677 19.7374C32.4847 20.0653 32.7127 20.4411 32.1673 21.147C31.7386 21.7019 31.444 22.3744 31.161 23.0261C30.8498 23.7445 30.6365 24.5076 30.8946 25.2957C31.1599 26.1057 31.8874 26.3337 32.4764 25.8183ZM31.2869 24.8314C31.1339 23.9173 31.52 23.1292 31.8905 22.3432C32.1039 21.8903 32.3515 21.4531 32.6971 20.7941C32.9937 22.413 32.8698 23.7195 32.2933 24.9803C32.1882 25.2103 32.0809 25.4925 31.7698 25.4654C31.4118 25.4342 31.3358 25.1229 31.2869 24.8314Z" fill="#EAEAEA"/>
<path d="M32.8501 40.2791C33.3631 40.4665 33.6993 40.1375 34 39.7721C34.6796 38.9475 34.9429 37.9398 35.2926 36.8196C35.4154 36.3917 35.5986 35.8284 35.5715 35.2392C35.5497 34.7374 35.2676 34.3876 34.7795 34.2502C34.3861 34.1398 34.0323 34.3001 33.8647 34.6374C33.1414 36.0877 32.4691 37.5639 32.3619 39.2171C32.3338 39.6429 32.3651 40.1021 32.8501 40.2791ZM34.2383 35.2142C34.3622 35.0736 34.4788 34.8821 34.7108 34.9696C34.9741 35.0685 34.995 35.2985 34.9544 35.5328C34.8628 36.0741 34.7608 36.6145 34.6952 36.9768C34.3809 37.9814 34.2321 38.8548 33.6431 39.5482C33.4693 39.7523 33.2788 39.9772 33.003 39.8887C32.7033 39.7929 32.7283 39.4639 32.747 39.2213C32.8594 37.7451 33.2299 36.3594 34.2383 35.2142Z" fill="#EAEAEA"/>
<path d="M10.8494 53.0437C10.1219 53.0271 10.3217 53.8068 10.0064 54.4055C9.75037 55.2467 9.72541 56.2534 10.2374 57.2268C10.4747 57.6786 10.8244 58.0326 11.3843 57.9607C11.9057 57.8931 12.118 57.4808 12.245 57.0227C12.4926 56.1295 12.5114 55.23 12.2418 54.342C12.0327 53.6507 11.6039 53.0614 10.8494 53.0437ZM11.2792 57.4111C10.9399 57.4465 10.7567 57.1789 10.637 56.9061C10.2447 56.017 10.1385 55.129 10.5434 54.1931C10.8452 53.4945 11.1626 53.634 11.4759 54.1181C12.0066 54.9395 11.8714 55.8526 11.7714 56.6573C11.6705 57.0331 11.6413 57.3736 11.2792 57.4111Z" fill="#EAEAEA"/>
<path d="M27.2999 34.3833C27.0709 34.2324 26.8035 34.1595 26.6005 34.4115C26.357 34.7155 26.6984 34.7623 26.8451 34.8977C27.1604 35.1892 27.2219 35.59 27.1844 35.9731C27.0991 36.8507 26.8618 37.694 26.381 38.4467C26.2696 38.6205 26.1759 38.9256 25.898 38.8277C25.6056 38.7247 25.6296 38.4144 25.6629 38.1625C25.7763 37.3254 26.1145 36.5696 26.5371 35.844C25.6681 36.4613 25.3684 37.3629 25.2424 38.3311C25.1914 38.7226 25.3142 39.1213 25.6806 39.3472C25.973 39.5273 26.2717 39.3909 26.4694 39.1671C27.4487 38.0563 28.0336 36.7945 27.838 35.2704C27.7922 34.907 27.6142 34.5895 27.2999 34.3833Z" fill="#EAEAEA"/>
<path d="M12.8652 12.4791C12.5905 12.3104 12.2751 12.2803 12.0743 12.5551C11.7465 13.0059 12.5197 12.7581 12.4344 13.1079C11.1564 13.9106 10.4414 15.0662 10.4466 16.6195C10.4477 16.9849 10.5257 17.368 10.9024 17.52C11.2792 17.672 11.6112 17.4502 11.8547 17.1879C12.8434 16.1218 13.3689 14.859 13.3356 13.3953C13.3284 13.0371 13.2014 12.6852 12.8652 12.4791ZM11.5227 16.8828C11.4176 17.014 11.1772 17.1317 11.0253 17.1057C10.8369 17.0734 10.8244 16.8256 10.7932 16.6309C10.6059 15.4545 11.4207 13.9647 12.656 13.364C12.68 14.7039 12.3345 15.8688 11.5227 16.8828Z" fill="#EAEAEA"/>
<path d="M4.80176 27.5527C4.53118 27.9848 4.29807 28.4574 4.23354 28.9811C4.02957 29.586 4.12324 30.1971 4.17631 30.8082C4.21274 31.2277 4.36674 31.5932 4.79655 31.6931C5.21284 31.7899 5.59584 31.5744 5.79566 31.2329C6.44611 30.119 6.5814 28.8999 6.19114 27.6849C5.94969 26.9312 5.22325 26.8802 4.80176 27.5527ZM5.61352 30.6957C5.50424 30.9841 5.30236 31.235 4.98702 31.2236C4.59779 31.209 4.61756 30.8519 4.57385 30.5656C4.43024 29.6078 4.53535 28.7 5.07652 27.8692C5.17539 27.7172 5.18579 27.4694 5.45742 27.5267C5.67076 27.5725 5.78734 27.7464 5.83209 27.9348C5.9986 28.6375 5.98088 29.3424 5.78315 30.1419C5.74776 30.2637 5.69365 30.4844 5.61352 30.6957Z" fill="#EAEAEA"/>
<path d="M20.298 8.42076C20.8756 8.57172 21.116 8.17507 21.3398 7.77946C21.5125 7.47338 21.6416 7.14231 21.8133 6.77377C21.8185 6.52703 21.8341 6.24074 21.8279 5.9534C21.8164 5.39226 21.6395 4.89983 21.0203 4.80926C20.4323 4.72285 20.0691 5.07161 19.8672 5.61298C19.6507 6.19078 19.5289 6.78836 19.5726 7.39947C19.608 7.86379 19.7662 8.28229 20.298 8.42076ZM20.6633 5.43598C20.8589 5.33083 21.0754 5.31937 21.1857 5.48907C21.473 5.93257 21.3564 6.41668 21.2346 6.94451C20.9984 7.30264 21.0817 8.10845 20.4333 8.02829C19.7006 7.93771 19.9535 7.17875 19.9088 6.66549C19.8568 6.07416 20.17 5.70145 20.6633 5.43598Z" fill="#EAEAEA"/>
<path d="M31.8645 12.4175C31.9175 12.3436 31.9249 12.2363 31.98 12.0562C32.0685 11.5232 32.134 10.7278 31.4648 10.5769C30.6291 10.3874 30.8102 11.3056 30.6416 11.7991C30.6021 11.9146 30.6136 12.0542 30.6292 12.1791C30.676 12.5695 30.5074 13.1129 31.06 13.2212C31.6126 13.3295 31.6397 12.7329 31.8645 12.4175Z" fill="#EAEAEA"/>
<path d="M22.9289 50.2057C22.7187 50.3046 22.8165 50.4421 22.8935 50.5941C23.2609 51.3176 23.0361 51.9569 22.523 52.7002C22.1869 52.0214 22.4564 51.4738 22.6989 50.8575C21.9746 51.3197 21.935 51.9329 22.1265 52.5909C22.2129 52.8855 22.4023 53.1135 22.7728 52.8699C23.3483 52.492 23.699 50.9293 23.3233 50.3807C23.2255 50.2391 23.11 50.1204 22.9289 50.2057Z" fill="#EAEAEA"/>
<path d="M20.2616 23.0638C19.7194 23.0107 19.5903 23.4417 19.5529 23.931C19.8318 23.9279 19.9754 23.4323 20.272 23.7051C20.655 24.057 20.196 25.274 19.6319 25.4208C19.9931 25.7675 20.2824 25.6238 20.4884 25.2709C20.7195 24.8763 20.8048 24.4349 20.7601 23.9716C20.7247 23.5916 20.7705 23.1137 20.2616 23.0638Z" fill="#EAEAEA"/>
</svg>
