<svg width="91" height="77" viewBox="0 0 91 77" fill="none" xmlns="http://www.w3.org/2000/svg">
<path d="M36.0804 68.6799C45.0493 70.5268 54.0671 73.1243 62.6665 67.616C58.1883 67.9554 53.8256 69.0641 49.3173 69.2036C44.8922 69.34 40.5045 68.3551 36.0804 68.6799Z" fill="#EAEAEA"/>
<path d="M5.4065 73.5157C9.19158 76.2319 13.4637 76.1569 17.7213 75.4917C25.001 74.3548 32.2246 73.6229 39.4888 75.6176C41.7732 76.2444 44.1325 76.6535 46.5386 76.6889C56.9748 76.8388 66.1997 73.0764 74.77 67.6045C80.7874 63.7618 85.6954 58.7084 88.6083 52.0268C90.4233 47.8635 90.5919 43.4202 90.4899 39.3204C90.6627 28.8201 89.0902 19.0121 84.0209 10.1129C81.9561 6.48682 79.3283 3.28654 74.9573 1.66142C68.4216 -0.769504 62.1545 -0.404085 55.8092 1.92065C46.5729 5.3052 38.9351 11.2164 31.7001 17.6285C20.0899 27.9185 11.2355 40.325 4.49276 54.2651C2.84947 57.6632 1.4518 61.1591 0.409003 64.7925C0.0988703 65.8731 -0.321578 67.1568 0.39027 68.0167C1.96695 69.9229 3.34069 72.0332 5.4065 73.5157ZM84.0511 16.9153C85.6569 20.861 86.632 24.9504 87.1763 29.1147C87.7154 33.2436 87.6113 37.4194 87.6582 41.5848C87.73 48.0228 85.6767 53.5884 81.2661 58.2191C71.7165 68.2437 60.0887 73.6708 46.1369 73.8249C43.6683 73.852 41.283 73.2659 38.931 72.6735C33.2747 71.2472 27.6288 71.4596 21.9257 72.28C18.5892 72.7599 15.3016 73.6927 11.8693 73.448C8.81692 73.2294 6.22971 72.1613 3.99738 69.6137C7.37137 69.4149 9.96066 67.8262 12.4105 66.2292C18.2395 62.4303 24.5993 60.2045 31.3827 59.0145C42.8659 57 52.7319 51.5874 61.9963 44.7486C68.6995 39.8003 74.873 34.3878 79.5854 27.4479C81.7615 24.2424 83.3579 20.8006 84.0511 16.9153ZM2.54663 64.932C5.31388 55.6414 10.2292 47.4356 15.3776 39.3298C21.1785 30.1964 28.3573 22.2394 36.7798 15.5807C44.3073 9.62984 52.531 4.62537 62.1545 2.59006C63.394 2.32771 64.6834 2.2996 65.9489 2.16322C72.3566 2.23297 77.3156 4.61288 80.2878 10.5939C82.2819 14.6072 81.7615 18.4384 79.9132 22.2488C77.0783 28.0944 72.8374 32.8667 67.9845 37.0529C61.2969 42.8226 54.1139 47.9062 46.1972 51.9123C40.185 54.9543 33.6587 56.2588 27.1834 57.7215C21.7113 58.9573 16.6764 61.1279 11.9411 64.1096C10.1688 65.2256 8.22683 66.0761 6.34523 67.0142C5.8051 67.2838 5.21918 67.4348 4.58746 67.4566C2.17509 67.5389 1.87016 67.2026 2.54663 64.932Z" fill="#EAEAEA"/>
<path d="M25.8887 46.682C26.3612 47.3566 27.4124 46.6153 28.2397 46.7923C30.446 47.265 32.6586 46.937 34.8389 46.504C41.385 45.2036 46.7686 41.5932 51.9804 37.7047C55.4075 35.1479 58.6733 32.3775 60.9857 28.6984C62.1565 26.8359 62.9912 24.8464 62.3137 22.5674C62.2398 22.3186 62.2304 21.6346 61.8984 21.922C61.0149 22.6882 60.8307 21.6929 60.5788 21.4181C57.9708 18.5645 54.8799 16.7114 50.946 16.4396C37.1732 15.4871 24.8543 27.345 24.8678 41.8462C24.8793 42.1043 24.9136 42.6582 24.9271 43.2121C24.9594 44.4541 25.2102 45.7138 25.8887 46.682ZM47.4169 19.1881C52.249 18.6551 56.2755 20.6425 60.0418 23.3909C60.736 23.8969 60.3707 24.3206 60.097 24.7829C58.9314 26.7484 57.566 28.5693 55.956 30.1881C51.1864 34.9813 45.7726 38.9103 39.8187 42.0981C35.8442 44.225 31.5461 45.2099 27.0991 45.6971C26.2551 45.7898 25.998 45.4889 25.9585 44.7622C25.9283 44.2084 25.9002 43.6545 25.8919 43.4911C26.0147 31.4562 35.89 20.4603 47.4169 19.1881Z" fill="#EAEAEA"/>
<path d="M9.79414 55.1926C7.48376 56.9104 6.07047 60.4209 6.82291 62.3823C7.99683 60.1315 8.90641 57.9046 9.79414 55.1926Z" fill="#EAEAEA"/>
<path d="M76.9919 16.1147C77.5966 15.4235 77.9795 14.8425 77.8432 14.0826C77.7485 13.5568 77.4217 13.1268 76.8556 13.2133C76.2301 13.308 76.406 13.8254 76.5111 14.245C76.6568 14.8207 76.8067 15.3954 76.9919 16.1147Z" fill="#EAEAEA"/>
<path d="M73.4014 9.04686C73.7542 9.14576 74.1029 9.02916 73.9749 8.54506C73.7761 7.79132 73.1954 7.52168 72.4877 7.46338C72.1078 7.54146 71.4855 7.56436 71.6395 8.01203C71.8903 8.74599 72.725 8.85738 73.4014 9.04686Z" fill="#EAEAEA"/>
<path d="M53.3334 64.5852C58.079 67.5054 68.023 65.2348 71.8477 60.4646C65.7397 62.3583 60.0449 65.7023 53.3334 64.5852Z" fill="#EAEAEA"/>
<path d="M76.1021 55.1677C71.5885 56.5784 67.256 58.4992 62.7154 59.8349C67.7077 59.7724 72.3409 58.697 76.1021 55.1677Z" fill="#EAEAEA"/>
<path d="M79.9985 49.9832C77.123 51.2595 74.2486 52.5348 71.3741 53.8112C74.898 53.9663 77.9826 53.1512 79.9985 49.9832Z" fill="#EAEAEA"/>
<path d="M77.2521 47.7303C77.2708 48.1832 77.6767 48.1946 77.9889 48.1467C79.8976 47.8583 81.7854 47.5085 83.1644 45.3774C81.1933 46.0208 79.5437 46.5643 77.889 47.0952C77.5549 47.2025 77.2365 47.3492 77.2521 47.7303Z" fill="#EAEAEA"/>
<path d="M83.9386 39.9492C82.183 40.9278 80.5751 41.8232 78.9672 42.7195C81.2827 43.1787 83.1914 42.0407 83.9386 39.9492Z" fill="#EAEAEA"/>
<path d="M34.3966 29.0063C34.5558 28.7471 34.8451 28.3848 34.5131 28.1214C34.0823 27.781 33.8013 28.2224 33.5807 28.5014C32.0571 30.4274 30.955 32.5991 30.0922 34.879C29.2128 37.2038 28.5207 39.5816 29.4303 42.3248C30.5917 37.5557 31.9114 33.0592 34.3966 29.0063Z" fill="#EAEAEA"/>
</svg>
