<svg width="60" height="63" viewBox="0 0 60 63" fill="none" xmlns="http://www.w3.org/2000/svg">
<path d="M52.5829 28.5574C53.9606 29.3684 55.3314 29.9851 56.4676 30.8961C57.644 31.8394 58.4995 33.1209 59.0607 34.5715C60.0106 37.0264 60.0899 39.4848 59.0526 41.9063C58.7778 42.5482 58.2615 43.2108 57.6773 43.5708C56.3744 44.3726 55.2417 43.5824 54.1871 42.8553C53.3753 42.2951 52.6174 41.6543 51.5974 40.8652C51.7274 41.476 51.7757 41.8338 51.8827 42.1732C52.1909 43.1521 52.4703 44.146 52.859 45.0939C53.5674 46.8252 53.2108 48.56 52.783 50.2211C52.2909 52.1353 51.6826 54.0449 50.5326 55.7153C48.9054 58.077 47.4104 60.5848 44.5275 61.6488C43.5282 62.0181 42.5564 62.7394 41.3835 62.2471C40.1151 61.7144 39.9909 61.4763 40.4152 60.0522C41.1443 57.6065 42.0562 55.1976 42.5576 52.7059C42.8716 51.146 42.5772 49.463 42.5553 47.8353C42.4334 47.8065 42.3115 47.7778 42.1908 47.749C41.7193 48.3759 41.2973 49.0477 40.7671 49.6206C39.8334 50.6295 38.9847 51.8397 37.8336 52.5011C35.0265 54.1128 32.1286 55.6049 29.1468 56.8587C27.1654 57.6916 24.9736 58.0194 22.8818 58.5958C20.2127 59.3309 17.4655 59.3481 14.7389 59.4091C13.0439 59.447 11.3419 59.1238 9.64231 58.9719C8.79939 58.8972 7.95072 58.8696 7.1101 58.7741C5.68415 58.6119 4.26048 58.4324 2.84028 58.2242C1.14869 57.9769 0.0297863 57.1383 0.00563715 55.9994C-0.0139122 55.1044 0.00448915 54.1565 0.27358 53.3179C0.733564 51.8834 1.36834 50.5006 2.00312 49.1294C2.20781 48.6865 2.6471 48.3518 2.97599 47.9652C3.33248 47.5442 3.62111 47.0311 4.05464 46.7148C4.74462 46.2109 5.49324 45.7485 6.27981 45.423C8.26924 44.5993 10.3047 43.8861 12.301 43.0785C13.566 42.5666 14.8022 41.9811 16.0372 41.3978C17.3194 40.7916 18.5925 40.1646 19.8551 39.5181C21.6318 38.607 22.1723 36.9298 22.4816 35.1364C22.8565 32.9599 21.6352 31.7555 19.9114 30.7523C18.6499 30.0184 17.3309 29.564 15.9176 29.3063C15.0195 29.143 14.3537 28.5517 14.1168 27.7683C13.9788 27.3139 14.2605 26.5236 14.6274 26.1612C16.2684 24.5426 18.0669 23.0967 20.4749 22.8275C22.2723 22.6262 24.0732 22.5813 25.7866 23.3658C26.4628 23.6753 27.1838 23.8916 27.8519 24.216C28.4648 24.5139 28.704 24.3425 28.7052 23.7006C28.7063 22.6032 28.6304 21.4988 28.7293 20.4094C28.8121 19.4983 28.9777 18.5585 29.3193 17.7164C29.8356 16.4395 31.1316 15.9483 32.6449 16.3912C33.1682 16.5442 33.6581 16.9123 34.0847 17.2758C35.498 18.4779 36.7825 19.7801 36.9975 21.8531C37.185 21.7243 37.392 21.661 37.446 21.5321C38.2637 19.6168 39.0836 17.7003 39.8598 15.7677C40.8844 13.2162 41.9125 10.6646 42.8635 8.08553C43.7133 5.78134 45.3658 4.01436 46.7365 2.06334C47.9854 0.284878 50.0323 -0.399591 51.7676 0.228509C53.0648 0.697858 53.6731 1.82868 54.2952 2.91232C56.2387 6.299 56.7102 9.94681 56.1686 13.7764C55.9282 15.4686 55.873 17.1907 55.5786 18.8714C55.0611 21.829 54.5632 24.8049 52.9935 27.4565C52.7681 27.8258 52.683 28.2779 52.5829 28.5574ZM2.85871 56.7402C2.87941 56.8311 2.90125 56.922 2.92195 57.014C4.49739 57.2395 6.06708 57.5259 7.64942 57.6732C9.16507 57.8147 10.7152 57.6778 12.2148 57.901C14.8298 58.2909 17.4482 58.1379 20.0057 57.7894C22.7265 57.4178 25.3864 56.5711 28.0578 55.8752C31.15 55.0688 33.7972 53.3087 36.5249 51.7442C37.5231 51.1713 38.5178 50.4788 39.2722 49.6264C40.1208 48.6658 40.7119 47.4729 41.3743 46.357C41.4881 46.1649 41.5146 45.7358 41.3904 45.6197C40.7614 45.0272 40.1484 44.3312 39.3872 43.9838C36.3766 42.6068 33.2958 41.4036 29.9851 40.9308C27.431 40.5661 24.8827 40.2394 22.3379 41.0032C21.7698 41.1735 20.9752 41.5612 20.6336 41.3311C19.7079 40.7076 19.164 41.3668 18.4843 41.6498C14.5894 43.2729 10.675 44.8547 6.81226 46.5514C5.91759 46.9449 4.46979 46.8632 4.48244 48.4553C4.48244 48.4956 4.31913 48.5209 4.25819 48.5795C3.7982 49.0236 3.33593 49.4653 2.89205 49.9266C2.31592 50.526 1.61673 52.5897 1.73517 53.3892C2.516 51.9513 3.0266 50.3534 4.93554 49.6333C5.10458 50.2533 5.59101 51.0137 5.39092 51.4831C4.63194 53.2673 4.4767 55.3552 2.85871 56.7402ZM50.5349 1.34668C50.4958 1.2581 50.4555 1.16838 50.4153 1.0798C49.8495 1.40766 49.1883 1.63656 48.7329 2.0783C44.6115 6.07812 42.7071 11.2755 40.935 16.5591C40.3152 18.4089 39.4999 20.1989 38.6754 21.9705C37.898 23.6396 37.047 25.2789 36.1247 26.8721C35.4255 28.0812 34.5504 29.1855 33.7845 30.3578C33.5603 30.7006 33.3407 31.1032 33.3039 31.4955C33.2579 31.9901 33.3499 32.517 33.4856 33.0013C33.5431 33.2061 33.8639 33.481 34.064 33.4798C36.0063 33.4626 37.9578 33.2521 39.8886 33.3763C42.0194 33.5132 44.1216 33.9342 45.935 35.256C46.4836 35.6563 47.154 35.7323 47.5404 34.8752C47.8313 34.2287 48.1982 33.6156 48.5328 32.9875C49.4275 31.3126 50.3302 29.6411 51.2145 27.9615C51.4618 27.4922 51.694 27.009 51.8723 26.5098C52.5186 24.6945 53.2396 22.8953 53.7341 21.0375C54.0929 19.6893 54.1745 18.2617 54.3194 16.8628C54.5781 14.3562 54.9933 11.8438 54.9657 9.33711C54.9381 6.77754 54.0147 4.38826 52.4668 2.28539C51.9758 1.62393 51.4525 1.12351 50.5349 1.34668ZM41.2604 61.0737C41.7998 61.0737 42.2299 61.1761 42.5875 61.0576C44.9438 60.2753 46.8953 58.9512 48.1924 56.7609C48.9824 55.4277 50.045 54.2141 50.605 52.7968C51.2628 51.1322 51.5411 49.3112 51.9171 47.5431C52.0275 47.0219 51.9816 46.441 51.8919 45.9072C51.3813 42.8507 49.5907 40.4108 47.9705 37.8927C47.8911 37.7696 47.7646 37.6603 47.637 37.5866C45.4268 36.3086 43.2878 35.0467 40.6027 34.7085C37.8543 34.3622 35.2186 34.5313 32.5714 35.0765C29.7701 35.654 27.2735 37.0264 24.7631 38.3298C24.2663 38.5875 23.8236 38.9498 23.1866 39.3778C24.8517 39.3778 26.2903 39.318 27.722 39.395C29.0352 39.4664 30.3703 39.563 31.6433 39.869C34.3319 40.5143 36.8906 41.5266 39.4297 42.654C42.3805 43.9654 43.5201 46.3283 43.8651 49.2364C44.1653 51.7787 43.6984 54.2635 42.8279 56.6689C42.3207 58.0643 41.832 59.4643 41.2604 61.0737ZM32.2356 33.5638C32.1666 32.8334 32.1551 31.9223 31.9814 31.0445C31.6134 29.1855 30.8085 27.537 29.2376 26.3901C27.4241 25.0672 25.345 24.3183 23.1451 24.0457C21.7272 23.8708 20.276 23.9077 18.9052 24.5737C17.7622 25.1294 16.6697 25.7264 15.8371 26.7065C15.6428 26.9342 15.3473 27.2771 15.4071 27.4703C15.4807 27.7084 15.8555 27.9213 16.1419 28.0099C16.7341 28.1916 17.3976 28.1847 17.9542 28.432C18.9501 28.8738 19.9138 29.4018 20.8452 29.9701C23.6362 31.6738 24.1767 33.4453 23.5867 36.1199C23.4717 36.6399 23.3199 37.1518 23.1681 37.735C26.2305 36.3247 29.133 34.9903 32.2356 33.5638ZM58.5144 38.0583C58.3029 37.1046 58.189 36.3339 57.959 35.6011C57.092 32.8437 55.4257 30.8455 52.5611 29.9781C52.1092 29.8413 51.9425 29.9033 51.7148 30.3014C50.7235 32.0327 49.6736 33.7295 48.6857 35.4631C48.4764 35.8301 48.2039 36.48 48.3649 36.6882C49.3044 37.9041 50.1416 39.2742 51.7699 39.7424C52.077 39.831 52.3771 39.9898 52.6382 40.1773C53.5972 40.8664 54.5253 41.6003 55.4912 42.2813C56.4733 42.975 57.2288 42.7702 57.5911 41.6394C57.9774 40.4304 58.2316 39.1765 58.5144 38.0583ZM30.8142 17.6267C30.6555 18.0304 30.4002 18.4054 30.3703 18.7977C30.2105 20.8994 30.0955 23.0058 30.0046 25.1121C29.9954 25.3295 30.2358 25.5699 30.3888 25.7804C31.0557 26.6973 31.7284 27.6107 32.4115 28.5149C32.5805 28.738 32.8657 29.1223 32.9865 29.0843C33.2544 28.9992 33.4936 28.722 33.6707 28.4712C34.0145 27.9846 34.3607 27.4876 34.6125 26.9504C35.1841 25.7298 36.3191 24.6968 36.0074 23.1634C35.6625 21.4677 34.8943 19.9953 33.7466 18.6758C32.9232 17.7302 31.955 17.5312 30.8142 17.6267Z" fill="#EAEAEA"/>
<path d="M38.2953 45.3884C38.8507 46.0625 38.6 46.6711 38.0871 47.0668C36.844 48.0262 35.5791 48.9753 34.2279 49.7679C33.2791 50.3247 32.1752 50.6191 31.1563 51.0241C30.5595 50.3097 30.6239 50.0405 31.4012 49.7092C33.5873 48.7774 35.8229 47.8801 37.3316 45.8796C37.3788 45.8164 37.4891 45.8025 37.5685 45.7623C37.8054 45.6426 38.0411 45.5196 38.2953 45.3884Z" fill="#EAEAEA"/>
<path d="M21.2076 45.6541C19.7909 47.3037 15.5751 48.4576 14.4666 47.4993C14.861 46.8516 19.7242 45.5207 21.2076 45.6541Z" fill="#EAEAEA"/>
<path d="M14.5944 55.4898C14.8359 55.4898 15.1188 55.4115 15.3051 55.5128C15.4845 55.6094 15.5627 55.8924 15.6857 56.0937C15.1429 56.3744 14.6231 56.746 14.047 56.8886C13.8228 56.9438 13.4088 56.5286 13.211 56.2387C13.142 56.1363 13.4065 55.6566 13.6193 55.5519C13.8906 55.4161 14.2644 55.4851 14.5933 55.4656C14.5944 55.4736 14.5944 55.4817 14.5944 55.4898Z" fill="#EAEAEA"/>
<path d="M23.4888 53.0325C24.2547 52.5953 24.7538 52.2548 25.3023 52.0443C25.4196 51.9994 25.7174 52.4251 25.9313 52.6333C25.4851 52.9727 25.07 53.3776 24.5744 53.6146C24.4111 53.6917 24.0396 53.3408 23.4888 53.0325Z" fill="#EAEAEA"/>
<path d="M48.1501 30.3037C48.6515 28.4539 49.1022 26.756 49.5875 25.0684C49.6278 24.9269 49.8957 24.7865 50.0694 24.7704C50.1855 24.7601 50.3856 24.9441 50.4408 25.0833C50.8778 26.1877 49.476 29.6054 48.1501 30.3037Z" fill="#EAEAEA"/>
<path d="M52.7019 11.7609C52.5662 10.7003 52.4052 9.68105 52.3305 8.65607C52.3155 8.45706 52.603 8.14991 52.8226 8.04638C52.9997 7.96355 53.3723 8.03258 53.508 8.17638C54.0232 8.7251 53.7887 11.142 53.1976 11.6505C53.101 11.7333 52.9192 11.716 52.7019 11.7609Z" fill="#EAEAEA"/>
<path d="M45.5559 33.7549C45.6778 31.4369 46.3816 30.6132 47.5339 31.2954C47.2015 32.3284 47.0405 33.496 45.5559 33.7549Z" fill="#EAEAEA"/>
<path d="M53.1449 14.0767C52.6067 14.3585 52.3227 14.584 52.0122 14.63C51.8984 14.6461 51.7224 14.2354 51.5752 14.0191C51.7926 13.873 52.0053 13.6223 52.2295 13.6108C52.4526 13.5993 52.6872 13.8282 53.1449 14.0767Z" fill="#EAEAEA"/>
<path d="M50.9037 5.97232C51.3913 5.57314 51.619 5.28902 51.9077 5.19584C52.0342 5.15557 52.286 5.50413 52.4803 5.67553C52.309 5.84924 52.1617 6.12071 51.9605 6.17018C51.7305 6.22655 51.4499 6.08736 50.9037 5.97232Z" fill="#EAEAEA"/>
</svg>
