<svg width="69" height="38" viewBox="0 0 69 38" fill="none" xmlns="http://www.w3.org/2000/svg">
<path d="M1.01392 14.7028C0.135559 15.6064 -0.298432 16.6746 0.22921 17.8666C2.47715 22.9471 5.50666 27.4414 9.84227 31.0332C13.7106 34.2386 18.4115 35.387 23.0593 36.6071C27.7124 37.8283 32.4903 37.4764 37.2411 37.1526C44.0932 36.6852 50.5196 34.8404 56.4495 31.3351C57.4747 30.7292 58.4456 30.0827 59.3635 29.2904C60.9111 27.9547 61.7405 26.1828 62.7885 24.5295C66.0345 19.4105 68.0993 13.9241 68.2148 7.78272C68.2419 6.32938 67.8339 5.14879 66.8348 4.11604C65.1842 2.40867 63.0768 1.58309 60.8601 0.981345C56.7389 -0.136775 52.5209 -0.044119 48.4818 0.0558246C43.5801 -0.00351692 38.8844 0.362944 34.2335 1.19685C24.3581 2.96668 14.9324 6.05036 6.14775 10.9591C4.29008 11.996 2.51047 13.1609 1.01392 14.7028ZM63.8209 19.0732C62.3577 22.1059 60.348 24.82 58.7963 27.7996C58.7141 27.9578 58.5664 28.1098 58.4123 28.2004C53.4637 31.0894 48.3996 33.6827 42.6632 34.6686C36.3867 35.7482 30.0737 36.2417 23.741 35.4765C16.2333 34.5687 10.5021 30.4856 5.74499 24.8481C4.17559 22.9877 2.78625 20.9878 1.34694 18.8046C6.89602 20.6036 12.4336 20.2965 17.9369 20.0956C27.9059 19.7333 37.8322 18.9015 47.6326 16.9161C52.5562 15.9188 57.4341 14.7736 62.06 12.7445C63.7512 12.0033 65.3591 11.1235 66.9566 9.80241C66.2291 13.163 65.2175 16.178 63.8209 19.0732ZM19.2628 16.6017C18.9475 17.2441 18.2991 17.7781 18.3751 18.6172C18.4042 18.9389 18.1211 18.9473 17.8911 18.9493C16.9451 18.9545 15.9991 18.9514 15.0802 18.9514C15.8076 17.0692 16.968 15.8834 19.2628 16.6017ZM14.2944 18.6755C14.2372 19.017 14.0083 19.0764 13.7064 19.0732C12.5575 19.0639 11.4086 19.0691 10.0775 19.0691C11.624 17.6636 12.8093 15.9573 15.2124 16.811C14.9397 17.4668 14.411 17.9739 14.2944 18.6755ZM19.1629 18.3622C19.7769 17.7865 19.8623 16.5996 20.6678 16.4226C21.9905 16.1311 23.3934 16.2071 24.7463 16.1291C24.8306 16.5247 24.4882 16.609 24.4653 16.8172C24.2228 18.9483 22.5744 18.6995 21.1402 18.7817C20.4128 18.8234 19.6822 18.789 18.9527 18.789C18.8819 18.7036 18.8122 18.6193 18.7414 18.534C18.884 18.4788 19.0599 18.46 19.1629 18.3622ZM25.5258 16.2592C25.5674 16.0208 25.7964 16.026 25.9868 16.0125C27.2513 15.9198 28.5158 15.8292 29.8802 15.7293C29.4077 16.4393 28.8394 16.9932 28.9071 17.8343C28.9445 18.307 28.5491 18.2695 28.2618 18.2924C27.0317 18.3892 25.8006 18.4673 24.4747 18.5579C24.7692 17.7177 25.3801 17.0889 25.5258 16.2592ZM9.11482 15.9469C8.49768 15.9677 7.8795 15.9458 7.26236 15.9281C7.16245 15.925 7.06357 15.8428 6.78362 15.7137C7.35705 15.4055 7.80561 15.1452 8.26977 14.9183C19.2649 9.52965 30.8262 6.02746 42.9557 4.31176C47.7762 3.62986 52.5625 3.50284 57.3789 4.13373C58.6111 4.2951 59.8038 4.60951 60.9236 5.14983C62.239 5.78385 62.2671 6.09618 61.0641 6.8697C59.529 7.85768 57.8254 8.49066 56.1228 9.11635C48.9835 11.7409 41.5798 13.2078 34.0576 14.1479C25.7756 15.1817 17.452 15.6637 9.11482 15.9469ZM10.9121 16.8609C10.8851 16.964 10.8882 17.015 10.8643 17.0327C10.1836 17.5481 10.1524 18.8223 9.41662 18.941C8.25311 19.1294 7.00946 18.8296 5.59305 18.7203C7.18846 17.2045 8.78907 16.3893 10.9121 16.8609ZM1.90268 17.6365C3.74266 17.3877 4.99672 15.7564 6.75761 16.8255C5.06541 18.6599 4.50862 18.7796 1.90268 17.6365ZM8.47062 11.085C10.1045 10.0564 11.7374 9.3839 13.3443 8.65723C13.7543 8.47192 14.0998 8.6895 14.4589 8.79986C15.204 9.02994 15.893 8.98308 16.5882 8.48545C16.1979 8.27619 15.8711 8.1013 15.3799 7.8379C18.321 6.61255 21.1725 5.61936 24.0699 4.75526C33.506 1.94018 43.1253 0.452483 52.9902 0.925133C56.256 1.0813 59.5269 1.34364 62.5617 2.7845C63.8636 3.4029 65.0979 4.10355 66.0564 5.20501C67.2084 6.53031 67.1897 7.63281 65.9159 8.84566C63.9343 10.7331 61.4221 11.6649 58.9181 12.5759C52.7165 14.8319 46.2443 15.9385 39.7586 16.9453C36.7842 17.4065 33.7839 17.7021 30.7949 18.0655C30.3849 18.1154 29.9686 18.1227 29.4805 18.155C29.7948 17.3919 30.2517 16.8203 30.2111 16.027C30.1799 15.4024 30.8168 15.6096 31.1592 15.571C34.2293 15.2192 37.3004 14.8787 40.3476 14.3571C46.7158 13.2661 52.9704 11.7503 58.9483 9.24232C60.1951 8.71866 61.4346 8.16272 62.4482 7.23303C63.4775 6.28982 63.4494 5.49339 62.2983 4.6803C60.8747 3.67566 59.2116 3.29151 57.5204 3.05102C52.5396 2.34308 47.6004 2.68872 42.6445 3.45912C35.7342 4.53351 28.8675 5.74949 22.2528 8.09192C17.1751 9.88987 12.0756 11.6951 7.43928 14.455C5.48586 15.6179 3.25457 15.9219 1.30324 17.1806C1.07324 16.3571 1.48639 15.9229 1.87978 15.5086C3.06203 14.2645 4.48052 13.3223 5.94689 12.4593C6.70244 12.0147 7.60682 12.1979 8.43835 12.0647C9.88702 11.8325 11.2597 11.4098 12.8978 10.73C11.2483 10.627 9.94531 10.8851 8.47062 11.085Z" fill="#EAEAEA"/>
<path d="M23.4444 21.7279C19.6905 22.2161 15.9481 22.8679 12.1464 22.2974C10.6925 22.0787 9.2501 21.7778 7.80351 21.5145C9.10753 22.492 10.5531 23.0938 12.0985 23.4092C18.9381 24.8074 25.3812 22.9699 31.8034 20.9773C28.982 20.8638 26.2179 21.3666 23.4444 21.7279Z" fill="#EAEAEA"/>
<path d="M26.8236 25.3103C21.5076 25.1531 16.2989 26.1702 11.1442 24.897C14.3278 27.1634 20.7885 27.305 26.8236 25.3103Z" fill="#EAEAEA"/>
<path d="M24.9628 27.9089C21.4317 28.2858 17.8984 28.5606 14.3642 28.2379C17.9536 29.4945 21.4878 29.5413 24.9628 27.9089Z" fill="#EAEAEA"/>
<path d="M19.9903 33.2476C22.8772 34.577 25.7954 34.6468 28.7198 33.4964C25.7902 33.5776 22.8928 33.283 19.9903 33.2476Z" fill="#EAEAEA"/>
<path d="M25.4478 30.8853C22.3548 30.8853 19.549 30.8853 16.7432 30.8853C16.7453 31.005 16.7474 31.1257 16.7495 31.2455C19.5552 31.2725 22.3756 32.1668 25.4478 30.8853Z" fill="#EAEAEA"/>
<path d="M52.0661 7.44436C50.3614 5.62351 48.3226 6.09304 47.6576 8.4792C48.8565 7.0956 50.5123 7.63175 52.0661 7.44436Z" fill="#EAEAEA"/>
<path d="M20.545 12.4353C19.5074 12.2833 18.6186 12.9298 17.8485 14.5841C18.4833 14.1979 18.8663 13.9543 19.2586 13.7294C19.6937 13.4816 20.1464 13.2734 20.6522 13.212C20.9123 13.1807 21.2651 13.186 21.1996 12.8112C21.1486 12.5165 20.8145 12.4749 20.545 12.4353Z" fill="#EAEAEA"/>
<path d="M23.6317 6.91447C24.0459 6.90927 24.2145 6.63338 24.2468 6.25546C24.1729 5.86298 23.9585 5.63498 23.5495 5.67246C23.1977 5.70578 23.0052 5.94523 23 6.27837C22.9948 6.67606 23.2269 6.91968 23.6317 6.91447Z" fill="#EAEAEA"/>
</svg>
