<svg width="45" height="47" viewBox="0 0 45 47" fill="none" xmlns="http://www.w3.org/2000/svg">
<path d="M43.6546 34.9647C44.4998 35.9909 44.44 37.2793 43.6845 38.5194C43.4234 38.9473 43.6281 39.6513 43.5925 40.2265C43.5189 41.4379 43.4821 42.6561 43.305 43.8536C43.2579 44.1711 42.8082 44.5335 42.4609 44.6853C40.5232 45.5274 38.4936 45.9921 36.3696 45.9956C35.0218 45.9979 33.6718 45.9542 32.3263 46.0059C30.4899 46.0761 28.6545 46.3212 26.8203 46.3062C23.6395 46.2797 20.4599 46.1164 17.2802 45.9979C16.1027 45.9542 14.9228 45.9093 13.7499 45.8058C11.2981 45.5883 8.85103 45.3249 6.39932 45.096C5.469 45.0086 4.53525 44.9442 3.60148 44.9028C2.35148 44.8487 1.79718 44.3724 1.46714 43.1691C1.05085 41.6495 0.532244 40.1494 0.751886 38.5389C0.819734 38.042 0.970354 37.5577 1.08535 37.0584C-0.239404 36.0012 -0.63269 34.6484 1.53153 33.0402C0.411474 31.5677 0.577079 29.795 0.472433 28.0706C0.365487 26.3082 0.677137 25.8757 2.35263 25.488C2.55272 25.442 2.75395 25.3511 2.92529 25.2361C5.13782 23.7648 7.34689 22.2877 9.55251 20.806C11.8409 19.268 14.1294 17.7288 16.4097 16.1792C18.0139 15.0898 19.5652 13.9142 21.2131 12.8973C23.6901 11.3696 26.2833 10.026 28.7338 8.45802C31.2844 6.8268 33.7224 5.01727 36.2166 3.29633C36.6582 2.99148 37.1447 2.75448 37.5909 2.45539C38.5706 1.79968 39.5159 1.09221 40.5129 0.46296C42.0515 -0.506798 43.3234 0.082181 43.5442 1.89976C43.834 4.28217 44.0375 6.67378 44.2882 9.06079C44.3882 10.0167 44.5389 10.967 44.6194 11.9241C44.6459 12.2381 44.4918 12.5636 44.4745 12.8869C44.3423 15.3061 44.0939 17.7288 44.1353 20.1457C44.187 23.1608 44.5573 26.1702 44.6366 29.1864C44.6734 30.6094 45.2668 32.0819 44.471 33.4819C44.1973 33.9651 43.934 34.4574 43.6546 34.9647ZM4.79857 25.6859C6.12218 25.6859 7.44117 25.7239 8.75788 25.6778C11.5971 25.5801 14.4341 25.3557 17.2722 25.3431C19.5043 25.3327 21.7375 25.5651 23.9707 25.6813C25.2989 25.7503 26.6271 25.8389 27.9565 25.8573C30.0287 25.8872 32.1021 25.8423 34.1743 25.8723C35.782 25.8964 37.3907 25.9516 38.9949 26.0609C40.3714 26.1541 40.5865 25.924 40.4496 24.6344C40.1633 21.9437 39.7758 19.2461 39.7608 16.5485C39.7424 13.4356 40.092 10.3204 40.2587 7.20525C40.3231 5.99276 40.3542 4.77568 40.3404 3.56205C40.3323 2.84882 39.9287 2.6337 39.3353 3.00182C36.8112 4.56517 34.2951 6.14345 31.7847 7.72981C29.4169 9.22758 27.0664 10.753 24.6963 12.2485C22.4367 13.6749 20.1379 15.0404 17.9035 16.5071C15.8635 17.8461 13.8833 19.2772 11.8858 20.6795C9.54905 22.3199 7.22154 23.9741 4.79857 25.6859ZM4.42946 43.9537C4.20291 43.4418 3.98901 42.9563 3.74867 42.4134C4.98487 42.3144 5.53455 42.8401 5.63114 44.0595C5.79444 44.0434 5.97153 43.9755 6.11183 44.0216C8.45315 44.7773 10.8888 44.5346 13.283 44.7187C14.5399 44.8153 15.7922 44.9879 17.0514 45.0569C18.1496 45.1179 19.2536 45.0845 20.3541 45.0903C21.2718 45.0949 22.1906 45.0799 23.1082 45.1052C24.2593 45.1363 25.4105 45.2674 26.5581 45.2317C28.0278 45.1857 29.4917 44.9672 30.9625 44.912C32.5241 44.8533 34.0903 44.9338 35.6531 44.8901C37.5839 44.8349 39.4871 44.5726 41.2765 43.788C41.5766 43.6569 41.9687 43.4372 42.0561 43.1726C42.3034 42.4134 42.4391 41.615 42.5748 40.8235C42.7024 40.0839 42.0918 39.052 41.5421 39.0738C40.7256 39.1072 39.9115 39.2004 39.0651 39.2705C38.9788 40.1172 38.8903 41.0076 38.7983 41.8991C38.6465 43.3681 37.8645 44.0998 36.5294 43.765C35.2415 43.4429 33.9915 42.9287 32.7656 42.4064C31.4029 41.8255 30.1 41.1042 28.7442 40.5038C25.6577 39.1371 22.2722 39.7364 19.0546 39.1279C17.4182 38.8185 15.614 39.4546 13.8798 39.5788C10.9267 39.7894 7.96789 39.9021 5.20798 41.1836C4.7664 41.3884 4.21209 41.3976 3.70726 41.4091C2.84134 41.4298 2.36872 41.0145 2.41587 40.1655C2.46877 39.2015 2.66885 38.2456 2.82064 37.1792C2.67115 37.2712 2.44922 37.3264 2.40208 37.4495C2.19048 37.9994 1.83512 38.5872 1.88802 39.1267C1.99727 40.2414 2.35492 41.3297 2.56997 42.4375C2.85746 43.9169 2.95176 44.0101 4.42946 43.9537ZM32.4459 33.8017C32.9875 33.7706 33.2751 33.727 33.5602 33.7408C35.7935 33.8546 38.0244 34.0122 40.2587 34.0801C40.9947 34.1031 41.7721 34.0088 42.469 33.7799C43.5672 33.4198 43.8432 32.3154 43.4234 30.4254C42.6886 30.4909 41.9469 30.6175 41.2063 30.6094C39.7539 30.5933 38.3038 30.484 36.8514 30.4495C36.3799 30.438 35.8958 30.629 35.4358 30.5738C33.865 30.384 32.3091 30.0159 30.7359 29.9169C28.2531 29.7616 25.7589 29.8203 23.2738 29.6938C20.9636 29.5764 18.6591 29.3233 16.3511 29.1577C15.6473 29.1071 14.9366 29.1531 14.2283 29.1496C13.6809 29.1473 13.1323 29.1473 12.5861 29.1301C11.22 29.0864 9.84577 28.9207 8.48881 29.0116C6.20959 29.1646 3.93956 29.4924 1.6178 28.3789C1.69829 29.2877 1.83628 30.0872 1.82478 30.8844C1.80868 32.029 2.38023 32.6295 3.429 32.8124C4.40186 32.9827 5.38737 33.1276 6.37173 33.184C8.97179 33.3335 11.5741 33.4854 14.1765 33.5302C16.0889 33.5636 18.0059 33.3554 19.9183 33.3899C22.2182 33.4301 24.5158 33.6199 26.8146 33.7281C27.109 33.7419 27.4068 33.6246 27.7035 33.6177C28.735 33.5935 29.7769 33.5003 30.7969 33.6073C31.8479 33.7178 31.925 33.7385 32.0423 32.7549C32.0653 32.5651 32.2194 32.2867 32.3689 32.2441C32.546 32.1935 32.8438 32.2913 32.9853 32.4305C33.5809 33.0137 32.9473 33.307 32.4459 33.8017ZM40.1518 38.2571C40.7969 38.0811 41.3604 37.8418 41.9411 37.79C42.7346 37.7199 43.2417 37.4461 43.1785 36.5879C43.1164 35.7505 42.4437 35.3374 41.4766 35.3697C39.4986 35.4352 37.5173 35.5319 35.5428 35.4709C32.9186 35.3904 30.3001 35.1166 27.6759 35.0292C24.149 34.9118 20.6197 34.8969 17.0917 34.8255C16.7685 34.8186 16.4465 34.6656 16.1257 34.6714C14.1823 34.7105 12.24 34.8048 10.2965 34.8198C9.27308 34.8278 8.24272 34.7554 7.22501 34.638C5.80136 34.4735 4.37079 34.3033 2.97014 34.0053C1.74199 33.743 1.01176 34.2101 1.15091 35.449C1.1854 35.7516 1.62239 36.2313 1.88918 36.2405C2.49406 36.2624 3.1162 36.0748 3.71533 35.9161C5.54377 35.4306 7.21695 35.5756 8.83954 36.7052C10.024 37.5312 10.8853 38.0822 12.6287 37.0457C15.5346 35.3179 17.0779 35.5629 19.8884 37.7302C21.0763 38.647 22.5965 38.8093 24.0247 38.019C24.8999 37.5347 25.8612 36.9537 26.8065 36.9111C28.2463 36.8456 29.7849 36.9813 31.1361 37.453C32.5356 37.9407 33.6281 37.4783 34.8321 37.0756C35.1851 36.9572 35.5991 36.8214 35.936 36.8997C36.7123 37.0803 37.4563 37.3943 38.2164 37.644C38.8569 37.8545 39.5055 38.0523 40.1518 38.2571ZM2.33308 26.972C3.07366 28.1304 4.19257 27.714 5.03434 27.7911C6.72478 27.9464 8.4474 27.7163 10.1574 27.7013C13.1174 27.676 16.0785 27.6944 19.0397 27.6944C19.2835 27.6944 19.5468 27.6415 19.7676 27.7151C22.0365 28.4663 24.3973 28.2823 26.726 28.4261C28.6752 28.5469 30.6267 28.6492 32.5736 28.7976C33.5556 28.8724 34.5273 29.0898 35.5094 29.137C36.2235 29.1715 36.9469 28.9794 37.6644 28.9886C38.9674 29.0058 40.2726 29.183 41.5709 29.1347C43.0152 29.0806 43.221 28.9863 43.175 27.5449C43.1014 25.2786 42.8806 23.017 42.8404 20.7508C42.8082 18.9252 42.9416 17.0961 43.0175 15.2705C43.0566 14.3318 43.1222 13.3931 43.1912 12.4555C43.236 11.8573 43.4004 11.2545 43.3521 10.6667C43.2429 9.35413 43.0152 8.05077 42.8692 6.74051C42.7128 5.33936 42.615 3.93133 42.4425 2.53248C42.3931 2.1287 42.1746 1.74563 42.0331 1.3522C41.6203 1.50865 41.2063 1.66395 40.9982 1.74332C41.2742 2.89944 41.6652 3.8393 41.6893 4.78835C41.7411 6.80034 41.6307 8.81807 41.5306 10.8312C41.4731 11.9931 41.2707 13.1469 41.2006 14.3076C41.104 15.9089 40.9499 17.5194 41.0373 19.115C41.1684 21.51 41.4766 23.8959 41.7296 26.2841C41.8089 27.0284 41.3616 27.3516 40.7728 27.485C40.3266 27.5863 39.8413 27.5575 39.3779 27.5253C37.7576 27.4126 36.1396 27.1929 34.5181 27.1664C32.608 27.1365 30.6934 27.3677 28.7868 27.3045C25.9165 27.2101 23.053 26.9409 20.185 26.781C19.1926 26.7258 18.1956 26.7753 17.2009 26.7764C15.66 26.7787 14.1121 26.6936 12.5781 26.8006C9.66637 27.003 6.76501 27.3769 3.84181 26.98C3.38182 26.9179 2.90576 26.972 2.33308 26.972ZM25.7255 38.4366C25.8911 38.6321 25.9371 38.7322 26.0096 38.7621C26.1441 38.8162 26.2959 38.8334 26.4408 38.8576C28.8948 39.2752 31.1338 40.2748 33.3509 41.3562C34.3986 41.8669 35.5002 42.2765 36.603 42.6595C36.7778 42.7205 37.2677 42.4249 37.3045 42.2351C37.4908 41.2745 37.6909 40.2921 37.6633 39.3235C37.6334 38.2927 36.1879 37.7486 35.2012 38.1179C34.2157 38.486 33.1485 38.7333 32.1009 38.8093C31.4984 38.853 30.8705 38.4308 30.2438 38.2502C28.7546 37.8188 27.2734 37.698 25.7255 38.4366ZM10.2275 38.6781C9.51112 38.2019 8.71878 37.5128 7.80111 37.1159C6.94324 36.7443 5.95314 36.5672 5.01707 36.5499C4.69623 36.5442 4.34089 37.2677 4.0396 37.6842C3.36112 38.6217 3.30592 39.6617 3.7567 40.3231C6.01063 39.7502 8.20247 39.1935 10.2275 38.6781ZM12.6931 38.5976C14.5054 38.3894 16.3166 38.1811 18.2761 37.9568C17.0445 36.4671 15.0838 36.7029 12.6931 38.5976Z" fill="#EAEAEA"/>
<path d="M34.1655 12.3771C34.5335 13.378 34.1069 15.0932 36.109 14.6848C36.2412 15.5522 36.0296 15.7328 34.8865 15.7995C33.8734 15.8593 32.9638 14.9471 32.9443 13.8519C32.9213 12.529 33.0892 12.3173 34.1655 12.3771Z" fill="#EAEAEA"/>
<path d="M18.0932 24.3297C17.0387 25.235 15.7738 24.3849 14.7204 22.1486C15.3552 21.4077 15.7243 21.4825 16.2613 22.2394C16.788 22.9814 17.4607 23.6187 18.0932 24.3297Z" fill="#EAEAEA"/>
<path d="M20.1643 24.7126C19.9354 24.4181 19.5997 24.1627 19.6376 23.9936C19.694 23.7428 20.0033 23.4069 20.2333 23.3828C20.4219 23.3632 20.8336 23.7578 20.8198 23.9464C20.8048 24.1811 20.4564 24.3951 20.1643 24.7126Z" fill="#EAEAEA"/>
<path d="M36.0486 17.0569C36.5223 17.0983 36.8995 17.1305 37.2779 17.1639C37.1962 17.4296 37.1859 17.8553 37.0203 17.9289C36.5568 18.136 36.1406 18.0105 36.0486 17.0569Z" fill="#EAEAEA"/>
<path d="M36.4349 9.5393C36.4292 8.69724 36.9765 8.82261 37.3813 8.87783C37.5308 8.89854 37.6366 9.23101 37.839 9.5393C37.2342 9.5393 36.8581 9.5393 36.4349 9.5393Z" fill="#EAEAEA"/>
<path d="M40.406 41.0847C40.7441 41.301 41.2731 41.5172 41.2535 41.6472C41.1719 42.1764 41.0282 42.7665 40.7027 43.1669C40.3463 43.6052 39.7793 43.0265 39.9702 42.3685C40.0691 42.0269 40.1979 41.6944 40.406 41.0847Z" fill="#EAEAEA"/>
<path d="M28.9736 44.3586C28.9771 43.5315 30.0005 42.709 30.6525 42.9402C30.8158 42.9977 31.0596 43.2991 31.0251 43.3681C30.8837 43.65 30.6974 44.0054 30.4387 44.1101C30.0132 44.2804 29.5164 44.2758 28.9736 44.3586Z" fill="#EAEAEA"/>
<path d="M25.5988 44.5094C25.3654 44.2275 25.0928 43.9664 24.9249 43.65C24.887 43.5776 25.2032 43.3165 25.3562 43.1416C25.5896 43.4925 25.823 43.8445 26.0565 44.1953C25.9035 44.3012 25.7506 44.4047 25.5988 44.5094Z" fill="#EAEAEA"/>
<path d="M39.0852 33.284C39.5348 32.7295 39.835 32.3073 40.1926 31.9415C40.3708 31.7586 40.6422 31.6355 40.8941 31.5653C41.1126 31.5043 41.4817 31.4641 41.5703 31.5791C41.6898 31.7344 41.6887 32.091 41.5898 32.2843C41.3207 32.8066 40.1305 33.3242 39.0852 33.284Z" fill="#EAEAEA"/>
<path d="M36.0622 33.6878C36.0806 33.2909 35.9506 32.7779 36.1496 32.5214C36.4957 32.0785 36.9477 32.5363 37.0017 32.8193C37.0569 33.1149 36.7522 33.4784 36.605 33.812C36.4245 33.7695 36.2439 33.7292 36.0622 33.6878Z" fill="#EAEAEA"/>
</svg>
