<svg width="66" height="64" viewBox="0 0 66 64" fill="none" xmlns="http://www.w3.org/2000/svg">
<path d="M3.02925 24.1531C4.51019 24.986 5.10027 26.1957 5.57796 27.6418C6.61035 30.7702 7.0079 34.0308 7.66355 37.2395C8.9072 43.3246 10.2289 49.3899 12.5143 55.1981C13.1523 56.819 14.1628 58.0444 15.651 58.9221C20.8806 62.0068 26.5785 63.508 32.5917 63.8526C40.3357 64.2961 47.3522 61.9391 53.9617 58.1131C56.5583 56.6098 58.8218 54.7275 60.7482 52.4028C62.5726 50.2019 63.4239 47.4618 65.0006 45.134C65.1671 44.8883 65.1275 44.6322 65.0807 44.3563C63.7049 36.137 62.1657 27.9468 60.4391 19.7962C60.0249 17.84 59.9895 16.2492 61.2592 14.5408C62.6048 12.7293 62.3322 11.3905 60.9043 9.59254C59.7606 8.15273 58.3681 7.00442 56.832 6.01644C49.9727 1.60538 42.3442 0.0718781 35.4298 4.36101e-05C26.4671 -0.0103672 19.1197 1.84277 12.4123 6.02895C8.03716 8.75867 4.21046 12.1088 1.2819 16.3648C-0.900476 19.538 -0.282296 22.2906 3.02925 24.1531ZM2.6879 17.233C5.3386 13.456 8.69073 10.3911 12.5487 7.87582C19.2186 3.52618 26.5712 1.56894 34.4983 1.62308C42.3286 1.66576 49.7427 3.3013 56.5188 7.3813C57.3472 7.87997 58.1194 8.42863 58.7667 9.17717C60.6722 11.3822 60.564 12.1827 59.183 14.7886C58.7625 15.5819 58.5971 16.2523 58.6949 17.1581C59.6503 26.0728 61.3799 34.8669 62.8015 43.7077C62.9399 44.5718 62.8369 45.3255 62.4498 46.1428C59.6357 52.0832 54.8588 55.8165 49.0267 58.5004C38.837 63.1905 28.7328 63.0031 18.5983 58.3505C16.0923 57.2001 14.5 55.4792 13.5935 52.8244C11.4434 46.529 9.87714 40.0972 8.56584 33.5895C7.93517 30.4579 7.39504 27.2982 5.80795 24.4456C5.47076 23.8408 5.08674 23.3775 4.45815 23.0933C3.71508 22.7581 3.02717 22.3145 2.48912 21.7003C1.43905 20.5062 1.44841 18.9998 2.6879 17.233Z" fill="#EAEAEA"/>
<path d="M6.48962 22.4885C8.05277 23.6097 8.99357 25.0599 9.55972 26.8371C9.99266 28.1978 10.5047 29.5335 10.9074 30.9025C12.9233 37.7497 14.7237 44.6572 16.4586 51.5794C17.1423 54.308 18.7669 55.7822 21.3905 56.4849C28.3633 58.3537 35.3725 58.8721 42.4629 57.2522C47.1773 56.1757 51.8543 55.0045 55.8423 52.0478C59.4026 49.4076 61.5527 46.1439 60.7576 41.4673C60.0884 37.5331 58.978 33.7186 57.6479 29.9738C55.8111 24.7997 55.0555 19.6786 57.4824 14.4524C58.0902 13.1448 57.7738 11.7705 57.0016 10.4744C55.9359 8.68479 54.1865 7.85919 52.4308 7.12419C47.7216 5.15135 42.7491 4.61 39.0764 4.69433C32.8061 4.74014 27.9564 5.12949 23.1826 6.15078C18.4412 7.16584 13.8631 8.62545 9.89067 11.5748C7.92996 13.0303 6.32415 14.7741 5.24701 16.9635C4.29268 18.904 4.761 21.2486 6.48962 22.4885ZM6.96314 17.0613C9.00398 13.5956 12.2271 11.5519 15.7863 10.0423C20.8088 7.91334 26.132 7.00241 31.5448 6.54017C33.6647 6.35902 35.7867 6.26634 37.9129 6.25801C41.008 6.24344 44.0885 6.39544 47.143 6.96804C49.4513 7.40008 51.5795 8.29646 53.6162 9.40937C55.836 10.6222 56.4761 12.6846 55.4864 14.9958C54.019 18.4241 53.9211 21.9815 54.6819 25.569C55.579 29.8031 57.3357 33.7915 58.3265 38.0047C58.6449 39.3581 58.9561 40.7094 59.159 42.0868C59.721 45.9117 57.7655 48.4926 54.9389 50.6289C51.3964 53.3065 47.2127 54.3934 43.0009 55.4251C35.8856 57.1689 28.8441 56.7785 21.8162 54.8931C19.7858 54.3486 18.5931 53.2315 18.0644 51.1473C16.2505 44.0045 14.4011 36.8689 12.2572 29.8166C11.8087 28.3414 11.2478 26.9006 10.7388 25.4441C10.1737 23.8283 9.20796 22.5405 7.80612 21.5234C6.15451 20.3241 5.91306 18.8447 6.96314 17.0613Z" fill="#EAEAEA"/>
<path d="M14.6748 16.6116C15.4626 16.5658 16.1079 16.1744 16.1193 15.2853C16.1277 14.595 15.6344 14.2973 14.8684 14.2473C14.1461 14.3639 13.6102 14.8376 13.5925 15.6611C13.58 16.2743 14.0868 16.646 14.6748 16.6116Z" fill="#EAEAEA"/>
<path d="M15.2389 19.0852C15.2545 19.8109 15.6843 20.2273 16.4087 20.2138C17.1351 20.2002 17.4983 19.7525 17.5607 19.0311C17.4691 18.3304 17.0862 17.8984 16.3608 17.913C15.6385 17.9275 15.2222 18.3575 15.2389 19.0852Z" fill="#EAEAEA"/>
<path d="M44.9835 13.0717C45.7183 13.1186 46.1085 12.6928 46.224 11.9901C46.1897 11.2426 45.7495 10.849 45.0636 10.798C44.3861 10.7481 43.9501 11.1603 43.9178 11.8235C43.8835 12.5179 44.2394 13.0249 44.9835 13.0717Z" fill="#EAEAEA"/>
<path d="M21.4946 47.5088C22.0504 47.4244 22.4448 47.1204 22.4417 46.4781C22.4385 45.7795 22.0701 45.2621 21.3791 45.208C20.7047 45.1559 20.3373 45.6338 20.3321 46.298C20.3259 47.0174 20.7255 47.4161 21.4946 47.5088Z" fill="#EAEAEA"/>
<path d="M19.4069 16.1472C19.9929 16.168 20.3634 15.8432 20.3769 15.2487C20.3894 14.6668 20.0543 14.3336 19.4631 14.2566C18.8554 14.3326 18.462 14.6636 18.4235 15.2831C18.3829 15.9452 18.8751 16.1274 19.4069 16.1472Z" fill="#EAEAEA"/>
<path d="M47.2741 16.6469C47.8142 16.6479 48.1327 16.3189 48.1264 15.7755C48.1192 15.1831 47.7455 14.8968 47.1575 14.8167C46.6819 14.8729 46.2282 15.0592 46.2552 15.6204C46.2844 16.1982 46.6268 16.6448 47.2741 16.6469Z" fill="#EAEAEA"/>
<path d="M54.9733 42.374C55.0024 42.8665 55.273 43.1767 55.7746 43.1382C56.2835 43.0997 56.6207 42.8144 56.6343 42.1481C56.5229 41.7671 56.3075 41.3746 55.7341 41.4256C55.1794 41.4756 54.9421 41.84 54.9733 42.374Z" fill="#EAEAEA"/>
<path d="M35.9418 28.7047C36.4413 28.7193 36.7119 28.4226 36.7837 27.9478C36.7452 27.4408 36.4882 27.1233 35.9938 27.1046C35.4932 27.0858 35.1904 27.3961 35.1706 27.8833C35.1488 28.3788 35.4412 28.6891 35.9418 28.7047Z" fill="#EAEAEA"/>
<path d="M37.1761 25.0077C37.6548 24.9422 37.9743 24.7027 37.942 24.1957C37.9108 23.7064 37.5955 23.4388 37.1053 23.4649C36.662 23.4878 36.407 23.7761 36.4018 24.2082C36.3945 24.7017 36.6901 24.9609 37.1761 25.0077Z" fill="#EAEAEA"/>
<path d="M51.8803 27.7438C52.3798 27.7261 52.6941 27.4627 52.6671 26.9494C52.6431 26.4997 52.3465 26.2727 51.8636 26.2686C51.4057 26.357 51.1216 26.6371 51.1695 27.1378C51.2059 27.5335 51.4723 27.7583 51.8803 27.7438Z" fill="#EAEAEA"/>
<path d="M39.7092 27.9894C40.1692 28.0039 40.4241 27.7531 40.4106 27.2898C40.3991 26.8921 40.1681 26.6693 39.7633 26.6245C39.3231 26.6609 39.0525 26.8889 39.0566 27.346C39.0598 27.7551 39.3147 27.9769 39.7092 27.9894Z" fill="#EAEAEA"/>
<path d="M24.3857 50.3987C24.7864 50.4175 25.0018 50.2093 25.0414 49.8636C25.083 49.5024 24.8821 49.2671 24.5137 49.2483C24.1672 49.2306 23.8966 49.3972 23.8716 49.7668C23.8497 50.1187 24.0516 50.3404 24.3857 50.3987Z" fill="#EAEAEA"/>
<path d="M54.5903 39.2872C54.9462 39.2966 55.195 39.1081 55.1731 38.7313C55.1523 38.3752 54.9192 38.1878 54.5227 38.1868C54.1886 38.2388 54.0117 38.4606 54.0335 38.8177C54.0543 39.1519 54.3041 39.2799 54.5903 39.2872Z" fill="#EAEAEA"/>
<path d="M51.8668 42.3117C51.54 42.396 51.3402 42.6407 51.3839 43.0019C51.4213 43.3163 51.6253 43.4683 51.9708 43.4683C52.3174 43.3871 52.4464 43.1216 52.385 42.7822C52.3372 42.5189 52.2269 42.218 51.8668 42.3117Z" fill="#EAEAEA"/>
</svg>
