<svg width="52" height="57" viewBox="0 0 52 57" fill="none" xmlns="http://www.w3.org/2000/svg">
<path d="M34.5609 55.8823C33.1729 55.8202 31.7826 55.8006 30.4003 55.6764C29.7115 55.6154 29.0434 55.3405 28.358 55.2047C27.5473 55.0437 26.7204 54.9677 25.9155 54.7871C24.0284 54.3627 22.1425 53.9278 20.2715 53.4378C18.9709 53.0972 17.6875 52.682 16.411 52.2575C12.4552 50.9438 8.47863 49.66 5.10695 47.082C3.72585 46.0248 2.30681 44.9814 1.0982 43.7425C-0.218505 42.3919 -0.345011 41.4383 0.685354 39.9002C1.55932 38.5957 2.50458 37.3361 3.4648 36.0925C5.33118 33.6745 7.19182 31.2518 9.13065 28.8912C10.2645 27.5119 11.5502 26.2581 12.7542 24.9363C15.3209 22.1202 17.8853 19.3018 20.4382 16.4719C21.6951 15.0777 22.8819 13.6178 24.1733 12.2581C25.7982 10.5487 27.5116 8.9255 29.1607 7.24022C30.9293 5.43414 32.5852 3.50728 34.4539 1.81509C35.3532 1.00063 36.6021 0.540483 37.7474 0.0446756C38.3212 -0.203803 39.7322 0.640578 40.0462 1.187C41.3571 3.46358 41.9045 6.00242 42.614 8.48836C42.8682 9.37874 43.2419 10.2335 43.4995 11.1227C43.8295 12.2616 44.0814 13.4211 44.3942 14.5646C44.9036 16.4259 45.4924 18.2676 45.9432 20.1427C46.6722 23.1774 47.3289 26.2293 47.9901 29.2801C48.3236 30.8181 48.6364 32.363 48.8894 33.916C49.5023 37.6674 50.1095 41.4199 50.6546 45.1816C51.0594 47.9747 51.3767 50.7804 51.7056 53.5839C51.8195 54.5513 51.4285 55.0022 50.5557 55.3496C48.3661 56.2216 46.0444 56.0882 43.7813 56.1837C40.8328 56.3091 37.8716 56.1285 34.9151 56.0767C34.7943 56.0744 34.6747 56.0387 34.554 56.0192C34.5574 55.9754 34.5586 55.9294 34.5609 55.8823ZM8.78796 31.3105C11.7974 33.7608 14.9748 35.6094 18.3165 37.198C20.9936 38.4703 23.7306 39.5678 26.625 40.2385C28.5374 40.6825 30.4371 41.2071 32.3702 41.5188C33.6582 41.727 34.9967 41.6488 36.3134 41.6557C39.7322 41.6741 43.1511 41.7293 46.5032 40.8344C48.5996 40.2741 48.3247 40.0739 48.0315 38.3426C47.6842 36.2973 47.3323 34.2531 46.9701 32.2112C46.5618 29.9105 46.195 27.5994 45.7063 25.3148C45.3038 23.427 44.7576 21.5703 44.2608 19.7033C43.9952 18.7036 43.6835 17.7166 43.419 16.7158C42.7831 14.3069 42.2001 11.8831 41.525 9.48573C40.9202 7.33914 40.1991 5.22478 39.5689 3.0851C39.1446 1.64369 38.3431 0.941975 37.4013 1.44008C36.5147 1.90943 35.6545 2.50648 34.9381 3.2059C33.1464 4.95676 31.4514 6.8054 29.7035 8.60112C27.7244 10.6338 25.6786 12.6044 23.7547 14.6877C21.1868 17.4681 18.7202 20.3417 16.188 23.1567C14.624 24.8949 13.0141 26.5917 11.4386 28.3184C10.5578 29.2835 9.70563 30.2729 8.78796 31.3105ZM5.02645 35.8326C3.92823 37.3557 2.85418 38.85 1.77551 40.3397C1.02114 41.3831 1.00848 41.6638 1.81805 42.6634C2.13544 43.0557 2.50342 43.4146 2.88866 43.7425C5.30473 45.8039 7.92666 47.564 10.912 48.6672C13.9363 49.7842 17.0136 50.7597 20.0829 51.749C21.6813 52.2644 23.297 52.743 24.9322 53.118C26.9493 53.5804 28.9824 54.0313 31.0339 54.2787C33.0521 54.5214 35.1014 54.5237 37.1391 54.5916C39.4666 54.6686 41.7964 54.771 44.1228 54.7296C45.5729 54.7032 47.0172 54.4029 48.4685 54.2775C49.9784 54.1464 50.0761 54.0704 49.9278 52.5543C49.7427 50.6619 49.5414 48.7707 49.3482 46.8784C49.2976 46.386 49.0446 46.2503 48.6053 46.4562C47.0322 47.189 45.3233 47.2258 43.6478 47.4662C40.7154 47.8849 37.7692 48.1001 34.8208 47.8792C32.7014 47.7204 30.5866 47.3937 28.4925 47.0176C26.7446 46.7047 25.0231 46.233 23.3004 45.789C22.3448 45.5428 21.3766 45.2909 20.475 44.8997C18.4407 44.014 16.4191 43.0891 14.4412 42.0836C12.8059 41.2531 11.1845 40.3696 9.66078 39.3538C8.08074 38.3012 6.63064 37.0635 5.02645 35.8326ZM48.5306 42.0653C33.3419 45.3795 19.9702 41.6315 7.81165 32.493C7.32636 33.1016 6.8204 33.6802 6.39262 34.3118C6.29027 34.4625 6.35351 34.9019 6.49495 35.0158C8.09225 36.3019 9.61019 37.7387 11.3662 38.7637C13.8995 40.2419 16.572 41.5027 19.2606 42.6841C21.1109 43.4975 23.0498 44.198 25.0185 44.6329C28.2177 45.3403 31.4686 45.8281 34.7104 46.3251C35.7925 46.4907 36.9194 46.4803 38.0176 46.4113C40.0347 46.2848 42.0552 46.1214 44.0561 45.8442C45.459 45.6498 46.8401 45.2679 48.2132 44.9067C48.4685 44.8399 48.8307 44.4684 48.8238 44.2475C48.7985 43.4963 48.6329 42.7463 48.5306 42.0653Z" fill="#EAEAEA"/>
<path d="M31.3102 36.0294C31.1492 36.9163 29.8014 38.3588 29.0723 38.4244C27.9523 38.5257 26.8736 37.4696 26.7954 36.3342C26.6839 34.6995 27.5855 33.4364 28.2214 32.0721C28.4962 31.4831 28.7665 30.8872 29.1022 30.3327C29.269 30.0578 29.6266 29.6517 29.8141 29.692C30.1429 29.7633 30.611 30.0958 30.6651 30.3845C31.0112 32.2435 31.2607 34.1209 31.5413 35.9925C31.4643 36.0052 31.3872 36.0179 31.3102 36.0294ZM29.8693 32.2723C29.7209 32.2596 29.5726 32.2469 29.4231 32.2343C28.9608 33.3789 28.4617 34.512 28.0581 35.6773C27.9443 36.0075 28.0443 36.4608 28.1754 36.8093C28.2455 36.9934 28.7538 37.2177 28.7918 37.1763C29.1816 36.746 29.7508 36.2962 29.8164 35.7935C29.9693 34.6362 29.8681 33.4479 29.8693 32.2723Z" fill="#EAEAEA"/>
<path d="M38.2047 35.4427C38.5819 33.7723 38.8349 32.4863 39.1821 31.2266C39.2661 30.9195 39.641 30.5134 39.9135 30.488C40.2033 30.4604 40.7277 30.7711 40.8094 31.038C41.3303 32.7382 41.9191 34.4476 42.1387 36.1973C42.233 36.9462 41.6166 37.8941 41.098 38.5809C40.4713 39.4091 38.9349 38.8328 38.4991 37.5237C38.2438 36.7564 38.2622 35.8982 38.2047 35.4427ZM39.8158 37.8055C40.9692 36.7484 41.037 35.0769 40.0803 33.1006C40.0699 34.764 39.2408 36.1341 39.8158 37.8055Z" fill="#EAEAEA"/>
<path d="M26.5858 17.146C27.6817 18.2503 27.562 19.4939 27.5183 20.6155C27.4643 22.0097 27.2251 23.4396 26.2695 24.5773C25.5968 25.3769 24.5296 25.3688 23.8695 24.5659C22.838 23.3108 22.9944 22.44 23.9397 20.6937C24.4629 19.7274 25.0586 18.7968 25.6796 17.8903C25.8911 17.5797 26.2799 17.3899 26.5858 17.146ZM24.755 23.8032C25.6853 23.2878 26.2454 21.5427 25.9866 20.1289C24.8976 21.1631 24.3341 22.784 24.755 23.8032Z" fill="#EAEAEA"/>
<path d="M15.3605 31.3818C16.1045 30.0532 16.8555 28.6106 17.7191 27.2394C17.941 26.8874 18.8161 26.4974 18.8909 26.5791C19.2864 27.0162 19.7637 27.596 19.766 28.1275C19.7729 29.3894 19.5187 30.6525 19.3865 31.9168C19.268 33.043 18.493 33.6791 17.6489 33.854C16.7485 34.0404 16.0861 33.4916 15.694 32.6979C15.5341 32.3746 15.5077 31.9858 15.3605 31.3818ZM18.3343 29.2859C18.1859 29.2663 18.0388 29.2468 17.8916 29.2272C17.5224 30.1429 17.1383 31.0529 16.8002 31.9801C16.7404 32.1434 16.8704 32.3758 16.9141 32.5759C17.1257 32.5184 17.3787 32.5138 17.5362 32.3884C17.7087 32.2515 17.8617 32.0169 17.9053 31.8006C18.0732 30.9677 18.1951 30.1245 18.3343 29.2859Z" fill="#EAEAEA"/>
<path d="M36.7397 20.0198C37.9782 20.5858 38.5577 21.4059 38.5968 22.6587C38.6313 23.7722 38.8717 24.8812 38.8901 25.9948C38.9039 26.8207 38.2886 27.3108 37.5561 27.5823C36.7132 27.894 36.2337 27.3913 35.7518 26.7782C35.2217 26.1041 35.063 25.4046 35.2505 24.5867C35.5196 23.4088 35.7311 22.2158 36.0497 21.0528C36.1555 20.6617 36.5177 20.3407 36.7397 20.0198ZM37.164 22.4631C36.3452 23.793 36.3027 25.7693 37.057 26.41C37.9943 25.1527 37.5297 23.8861 37.164 22.4631Z" fill="#EAEAEA"/>
<path d="M35.9987 13.3878C35.7745 14.8085 35.0431 15.6092 34.2163 15.5045C33.4148 15.4032 32.4338 13.9711 32.7627 13.022C33.2538 11.6036 33.9621 10.2565 34.6372 8.90943C34.9316 8.32159 35.4376 8.56547 35.5871 8.9888C35.8585 9.7584 36.0413 10.5798 36.1126 11.3931C36.1735 12.1155 36.0344 12.8563 35.9987 13.3878ZM34.2772 14.292C34.9718 13.3338 34.8419 12.2961 34.8212 11.2251C33.792 12.127 33.5551 13.3499 34.2772 14.292Z" fill="#EAEAEA"/>
<path d="M45.4582 36.5101C45.2949 36.2996 45.1765 36.2144 45.1558 36.1086C44.8913 34.7799 44.6164 33.4524 44.4106 32.1134C44.3784 31.9075 44.6797 31.6498 44.8269 31.4163C45.0488 31.6038 45.4341 31.7683 45.4651 31.9834C45.671 33.4559 46.1873 34.9398 45.4582 36.5101Z" fill="#EAEAEA"/>
<path d="M38.7517 9.20044C38.0456 8.07193 37.6258 6.87439 37.8294 5.5089C39.1357 5.4951 39.4704 6.75361 38.7517 9.20044Z" fill="#EAEAEA"/>
<path d="M40.4046 11.8199C39.9791 11.9683 39.6214 12.1914 39.5237 12.1086C39.2718 11.8946 39.0488 11.5599 38.9982 11.2424C38.9786 11.1181 39.4455 10.9145 39.6905 10.7466C39.8917 11.0491 40.0929 11.3517 40.4046 11.8199Z" fill="#EAEAEA"/>
<path d="M45.2324 48.2405C45.4417 48.4544 45.7648 48.6339 45.8395 48.887C46.1351 49.8959 45.6567 51.0623 44.708 51.7284C44.4102 50.5378 44.9759 49.4829 44.9978 48.3751C45.076 48.3291 45.1542 48.2853 45.2324 48.2405Z" fill="#EAEAEA"/>
<path d="M41.943 53.6493C41.8084 53.058 42.3443 51.497 42.7859 51.2819C42.9779 51.1887 43.3298 51.1346 43.4414 51.2393C43.5863 51.3773 43.6702 51.7317 43.5978 51.9226C43.3022 52.698 42.971 53.479 41.943 53.6493Z" fill="#EAEAEA"/>
<path d="M39.4152 53.9576C39.1288 53.5619 38.8437 53.1662 38.5573 52.7705C38.9058 52.7141 39.3244 52.5082 39.5865 52.6335C40.1328 52.8935 39.9568 53.3709 39.7728 53.7782C39.6544 53.838 39.5348 53.8978 39.4152 53.9576Z" fill="#EAEAEA"/>
</svg>
