<svg width="50" height="51" viewBox="0 0 50 51" fill="none" xmlns="http://www.w3.org/2000/svg">
<path d="M35.0653 2.31332C35.363 0.80896 34.6917 -0.00518059 33.165 2.4807e-05C30.9399 0.00835345 28.897 0.740259 27.4026 2.32374C26.3879 3.40022 25.3971 3.70212 24.0723 3.47516C23.885 3.44289 23.6862 3.471 23.4936 3.471C20.435 3.43769 17.1339 4.12064 13.9847 5.68851C5.77136 9.77683 0.588612 16.2097 0.0432792 25.5356C-0.552008 35.7007 4.97832 46.0793 17.5845 49.8855C25.8446 52.3789 33.4657 50.2977 40.476 45.6337C43.9395 43.3298 46.5184 40.2399 47.939 36.2796C50.3721 29.4938 49.3595 23.061 45.8877 16.8947C45.613 16.4064 45.2935 16.0691 45.9835 15.4809C48.0919 13.6809 47.6174 11.0761 45.0551 9.94652C43.5263 9.2719 41.9153 9.14697 40.2835 9.44888C39.7974 9.53842 39.3687 9.58006 38.9805 9.23754C37.6161 8.0351 35.9822 7.33651 34.2681 6.85657C33.5053 6.64315 33.6156 6.33708 33.8404 5.80717C34.3233 4.67031 34.8239 3.53138 35.0653 2.31332ZM43.5575 40.0098C40.2075 44.3396 35.5847 46.758 30.4258 48.2187C17.7895 51.7958 4.39241 44.1189 1.84579 30.6859C0.149426 21.7399 4.42778 12.4815 12.8211 7.65718C16.4782 5.55524 20.3965 4.41525 24.6457 4.48396C25.4647 4.4975 25.6802 4.64741 25.4262 5.52504C24.5125 8.6816 25.3472 11.5477 27.0664 14.2316C27.8459 15.4497 28.7482 16.6021 29.229 18.0919C28.3288 18.0253 27.7085 17.5339 27.03 17.2226C24.6603 16.1357 22.5102 14.699 20.6369 12.8844C19.2569 11.5477 18.2152 10.0017 17.8395 8.04863C17.5793 6.69523 16.8633 6.34749 15.5613 6.78474C12.6015 7.78001 11.4755 11.2489 13.2499 14.0473C14.5019 16.0212 16.3856 17.2507 18.5284 18.0201C21.5069 19.0882 24.5999 19.4568 27.7616 19.1132C27.9895 19.0882 28.2216 19.1101 28.4527 19.1101C25.8592 20.046 23.4603 21.1183 21.5725 23.1401C18.5326 26.3945 17.6813 31.8154 19.7148 35.4259C20.3257 36.5097 21.1188 37.4102 22.4915 37.3977C23.8496 37.3852 24.6738 36.5065 25.2868 35.4259C26.5752 33.1532 26.9041 30.6088 27.235 28.0811C27.5847 25.4076 28.5276 22.9423 29.7004 20.4021C29.997 20.9289 30.021 21.4046 30.1063 21.869C30.8192 25.7616 32.4282 29.2127 35.1725 32.0996C35.3057 32.2402 35.4452 32.3745 35.5919 32.5005C37.5224 34.16 39.4905 34.3171 40.8829 32.9252C42.3899 31.4209 42.4107 28.5923 40.9381 26.8776C39.7902 25.5419 38.2437 24.8391 36.6805 24.1552C34.725 23.3004 32.8403 22.3354 31.3427 20.7592C30.9691 20.3667 30.6017 19.9721 30.3374 19.3881C31.7267 18.7645 33.1078 18.221 34.6511 18.1003C37.4215 17.8848 40.2085 17.7546 42.9133 17.0311C43.3192 16.9228 43.5419 17.003 43.7646 17.3642C48.1918 24.5352 48.5196 33.5946 43.5575 40.0098ZM22.5778 17.6599C19.3953 17.2362 16.4865 16.2159 14.4832 13.5539C12.9648 11.5362 13.5819 8.98872 15.682 8.06112C16.0848 7.88309 16.5417 7.58533 16.7093 8.38696C17.3753 11.5872 19.4921 13.735 22.0085 15.5798C22.5018 15.9421 22.9993 16.2971 23.4458 16.7375C20.9491 15.992 18.7355 14.7303 16.6957 13.1166C18.1101 15.3289 20.4069 16.4054 22.5778 17.6599ZM22.7953 33.8299C23.5353 30.3173 23.7642 26.6715 25.8821 23.6013C26.4514 22.7757 27.056 21.9752 28.0613 21.0538C27.1445 23.1443 26.5096 24.9984 26.2172 26.9463C25.9539 28.7005 25.7624 30.4652 25.4648 32.2131C25.2629 33.3937 24.8924 34.5441 24.2128 35.5508C23.7445 36.2442 23.1273 36.7678 22.2073 36.7033C21.2873 36.6387 21.0792 35.8881 20.8034 35.2104C18.4046 29.3096 20.8253 23.3743 26.7199 21.1402C23.3573 24.8568 21.943 29.016 22.7953 33.8299ZM36.1071 26.9348C35.0258 25.9968 34.0246 24.9839 32.9985 23.5711C34.9977 24.531 36.7648 25.2983 38.4528 26.2103C40.6394 27.3919 41.4137 29.0982 40.8142 31.0575C40.3355 32.6233 39.0273 33.2074 37.5412 32.5151C37.3664 32.4338 37.1905 32.3464 37.0375 32.2319C33.8092 29.8176 32.4136 26.2977 31.2241 22.6393C33.3263 25.6449 35.6721 28.3393 39.199 29.7083C38.3176 28.6162 37.153 27.8416 36.1071 26.9348ZM43.7449 10.4952C44.2215 10.6357 44.7075 10.8096 45.129 11.0657C46.586 11.9495 46.714 13.4726 45.4579 14.6262C44.6389 15.3778 43.6398 15.7891 42.5866 16.0545C39.3957 16.8583 36.1071 16.8333 32.8476 17.1498C35.9354 15.4341 39.2906 14.5981 43.0778 14.1567C41.8799 13.431 40.8933 13.4945 39.9286 13.6632C36.7117 14.2254 33.7509 15.4309 31.0284 17.2757C32.6103 14.4919 34.8488 12.4399 37.7795 11.1438C39.6996 10.2963 41.6718 9.88406 43.7449 10.4952ZM37.3414 10.4296C35.7033 11.2156 34.3483 12.2546 33.1525 13.5091C31.9505 14.7698 30.8692 16.1097 30.1927 17.7317C30.6735 14.5679 31.581 11.5518 32.6987 8.59309C32.8746 8.12565 33.0755 8.02154 33.5292 8.22039C34.8364 8.79506 36.0769 9.47802 37.3414 10.4296ZM33.1827 5.29912C31.8495 8.50564 30.5237 11.7132 29.7868 15.1259C29.7504 15.2935 29.6495 15.4465 29.5194 15.7422C28.7368 10.9085 29.9315 6.4943 31.1731 2.08012C28.1123 6.05184 28.002 10.5899 28.6743 15.3216C25.8654 12.1765 25.01 7.75193 26.5596 4.57143C27.6138 2.40911 30.8588 0.568452 33.2607 0.726696C34.2244 0.790202 34.4367 1.33365 34.2838 2.13632C34.0725 3.24091 33.6114 4.26741 33.1827 5.29912Z" fill="#EAEAEA"/>
<path d="M11.3194 17.2841C8.05679 17.0061 2.93335 23.2932 3.39126 26.8651C5.26767 23.0923 7.51874 19.6525 11.3194 17.2841Z" fill="#EAEAEA"/>
<path d="M5.49246 29.5822C6.52589 26.7984 8.06927 24.3206 9.90717 22.0115C7.09309 23.1223 5.05016 26.6151 5.49246 29.5822Z" fill="#EAEAEA"/>
<path d="M7.44379 34.0549C8.67808 31.826 9.09126 29.4554 9.68862 27.1453C7.59783 28.9359 6.71634 31.1492 7.44379 34.0549Z" fill="#EAEAEA"/>
<path d="M10.3609 39.3394C11.1987 36.8127 11.0998 34.4411 11.5556 31.9092C9.91652 33.4354 9.34519 37.1354 10.3609 39.3394Z" fill="#EAEAEA"/>
<path d="M14.9255 42.4033C14.1793 40.3722 13.5341 38.6179 12.8274 36.6951C11.8658 38.9251 12.5724 40.8885 14.9255 42.4033Z" fill="#EAEAEA"/>
</svg>
