<svg width="43" height="49" viewBox="0 0 43 49" fill="none" xmlns="http://www.w3.org/2000/svg">
<path d="M42.743 19.2924C41.7481 16.5315 40.1787 14.2307 37.6716 12.6045C34.1613 10.3266 30.3211 9.28244 26.1572 9.35115C25.5816 9.36052 25.053 9.38238 24.5441 8.93784C22.0765 6.78697 19.3925 4.93177 16.542 3.32539C13.1087 1.39106 9.46622 0.126153 5.48237 0.0230864C4.44478 -0.00398172 3.28751 -0.120592 2.5153 0.618575C1.36531 1.71795 0.154964 1.70026 -1.2042 1.32131C-1.51954 1.23386 -1.85881 1.19637 -2.18664 1.19741C-11.9808 1.23593 -20.1462 4.70794 -26.1823 12.6347C-26.558 13.1282 -26.8494 13.6435 -27.529 13.8247C-29.3357 14.3077 -30.8031 15.3655 -32.0957 16.6845C-34.5996 19.2414 -36.3178 22.2782 -37.5417 25.617C-37.7072 26.0678 -37.7519 26.5675 -38.3212 26.7965C-42.8962 28.6351 -46.0735 32.0571 -48.6035 36.1288C-50.2186 38.7283 -51.277 41.5434 -50.9284 44.7083C-50.7234 46.5718 -49.3892 48.2157 -47.5565 48.4937C-43.2022 49.1537 -39.288 48.0595 -35.8839 45.2403C-35.6403 45.0383 -35.5612 44.7739 -35.0971 44.9613C-32.1446 46.1554 -29.4335 45.4079 -26.8578 43.8067C-26.558 43.6204 -26.3447 43.2508 -25.893 43.5319C-23.5681 44.979 -21.0038 44.649 -18.5373 44.2731C-13.9404 43.5725 -9.69642 41.9036 -5.98212 39.0126C-5.6876 38.7835 -5.41701 38.112 -4.77697 38.7315C-3.07332 40.3785 -0.93362 40.7335 1.32368 40.5419C4.72057 40.2546 7.86769 39.1344 10.7827 37.4145C13.756 35.6603 16.3432 33.422 18.6006 30.7995C18.8524 30.5069 19.0044 29.9208 19.6444 30.1884C22.6219 31.4356 25.4672 30.6548 28.0939 29.2826C30.5687 27.9896 32.8656 26.3697 35.2363 26.3947C38.8455 25.2151 40.9519 23.0684 42.6722 20.4511C42.9334 20.0555 42.8929 19.7078 42.743 19.2924ZM-36.5156 43.1581C-36.2138 43.8057 -36.3064 44.1555 -36.935 44.5532C-39.8157 46.3803 -42.8847 47.6181 -46.3347 47.666C-48.7138 47.6983 -49.742 46.6957 -49.8367 44.3512C-49.947 41.6486 -49.0197 39.2197 -47.6814 36.9523C-45.6156 33.4511 -42.8847 30.5548 -39.4733 28.3196C-39.1298 28.0948 -38.8135 27.8168 -38.214 27.7856C-39.0986 31.5178 -39.1746 35.1491 -38.2463 38.7856C-37.856 40.3222 -37.1764 41.736 -36.5156 43.1581ZM-29.19 38.5274C-28.8955 39.7819 -28.2575 40.925 -27.4374 41.9193C-26.9379 42.5252 -26.915 42.8354 -27.6924 43.1654C-30.1412 44.2034 -32.5796 44.9956 -35.1814 43.6287C-35.5456 43.4371 -35.76 43.2289 -35.887 42.8521C-38.8072 34.1924 -37.7291 26.1615 -32.1071 18.8541C-30.9925 17.405 -29.6552 16.1921 -27.7788 15.1885C-28.5094 16.8074 -29.1203 18.1597 -29.5563 19.5808C-31.5098 25.9366 -30.6657 32.2424 -29.19 38.5274ZM-5.67719 35.9872C-5.42221 36.4484 -5.28067 36.7742 -5.82393 37.2323C-9.74741 40.5471 -14.2849 42.5887 -19.2907 43.4507C-24.3496 44.3221 -26.5508 43.307 -28.2169 36.7742C-29.0911 33.346 -28.7404 29.7865 -29.0204 26.2947C-29.7749 16.8636 -24.7795 10.8357 -17.2822 6.43196C-12.395 3.56171 -6.95726 2.27286 -1.25208 2.2916C-0.921131 2.29264 -0.591225 2.30096 -0.260277 2.31554C-0.0958443 2.32283 0.0665054 2.35093 0.412022 2.39049C0.0519371 2.80484 -0.192635 3.13696 -0.486115 3.41805C-4.87272 7.59903 -6.93021 12.8825 -7.4412 18.7719C-7.77006 22.5749 -8.25087 26.4082 -7.54214 30.2363C-7.17165 32.2362 -6.67211 34.1913 -5.67719 35.9872ZM17.972 29.2066C13.9892 33.8738 9.32885 37.479 3.1928 38.8106C2.31028 39.0021 1.4007 39.1292 0.499443 39.1666C-1.71936 39.2603 -3.27835 38.4327 -4.31073 36.2735C-5.519 33.7468 -6.04248 31.1139 -6.29953 28.3967C-6.79075 23.2152 -6.75641 18.0306 -4.9029 13.099C-3.34807 8.96284 -1.1605 5.17434 2.81086 2.7861C3.02213 2.65909 3.23756 2.53624 3.45922 2.42693C3.52479 2.39466 3.6143 2.41132 3.78185 2.39883C4.20334 7.03267 5.95382 11.1845 7.84375 15.2811C8.6732 17.0791 9.60567 18.8323 10.5538 20.5719C12.273 23.7222 14.7562 26.1708 17.7201 28.151C18.1562 28.4414 18.5017 28.5861 17.972 29.2066ZM31.0329 25.4369C28.9869 27.291 26.6161 28.4914 23.9394 29.0369C21.986 29.4357 20.1783 29.065 18.6776 27.5992C14.9726 23.9783 11.6413 20.0816 9.28305 15.4165C8.36723 13.604 7.62 11.7279 6.90711 10.0508C6.01418 7.51781 5.38142 5.12333 4.83193 2.70178C4.63107 1.81374 4.78197 1.54201 5.73111 1.62321C7.71574 1.79395 9.68373 2.05006 11.5383 2.7861C18.8191 5.67718 24.7272 10.3797 29.4312 16.6012C30.6822 18.2555 31.5075 20.1555 31.9654 22.2106C32.2526 23.4942 32.0476 24.5176 31.0329 25.4369ZM41.6492 19.2029C39.6042 22.5739 36.8723 25.0381 33.0165 25.9272C34.0572 22.1054 32.9697 18.7479 30.9091 15.5789C29.7768 13.8393 28.3708 12.3391 26.8305 10.9513C27.1105 10.5713 27.4633 10.792 27.7567 10.817C33.3974 11.2896 37.809 14.0464 41.4536 18.2212C41.7148 18.5199 41.9011 18.7865 41.6492 19.2029Z" fill="#EAEAEA"/>
<path d="M5.40432 23.261C4.98596 23.7066 5.51672 24.0033 5.78002 24.2573C8.14036 26.531 10.381 28.9141 12.6019 31.7312C11.7724 27.7543 9.07492 25.6284 6.37427 23.515C6.11305 23.3099 5.73527 22.9091 5.40432 23.261Z" fill="#EAEAEA"/>
<path d="M-1.08452 28.8328C-1.6975 30.8806 0.299624 35.9267 2.08757 37.0063C0.734642 34.4088 0.00302076 31.5469 -1.08452 28.8328Z" fill="#EAEAEA"/>
<path d="M4.94537 27.4431C4.74035 27.542 4.69248 27.7617 4.78614 27.973C5.55835 29.722 6.25355 31.5283 8.0519 32.5559C7.51281 30.7798 6.45128 29.3035 5.52609 27.7534C5.40536 27.5514 5.24197 27.3015 4.94537 27.4431Z" fill="#EAEAEA"/>
<path d="M2.34462 29.0963C2.01472 29.1827 2.09798 29.4711 2.17707 29.6991C2.40707 30.3623 2.65267 31.0213 2.89516 31.6803C3.30936 32.8067 3.79538 33.8801 5.15455 34.3475C4.36777 32.713 3.58099 31.0785 2.79421 29.444C2.70055 29.2494 2.56942 29.037 2.34462 29.0963Z" fill="#EAEAEA"/>
<path d="M22.0963 26.4456C19.7766 23.8106 17.8731 21.2142 16.3235 18.3689C16.3318 21.1913 19.5455 25.7751 22.0963 26.4456Z" fill="#EAEAEA"/>
<path d="M23.3972 17.607C23.0891 17.9214 23.4721 18.2087 23.6636 18.4533C25.131 20.3346 26.6505 22.1721 28.5904 24.0575C27.7349 21.3705 26.0229 19.6266 24.312 17.887C24.0705 17.6413 23.7656 17.2322 23.3972 17.607Z" fill="#EAEAEA"/>
<path d="M19.8286 19.8505C19.635 20.0525 19.788 20.3221 19.9441 20.5137C21.295 22.1648 22.8061 23.6432 24.6221 24.8029C23.3764 23.0747 21.9673 21.4892 20.477 19.9754C20.298 19.7932 20.0357 19.634 19.8286 19.8505Z" fill="#EAEAEA"/>
<path d="M33.8511 16.1129C33.5951 16.2388 33.6898 16.4721 33.7658 16.647C34.6306 18.6354 35.4715 20.6374 36.9379 22.2823C36.4415 20.121 35.4632 18.2044 34.3392 16.3534C34.2383 16.1858 34.0957 15.9921 33.8511 16.1129Z" fill="#EAEAEA"/>
<path d="M36.0491 15.1782C35.7515 15.3833 36.0023 15.6966 36.1428 15.9434C36.8932 17.2614 37.6466 18.5773 38.9069 19.8859C38.5292 18.1015 37.6789 16.8345 36.7995 15.5873C36.6351 15.3541 36.4332 14.9148 36.0491 15.1782Z" fill="#EAEAEA"/>
</svg>
