<svg width="68" height="52" viewBox="0 0 68 52" fill="none" xmlns="http://www.w3.org/2000/svg">
<path d="M31.619 43.8011C31.9421 44.5891 32.1756 45.1689 32.417 45.743C32.992 47.1096 32.6309 48.1242 31.3372 48.8754C28.966 50.2535 26.4315 51.0231 23.6739 51.0646C22.1054 51.0876 20.538 51.1934 18.9706 51.267C17.3618 51.3418 16.2659 50.3789 15.37 49.2723C14.028 47.6169 12.8447 45.8327 11.5798 44.1152C11.4314 43.9139 11.2129 43.6988 10.9852 43.632C9.33046 43.1489 7.61241 42.836 6.01741 42.2102C3.92219 41.3877 1.89712 40.3754 -0.111857 39.3527C-1.46766 38.6636 -2.81426 37.9147 -4.03666 37.0174C-5.59371 35.874 -7.09443 34.627 -8.47553 33.2776C-9.16435 32.6046 -9.637 31.6475 -10.0038 30.7364C-10.1752 30.3108 -10.0096 29.601 -9.74393 29.1777C-9.2207 28.3448 -8.52038 27.6235 -7.7867 26.7251C-8.11789 26.4548 -8.59283 26.0936 -9.03672 25.6967C-9.62205 25.1744 -10.235 24.6694 -10.7421 24.0758C-11.5655 23.1118 -11.6851 21.874 -11.0123 20.8675C-10.2189 19.6803 -9.24485 18.6093 -8.48588 17.4025C-7.00933 15.0558 -4.85202 13.4671 -2.59349 12.0246C-1.23079 11.1538 0.282554 10.4854 1.78785 9.87569C3.72093 9.09229 5.70578 8.4297 7.68831 7.77514C8.42313 7.53241 9.23042 7.51284 9.971 7.28277C10.3585 7.16198 10.7851 6.87555 10.999 6.5408C12.3686 4.38616 14.0257 2.50187 16.06 0.958076C17.624 -0.229102 19.4225 -0.141693 21.1451 0.305799C24.1339 1.0846 27.1146 1.93818 30.0182 2.98501C31.5385 3.53259 32.923 4.49891 34.3007 5.38239C35.2574 5.99554 35.484 7.79007 34.7791 8.70001C34.2202 9.42244 33.5578 10.0644 32.938 10.7396C32.4515 11.2711 32.8184 11.4494 33.2634 11.7301C36.1567 13.5465 39.0638 15.3446 41.8858 17.2668C42.861 17.9306 43.5142 19.0602 44.4767 19.7527C46.1487 20.9549 47.1814 22.6241 48.2635 24.2875C48.4072 24.5084 48.7143 24.6246 48.9661 24.804C49.502 23.5444 49.8872 22.3514 50.491 21.2827C51.5041 19.4905 52.7874 17.8915 54.8229 17.1725C56.2212 16.679 57.6391 16.1751 59.0904 15.9105C60.7739 15.6045 62.5863 15.7426 63.9743 16.7112C65.2197 17.5809 66.2374 18.8209 66.825 20.3831C67.4609 22.0696 67.0895 23.5121 66.1994 24.8776C65.7095 25.6277 64.9931 26.2397 64.3388 26.8701C63.4591 27.719 62.4321 28.4415 61.6858 29.3894C61.3431 29.8242 61.2856 30.7583 61.5018 31.3082C62.1297 32.9106 62.9335 34.4464 63.7201 35.9821C64.6769 37.8514 64.5745 39.6621 63.9593 41.6591C63.3291 43.7045 60.851 44.9618 59.3319 44.8572C57.9921 44.764 56.611 44.2026 55.4013 43.5607C53.9719 42.8026 52.6172 41.8363 51.4017 40.7653C50.5542 40.0176 49.893 38.9984 49.3318 37.9987C48.4981 36.5136 47.8265 34.9376 47.1366 33.5065C43.0415 38.4163 38.5751 42.9015 31.619 43.8011ZM48.5636 32.7979C48.8546 33.4306 49.088 33.992 49.364 34.5315C50.1115 35.9879 50.6094 37.6904 51.695 38.8258C53.405 40.6146 55.3772 42.2206 57.8427 43.012C59.3595 43.4986 60.7544 43.3019 61.9319 42.2574C62.9209 41.3796 63.3797 38.9006 62.7944 37.7375C62.0837 36.3272 61.1729 35.0123 60.5221 33.5778C59.9482 32.3113 59.5124 30.9826 60.0517 29.5078C60.6313 27.9226 61.9377 27.0438 63.0934 25.9992C64.0145 25.1664 65.1231 24.4601 65.4957 23.1981C65.9809 21.5531 64.4434 18.6427 62.8737 17.957C61.6858 17.4382 60.4818 17.4417 59.2238 17.5429C57.5046 17.6809 55.7509 17.9697 54.3997 18.9498C52.2849 20.4832 50.9762 22.6965 50.5128 25.3205C50.2897 26.5813 49.6067 27.0035 48.5234 26.3662C48.0232 26.0717 47.5666 25.6196 47.232 25.1399C45.7853 23.0635 44.0903 21.2149 42.1606 19.5929C41.0279 18.6404 39.8216 17.7672 38.6061 16.9194C37.0295 15.8185 35.4828 14.6463 33.7958 13.7409C30.9727 12.2259 28.1979 10.5981 25.0286 9.79403C22.5952 9.17744 20.2091 8.3158 17.6665 8.38943C15.1826 8.46075 12.7044 8.71039 10.2205 8.84269C6.14506 9.05896 2.67447 11.0824 -0.928354 12.6469C-3.43642 13.7363 -5.34074 15.7322 -7.09788 17.8006C-7.9178 18.7657 -8.60891 19.8402 -9.37593 20.8513C-10.3419 22.126 -10.358 22.471 -9.4231 23.6801C-9.31385 23.8227 -9.17357 23.9493 -9.02752 24.054C-8.1202 24.7016 -7.21862 25.3596 -6.28945 25.9762C-5.73632 26.3432 -5.63974 26.7723 -6.08822 27.1312C-6.92079 27.7961 -7.7798 28.4346 -8.55488 29.1616C-8.99416 29.5746 -9.28969 30.1797 -8.83545 30.7687C-8.18112 31.6153 -7.55213 32.5161 -6.7529 33.2086C-4.40469 35.2436 -1.81496 36.9139 0.932294 38.4002C4.96865 40.5847 9.16027 42.1642 13.7475 42.5495C16.6201 42.79 19.4995 42.9809 22.379 43.1063C24.2063 43.1857 26.0428 43.1477 27.8712 43.0718C28.6233 43.0408 29.365 42.7716 30.1102 42.6048C31.8754 42.209 33.6625 41.8892 35.3978 41.3911C37.5171 40.7826 39.257 39.5218 40.9199 38.0643C43.2002 36.0661 45.5277 34.1622 46.8007 31.2967C47.0284 30.7836 47.4919 30.6444 48.1232 30.7997C49.2007 31.0643 50.3288 31.3645 51.4098 31.2863C52.1078 31.2357 52.815 30.603 53.3946 30.0922C53.5568 29.9484 53.2175 29.3077 53.2313 28.8982C53.2405 28.6359 53.4199 28.2298 53.62 28.1596C53.8776 28.0687 54.3548 28.14 54.5216 28.331C55.3312 29.2617 55.0759 30.7847 54.0972 31.5785C52.5206 32.8554 50.6658 32.86 48.5636 32.7979ZM18.7567 6.69379C20.6714 7.20915 22.4009 7.72221 24.1592 8.10528C24.48 8.17545 25.0182 7.80046 25.2792 7.48411C25.9014 6.73062 26.3809 5.85979 26.9904 5.0948C27.3273 4.67147 27.8126 4.36659 28.3278 3.926C28.0046 3.80752 27.8206 3.73619 27.632 3.67292C26.5637 3.31401 25.5115 2.8815 24.4168 2.63072C23.8659 2.50418 23.1265 2.52028 22.6734 2.79867C21.8225 3.32093 21.0773 4.04219 20.3632 4.75427C19.7767 5.33865 19.2983 6.03233 18.7567 6.69379ZM32.7839 8.85304C32.9955 8.59306 33.2117 8.33768 33.4187 8.07424C34.0615 7.25403 33.9637 6.76742 33.0794 6.25321C32.3561 5.83332 31.6604 5.36395 30.9221 4.97628C30.5472 4.77957 29.9274 4.47359 29.7215 4.62659C28.4968 5.53192 27.2687 6.48213 26.6868 7.97415C26.6258 8.1306 26.7846 8.51022 26.9421 8.59305C28.0162 9.15672 29.1523 9.60997 30.2011 10.2151C31.0279 10.6936 31.5224 10.2864 32.0295 9.76872C32.3043 9.48573 32.5332 9.15904 32.7839 8.85304ZM21.9248 49.6979C20.6277 48.1863 19.4501 46.7806 18.2311 45.4128C17.8287 44.9607 17.3744 44.4315 16.8385 44.2509C16.0957 44.0002 15.255 44.037 14.4547 43.9691C14.1281 43.9415 13.7981 43.9611 13.4703 43.9588C13.4117 44.0508 13.3519 44.1416 13.2932 44.2337C14.2626 45.56 15.1263 46.9854 16.2394 48.1783C16.9777 48.9697 17.7608 49.9683 19.0982 49.8785C19.986 49.8176 20.8761 49.7646 21.9248 49.6979ZM21.113 2.00031C20.4253 1.82776 19.6927 1.48607 18.9694 1.50563C18.169 1.52749 17.1927 1.65863 16.6212 2.13603C15.3608 3.18862 14.2902 4.47243 13.1782 5.69642C12.8769 6.02887 12.7056 6.47868 12.3894 7.02165C13.5646 6.93882 14.5524 6.79159 15.5333 6.82495C16.3325 6.85256 16.8822 6.62477 17.4066 6.01968C18.5497 4.70136 19.7675 3.44862 21.113 2.00031ZM19.3432 44.4269C20.4782 45.7614 21.3717 46.9704 22.4354 48.0057C23.092 48.6453 23.5762 49.7025 24.7744 49.553C25.4379 49.4701 26.1015 49.3643 26.7523 49.2159C27.2146 49.1112 27.4435 48.8397 27.0835 48.3704C26.3257 47.3799 25.5817 46.3803 24.8124 45.4001C24.564 45.0838 24.2707 44.5903 23.966 44.5661C22.4802 44.4488 20.9842 44.4626 19.3432 44.4269ZM26.0244 44.7813C26.5845 45.5359 27.0433 46.2273 27.5757 46.8554C28.9683 48.4969 28.9706 48.4659 30.6197 47.6859C31.2625 47.3822 31.3901 46.998 31.0762 46.3952C30.7876 45.8407 30.569 45.2425 30.2195 44.7306C30.0527 44.4868 29.6411 44.2452 29.3662 44.2717C28.2922 44.3763 27.2284 44.588 26.0244 44.7813Z" fill="#EAEAEA"/>
<path d="M13.5365 32.9211C13.0431 34.5902 12.5912 36.1812 12.0944 37.7583C11.9449 38.2334 11.7575 38.7626 11.0399 38.5866C10.2211 38.3864 10.6409 37.9033 10.7628 37.4765C11.2998 35.5934 12.0484 33.739 12.3141 31.8179C12.6671 29.2698 13.111 26.7217 12.8637 24.0885C12.5809 21.0803 11.9392 18.1722 11.1342 15.2837C10.9836 14.7418 10.6489 14.2495 10.5086 13.7065C10.4431 13.4534 10.5742 12.9288 10.7271 12.8817C11.1009 12.7643 11.6471 12.494 11.8552 13.1819C12.4336 15.0927 13.0546 16.9931 13.5733 18.9211C13.8654 20.0093 13.9976 21.1413 14.1828 22.256C14.261 22.73 14.4783 22.9152 14.9682 22.8082C16.0227 22.577 17.0749 22.3089 18.1432 22.1721C20.3879 21.8845 22.6764 21.9121 24.4082 23.5548C26.3344 25.3827 27.1025 27.7317 26.769 30.4535C26.5816 31.9823 26.0182 33.3225 25.3063 34.6339C24.6853 35.7797 22.1968 36.7081 20.6731 36.4067C18.9769 36.0708 17.4969 35.2471 16.0342 34.3786C15.2384 33.9046 14.4346 33.4445 13.5365 32.9211ZM14.3828 27.619C14.3368 28.3484 14.4795 28.774 15.1947 29.0018C16.6874 29.478 18.1202 30.1406 19.6152 30.61C21.1642 31.0977 22.7534 31.4624 24.3346 31.8386C24.5244 31.8834 24.9188 31.7201 24.9774 31.5636C25.4915 30.1717 25.4363 28.782 24.9521 27.5155C21.332 27.5512 17.85 27.5857 14.3828 27.619ZM24.1253 33.5089C20.7674 32.4011 17.4682 31.3117 14.1689 30.2235C13.7434 31.2438 13.7584 31.4267 14.5737 31.9847C15.1372 32.37 15.8295 32.5828 16.3539 33.0085C17.7683 34.1554 19.4208 34.6949 21.1527 35.0584C22.4487 35.3311 23.5664 34.7271 24.1253 33.5089ZM24.1586 25.8578C23.5227 24.3589 21.9415 23.5836 20.0315 23.5697C18.5871 23.5594 17.2094 23.7665 15.8145 24.1208C14.3552 24.4923 14.3345 24.4095 14.6301 26.0373C17.3198 26.0752 20.0464 26.1259 22.773 26.1385C23.2088 26.1397 23.6446 25.9659 24.1586 25.8578Z" fill="#EAEAEA"/>
<path d="M7.50317 18.897C8.56803 19.6264 9.16258 20.7227 8.73019 22.248C8.23341 23.9989 7.34334 25.2908 5.42406 25.782C4.1407 26.111 3.00797 26.05 1.99141 25.2448C0.878249 24.3636 -0.134846 23.3651 -0.152095 21.7925C-0.156695 21.4175 -0.127945 20.9953 0.0364996 20.6721C0.698877 19.3744 1.47393 18.239 3.01258 17.7317C4.74096 17.1623 6.07377 17.7099 7.50317 18.897ZM5.31941 20.8952C4.58688 20.3085 3.38748 20.3223 2.89645 20.8458C2.44796 21.3243 2.61468 22.1319 3.5519 22.9923C4.16368 23.5537 4.69266 23.334 5.47579 22.5978C6.02662 22.0824 5.91509 21.3726 5.31941 20.8952Z" fill="#EAEAEA"/>
<path d="M-5.12073 32.3044C-4.63314 32.3182 -4.26285 32.2147 -4.12371 32.3504C-2.9404 33.4996 -1.3178 33.7424 0.0759559 34.4475C0.680835 34.7547 1.29836 35.0388 1.88484 35.3782C2.02629 35.4598 2.06422 35.7187 2.15047 35.8959C1.92277 35.9856 1.6606 36.1984 1.47315 36.1455C-0.949813 35.4736 -3.15315 34.3969 -5.12073 32.3044Z" fill="#EAEAEA"/>
<path d="M37.7567 19.211C36.7229 18.5472 35.6914 17.8812 34.6553 17.2208C34.3827 17.0471 34.0527 16.9367 33.8319 16.7135C33.6295 16.5088 33.5421 16.1936 33.4029 15.9255C33.6847 15.7978 33.9607 15.6506 34.2528 15.554C34.3333 15.5275 34.4689 15.6414 34.5678 15.7081C35.6925 16.4639 37.1207 16.8907 37.483 18.4667C37.5336 18.6876 37.7452 18.8716 37.882 19.073C37.8406 19.119 37.7992 19.165 37.7567 19.211Z" fill="#EAEAEA"/>
<path d="M42.0355 22.3801C42.6577 22.6976 42.8072 23.114 42.4507 23.5776C42.3414 23.7203 41.8573 23.7778 41.725 23.6639C41.0834 23.1106 41.7964 22.8357 42.0355 22.3801Z" fill="#EAEAEA"/>
<path d="M30.977 15.448C31.069 15.8023 31.2415 16.1646 31.2139 16.5098C31.2024 16.6536 30.7619 16.7617 30.5159 16.8871C30.4814 16.443 30.448 15.999 30.4135 15.555C30.6009 15.5193 30.7884 15.4837 30.977 15.448Z" fill="#EAEAEA"/>
<path d="M29.6209 14.101C29.1828 14.0481 28.7746 14.0907 28.7217 13.9734C28.6055 13.7157 28.6687 13.3763 28.6584 13.0703C28.8941 13.0933 29.1931 13.037 29.3472 13.1612C29.4933 13.2774 29.4841 13.5845 29.6209 14.101Z" fill="#EAEAEA"/>
</svg>
