<svg width="77" height="38" viewBox="0 0 77 38" fill="none" xmlns="http://www.w3.org/2000/svg">
<path d="M18.3836 6.86575C9.9788 12.0316 3.85526 19.1057 0.407377 28.4026C-0.411664 30.6107 -0.0453445 31.5925 1.96011 32.8813C3.88439 34.1181 5.94812 35.0634 8.15026 35.7058C14.1833 37.4662 20.3901 37.7192 27.7344 37.8608C30.1686 37.8597 33.7122 37.6047 37.2528 37.2986C41.7892 36.9061 46.3475 36.7541 50.8403 35.915C57.7642 34.623 64.5267 32.8886 70.7866 29.4853C73.2 28.1735 74.9744 26.3787 76.2774 24.0311C76.5834 23.4804 76.8134 22.8942 76.5667 22.2623C76.293 21.5616 75.9891 20.8714 75.6696 20.1905C74.0742 16.7883 71.743 13.917 69.1797 11.2175C63.2383 4.95954 56.0074 1.17001 47.4163 0.270521C37.0259 -0.817407 27.316 1.3751 18.3836 6.86575ZM36.2297 11.7963C36.3307 8.82716 36.4524 5.85592 36.799 2.90029C36.8687 2.30687 37.0228 1.99664 37.6784 1.96749C38.9491 1.91231 40.2198 1.80924 41.4853 1.68015C42.1847 1.60831 42.4594 1.78529 42.5906 2.55881C43.2754 6.61174 43.4221 10.6949 43.4398 14.7905C43.4564 17.4931 43.4939 20.1947 43.165 22.8869C43.0516 23.8166 42.8456 24.714 42.4126 25.5427C41.7632 26.7858 40.8682 26.9565 39.7963 26.0352C38.9606 25.3168 38.4007 24.3934 37.9865 23.3815C36.466 19.6617 36.0944 15.7607 36.2297 11.7963ZM16.81 9.96818C18.9029 8.51379 21.0926 7.2239 23.3717 6.08704C23.507 6.01937 23.6465 5.93815 23.7953 6.06308C20.6586 9.83492 20.0841 14.4094 19.7688 19.0495C19.6189 21.2441 19.621 23.4481 19.4951 25.6448C19.4524 26.3839 19.5076 27.3584 18.5709 27.5697C17.679 27.7706 17.1004 27.0513 16.6113 26.3808C15.6975 25.1273 15.326 23.6636 15.1064 22.1717C14.5527 18.4103 14.7692 14.7051 16.0659 11.0988C16.2241 10.6595 16.3938 10.2576 16.81 9.96818ZM61.8105 6.93759C62.1081 7.11769 62.1976 7.37277 62.2215 7.70591C62.5202 11.9108 62.617 16.1064 61.7241 20.2634C61.5284 21.1733 61.2485 22.0551 60.7656 22.8536C60.3805 23.4908 59.9174 24.1414 59.0734 24.0561C58.27 23.9749 57.8245 23.3325 57.5217 22.6444C56.8307 21.0744 56.5757 19.3941 56.3415 17.7128C55.7077 13.158 56.0303 8.55128 55.5225 3.85913C57.8047 4.69303 59.8414 5.74347 61.8105 6.93759ZM55.0042 4.49417C54.973 6.5045 54.9594 8.51483 54.8928 10.5241C54.7877 13.7004 54.9251 16.8601 55.4434 20C55.6328 21.1504 55.9429 22.2717 56.4477 23.3169C56.9732 24.4038 57.759 25.2606 59.0692 25.3304C60.3389 25.398 61.1558 24.6328 61.7886 23.65C62.8407 22.0156 63.2373 20.151 63.4402 18.2687C63.8107 14.8206 64.202 11.3559 63.0624 7.83084C64.3612 8.60436 65.3926 9.51946 66.4125 10.4377C69.1204 12.8749 71.6296 15.5005 73.6652 18.5363C75.8143 21.7407 75.4781 22.5704 72.5985 25.8259C72.5933 24.459 72.8784 23.1524 72.2925 21.8313C71.845 23.2065 71.692 24.5235 71.717 25.8498C71.7305 26.5724 71.4495 26.969 70.8397 27.299C69.1454 28.2141 67.4521 29.124 65.4987 29.9402C66.4843 27.779 66.4468 25.601 66.5176 23.4262C65.7683 25.4188 64.8878 27.3854 65.0106 29.5634C65.0387 30.0714 64.9482 30.212 64.5569 30.3483C63.4787 30.7231 62.4026 31.1073 61.2235 31.5248C61.6481 29.6404 61.8167 27.8477 61.902 25.9373C61.3442 26.2413 61.3598 26.7483 61.287 27.1408C61.032 28.5056 60.4939 29.8143 60.4658 31.2197C60.4575 31.6435 60.2504 31.8579 59.8778 31.9568C59.0411 32.1775 58.2023 32.393 57.2615 32.6367C57.6268 30.7929 57.9577 29.0866 57.427 27.2876C56.7297 27.9518 56.8452 28.845 56.6423 29.6133C56.5257 30.0558 56.5507 30.5347 56.4924 30.9949C56.252 32.8834 56.2489 32.8834 54.4235 33.2852C53.1517 33.5653 53.1538 33.5653 53.4109 32.3202C53.7813 30.5295 53.9864 28.7441 53.2173 26.8274C52.8166 28.0007 52.775 29.0678 52.7136 30.1318C52.6699 30.9043 52.647 31.6768 52.5877 32.4482C52.5002 33.5882 51.6136 34.2722 50.5187 34.0869C49.964 33.9932 50.2617 33.5986 50.2835 33.3675C50.4802 31.3395 50.551 29.3177 50.1971 27.0866C49.7028 28.1985 49.8173 29.2146 49.6945 30.1787C49.554 31.2884 49.5144 32.4139 49.4947 33.5341C49.4842 34.0879 49.3573 34.3003 48.7474 34.3919C45.9177 34.8198 43.0683 35.0478 40.2188 35.2341C36.4035 35.483 32.6039 35.9796 28.7751 36.0202C23.1292 36.0795 17.5 35.89 11.9312 34.8177C11.2547 34.6876 10.9415 34.4231 10.8332 33.7308C10.5054 31.6435 10.112 29.5676 9.70093 27.2428C8.75388 29.7508 9.48238 31.962 9.91323 34.2868C8.92768 34.1473 8.0514 33.7891 7.15222 33.5091C6.68078 33.3623 6.63708 33.0562 6.584 32.6429C6.23224 29.908 6.24577 27.1689 6.49866 24.1289C5.69732 25.65 5.42568 27.0044 5.32473 28.4057C5.22274 29.8309 5.49541 31.2406 5.60468 32.6897C5.39758 32.6668 5.27479 32.6793 5.17592 32.6377C1.55736 31.1198 1.28781 30.4556 2.89987 26.8732C5.70875 20.633 9.75505 15.363 15.2344 11.1675C15.4415 11.6245 15.1178 11.9275 15.0086 12.2565C13.6223 16.4416 13.4413 20.6621 14.6402 24.915C15.0034 26.2028 15.6444 27.3521 16.7476 28.1642C18.3867 29.3718 19.9488 28.8253 20.4588 26.8555C20.77 25.652 20.8022 24.4121 20.8241 23.1732C20.9011 18.759 21.0135 14.3261 22.7171 10.1743C25.0379 4.51917 23.7141 5.66539 29.7378 3.59676C31.4935 2.99398 33.3251 2.68583 35.137 2.30583C35.9061 2.14551 36.1101 2.28292 35.9623 3.1439C35.1755 7.72361 34.6708 12.3346 35.0444 16.9892C35.2494 19.5409 35.7833 22.0291 36.8698 24.3726C37.3308 25.3668 37.9448 26.2486 38.7472 26.994C40.5674 28.6857 42.6468 28.2704 43.7478 26.0206C44.392 24.7036 44.5783 23.2825 44.6709 21.8604C45.031 16.2959 45.0092 10.7375 44.2671 5.19691C44.1027 3.96843 43.7374 2.82116 42.8789 1.69888C46.972 1.67597 50.7924 2.23087 54.5171 3.4656C55.0843 3.65195 55.0104 4.07774 55.0042 4.49417Z" fill="#EAEAEA"/>
</svg>
