<svg width="53" height="40" viewBox="0 0 53 40" fill="none" xmlns="http://www.w3.org/2000/svg">
<path d="M49.9458 20.4947C49.9729 19.894 49.9084 19.2412 50.4652 18.7873C51.5964 17.8639 52.1137 16.5417 52.5466 15.2393C53.3583 12.7959 52.0824 10.2671 49.9052 10.3348C47.8301 10.3983 46.7779 9.54147 45.5457 8.00171C41.2496 2.63598 35.4019 0.252956 28.6268 0.0145487C22.674 -0.195749 17.358 1.89892 12.245 4.67027C10.2905 5.73009 8.5723 7.10744 7.11114 8.77213C4.58742 11.6455 2.89002 14.9499 2.38008 18.7665C2.22709 19.9107 1.944 20.9455 1.34143 21.9106C1.01464 22.4342 0.664963 22.9485 0.390215 23.4992C-0.367424 25.0182 -0.0302338 26.18 1.47568 26.9858C2.58195 27.5771 3.44992 28.3986 3.9401 29.5094C5.8165 33.7612 9.36742 36.0151 13.4782 37.5778C17.8326 39.2331 22.4117 39.5819 27.0158 39.6152C28.2511 39.6152 29.4906 39.6724 30.7208 39.5964C31.6792 39.5371 32.6263 39.308 33.5796 39.1613C44.0606 37.5382 49.593 28.2143 49.9458 20.4947ZM32.8209 37.5944C30.8311 37.9151 28.8433 38.1274 26.8264 38.0629C22.7302 37.9619 18.662 37.6454 14.7135 36.4243C12.6311 35.7798 10.7266 34.7606 8.89701 33.6071C7.3859 32.6545 6.36393 31.248 5.57091 29.6728C4.73626 28.0165 3.70386 26.5642 1.90031 25.8271C1.26547 25.5679 1.00944 25.0338 1.30084 24.4091C3.1481 20.4416 4.21901 16.145 6.61369 12.4013C8.91991 8.79711 12.2065 6.51402 15.9905 4.77645C20.324 2.78695 24.796 1.45855 29.6332 1.80419C35.9326 2.25394 41.3454 4.64527 45.757 9.20937C45.9661 9.42591 46.1805 9.68931 46.2596 9.96832C46.5104 10.8522 47.1869 11.1437 47.9706 11.3176C48.2724 11.3842 48.5773 11.4363 48.8833 11.4789C50.9439 11.7673 51.7109 12.9937 50.9376 14.9738C50.3652 16.4418 50.0447 18.12 49.2777 19.3589C48.0215 21.3879 47.9612 23.6617 47.1411 25.7438C44.5393 32.3443 39.9279 36.4503 32.8209 37.5944Z" fill="#EAEAEA"/>
<path d="M13.2357 32.8482C11.1085 28.991 9.5995 24.9953 9.46421 20.5842C7.76577 23.3629 10.2708 31.6436 13.2357 32.8482Z" fill="#EAEAEA"/>
<path d="M18.1697 33.2864C17.0416 31.1772 16.2506 28.9253 15.3608 26.7151C15.6075 29.1991 15.8115 31.7019 18.1697 33.2864Z" fill="#EAEAEA"/>
<path d="M15.2255 32.6129C14.1994 30.564 13.4407 28.4121 12.6404 26.2769C12.7684 28.6901 13.0172 31.0523 15.2255 32.6129Z" fill="#EAEAEA"/>
<path d="M20.8309 33.349C19.6486 31.6135 18.7192 29.8676 18.0084 27.9895C17.9116 30.2518 19.302 32.9221 20.8309 33.349Z" fill="#EAEAEA"/>
<path d="M48.9894 16.347C48.6606 15.1248 48.0413 14.0629 47.7687 12.8511C46.9507 14.394 47.5095 16.0035 48.9894 16.347Z" fill="#EAEAEA"/>
<path d="M23.4149 33.374C22.4429 31.9998 21.8591 30.561 21.0171 29.0723C20.8215 31.0628 21.8986 33.0252 23.4149 33.374Z" fill="#EAEAEA"/>
<path d="M26.483 33.0086C25.7045 31.9133 24.926 30.8181 24.1486 29.7229C24.285 31.271 24.8282 32.5359 26.483 33.0086Z" fill="#EAEAEA"/>
<path d="M35.892 31.6415C35.0938 31.0054 34.331 30.3963 33.5671 29.7883C34.0313 31.4374 34.6775 31.8955 35.892 31.6415Z" fill="#EAEAEA"/>
<path d="M29.3376 33.0002C28.5415 31.9092 27.9056 31.0367 27.2687 30.1643C27.3332 31.4428 27.7641 32.4578 29.3376 33.0002Z" fill="#EAEAEA"/>
<path d="M32.0841 32.742C31.3243 31.8675 30.7051 31.1543 29.8996 30.2278C30.2982 31.501 30.5709 32.5088 32.0841 32.742Z" fill="#EAEAEA"/>
<path d="M3.72152 22.8745C3.63306 23.8156 4.07222 24.4705 4.36466 25.4668C4.75909 24.2758 4.56866 23.5512 3.72152 22.8745Z" fill="#EAEAEA"/>
<path d="M41.4474 28.1726C40.9343 27.9342 40.4753 27.6167 39.7333 27.5574C40.4327 28.6276 40.6283 28.6869 41.4474 28.1726Z" fill="#EAEAEA"/>
<path d="M38.7821 30.0684C38.2035 29.524 37.603 29.2939 36.7402 28.8931C37.2783 29.8769 37.7882 30.2964 38.7821 30.0684Z" fill="#EAEAEA"/>
</svg>
