<svg width="47" height="56" viewBox="0 0 47 56" fill="none" xmlns="http://www.w3.org/2000/svg">
<path d="M46.123 35.1197C46.4893 34.266 46.5851 33.3186 46.5393 32.5274C46.5309 27.4469 43.5222 24.0436 39.119 24.0988C36.2341 24.1352 33.8467 25.2856 31.9048 27.4823C30.0367 29.5957 29.125 32.1703 28.0781 34.6928C27.5691 35.9192 27.0218 37.1467 26.0674 38.068C24.3773 39.6983 24.0734 41.1028 25.4596 42.8341C27.4568 45.3285 30.097 46.7735 33.3191 46.1104C39.555 44.8278 43.6555 40.8706 46.123 35.1197ZM33.0922 44.6706C29.8015 44.6612 28.0645 43.6545 26.696 41.996C26.0778 41.2475 25.7458 40.3105 26.4764 39.4537C28.4517 37.1383 29.6017 34.4045 30.685 31.6102C31.7518 28.8586 33.4429 26.6401 36.4402 25.7708C42.3514 24.0551 45.739 28.3568 44.9064 33.6059C44.4401 36.5491 42.5846 38.7374 40.4251 40.6572C38.0158 42.7987 35.4703 44.6862 33.0922 44.6706Z" fill="#EAEAEA"/>
<path d="M12.2572 38.6417C12.9243 38.5521 13.7631 38.5053 14.5686 38.3189C17.8469 37.56 20.6651 36.1077 22.1107 32.8449C23.7186 29.2157 21.8869 26.2195 17.9749 25.9884C17.5347 25.9624 17.0934 25.9291 16.6531 25.9322C14.681 25.9468 12.9045 25.4272 11.332 24.1831C10.1924 23.2816 8.81866 22.912 7.39913 22.6653C4.86083 22.2239 2.68264 22.8548 1.13926 24.9494C-0.414521 27.0586 -0.243863 29.3709 0.84056 31.6331C3.09787 36.3461 7.12334 38.2481 12.2572 38.6417ZM2.29549 25.0795C3.87008 23.4242 6.11282 23.1421 8.49085 24.3112C8.97166 24.5475 9.54196 24.7214 9.88956 25.093C11.8544 27.1991 14.4281 27.3303 17.0393 27.473C18.3974 27.5469 20.0063 27.2262 20.7025 28.9357C21.4487 30.7701 20.918 32.4108 19.666 33.8142C17.6117 36.115 14.9027 36.9333 11.8315 37.078C7.62185 36.7469 4.05013 35.1905 1.87816 31.2313C0.668852 29.0284 0.844733 26.6047 2.29549 25.0795Z" fill="#EAEAEA"/>
<path d="M17.3764 41.2974C14.2887 41.9877 11.2644 42.9965 8.32122 40.5718C6.65088 39.1955 4.97428 39.7306 3.76601 41.59C2.88036 42.9527 2.55149 44.4956 2.7919 46.0906C3.5308 50.9711 8.74583 55.3697 14.2283 55.3562C17.6481 55.1042 21.2313 54.1923 23.5416 50.5318C25.1402 47.9989 25.3525 45.4045 23.908 43.2328C22.5446 41.1808 20.5548 40.5874 17.3764 41.2974ZM23.4282 47.6418C22.4645 50.8337 20.2488 52.8336 16.9622 53.5811C15.9122 53.8195 14.8631 54.0559 13.8974 54.0111C8.79891 54.033 4.1719 49.4387 4.39149 44.7049C4.42583 43.9574 4.60169 43.2547 4.94929 42.5978C5.62888 41.311 6.61029 41.0007 7.85915 41.7128C8.62199 42.148 9.37233 42.6133 10.0831 43.1287C11.5412 44.1854 13.0512 44.1656 14.6716 43.5535C15.8549 43.1068 17.0736 42.7435 18.2954 42.4114C21.8244 41.4525 24.4939 44.1104 23.4282 47.6418Z" fill="#EAEAEA"/>
<path d="M19.1727 0.879668C16.3597 -0.750663 14.886 -0.145792 14.1138 2.9535C13.251 6.41718 11.5609 7.97984 8.07558 8.53577C5.13557 9.0053 3.34244 12.3919 4.68184 15.0915C6.05662 17.8618 8.51686 18.8435 11.6713 18.9747C15.3252 18.7779 18.5025 17.1445 21.1313 14.3502C25.2422 9.98081 24.3565 3.88318 19.1727 0.879668ZM20.8066 12.3972C18.4817 15.5527 15.2919 17.2715 11.8711 17.5432C9.46702 17.5442 7.77898 17.0237 6.44687 15.6318C5.51439 14.6584 4.99716 13.4913 5.42489 12.1535C5.85783 10.7991 7.01721 10.2109 8.31706 9.97352C12.5195 9.2052 14.6321 7.18028 15.5729 2.93476C15.9122 1.40541 16.2827 1.18993 17.6366 1.73546C22.0222 3.50321 23.5916 8.61595 20.8066 12.3972Z" fill="#EAEAEA"/>
<path d="M25.5075 23.011C26.8251 23.4284 28.2061 23.4326 29.5767 23.2057C33.3118 22.5862 35.8335 20.1553 38.1179 17.4141C39.7081 15.5058 40.4511 13.2581 40.4761 10.4795C40.4366 10.087 40.422 9.39575 40.2909 8.72738C39.8371 6.40994 38.76 4.49225 36.563 3.40745C34.1309 2.20708 32.064 3.11073 31.3022 5.69469C31.04 6.58273 30.8526 7.49994 30.7121 8.41713C30.3417 10.8335 29.0147 12.5273 26.8938 13.6548C26.0737 14.091 25.238 14.5001 24.4439 14.979C22.7923 15.9764 21.915 17.5495 22.0805 19.3922C22.2553 21.3307 23.7269 22.4467 25.5075 23.011ZM24.1837 16.1628C25.0444 15.6172 26.0102 15.2299 26.9489 14.8146C29.6485 13.6204 31.3897 11.6809 31.8621 8.69405C32.0078 7.77686 32.1858 6.85551 32.4626 5.97059C33.0246 4.1716 34.2901 3.65834 36.0135 4.47455C37.3248 5.09607 38.1699 6.14444 38.632 7.49888C39.1981 9.15524 39.298 10.8418 38.9359 12.5658C37.9451 17.2819 32.4876 21.9501 27.7909 21.9428C25.9145 22.0293 24.2826 21.3702 23.3304 19.464C22.6435 18.0929 22.8839 16.9863 24.1837 16.1628Z" fill="#EAEAEA"/>
<path d="M42.8968 30.8765C42.5919 29.2138 41.5751 28.0301 39.809 27.5481C42.5409 30.1008 41.5584 33.298 41.2098 36.6326C43.2298 34.8627 43.2631 32.8764 42.8968 30.8765Z" fill="#EAEAEA"/>
<path d="M37.8483 30.5547C39.4843 32.6358 38.8921 34.7638 39.0035 36.9084C40.5313 35.9079 40.5729 34.5701 40.3387 33.1938C40.1368 32.006 39.6175 31.0034 37.8483 30.5547Z" fill="#EAEAEA"/>
<path d="M34.5534 40.4542C36.7181 39.3048 37.2946 37.0873 35.5827 35.7214C35.8959 37.5881 34.6086 38.8343 34.5534 40.4542Z" fill="#EAEAEA"/>
<path d="M7.45326 33.9443C5.91613 31.8954 4.97323 29.73 4.72867 26.9639C3.50999 29.9913 4.88791 33.3675 7.45326 33.9443Z" fill="#EAEAEA"/>
<path d="M10.4422 34.0661C9.17877 33.1885 8.42425 31.8455 7.2243 30.4504C7.43557 33.1635 8.48878 34.2826 10.4422 34.0661Z" fill="#EAEAEA"/>
<path d="M13.2739 33.6248C12.5798 32.8513 11.9179 32.2745 10.8772 31.8081C11.2591 33.1782 12.0053 33.6394 13.2739 33.6248Z" fill="#EAEAEA"/>
<path d="M10.693 52.3632C9.16625 50.2998 8.20357 48.3051 7.65824 46.0178C6.67893 48.1916 8.25666 51.7947 10.693 52.3632Z" fill="#EAEAEA"/>
<path d="M9.9624 48.0115C10.0769 50.9026 11.5006 52.7838 13.5591 52.6203C11.9512 51.3565 11.205 49.6033 9.9624 48.0115Z" fill="#EAEAEA"/>
<path d="M12.6943 49.1577C13.1064 51.1087 13.8651 51.8624 15.7977 52.1873C14.8714 50.9234 13.813 50.1322 12.6943 49.1577Z" fill="#EAEAEA"/>
<path d="M18.0623 5.04712C18.5982 6.4963 19.0114 7.93401 20.0646 9.28845C20.9232 7.29166 20.0479 5.5104 18.0623 5.04712Z" fill="#EAEAEA"/>
<path d="M12.9763 14.9832C11.0677 14.9874 9.31404 14.6272 7.95383 13.1187C8.70106 15.6974 10.8345 16.4897 12.9763 14.9832Z" fill="#EAEAEA"/>
<path d="M11.8773 13.8151C13.1678 14.7979 14.2231 14.7813 15.2544 13.7641C14.1929 13.6777 13.1189 13.4497 11.8773 13.8151Z" fill="#EAEAEA"/>
<path d="M29.2916 19.4547C27.539 19.4713 26.0664 19.6285 24.6937 18.3188C25.7021 20.4708 27.3184 20.8633 29.2916 19.4547Z" fill="#EAEAEA"/>
<path d="M30.556 18.1002C29.3904 17.4808 28.28 17.6598 27.1883 17.2319C28.3185 18.5718 28.8722 18.7249 30.556 18.1002Z" fill="#EAEAEA"/>
</svg>
