<svg width="93" height="99" viewBox="0 0 93 99" fill="none" xmlns="http://www.w3.org/2000/svg">
<path d="M77.2503 27.3845C68.5032 22.4717 59.296 21.643 49.9108 25.7199C48.0594 26.5236 48.0927 26.6006 47.2965 24.7361C46.1018 21.9356 45.3504 18.7238 45.5024 17.0571C48.6318 18.981 50.0638 19.4099 52.5667 18.9799C57.3405 18.1616 60.4678 15.2445 62.5107 11.0063C62.6637 10.6888 62.6398 10.2838 62.3432 10.0225C61.7905 9.53627 61.3503 8.94287 60.5854 8.67844C57.0335 7.45101 53.7115 8.11313 50.5082 9.81842C48.5943 10.8366 46.9604 12.2296 45.2724 14.0629C45.4233 8.8169 47.0947 4.34338 49.2479 0C42.6466 6.58379 42.0212 19.7108 47.3965 27.1274C42.3667 30.0903 39.2633 34.594 37.3005 39.9702C37.0237 40.7281 36.649 40.4366 36.188 40.27C32.8806 39.0748 29.49 38.1951 25.9515 38.5803C17.6206 39.4881 11.0662 43.3901 6.2727 50.3331C-1.02686 60.9063 -2.63788 76.0779 5.10398 87.3799C11.0277 96.0281 19.1172 99.9561 29.5867 98.2789C39.69 96.6601 47.6868 91.5869 53.4305 83.0729C53.8676 82.4243 54.1049 82.3963 54.696 82.8647C55.6701 83.6372 56.8243 84.0963 58.0065 84.4867C63.6815 86.3607 69.1099 85.3123 74.3509 82.948C82.5351 79.2563 87.2568 72.5383 90.2644 64.3606C95.852 49.165 89.1946 34.0933 77.2503 27.3845ZM60.8549 10.5992C58.0346 10.7783 55.4755 11.2541 52.9695 12.0047C50.4426 12.7616 48.0125 13.7516 45.6376 14.9801C48.7005 11.5674 55.9345 8.00799 60.8549 10.5992ZM60.3315 11.4956C58.2594 17.2007 50.2584 19.5431 45.2536 15.866C50.095 13.61 55.2236 12.7157 60.3315 11.4956ZM43.015 91.1101C38.1508 94.5102 32.6881 96.5008 26.7456 96.8818C17.1304 97.4971 10.1265 93.0892 5.47447 84.9781C-0.991473 73.7053 0.288596 62.545 6.77223 51.7229C9.33655 47.4431 12.7532 44.0262 17.45 41.9878C23.2072 39.4892 29.0029 39.6172 34.731 41.7712C45.1901 45.7055 52.5573 52.6349 55.2507 63.8452C55.4255 64.573 55.5723 65.3132 55.6587 66.0555C55.7659 66.9758 55.7971 67.9044 55.8491 68.6571C55.5411 78.5495 50.7392 85.711 43.015 91.1101ZM85.6697 71.087C81.4236 78.1289 75.1939 82.4004 67.0618 83.8361C63.4526 84.4732 59.9277 83.9828 56.4735 82.9563C55.7138 82.7304 54.9499 82.3275 54.1267 82.0017C56.3133 78.0081 57.6933 73.8136 57.6776 69.3203C57.6485 60.898 54.4192 53.8009 48.3383 47.999C45.5429 45.3317 42.4645 43.0528 38.9334 41.4474C38.1247 41.0799 38.0248 40.6729 38.3735 39.9202C42.5551 30.9117 49.3967 24.5632 59.8767 24.1811C75.707 23.6044 88.2725 33.7362 90.7879 49.3649C92.0524 57.2229 89.69 64.4199 85.6697 71.087Z" fill="#EAEAEA"/>
<path d="M80.4796 42.9592C83.5331 46.9414 84.2314 51.6647 84.5957 56.4756C84.9651 61.3676 83.913 66.0327 82.1687 70.6061C87.9697 64.3753 86.8207 46.6322 80.4796 42.9592Z" fill="#EAEAEA"/>
<path d="M81.0489 58.5732C82.2478 63.6371 80.4672 68.0315 78.418 72.6518C82.2999 68.7508 83.6726 61.3321 81.0489 58.5732Z" fill="#EAEAEA"/>
<path d="M77.5959 61.4404C77.7686 63.7954 77.5532 65.8109 77.0599 67.7785C76.5822 69.6837 75.9609 71.5524 75.3729 73.5347C78.0538 71.4275 79.3973 64.6407 77.5959 61.4404Z" fill="#EAEAEA"/>
<path d="M72.0166 74.025C73.8378 72.4009 74.6756 68.6082 73.5079 67.2954C73.3352 69.6108 72.5952 71.7231 72.0166 74.025Z" fill="#EAEAEA"/>
<path d="M44.5595 49.923C38.8491 44.4739 32.074 42.5719 24.3187 44.4541C23.6245 44.6228 23.2301 45.2985 22.4256 45.2818C17.9765 45.1923 14.2716 47.0516 11.112 49.9885C5.90428 54.8296 4.33281 61.1395 4.10802 68.0471C4.5191 74.5216 6.8097 80.4203 10.2399 85.9287C10.5396 86.4097 10.9559 86.8251 11.3493 87.2415C15.7983 91.9482 21.4692 93.5348 27.6323 92.8342C30.8013 92.474 33.9994 91.7171 37.1423 91.0029C42.0305 89.8911 45.8229 86.8022 48.7338 82.8669C52.6156 77.6198 54.3068 71.6045 52.9476 65.1258C51.7206 59.2698 48.9159 54.0789 44.5595 49.923ZM47.0561 82.6358C44.3607 85.9381 41.0252 88.4471 36.8218 89.6048C36.3555 89.7328 35.883 89.9535 35.4168 89.9441C33.1023 89.8973 30.9553 90.6593 28.7302 91.1133C21.3942 92.6103 13.6233 89.6568 10.1171 83.1001C8.01173 79.1637 6.31537 75.0328 5.65972 70.5686C5.48175 69.3526 5.54628 68.1033 5.46927 66.8707C5.42868 66.2263 5.71801 66.1982 6.26438 66.2492C9.68624 66.5678 13.1175 66.3116 16.5445 66.2929C15.1031 65.7973 13.6441 65.5152 12.159 65.4715C10.1754 65.4132 8.18448 65.2862 6.21129 65.5943C5.53067 65.7005 5.46719 65.4028 5.5286 64.876C6.63799 55.4188 11.5262 48.2218 20.8083 46.1907C21.5379 46.0314 22.2653 45.8253 22.9876 46.2729C23.2644 46.4447 23.5787 46.3156 23.8795 46.2146C31.0479 43.8056 37.4358 45.5504 42.9193 50.3592C47.665 54.5214 50.6216 59.9944 51.6519 66.195C52.6593 72.2468 50.9547 77.8593 47.0561 82.6358Z" fill="#EAEAEA"/>
<path d="M33.9567 72.1228C33.5883 71.2744 33.224 70.4238 32.8421 69.5816C32.3987 68.6029 32.61 67.9137 33.6382 67.4671C34.1565 67.2422 34.6446 66.9174 35.0931 66.5687C35.4647 66.2792 35.8945 65.943 35.729 65.3641C35.5479 64.7312 34.988 64.8561 34.5208 64.8238C31.2675 64.5937 29.7252 63.1643 29.3307 59.988C29.286 59.6278 29.3026 59.2301 28.8437 59.176C28.3587 59.1187 28.3452 59.5841 28.2036 59.8828C27.6562 61.0416 27.036 62.1587 26.2252 63.155C26.0608 63.3569 25.9443 63.7411 25.5311 63.562C24.5424 63.1341 24.4529 63.1341 24.456 64.1856C24.4602 65.4474 23.9284 66.2636 22.8367 66.8206C21.8543 67.3214 20.8853 67.8378 19.8124 68.1293C19.4773 68.2209 19.0891 68.3572 19.1411 68.8132C19.1911 69.2526 19.5511 69.313 19.9268 69.3431C21.0654 69.4358 22.1842 69.7731 23.176 69.6305C23.739 69.6055 24.149 69.6492 24.5289 69.5597C25.6185 69.3036 25.6986 69.8023 25.477 70.6747C25.1731 71.8698 24.9545 73.0879 24.2781 74.154C24.022 74.5579 23.6276 75.0222 24.2354 75.3897C24.7485 75.7 25.017 75.1982 25.2824 74.8577C26.1763 73.7105 27.0432 72.5497 28.1849 71.6137C29.0664 70.8912 29.8251 70.9069 30.6191 71.7012C31.1801 72.2613 31.7525 72.8141 32.355 73.3294C32.8057 73.7136 33.3427 74.0061 33.9078 73.5606C34.4562 73.1295 34.168 72.6101 33.9567 72.1228ZM32.0605 71.2327C30.1144 69.0933 28.3067 69.4754 26.5427 71.467C26.5135 68.502 26.5135 68.504 23.5985 68.6092C23.1198 68.6259 22.64 68.6113 22.1613 68.6113C23.1551 67.7545 24.6777 67.414 24.9764 66.2262C25.4915 64.1752 27.5386 63.4256 28.265 61.332C29.3214 63.8681 30.7034 65.6442 33.5571 66.1044C30.6441 67.1486 31.1738 69.0579 32.0605 71.2327Z" fill="#EAEAEA"/>
<path d="M11.2171 54.1082C13.8335 57.1117 19.6729 61.0792 21.6284 61.1032C18.2118 58.8471 15.2114 55.9956 11.2171 54.1082Z" fill="#EAEAEA"/>
<path d="M26.5375 58.6138C25.9016 54.7909 24.6257 51.2856 22.8252 47.6658C22.718 50.1113 25.402 57.9714 26.5375 58.6138Z" fill="#EAEAEA"/>
<path d="M40.7119 54.7983C37.5888 56.4089 36.0506 59.3864 34.3563 62.2233C36.7656 59.9913 39.026 57.6374 40.7119 54.7983Z" fill="#EAEAEA"/>
<path d="M48.023 64.1096C45.2443 64.2044 42.5644 64.6843 40.1135 66.0752C42.8277 65.7285 45.5887 65.5661 48.023 64.1096Z" fill="#EAEAEA"/>
</svg>
