<svg width="47" height="67" viewBox="0 0 47 67" fill="none" xmlns="http://www.w3.org/2000/svg">
<path d="M0.440508 35.0542C-0.308805 38.5626 0.0325469 42.0555 0.472768 45.5493C1.22208 51.4908 3.15573 56.9637 7.01365 61.6392C8.73499 63.7255 10.7613 65.4402 13.3703 66.3157C16.2167 67.2715 18.7716 66.5167 20.0455 64.2096C20.6085 63.1894 21.0071 63.2331 21.7814 63.8775C22.5869 64.5469 23.5735 64.9269 24.5278 65.3507C28.9883 67.335 32.6859 65.6567 34.171 60.8167C34.6956 61.253 35.1295 61.6246 35.575 61.9848C36.6001 62.8135 37.7698 63.2872 39.0936 63.2633C41.9566 63.2112 43.6894 61.4862 44.9174 59.1437C46.3047 56.5004 46.9926 53.651 46.9853 50.6693C46.9676 43.1757 44.3076 36.571 40.1031 30.4963C38.4827 28.155 36.5564 26.1072 34.2668 24.4248C31.9252 22.7039 30.8189 22.7216 28.4586 24.3862C28.2234 24.5518 28.111 24.7038 27.8165 24.4352C26.2668 23.0172 24.3571 22.047 22.9584 20.4208C22.2299 19.5733 21.2038 19.033 20.1776 18.5687C18.7872 17.9388 17.3604 17.4891 15.8139 17.9659C15.2665 18.1346 15.0885 17.8962 14.9574 17.3798C14.1415 14.1826 14.9813 11.304 16.6683 8.25159C16.8036 8.54726 16.8505 8.70552 16.9389 8.83461C18.7362 11.4696 21.3339 12.8854 24.3436 13.6444C26.9516 14.3024 29.542 14.3013 32.073 13.2727C32.533 13.0853 33.2365 12.7657 32.789 12.2525C32.2915 11.683 32.1333 10.9688 31.639 10.4191C28.905 7.37917 25.6008 5.79673 21.4483 6.3131C20.2005 6.46822 18.9579 6.6754 17.6019 6.87633C19.344 4.29237 21.5337 2.23624 23.716 0C22.7055 0.220709 21.9125 0.592381 21.2121 1.12958C18.1285 3.49179 15.8888 6.49842 14.5859 10.1526C13.6721 12.7137 13.2944 15.3372 14.4516 17.9482C14.6254 18.3407 14.5068 18.4844 14.2008 18.6676C11.215 20.4531 10.7925 23.3004 11.2712 26.3456C11.4471 27.4626 11.5095 28.4152 10.9694 29.3907C5.8262 27.3315 1.6009 29.6239 0.440508 35.0542ZM31.2841 12.1171C27.1806 13.5424 19.4314 11.2478 17.4062 7.83517C23.4226 6.69623 27.8831 7.27195 31.2841 12.1171ZM14.4475 19.893C15.8555 18.8748 17.7611 18.7967 19.2347 19.7701C20.0642 20.3177 20.826 20.9684 21.619 21.5733C17.6237 21.8481 14.5266 23.5201 12.2016 26.6662C11.6615 24.7163 12.8916 21.0173 14.4475 19.893ZM11.4669 30.2923C11.7302 30.4578 12.1194 31.0127 12.2828 30.0935C12.877 26.761 16.0658 23.8376 19.5105 23.3025C21.2683 23.0287 22.9709 23.0787 24.6246 23.7845C25.6872 24.2384 26.5759 24.911 27.0827 25.9635C27.4397 26.7047 27.779 26.7006 28.2494 26.1061C28.5356 25.7449 28.8811 25.4502 29.2297 25.1452C30.3402 24.1739 31.487 24.2363 32.6391 24.9266C35.2721 26.5049 37.2776 28.739 39.0364 31.2178C42.5873 36.2213 44.906 41.7327 45.6033 47.8428C46.0362 51.6334 45.5013 55.3251 43.6873 58.7523C42.2303 61.5039 39.7649 62.647 37.4139 61.6153C36.266 61.1114 35.3668 60.2452 34.6123 59.2468C34.3927 58.9553 34.1783 58.669 33.7839 58.7211C33.3333 58.7804 33.1834 59.1427 33.0877 59.5404C32.8702 60.4378 32.7338 61.354 32.2821 62.1889C31.0635 64.4429 28.7416 65.436 26.3001 64.6646C24.4425 64.0774 22.7586 63.1342 21.2225 61.9453C20.4586 61.354 20.0069 61.356 19.5834 62.3523C18.3283 65.309 16.1875 66.1731 13.2153 64.8999C9.59149 63.3476 7.29672 60.3993 5.39638 57.1053C2.21805 51.5959 1.25851 45.5254 1.00041 39.2893C0.98064 37.5403 1.11593 35.8111 1.57905 34.1193C2.77587 29.7561 7.63079 27.8864 11.4669 30.2923Z" fill="#EAEAEA"/>
<path d="M32.3498 58.2307C34.2647 52.5995 30.8023 32.5015 27.2763 28.6047C28.9227 33.3552 29.7636 38.2878 30.6742 43.2048C31.5797 48.0927 31.792 53.0607 32.3498 58.2307Z" fill="#EAEAEA"/>
<path d="M11.4929 31.3345C10.8424 41.7859 12.9499 51.5262 19.1817 60.1588C14.4953 51.1244 11.8394 41.5506 11.4929 31.3345Z" fill="#EAEAEA"/>
<path d="M13.0706 62.4804C9.10861 57.9288 5.58996 53.2918 4.68142 47.2202C3.70731 51.5907 8.41341 60.1015 13.0706 62.4804Z" fill="#EAEAEA"/>
<path d="M40.7109 57.7549C41.5611 56.9199 41.839 55.8716 42.1231 54.8555C42.9026 52.0675 43.6103 49.2587 43.0899 46.3176C42.8641 45.0412 42.4509 44.4301 41.4633 44.0251C42.7382 46.251 42.223 48.5517 41.9004 50.8151C41.5695 53.1377 41.1126 55.4427 40.7109 57.7549Z" fill="#EAEAEA"/>
<path d="M26.5551 43.8638C27.8643 48.3029 27.9497 52.9368 28.8821 57.6508C29.2079 50.8755 28.3118 45.3671 26.5551 43.8638Z" fill="#EAEAEA"/>
<path d="M9.10236 48.6746C9.73199 53.1897 11.444 57.2135 14.6785 60.5148C13.0623 56.4629 10.6166 52.7962 9.10236 48.6746Z" fill="#EAEAEA"/>
<path d="M35.8508 56.9597C37.1381 54.0696 36.7666 48.2125 35.2014 46.8872C36.035 50.2083 34.9568 53.6563 35.8508 56.9597Z" fill="#EAEAEA"/>
<path d="M39.0447 56.8128C40.6203 54.2226 40.2602 47.5899 38.1008 45.8398C39.4183 49.5648 38.6263 53.1524 39.0447 56.8128Z" fill="#EAEAEA"/>
<path d="M22.2809 46.708C23.4767 50.6724 24.1511 54.5588 25.8537 58.4805C25.8786 55.122 23.6567 47.5929 22.2809 46.708Z" fill="#EAEAEA"/>
<path d="M17.9463 49.6763C19.011 52.8193 19.7457 56.0872 21.5014 59.274C21.3245 55.4886 19.4814 52.6402 17.9463 49.6763Z" fill="#EAEAEA"/>
</svg>
