<svg width="53" height="56" viewBox="0 0 53 56" fill="none" xmlns="http://www.w3.org/2000/svg">
<path d="M44.3538 20.6619C44.2262 19.9406 44.0031 19.2861 43.1785 19.3321C42.3563 19.3769 41.4881 19.4437 40.9683 20.3237C40.4405 21.2175 40.3703 22.1401 40.7579 23.0455C41.4501 24.6652 43.4545 25.2346 44.8885 25.0931C46.8297 24.9021 48.1843 23.7621 49.4366 22.445C50.36 21.4729 50.9948 20.364 51.0523 18.9479C51.1305 17.0325 50.8384 15.2172 49.6045 13.7218C48.7949 12.7394 47.8163 11.8811 46.832 11.0644C46.3306 10.648 45.6889 10.2937 44.946 10.6353C44.4055 10.8838 43.8513 11.1035 43.3062 11.3439C42.4173 11.7362 40.6877 11.3175 40.0702 10.6468C39.8149 10.3696 39.3929 10.1338 39.0237 10.097C38.3867 10.0337 38.0635 10.5088 37.9175 11.0851C37.3114 13.4606 35.7671 15.1401 33.8167 16.47C31.0189 18.3784 28.1497 20.1822 25.361 22.1045C22.4597 24.1038 19.4376 25.8673 16.1752 27.2087C15.9981 27.2811 15.729 27.4905 15.7405 27.6124C15.9521 29.7026 15.384 31.6099 14.4307 33.4195C14.6722 33.7174 14.8918 34.0015 15.1241 34.2753C16.8778 36.3425 18.0634 38.6214 17.8909 41.4421C17.8806 41.6009 18.2693 41.8723 18.5154 41.9425C19.4813 42.2221 20.4967 42.3578 21.4362 42.7018C23.3981 43.4207 25.0885 44.5792 26.5444 46.0942C26.7594 46.3185 27.3608 46.4876 27.5644 46.353C28.6442 45.6352 29.5676 44.7287 30.0138 43.4679C30.2208 42.8835 30.261 42.2416 30.4519 41.6503C30.9096 40.2308 31.4582 38.84 31.8871 37.4124C32.5817 35.0979 34.0065 33.3366 35.8958 31.9125C36.1017 31.7572 36.4455 31.6744 36.7019 31.7146C38.558 31.9999 39.6666 33.7128 39.3216 35.6696C39.2503 36.0733 39.271 36.4944 39.2434 37.0213C39.808 36.6186 40.1829 36.1792 40.636 36.0699C41.234 35.9261 41.9883 35.8513 42.5023 36.101C43.0244 36.3552 43.7512 37.1351 43.6638 37.5194C43.42 38.5869 42.9876 39.7281 42.2896 40.5506C40.8522 42.2439 39.4124 43.9798 37.4483 45.144C36.9734 45.4258 36.5536 45.7974 36.066 46.1586C36.2834 46.3128 36.4064 46.4013 36.5306 46.4876C37.5771 47.2158 37.7772 48.1948 36.9239 49.1173C36.0626 50.048 35.1357 50.9418 34.1284 51.7091C31.7249 53.5393 29.0766 54.3573 26.0729 53.3334C25.9291 53.284 25.7176 53.33 25.5738 53.4036C25.0195 53.6866 24.4779 53.9926 23.9363 54.2998C21.4213 55.7262 18.7005 55.5629 16.0763 54.9762C12.9749 54.2825 10.9475 51.9749 9.12477 49.5142C8.92698 49.2462 8.62685 48.9598 8.32326 48.8804C6.72367 48.4628 5.4794 47.4942 4.66408 46.154C3.71306 44.5907 3.02884 42.8651 2.22617 41.212C1.00031 38.687 1.20385 36.1619 2.22271 33.638C2.62635 32.6407 2.5378 31.8619 1.75123 30.9508C0.429922 29.4196 -0.147352 27.5492 0.0320417 25.4532C0.232135 23.1318 1.22341 21.1428 2.38257 19.2056C3.18294 17.8677 4.3191 16.8496 5.77265 16.3239C6.49022 16.0651 6.7294 15.6774 6.7501 15.0228C6.826 12.5875 8.91548 9.98651 11.0981 9.11799C13.1439 8.30353 15.3219 8.32538 17.4631 8.21954C19.1513 8.13672 20.8509 8.23912 22.5437 8.29664C24.0869 8.3484 25.6278 8.47034 27.1711 8.52441C28.3107 8.56352 29.2962 8.45192 29.9287 7.17846C30.8521 5.31487 32.4747 3.99654 34.2008 2.9175C36.0695 1.74988 38.0865 0.848008 40.3128 0.520154C41.2903 0.376358 42.2528 0.0243589 43.228 0.00135154C43.9939 -0.0159039 44.9035 0.130173 45.5118 0.548906C46.9113 1.51176 47.5599 3.13379 47.7991 4.68563C48.0394 6.24208 47.6289 7.87788 46.2696 9.41937C46.5974 9.51255 46.9148 9.51257 47.093 9.66902C48.2315 10.671 49.5229 11.5717 50.4037 12.7715C51.1903 13.8425 51.5962 15.2287 52.0091 16.5263C52.2368 17.2419 52.0919 18.0678 52.185 18.8363C52.3541 20.2202 51.7377 21.3912 51.1627 22.5405C50.6291 23.6068 49.7586 24.3718 48.7559 25.1012C47.0516 26.3401 45.3428 26.9475 43.2314 26.584C40.8384 26.171 38.8386 23.6885 39.2468 21.3199C39.3722 20.594 39.7643 19.905 40.0909 19.2262C40.7751 17.8032 41.9343 17.4938 43.435 17.6779C44.2043 17.7722 45.107 18.5464 45.3681 19.4322C45.5566 20.0706 45.6647 20.7344 45.8246 21.4603C44.7229 21.7421 44.5309 21.6593 44.3538 20.6619ZM32.8622 9.95889C30.8912 10.4835 28.9351 10.0854 26.9733 9.99456C24.364 9.87492 21.7548 9.68165 19.1444 9.65174C17.2412 9.62874 15.3046 9.63796 13.4406 9.96236C11.3936 10.3178 9.6503 11.3025 8.69813 13.3916C7.63327 15.7268 7.80348 17.9746 8.63146 20.3225C9.33638 22.3207 10.6439 23.7863 12.3596 24.8596C13.2428 25.4118 14.2191 26.1423 15.3748 25.8788C16.2603 25.6775 17.1618 25.3646 17.9381 24.9022C20.2978 23.4941 22.5862 21.9699 24.9264 20.5285C27.3999 19.0042 29.9069 17.5341 32.3839 16.0167C32.8347 15.7407 33.221 15.3553 33.6258 15.0079C34.5481 14.2164 35.5129 13.4652 36.3547 12.5944C36.6663 12.2723 36.6824 11.6615 36.8331 11.1829C36.3512 11.2623 35.8108 11.2277 35.3979 11.4417C33.4453 12.4517 31.4904 13.4756 29.9989 15.1632C29.9011 15.2736 29.7861 15.3748 29.6642 15.46C29.4492 15.6095 29.2226 15.7418 29.0007 15.881C28.934 15.552 28.7017 15.1148 28.8328 14.9147C29.2537 14.2693 29.7332 13.6182 30.3277 13.1385C31.649 12.0721 33.0531 11.1081 34.5607 10.0015C33.9466 9.97616 33.3659 9.8243 32.8622 9.95889ZM2.80115 37.5539C2.7034 38.3534 3.01963 39.2507 3.31517 40.041C3.89705 41.602 4.47779 43.1826 5.26896 44.6413C6.79151 47.4482 9.30761 48.2948 12.4297 47.1778C13.0921 46.9408 13.7016 46.544 14.3203 46.1943C16.2844 45.0819 16.4512 43.1734 16.4581 41.2235C16.4615 40.1549 16.6558 39.0539 16.028 38.0543C15.6772 37.4963 15.399 36.8947 15.085 36.3138C14.9436 36.0538 14.8021 35.7927 14.6434 35.543C14.1628 34.7815 13.5234 34.4249 12.6333 34.9621C10.7853 36.0791 8.82348 35.6707 6.94329 34.938C5.91638 34.5376 4.94581 33.9935 3.80045 33.4425C3.45316 34.7964 2.97134 36.1562 2.80115 37.5539ZM2.40096 22.4381C1.60058 24.0647 1.1429 25.7787 1.67418 27.5595C2.21236 29.3656 3.21169 30.8645 4.75148 32.0747C6.11073 33.1434 7.55853 33.7841 9.22942 34.0717C11.2683 34.4237 13.4118 33.1606 13.9523 31.1463C14.2018 30.2145 14.3398 29.239 14.4065 28.275C14.4514 27.617 14.1455 27.0211 13.4222 26.8325C10.5507 26.087 8.86833 23.9589 7.52173 21.5592C6.9778 20.5883 6.8628 19.377 6.55691 18.2738C6.50631 18.0909 6.47296 17.9022 6.42811 17.6986C4.1121 18.5717 3.32322 20.5618 2.40096 22.4381ZM15.5956 53.2598C17.8484 53.927 20.0575 54.0662 22.3022 53.4738C23.8914 53.0539 25.299 52.1877 26.3098 50.9246C27.2861 49.7041 27.0688 48.2132 25.6428 46.9305C24.2146 45.6467 22.8174 44.2421 20.8383 43.8142C19.939 43.6198 19.0064 43.5024 18.091 43.5208C17.861 43.5254 17.4953 44.1708 17.4528 44.5516C17.347 45.473 16.7904 46.0436 16.1614 46.5923C14.6676 47.8956 12.9231 48.6883 10.7416 49.1151C12.117 50.9729 13.3532 52.5961 15.5956 53.2598ZM30.4266 52.0404C32.4885 51.3134 34.1686 50.0031 35.5623 48.3293C35.7245 48.1338 35.7544 47.8278 35.8452 47.5735C35.5842 47.4827 35.3048 47.2837 35.0656 47.3228C34.601 47.3999 34.1582 47.6069 33.7086 47.7657C33.2141 47.9405 32.7116 48.0118 32.4701 47.4309C32.2539 46.9109 32.4954 46.4773 33.0014 46.2656C35.989 45.0128 38.1877 42.7225 40.4669 40.554C41.1109 39.9409 41.5674 39.1172 42.0332 38.343C42.1896 38.083 42.1068 37.6793 42.1332 37.3422C41.8147 37.402 41.3961 37.3526 41.1914 37.5389C39.8736 38.7353 38.6074 39.9881 37.3137 41.2109C36.9504 41.5537 36.5801 41.9103 36.1534 42.1576C35.966 42.2669 35.5003 42.214 35.3922 42.0668C35.2473 41.8689 35.2128 41.4467 35.3301 41.2259C35.8521 40.24 36.5042 39.3208 36.9963 38.3212C37.6748 36.9442 37.9773 35.4533 37.8841 33.9141C37.8301 33.0214 37.1861 32.7798 36.411 33.2342C35.2576 33.9107 34.5389 34.9598 34.0881 36.1366C33.0462 38.8607 32.1194 41.6285 31.1419 44.3778C30.7141 45.5811 29.7918 46.4105 28.8259 47.1295C28.2244 47.577 27.9933 47.9601 28.2176 48.6698C28.6246 49.9583 28.0014 50.9786 27.2631 52.1014C28.3521 52.6133 29.4227 52.3948 30.4266 52.0404ZM39.3882 4.48433C40.4416 3.50767 41.541 2.91176 43.1429 3.45013C43.2429 3.63879 43.4626 4.05407 43.7535 4.6051C43.4028 4.71898 43.0555 4.83288 42.7071 4.94447C42.0792 5.14578 41.3455 5.20906 40.8568 5.58983C40.4324 5.91883 40.0622 6.61018 40.0714 7.1336C40.084 7.87213 40.5164 8.41743 41.5134 8.24717C42.1608 8.13674 42.8749 8.30583 43.5396 8.44387C44.6792 8.68085 45.7993 7.95841 46.165 6.84141C46.6261 5.43336 46.3858 4.13115 45.8326 2.83124C45.4393 1.9075 44.0997 1.25295 42.8358 1.56355C40.5382 2.12953 38.205 2.64832 36.0074 3.49844C33.8938 4.31635 32.4621 6.10634 31.1465 7.91471C31.0292 8.07462 31.0131 8.38175 31.0821 8.57271C31.1166 8.66934 31.4478 8.6889 31.6456 8.69236C33.4579 8.71766 35.2691 8.74986 37.0815 8.7395C37.5598 8.73605 38.0371 8.5911 38.6385 8.49102C38.2843 6.97254 38.152 5.63125 39.3882 4.48433Z" fill="#EAEAEA"/>
<path d="M12.1039 18.5763C11.1586 17.6779 11.1943 16.5505 11.5968 15.4197C12.1407 13.8897 13.4873 13.4606 14.8799 13.1569C16.2714 12.8543 17.7467 13.9748 17.8813 15.3806C18.0526 17.1613 16.5864 18.9904 14.8351 19.3413C13.8346 19.7347 12.8974 19.3298 12.1039 18.5763ZM15.5285 15.8879C15.4066 15.6118 15.003 15.4611 14.7258 15.254C14.4843 15.644 14.1692 16.0133 14.0519 16.4366C14.022 16.547 14.6097 16.8289 14.7178 16.9002C15.6757 16.7898 15.7102 16.3009 15.5285 15.8879Z" fill="#EAEAEA"/>
</svg>
