<svg width="49" height="50" viewBox="0 0 49 50" fill="none" xmlns="http://www.w3.org/2000/svg">
<path d="M16.7739 25.4703C16.3932 25.4703 16.184 25.4646 15.9747 25.4715C14.3337 25.5233 14.5556 25.1103 13.9737 26.8657C13.3964 28.6109 12.166 29.9108 10.5537 30.4756C9.37387 30.8897 7.98128 30.9875 6.58982 30.3617C5.21332 29.7417 3.88626 29.1112 2.86625 28.023C2.16822 27.2787 1.50931 26.4102 1.12867 25.4761C0.429497 23.7644 -0.211043 21.9997 0.066097 20.0694C0.311038 18.3611 0.4088 16.6194 1.17352 15.0331C1.9141 13.4973 2.60521 11.9271 3.48148 10.4707C4.68549 8.46678 6.24943 6.7493 8.28371 5.53452C9.7591 4.65334 11.2276 3.74108 12.7778 3.0129C13.8921 2.48948 15.1248 2.1904 16.3288 1.89016C18.4137 1.37134 20.5043 0.846779 22.6191 0.482113C24.2153 0.206025 25.8528 0.15539 27.4754 0.0380522C30.9391 -0.213878 34.0371 0.806515 37.0661 2.46534C39.1671 3.61571 41.1231 4.88801 42.6353 6.70444C44.312 8.71643 45.6574 10.9677 46.7177 13.3846C47.6687 15.5507 48.3495 17.7962 48.6876 20.1234C49.0187 22.4069 48.5289 24.4223 46.8833 26.2618C45.3573 27.9666 43.737 29.4483 41.6026 30.1949C39.4706 30.9403 37.2098 31.1531 35.003 30.5457C33.8301 30.2236 32.9021 28.6614 33.2712 27.4674C33.4195 26.9888 33.5184 26.4723 33.5104 25.9765C33.5058 25.7464 33.2378 25.422 33.0078 25.3104C31.9947 24.8204 30.9023 24.7111 29.8156 24.9722C29.1083 25.1425 28.9738 25.644 29.3165 26.2974C30.2997 28.1725 31.3255 30.0304 32.2201 31.9481C33.0331 33.6897 33.8956 35.4498 34.3625 37.2961C34.7569 38.8571 34.2786 40.4768 33.7795 42.0644C32.8975 44.8724 30.9701 46.7452 28.5437 48.0463C26.4128 49.1886 24.0934 49.6499 21.5381 49.5291C17.6938 49.3473 15.2801 47.2203 13.4217 44.3317C12.2522 42.5142 11.867 40.3791 12.4523 38.0841C13.0434 35.7673 14.3268 33.8531 15.4629 31.8445C16.0988 30.7195 16.3633 29.5254 16.5243 28.2864C16.6439 27.3972 16.6865 26.4965 16.7739 25.4703ZM22.6939 48.0175C26.1966 47.8173 29.3533 46.881 31.3404 43.6749C32.6468 41.5686 33.454 39.2195 32.4927 36.8394C31.337 33.9784 29.8547 31.2429 28.4149 28.5062C27.0384 25.8902 26.6359 23.2501 27.8434 20.4904C28.032 20.0579 28.4643 19.7346 28.7737 19.3527C29.3073 18.6947 30.0881 18.8327 30.7493 18.8581C31.5681 18.8891 32.4478 19.0283 33.1689 19.3872C33.8588 19.7312 34.3935 20.4007 34.9708 20.9552C36.1702 22.1055 36.3968 23.3479 35.7585 24.8802C35.4722 25.567 35.2365 26.2756 34.9996 26.9819C34.6454 28.0357 34.7742 28.459 35.7585 28.941C37.3202 29.7083 38.9428 29.3172 40.5263 29.0112C42.9561 28.5418 44.6305 26.9164 46.0737 25.0654C46.7821 24.1566 47.4548 23.1029 47.2501 21.8559C46.9856 20.2454 46.6694 18.6349 46.2416 17.0612C45.8759 15.7187 45.4228 14.3797 44.8226 13.1292C44.2338 11.9052 43.3322 10.8342 42.7066 9.62406C41.8775 8.0193 40.7137 6.71939 39.2889 5.68291C37.9262 4.6913 36.5198 3.69851 34.995 3.0129C33.4425 2.31462 31.7475 1.84413 30.0663 1.54619C28.7576 1.31381 27.3696 1.42079 26.0276 1.51972C24.3268 1.64626 22.6042 1.77857 20.9494 2.1628C18.4942 2.73223 16.1011 3.56278 13.6632 4.21389C10.6308 5.02374 8.10317 6.79301 6.12869 9.03392C4.15191 11.2771 2.63282 13.9724 1.92215 16.9944C1.50356 18.7752 1.36554 20.5732 1.64613 22.3782C2.02102 24.7882 3.31935 26.6598 5.29728 28.0184C7.09581 29.255 9.16573 29.9855 11.0954 28.3451C11.7209 27.8136 12.1579 26.9325 12.3948 26.1272C12.4937 25.7902 11.8681 25.2196 11.537 24.7813C11.2115 24.3499 10.8343 23.9576 10.4939 23.5366C9.46586 22.27 9.92816 19.4298 11.2794 18.4991C11.8739 18.0896 12.4788 17.7905 13.1871 18.0769C14.0784 18.437 15.0708 18.7016 15.7941 19.286C17.2086 20.4271 18.3033 21.8617 18.3596 23.8115C18.393 24.9745 18.4436 26.1467 18.347 27.3029C18.2113 28.9295 17.902 30.5273 17.0533 31.9745C16.2092 33.4113 15.2939 34.8205 14.6096 36.3332C13.7138 38.313 13.4022 40.394 14.3417 42.4957C15.6814 45.4959 18.5828 48.3983 22.6939 48.0175ZM16.5151 23.6033C16.5174 23.5561 16.5439 23.379 16.5324 23.203C16.4335 21.6051 14.3589 19.5287 12.7697 19.4321C11.8601 19.3769 11.5093 19.7818 11.3966 20.6699C11.1839 22.3459 12.4098 23.2133 13.2941 24.2785C13.3596 24.3568 13.5781 24.3556 13.7092 24.3234C14.6223 24.1002 15.5308 23.8587 16.5151 23.6033ZM34.3027 24.2843C34.3338 23.9403 34.3947 23.7011 34.3717 23.471C34.2176 21.9824 33.277 21.0955 32.0546 20.3857C30.8942 19.7116 29.305 20.2603 28.9945 21.5499C28.8358 22.2079 28.8197 22.8993 28.7277 23.6689C30.6964 22.9913 32.4444 23.1443 34.3027 24.2843Z" fill="#EAEAEA"/>
<path d="M30.2935 40.2882C29.9266 38.7018 29.7277 37.2995 29.2597 35.9961C28.9055 35.0114 28.2753 34.098 27.6359 33.2537C27.2369 32.7268 27.2886 32.2736 27.7072 32.0354C27.974 31.8836 28.6962 32.0412 28.8606 32.2908C29.4827 33.2399 30.0853 34.2407 30.4614 35.3036C30.9386 36.653 31.1778 38.0875 30.7925 39.5278C30.7258 39.7739 30.5039 39.9764 30.2935 40.2882Z" fill="#EAEAEA"/>
<path d="M44.3423 20.7067C44.3423 19.8542 44.44 19.0973 44.3158 18.3783C44.179 17.588 43.9467 16.7736 43.5626 16.0764C42.9036 14.8812 42.8404 14.9157 43.9754 14.1438C45.9315 15.385 46.2063 18.9915 44.3423 20.7067Z" fill="#EAEAEA"/>
<path d="M5.2722 22.6209C5.00656 24.1336 6.83844 26.6713 8.49439 27.0325C8.2023 27.6042 7.80211 27.6997 7.25588 27.4271C5.75979 26.6805 4.55462 25.6854 4.15214 23.9553C3.96469 23.15 4.41778 22.5898 5.2722 22.6209Z" fill="#EAEAEA"/>
<path d="M26.8997 43.6288C26.9354 42.9132 26.9734 42.5106 26.9711 42.108C26.9688 41.5328 27.0423 40.9265 26.8905 40.3893C26.725 39.8061 26.8653 39.3621 27.3552 39.2608C27.5909 39.2125 28.0543 39.6738 28.2233 40.0028C28.7282 40.9864 28.2429 41.917 27.8623 42.8063C27.7404 43.0904 27.3482 43.2583 26.8997 43.6288Z" fill="#EAEAEA"/>
<path d="M41.7613 23.3191C41.8706 23.7102 42.0718 24.1083 42.0454 24.4902C42.035 24.649 41.5428 24.8583 41.2565 24.8813C41.0782 24.8951 40.6896 24.5431 40.7172 24.4557C40.8506 24.0266 41.092 23.6309 41.2956 23.2236C41.4508 23.2547 41.6061 23.2869 41.7613 23.3191Z" fill="#EAEAEA"/>
<path d="M40.1408 15.0813C40.6123 14.7052 40.9055 14.3095 41.0964 14.3543C41.4184 14.4279 41.676 14.7823 41.9612 15.0181C41.6794 15.2677 41.431 15.6128 41.1021 15.7267C40.9365 15.7831 40.6261 15.4218 40.1408 15.0813Z" fill="#EAEAEA"/>
<path d="M41.8313 12.3688C41.43 12.4838 41.0298 12.6713 40.6273 12.6748C40.4743 12.6759 40.1374 12.1514 40.1972 12.0478C40.3559 11.774 40.694 11.4186 40.9458 11.4289C41.2621 11.4416 41.5645 11.7878 41.8727 11.9892C41.8601 12.1169 41.8462 12.2434 41.8313 12.3688Z" fill="#EAEAEA"/>
<path d="M24.7261 43.4333C24.9377 43.9625 25.1584 44.2409 25.0998 44.4342C25.0273 44.67 24.7214 44.8334 24.5156 45.0289C24.3558 44.8483 24.0384 44.6297 24.0706 44.494C24.1407 44.2006 24.3891 43.9499 24.7261 43.4333Z" fill="#EAEAEA"/>
<path d="M4.21596 20.9298C3.95607 20.8021 3.69616 20.6744 3.43627 20.5467C3.40637 20.4559 3.37647 20.3661 3.34657 20.2764C3.68006 20.1257 4.01242 19.9761 4.34591 19.8254C4.42066 20.1579 4.49538 20.4915 4.57012 20.824C4.45168 20.8585 4.3344 20.8942 4.21596 20.9298Z" fill="#EAEAEA"/>
</svg>
