<svg width="21" height="37" viewBox="0 0 21 37" fill="none" xmlns="http://www.w3.org/2000/svg">
<path d="M11.0127 21.8074C12.3448 22.6038 13.3054 23.446 14.0401 25.0566C15.7406 28.7857 16.4899 32.6242 16.7439 36.7667C18.1717 33.6549 18.0094 30.1985 16.3578 27.1846C15.7458 26.0675 14.9018 25.0243 14.5459 23.8333C13.6655 20.886 13.1378 17.8304 12.2189 14.8967C11.3842 12.2336 11.5976 9.88806 13.1961 7.58415C14.1744 6.17452 14.6646 4.51712 15.0819 2.72334C13.2284 4.77427 12.4655 7.28015 11.2343 9.74959C9.95739 3.10854 9.73053 -3.38155 9.93139 -10.1767C8.47543 -5.9374 8.44317 -1.83867 8.56701 2.32149C7.89263 1.76763 7.34729 1.18775 6.82589 0.587048C5.73731 -0.666412 4.7268 -1.99795 3.54559 -3.15668C3.09496 -3.59914 3.12617 -3.83338 3.33223 -4.27792C4.64665 -7.11174 6.64377 -9.37193 9.08216 -11.2896C9.64935 -11.7352 10.0188 -11.6269 10.4663 -11.2146C12.1169 -9.69675 13.7851 -8.19758 15.1121 -6.36945C19.2458 -0.672658 19.6183 5.60401 18.0417 12.2117C17.207 15.7077 15.8666 19.0329 14.5678 22.7162C15.2754 21.9937 15.6595 21.4711 15.9883 20.8995C18.2477 16.9674 19.6777 12.7666 20.2407 8.2546C21.348 -0.616443 17.6431 -7.33349 10.9648 -12.7481C10.1791 -13.3853 9.44225 -13.4072 8.56285 -12.7773C1.53804 -7.75409 -1.658 1.68122 0.845959 9.98175C2.49132 15.4412 6.31388 18.9975 11.0127 21.8074ZM2.89095 -3.2129C3.66212 -1.93341 4.36983 -0.661209 5.17326 0.547484C5.95067 1.71766 6.8717 2.79205 8.37553 3.01172C9.01141 3.10437 8.81677 3.5333 8.85736 3.86853C9.50052 9.24987 10.5298 14.5469 12.3614 19.6617C12.7423 20.7267 13.2294 21.7532 13.7258 22.9359C3.72978 17.1642 -1.32497 8.4472 2.89095 -3.2129Z" fill="#EAEAEA"/>
</svg>
