<svg width="62" height="53" viewBox="0 0 62 53" fill="none" xmlns="http://www.w3.org/2000/svg">
<path d="M50.6899 4.2738C51.5973 5.41723 52.5486 6.52767 53.4987 7.63567C54.6246 8.9489 55.8189 10.2047 56.8911 11.5582C57.9034 12.8348 58.8792 14.1554 59.7193 15.548C60.5326 16.8967 61.3838 18.2734 61.462 19.9324C61.5084 20.9255 61.5768 21.9199 61.5731 22.9131C61.5645 24.809 61.5145 26.7037 61.4766 28.5985C61.4558 29.6051 61.5523 30.6361 61.3716 31.6134C60.9527 33.8673 60.4496 36.1089 59.8769 38.3298C59.5386 39.6394 59.0098 40.9001 58.5507 42.1754C58.2246 43.0819 57.9852 44.0457 57.5053 44.8654C56.4319 46.7002 55.2864 48.4997 54.0628 50.2368C53.3301 51.2764 52.2347 51.8273 50.9207 51.9837C49.0438 52.206 47.4489 51.3155 45.7918 50.7474C44.2385 50.2148 42.7657 49.4366 41.2796 48.722C39.1046 47.6751 36.9395 46.6062 34.7878 45.5116C33.1123 44.6602 31.476 43.7342 29.8017 42.8815C26.9894 41.451 24.1464 40.0804 21.3451 38.6315C19.5902 37.7239 17.8989 36.6977 16.1575 35.762C14.454 34.847 12.7199 33.987 11.0066 33.0891C9.33965 32.2156 7.66541 31.3556 6.02659 30.4321C4.16186 29.3815 2.32524 28.2784 0.493471 27.1704C0.0819341 26.9212 -0.123256 26.5425 0.0782378 25.9964C0.265078 25.4907 0.350581 24.9459 0.465371 24.4145C0.51544 24.1824 0.440955 23.8635 0.571621 23.7206C1.10772 23.133 1.28967 22.4501 1.50826 21.6927C2.24707 19.1395 3.16539 16.6389 4.01777 14.12C4.26811 13.3797 4.56242 12.6516 4.78101 11.9027C5.08386 10.8656 5.44409 9.82723 5.57842 8.76321C5.74083 7.4683 6.24153 6.85139 7.5433 6.67792C8.82676 6.5069 10.1066 6.29311 11.3815 6.06712C12.3401 5.89731 13.2889 5.67621 14.2427 5.48441C16.6337 5.0031 19.0322 4.55355 21.4159 4.03803C23.973 3.48587 26.5057 2.80787 29.0714 2.30334C33.1001 1.51174 37.1385 0.751906 41.1941 0.119113C42.6656 -0.11055 44.1994 0.0641379 45.7051 0.0555867C47.074 0.373205 49.7802 3.12671 50.6899 4.2738ZM4.7175 15.7068C6.42715 15.3831 7.917 15.3342 9.24564 16.2883C10.5071 17.1935 11.2239 18.5605 10.6634 20.0863C10.5889 20.2891 10.5254 20.5016 10.4925 20.7142C10.1811 22.7274 8.89514 23.1354 7.10612 23.2246C5.62972 23.2979 4.28765 22.5491 3.43282 21.2004C3.36199 21.0892 3.2814 20.9854 3.07502 20.691C2.8027 21.6866 2.54503 22.5173 2.3704 23.3663C2.3411 23.5105 2.6354 23.7975 2.83934 23.9014C5.19988 25.1034 7.58483 26.2591 9.93438 27.4795C10.9174 27.9901 11.8113 28.6742 12.7895 29.1946C14.1475 29.9166 15.5591 30.5347 16.9244 31.2445C18.17 31.8919 19.3949 32.5821 20.6111 33.2845C22.1156 34.1543 23.5762 35.1048 25.1014 35.9354C27.5291 37.2597 29.9983 38.5069 32.4443 39.7994C34.1723 40.7131 35.8709 41.6855 37.6197 42.559C39.046 43.2712 40.5261 43.8734 41.9805 44.5282C42.9269 44.9546 43.8538 45.4261 44.8161 45.8109C45.8321 46.2165 46.8786 46.55 47.9154 46.9018C48.2781 47.0252 48.6481 47.129 49.023 47.206C50.5056 47.5114 51.3078 46.4608 51.9783 45.4908C52.6633 44.5001 53.0358 43.2993 53.6037 42.2206C54.2057 41.076 54.8297 39.9374 55.5282 38.8502C56.4405 37.4307 56.9949 35.8768 57.2257 34.2386C57.5261 32.1094 57.7764 29.9606 57.8436 27.813C57.9022 25.9451 57.6177 24.0687 57.5908 22.1948C57.5688 20.6739 56.2158 20.9121 55.4403 20.5578C54.3852 20.0777 53.1592 19.9739 52.0051 19.71C50.6618 19.4022 49.3222 19.076 47.9728 18.7926C45.6037 18.2954 43.2261 17.841 40.8607 17.3291C40.2904 17.2057 39.769 16.8649 39.1999 16.7354C37.9213 16.4459 36.6232 16.2394 35.3385 15.9744C34.7512 15.8534 34.1784 15.6604 33.5935 15.5236C31.2085 14.9641 28.8455 14.2495 26.43 13.894C22.3721 13.2978 18.4057 12.3401 14.4442 11.3298C13.3647 11.0537 12.3157 10.6481 11.2264 10.4307C9.92092 10.1693 8.58984 10.0422 7.26853 9.86144C7.0768 9.83456 6.88266 9.826 6.62377 9.80279C6.00707 11.7158 5.38305 13.6472 4.7175 15.7068ZM15.967 8.59462C16.2295 8.64105 16.5068 8.63494 16.7571 8.71678C19.0456 9.4583 21.4049 9.78936 23.7923 9.97749C24.0585 9.99826 24.315 10.1216 24.58 10.1766C26.9185 10.6689 29.257 11.1588 31.5968 11.6462C33.5666 12.0579 35.5351 12.483 37.5098 12.8727C39.1755 13.2001 40.8558 13.4591 42.5203 13.7938C43.9771 14.0858 45.4169 14.4669 46.8738 14.7625C49.7228 15.3416 52.5803 15.8754 55.4281 16.4557C56.5406 16.6829 57.636 16.9907 58.7424 17.2448C58.9866 17.301 59.248 17.2851 59.745 17.3193C59.0049 16.2321 58.4359 15.2952 57.7679 14.4364C56.4771 12.7786 55.1778 11.1234 53.7942 9.54381C51.8049 7.27285 49.7631 5.04586 47.6944 2.84697C46.5599 1.64002 45.0823 1.01821 43.4349 1.00966C42.2516 1.00355 41.0683 1.21611 39.8837 1.31384C39.438 1.35049 38.9727 1.26376 38.5453 1.36149C37.0824 1.69499 35.6402 2.12011 34.1748 2.44139C33.1172 2.6735 32.0267 2.759 30.9655 2.97889C29.6295 3.25498 28.3094 3.60803 26.9796 3.91709C25.5374 4.25059 24.0927 4.58042 22.6456 4.89437C20.5782 5.34393 18.5083 5.77882 16.4396 6.21738C15.0108 6.51911 13.5796 6.80741 12.1532 7.11892C11.8308 7.18978 11.5244 7.33515 11.2105 7.44754C11.213 7.54405 11.2154 7.64178 11.2178 7.73828C12.8005 8.02536 14.3831 8.31243 15.967 8.59462ZM1.57665 25.1071C0.937971 26.1894 1.77204 26.5266 2.49376 26.9297C4.28767 27.9302 6.07425 28.9478 7.87304 29.9398C11.2838 31.8198 14.6982 33.6938 18.1187 35.5543C19.3521 36.225 20.6124 36.8455 21.8567 37.4967C23.57 38.3921 25.276 39.3034 26.9942 40.1891C30.1534 41.8175 33.3321 43.4092 36.4766 45.0645C37.6307 45.6716 38.6577 46.5549 39.8545 47.0337C40.3869 47.2463 41.0134 47.3269 41.5714 47.6152C42.679 48.187 43.8074 48.7232 44.9492 49.2216C46.1948 49.7653 47.4819 50.216 48.7226 50.7706C50.0085 51.3448 52.5022 50.6778 53.3179 49.3426C54.5721 47.2903 55.7749 45.2001 56.8789 43.0635C57.3808 42.0936 57.6006 40.9758 57.9401 39.9216C58.3528 38.6376 58.8865 37.3757 59.1368 36.0613C59.585 33.7036 59.9843 31.3239 60.1724 28.9344C60.3763 26.3483 60.3323 23.7426 60.358 21.1442C60.3653 20.3514 60.2798 19.5512 60.1541 18.767C60.1223 18.5678 59.7926 18.3321 59.5569 18.2685C58.9134 18.0938 58.2502 17.9851 57.5896 17.8801C56.3025 17.6736 55.0093 17.5038 53.7246 17.2876C52.3495 17.0555 50.9732 16.8209 49.6104 16.5253C47.1656 15.9964 44.7367 15.3978 42.2907 14.8725C40.0327 14.3875 37.7638 13.9563 35.4973 13.5128C33.4677 13.1158 31.4332 12.7371 29.4024 12.3462C27.2848 11.9382 25.1747 11.4862 23.0498 11.1209C20.1275 10.6176 17.1882 10.2169 14.2695 9.69285C13.0129 9.46686 11.8004 9.00753 10.5523 8.72168C9.48744 8.47858 8.40301 8.31977 7.32227 8.15852C7.15985 8.13408 6.96813 8.29655 6.79106 8.37351C6.92173 8.57752 7.00967 8.88171 7.19407 8.96111C7.51402 9.10037 7.89379 9.1077 8.25038 9.15778C10.1469 9.42898 12.0568 9.63055 13.9374 9.98726C15.3197 10.2487 16.6508 10.7764 18.0296 11.072C21.0483 11.7207 24.0866 12.279 27.109 12.9118C28.3473 13.1708 29.5563 13.5727 30.7945 13.8304C32.1195 14.1065 33.4628 14.2898 34.7988 14.517C34.9587 14.5439 35.1151 14.5915 35.2738 14.6294C36.782 14.9897 38.2913 15.3477 39.7995 15.7093C42.1478 16.2724 44.49 16.86 46.8457 17.3951C49.4004 17.9766 51.9746 18.4762 54.5245 19.0785C55.6003 19.3326 56.6566 19.7039 57.6763 20.1315C57.9987 20.2671 58.3431 20.7374 58.3858 21.0905C58.6081 22.9143 58.8034 24.7479 58.8743 26.5828C58.939 28.2369 58.9805 29.9178 58.7644 31.5511C58.4322 34.0627 58.2344 36.6403 56.885 38.9003C55.8775 40.5873 54.925 42.278 54.1898 44.1288C53.4571 45.9722 52.2701 47.6897 50.2198 48.3421C49.5506 48.5546 48.7007 48.3372 47.9655 48.1723C47.1339 47.9854 46.323 47.6726 45.5305 47.3477C43.6205 46.5646 41.696 45.8048 39.8349 44.9155C38.5832 44.3169 37.4548 43.4642 36.2227 42.8168C35.0039 42.1754 33.7107 41.677 32.4749 41.0674C31.0962 40.387 29.7443 39.6552 28.3827 38.9418C26.3494 37.8778 24.304 36.8358 22.2878 35.74C20.3864 34.7065 18.5364 33.5802 16.6252 32.565C15.5457 31.9921 14.3538 31.6305 13.2792 31.0515C12.0238 30.3759 10.8564 29.5391 9.62055 28.8232C8.70589 28.2931 7.74358 27.8435 6.80205 27.3585C5.29756 26.5816 3.79674 25.7998 2.28614 25.035C2.11152 24.9471 1.88437 24.9605 1.72195 24.9336C1.63769 25.0338 1.60107 25.0668 1.57665 25.1071ZM9.36896 20.6214C9.82079 19.8151 9.56678 18.6228 8.86827 17.8569C7.50177 16.3592 5.49905 16.6169 4.1118 17.9008C4.03486 17.9717 3.99821 18.1207 3.99944 18.2331C4.01897 19.6172 4.73339 21.5253 6.41984 21.7636C7.82786 22.1508 8.70341 21.8112 9.36896 20.6214Z" fill="#EAEAEA"/>
<path d="M35.324 37.8582C34.6182 36.7038 34.7708 35.4773 34.8661 34.2215C34.9882 32.6041 36.5757 30.3319 38.1205 30.0045C39.6311 29.6832 41.2113 29.5158 42.6828 30.206C43.4668 30.5737 44.1726 31.1112 44.9004 31.5938C45.8627 32.2327 46.4892 33.0316 46.3378 34.3009C46.212 35.3453 46.0887 36.3068 45.5489 37.3024C44.8089 38.6693 43.7013 39.478 42.4263 40.073C41.2784 40.6092 40.0011 40.5152 38.7653 40.123C37.4794 39.5843 36.1239 39.169 35.324 37.8582ZM36.3278 36.8333C36.616 37.3647 37.0691 37.9144 37.5881 38.1941C39.1268 39.0224 40.7423 39.4756 42.474 38.6364C43.4131 38.1807 44.0566 37.4599 44.4804 36.5584C44.7429 35.9989 44.8528 35.3624 44.9896 34.7516C45.1777 33.9148 44.8699 33.177 44.1958 32.7445C43.1334 32.0629 42.165 31.1638 40.8168 31.0221C39.5871 30.8938 38.4282 30.8352 37.4732 31.9138C36.9359 32.521 36.3192 33.0194 36.3095 33.7963C35.9675 34.886 35.8235 35.9024 36.3278 36.8333Z" fill="#EAEAEA"/>
<path d="M19.1517 31.3727C18.4019 30.9036 17.618 30.4809 16.9133 29.9519C16.0451 29.3008 16.0268 28.2368 15.945 27.2986C15.8289 25.9683 15.9925 24.6208 16.9878 23.6008C18.7292 21.8148 21.0434 21.9944 23.0034 22.8495C23.8728 23.2294 24.7301 23.9147 25.276 24.6868C26.0453 25.7765 26.0062 26.992 25.3505 28.2991C24.1867 30.6189 21.6515 32.1032 19.2604 31.2004C19.225 31.2578 19.1884 31.3152 19.1517 31.3727ZM24.6702 26.8344C24.7118 26.4618 24.5665 25.9707 24.3296 25.68C23.0131 24.0711 21.3316 23.2966 19.2177 23.6264C17.7865 23.85 16.6606 25.9585 17.1331 27.5527C17.5459 28.9453 18.2114 29.5586 19.7733 29.9873C22.1607 30.9683 24.4724 28.5923 24.6702 26.8344Z" fill="#EAEAEA"/>
<path d="M53.4599 22.3366C54.6432 23.0317 55.8375 23.8306 55.8851 25.3552C55.9108 26.1871 55.6995 27.1387 55.2758 27.8436C54.7568 28.7048 54.0326 29.665 53.1619 30.0437C51.6868 30.6875 50.1884 30.3882 48.7547 29.3938C46.6982 27.967 46.1463 25.6862 47.3748 23.7304C48.4592 22.0043 49.3054 21.0136 51.8443 21.65C52.3853 21.8748 52.9604 22.0422 53.4599 22.3366ZM54.1022 23.9894C53.1912 23.1184 52.1325 22.642 50.9003 22.4514C50.363 22.3683 50.2177 22.7483 49.9221 23.017C49.5375 23.3652 48.9867 23.5509 48.6594 23.9357C47.6813 25.0901 47.9646 27.1851 49.2383 28.0708C50.0626 28.645 50.8979 29.1935 52.0555 29.0395C53.1656 28.8917 53.6809 28.1111 54.2512 27.3806C54.5516 26.997 54.6566 26.4607 54.8496 25.9941C55.1488 25.1145 54.6982 24.5575 54.1022 23.9894Z" fill="#EAEAEA"/>
<path d="M24.9718 17.797C25.4212 16.204 27.3153 15.3134 29.1568 15.8277C30.9727 16.3359 32.0852 17.9069 31.6419 19.3411C31.1095 21.0684 29.2411 22.2741 27.7353 21.8612C26.2589 21.6609 24.498 19.4754 24.9718 17.797ZM28.1395 21.121C28.9333 21.3421 30.3987 20.1938 30.6894 19.1224C30.919 18.277 30.1215 17.1055 29.1275 16.8368C27.8049 16.4801 26.1319 16.9614 26.0855 18.0437C25.7863 19.1505 26.8622 20.7642 28.1395 21.121Z" fill="#EAEAEA"/>
<path d="M19.1847 17.9363C18.8684 18.9771 17.2479 19.8249 16.1659 19.5354C15.0205 19.23 14.2022 17.8337 14.6675 16.65C15.3611 14.8835 15.7153 14.3094 17.0562 14.8762C18.9685 15.4015 19.656 16.3812 19.1847 17.9363ZM18.0551 17.488C18.1552 17.1606 17.4518 16.2884 16.9511 16.2163C16.4676 16.1467 15.9717 16.1943 15.7861 16.7904C15.5981 17.3964 16.0682 18.315 16.6483 18.4836C17.1087 18.6168 17.8768 18.0731 18.0551 17.488Z" fill="#EAEAEA"/>
<path d="M51.7201 35.0291C53.0927 35.4017 53.8791 36.8701 53.4798 38.3165C53.2246 39.2437 51.7506 40.0108 50.737 39.6456C49.3681 39.152 48.3582 38.3653 49.0042 36.7675C49.4621 35.0963 50.2095 34.6186 51.7201 35.0291ZM50.0153 36.9275C49.7845 37.4112 50.4489 38.4227 51.0387 38.4643C51.4881 38.496 52.0791 38.6316 52.2537 37.8938C52.4479 37.0692 52.1145 36.4828 51.1816 36.2348C50.5319 35.9258 50.2351 36.4645 50.0153 36.9275Z" fill="#EAEAEA"/>
<path d="M34.2095 21.6132C35.2414 21.8636 35.7421 22.8739 35.4344 24.0136C35.0693 25.3696 34.0032 26.2235 32.9859 25.8131C31.5669 25.2401 30.7866 24.6073 31.2653 23.1976C31.5547 21.7219 32.6843 21.2418 34.2095 21.6132ZM34.2242 23.9965C34.4391 23.1683 33.6307 23.0803 33.1532 22.8885C32.9468 22.8055 32.55 23.1964 32.2386 23.3723C32.5488 23.8182 32.8577 24.2653 33.3059 24.9128C33.7467 24.4901 34.1485 24.2861 34.2242 23.9965Z" fill="#EAEAEA"/>
<path d="M42.3692 25.2965C41.794 25.0057 41.1004 24.7602 41.0589 24.0382C41.0173 23.3114 41.1553 22.5613 41.3141 21.8442C41.369 21.5938 41.689 21.3507 41.9454 21.2065C42.7307 20.7668 43.3852 21.2725 44.0202 21.6146C44.9898 22.1386 45.6028 23.403 45.3513 24.1958C45.0118 25.2623 43.4353 25.8352 42.3692 25.2965ZM42.1262 23.0255C41.899 23.8696 42.6 24.6661 43.4756 24.4988C43.7454 24.4475 44.2046 24.125 44.1802 24.0187C44.0739 23.5581 43.9017 23.0585 43.5952 22.7152C43.3363 22.4257 42.8576 22.3316 42.3789 22.1044C42.2678 22.5088 42.1958 22.7665 42.1262 23.0255Z" fill="#EAEAEA"/>
<path d="M29.0952 31.8284C29.3382 30.3258 30.2736 29.814 31.5973 30.3845C32.0016 30.5579 32.302 30.9904 32.6256 31.3288C33.3375 32.0727 33.4596 32.8277 32.9248 33.7451C32.5816 34.3351 31.6205 34.5904 30.734 34.3473C28.8399 33.7622 28.8192 33.5362 29.0952 31.8284ZM31.9307 32.9511C32.1774 32.6188 31.2774 31.3373 30.756 31.3544C30.4482 31.3642 30.0587 31.749 29.8792 32.0642C29.6459 32.4734 30.1796 33.1844 30.8402 33.5423C31.2139 33.353 31.7073 33.2516 31.9307 32.9511Z" fill="#EAEAEA"/>
<path d="M12.5416 28.1475C12.3145 27.3791 12.1411 26.7671 11.9506 26.16C11.8553 25.8546 11.6953 25.5663 11.6269 25.2572C11.4816 24.5988 10.9541 24.5988 10.5804 24.8052C10.3667 24.9237 10.2165 25.5394 10.3325 25.802C10.7367 26.7182 11.1983 27.6381 12.5416 28.1475Z" fill="#EAEAEA"/>
<path d="M44.4157 43.5068C45.4379 44.4805 46.2402 45.8242 47.8973 45.6239C48.1342 45.5958 48.4066 45.3392 48.5275 45.1157C48.5812 45.0155 48.3382 44.6087 48.1648 44.5562C46.9241 44.175 45.6675 43.8501 44.4157 43.5068Z" fill="#EAEAEA"/>
<path d="M27.3313 34.2862C27.1042 33.425 26.8892 32.5588 26.6316 31.7062C26.5962 31.5901 26.2848 31.4362 26.2042 31.4826C26.0564 31.5657 25.9025 31.7819 25.8928 31.9493C25.8402 32.9705 26.2811 33.7585 27.0785 34.3534C27.164 34.3302 27.2471 34.3082 27.3313 34.2862Z" fill="#EAEAEA"/>
<path d="M10.9209 15.3146C11.131 15.1314 11.5229 14.9347 11.5119 14.7674C11.4875 14.4216 11.247 14.0918 11.0955 13.7559C10.8611 13.933 10.4825 14.0747 10.4288 14.2958C10.3591 14.5792 10.5509 14.9262 10.6303 15.2462C10.7267 15.2694 10.8232 15.2926 10.9209 15.3146Z" fill="#EAEAEA"/>
<path d="M8.27486 12.6969C8.61313 13.1135 8.79509 13.4751 8.91232 13.4543C9.19686 13.4067 9.45086 13.1807 9.71707 13.0267C9.57542 12.8215 9.47041 12.5027 9.28235 12.4428C9.07719 12.3769 8.79509 12.5515 8.27486 12.6969Z" fill="#EAEAEA"/>
<path d="M49.7994 44.1789C50.0546 43.9052 50.3135 43.7501 50.3098 43.601C50.3049 43.3995 50.1388 43.1295 49.963 43.0342C49.8641 42.9805 49.4574 43.2162 49.4525 43.3311C49.4452 43.5534 49.6235 43.7831 49.7994 44.1789Z" fill="#EAEAEA"/>
<path d="M51.7387 10.0728C51.5579 11.0635 52.4653 11.2968 52.878 11.8294C53.3103 12.3877 53.8379 12.8715 54.3251 13.3894C54.8869 12.7359 53.071 10.3317 51.7387 10.0728Z" fill="#EAEAEA"/>
<path d="M48.5521 13.7706C48.988 13.9355 49.4142 14.1908 49.8612 14.2372C50.1848 14.2702 50.8125 14.0479 50.8247 13.8988C50.8686 13.3833 50.7172 12.8458 50.6 12.3266C50.5853 12.2607 50.302 12.1849 50.1909 12.2314C50.0907 12.2717 49.9772 12.4915 50.0028 12.6003C50.2434 13.5837 49.7476 13.5715 49.0442 13.3577C48.9282 13.3222 48.7658 13.4371 48.6253 13.4823C48.6009 13.5776 48.5765 13.6741 48.5521 13.7706Z" fill="#EAEAEA"/>
<path d="M22.6795 8.19266C21.5914 7.57331 20.5705 6.85011 19.1576 7.25813C19.7731 7.9972 21.7831 8.50173 22.6795 8.19266Z" fill="#EAEAEA"/>
<path d="M23.6294 27.8753C24.0849 26.5107 22.9309 24.8005 21.7146 24.9764C22.3496 25.9378 22.9773 26.8882 23.6294 27.8753Z" fill="#EAEAEA"/>
</svg>
