<svg width="44" height="91" viewBox="0 0 44 91" fill="none" xmlns="http://www.w3.org/2000/svg">
<path d="M68.6469 50.536C66.0893 49.6406 63.5589 50.0314 60.8783 50.605C61.0098 50.2114 61.0779 49.9717 61.1692 49.7404C63.4107 44.1032 66.4567 38.9099 69.8571 33.9078C70.3839 33.1328 71.1745 32.3148 70.5218 31.273C69.899 30.2787 68.8175 30.2479 67.776 30.2619C67.4012 30.2666 67.0283 30.3468 66.6544 30.3906C63.4722 30.7684 60.4989 31.7225 57.8854 33.8034C57.5917 32.8828 57.3353 32.1758 57.1442 31.4511C56.94 30.6779 55.9069 30.205 56.2006 29.3087C57.4174 25.6049 55.4463 22.4039 54.3004 19.2364C53.4389 16.8571 51.4921 14.8667 51.3019 12.119C51.26 11.5193 50.5952 11.1014 50.805 10.3301C51.4604 7.92185 50.363 5.9324 48.5691 4.67885C47.1995 3.72283 46.2662 2.50286 45.2667 1.30714C44.1973 0.0265367 42.9031 -0.267264 41.5092 0.226134C40.1769 0.698081 39.2482 1.77442 39.3023 3.29565C39.3377 4.28991 38.9032 4.64247 38.08 5.02954C35.0255 6.46497 33.7575 8.99259 34.426 12.2832C34.5538 12.9109 34.2302 13.144 33.9766 13.533C32.5808 15.6782 31.6513 17.9484 32.5268 20.545C32.7813 21.3005 32.2638 21.4059 31.8946 21.7753C29.6812 23.983 28.042 26.4397 28.8644 29.7974C28.9464 30.1313 29.0845 30.4214 28.7218 30.6378C28.3087 30.8849 28.1558 30.469 27.9525 30.2759C23.1089 25.6739 17.247 25.4613 11.1335 26.3819C10.1013 26.5367 9.70044 27.0543 10.4165 28.0589C11.637 29.7704 12.8155 31.5127 14.0108 33.2419C15.6303 35.5848 17.1044 38.0089 18.3221 40.711C18.0433 40.6951 17.8885 40.7156 17.7524 40.6746C12.2104 39.0218 6.78398 39.4639 1.42936 41.5187C-0.171519 42.1333 -0.398086 42.6771 0.601417 43.9577C6.30753 51.2607 12.9507 57.6451 20.0143 63.6022C20.7323 64.2076 21.012 64.7616 20.9952 65.6197C20.9439 68.2088 20.9579 70.7999 20.8758 73.3872C20.7341 77.8306 22.5681 81.4896 25.5219 84.5796C32.1669 91.532 42.8071 92.5589 51.3532 87.2378C54.9811 84.9788 57.0454 81.8076 57.5181 77.5228C57.8864 74.1809 57.6458 70.8363 57.8146 67.4963C57.864 66.5188 57.9759 65.6141 58.7274 64.8269C62.3403 61.0448 65.5756 56.9157 69.3573 53.2838C70.7083 51.9892 70.396 51.1488 68.6469 50.536ZM57.4332 49.8402C58.2929 48.4141 58.9008 46.9349 58.2388 45.2495C58.0532 44.7757 58.2192 44.4296 58.4709 44.0566C59.1973 42.9802 59.5171 41.8134 59.1693 40.5244C59.0071 39.9238 59.2849 39.5283 59.6709 39.0946C60.3739 38.3046 60.9967 37.4428 61.558 36.5138C60.4737 36.9009 59.7548 37.7356 58.9642 38.5713C58.8588 38.4529 58.7348 38.3671 58.6835 38.2496C57.2691 35.0196 57.2803 35.0411 60.5464 33.614C62.9585 32.561 65.515 32.437 68.1014 32.1795C68.0837 32.9686 67.6036 33.3827 67.281 33.8537C63.6363 39.158 60.3627 44.6451 58.5437 50.8905C58.2192 52.0041 57.023 51.8008 56.0636 52.0927C56.5195 51.34 56.9801 50.5929 57.4332 49.8402ZM27.5404 36.4616C28.1083 34.6409 29.0462 33.004 30.3609 31.6134C30.8886 31.0547 31.1804 30.5408 30.8345 29.7517C29.8341 27.4666 31.227 23.8095 33.5673 22.8469C34.881 22.306 35.0572 21.7818 34.2843 20.5842C33.2261 18.9464 33.6549 16.0876 35.2819 14.4368C36.2078 13.4975 36.535 12.9202 35.7733 11.6303C34.8316 10.0372 36.5388 6.89588 38.7923 6.29895C40.4892 5.84939 40.6831 4.98664 40.6403 3.54842C40.5899 1.8966 41.8039 0.93592 43.3842 1.24651C44.4667 1.45916 44.96 2.39653 45.1558 3.28166C45.3991 4.38225 45.9809 4.97078 46.8368 5.64793C48.2624 6.77463 49.2638 8.27814 48.654 10.3021C48.6083 10.4551 48.5207 10.6407 48.5673 10.7694C49.2498 12.66 50.1383 14.4955 49.6004 16.6258C49.509 16.9877 50.0656 17.2918 50.46 17.5016C51.1462 17.8672 51.7756 18.4054 51.9788 19.1217C52.9522 22.5401 55.2972 25.7141 53.921 29.5726C53.6739 30.2656 53.8706 30.842 54.4916 31.2627C55.176 31.7262 55.5722 32.5144 55.5088 33.199C55.2767 35.7135 56.3479 37.9147 56.981 40.2176C57.2934 41.3527 57.161 42.3432 56.4384 43.26C55.809 44.0594 55.7009 44.882 56.1913 45.8138C56.5391 46.4732 56.4925 47.2072 56.0785 47.8228C54.7275 49.829 53.9033 52.1477 52.3621 54.0365C52.1607 54.2836 51.9425 54.5588 51.6702 54.7005C49.6078 55.7694 47.6498 57.0043 45.7562 58.3437C43.8635 59.683 42.2132 61.3106 40.4752 62.9997C38.8949 59.1159 36.7905 55.6836 34.4531 52.2653C35.2698 52.0218 36.1099 53.0515 36.3635 52.352C36.7094 51.4016 35.5682 50.924 34.8847 50.7785C31.2597 50.0091 29.5991 46.5068 26.5614 44.9557C25.9768 44.6572 26.2463 44.2338 26.4086 43.8654C26.7992 42.9774 27.1927 42.0876 27.9889 41.4571C28.7395 40.8621 28.8019 40.1747 28.0523 39.5647C26.9428 38.659 27.2039 37.5444 27.5404 36.4616ZM26.6099 31.7048C27.2682 32.2607 27.3717 32.7056 26.8915 33.448C26.4011 34.2063 26.0841 35.0756 25.6477 35.9878C24.2949 33.3613 22.4394 31.3718 19.812 30.1061C21.6581 33.8248 25.9554 36.1249 25.8743 40.9357C24.6053 38.0444 22.583 35.7322 20.4106 33.5236C18.2652 31.342 15.911 29.4243 13.1362 27.7315C18.4004 26.9695 22.7602 28.4525 26.6099 31.7048ZM13.8457 30.5697C13.359 29.8767 12.9087 29.1576 12.4416 28.4506C16.2466 31.6386 19.9509 34.9385 23.0557 38.8241C23.7243 39.6607 24.2426 40.6149 24.844 41.5056C25.2897 42.166 25.0445 42.7713 24.6286 43.2778C24.1587 43.8504 23.7811 43.1798 23.3727 43.053C20.9383 42.3021 19.4158 40.7828 18.5114 38.2906C17.4848 35.458 15.5818 33.0386 13.8457 30.5697ZM56.7629 63.3C55.616 64.5004 55.7493 65.9909 55.63 67.3871C55.4156 69.912 55.409 72.4545 55.3251 74.9896C55.1125 81.4215 52.8301 84.6113 46.793 86.9011C37.6548 90.3661 28.0654 86.9804 24.0543 78.8771C23.2543 77.2616 22.8105 75.58 22.762 73.7547C22.6847 70.8437 22.846 67.9356 22.6343 65.0171C22.5066 63.2618 21.6479 62.2405 20.4479 61.2369C14.3921 56.1733 8.77274 50.6647 3.64563 44.6591C2.46058 43.2703 2.48202 43.26 4.16402 42.7135C11.6976 40.2642 18.5216 42.1305 24.9326 46.2176C29.8015 49.3217 33.7985 53.2194 35.9187 58.7746C36.6861 60.7845 37.6548 62.719 38.5592 64.6748C39.2128 66.0888 39.831 66.2007 40.8845 65.1086C45.7935 60.0207 51.701 56.4083 58.1157 53.6018C60.8336 52.4126 63.7128 51.7103 67.1793 52.1916C63.213 55.7881 60.1819 59.7222 56.7629 63.3Z" fill="#EAEAEA"/>
<path d="M27.8221 75.0547C27.478 73.1156 27.6217 71.0814 27.6328 69.091C27.6524 65.8555 26.4301 63.1208 24.3891 60.7032C24.1346 60.402 23.922 59.806 23.1621 60.1455C23.55 60.7956 23.8689 61.4083 24.2614 61.9708C25.8315 64.2195 26.4459 66.7247 26.3881 69.4398C26.3517 71.1625 26.3266 72.889 26.4114 74.6089C26.5457 77.3538 27.3941 79.9001 28.9801 82.1441C30.6584 84.5179 32.8075 85.1726 35.709 84.0459C30.3479 83.1272 28.595 79.4113 27.8221 75.0547Z" fill="#EAEAEA"/>
<path d="M13.8299 43.8785C19.8111 45.9827 24.4431 50.0642 29.3148 54.3416C27.5488 49.0168 19.4866 43.7573 13.8299 43.8785Z" fill="#EAEAEA"/>
<path d="M30.6609 75.8068C30.5555 75.6165 30.3774 75.457 30.135 75.5457C29.7947 75.6697 29.9038 75.9598 29.9271 76.2163C30.1947 79.1366 32.8855 81.1335 36.3857 80.4638C33.5419 79.5759 31.8534 77.9604 30.6609 75.8068Z" fill="#EAEAEA"/>
<path d="M24.0563 51.4568C22.6232 50.0512 20.8247 49.1847 19.0364 48.3267C18.7725 48.1998 18.422 47.8902 18.1758 48.2446C17.8262 48.7482 18.3959 48.862 18.6579 49.0439C20.9422 50.636 23.3169 52.105 25.3747 54.1989C25.5322 52.8782 24.7584 52.1442 24.0563 51.4568Z" fill="#EAEAEA"/>
<path d="M37.9337 79.4627C36.3169 77.9042 35.0246 76.6404 33.3967 75.7627C34.2247 77.6038 35.6046 78.7753 37.9337 79.4627Z" fill="#EAEAEA"/>
<path d="M21.2434 53.6185C20.1171 52.587 19.3666 51.8007 18.1433 51.8268C18.8845 52.656 19.7302 53.2893 21.2434 53.6185Z" fill="#EAEAEA"/>
<path d="M34.5593 42.8869C34.9248 42.9195 35.3695 42.9027 35.4385 42.414C35.5001 41.9747 35.1495 41.7676 34.7924 41.6109C32.7179 40.7006 30.3608 42.0652 30.027 44.6469C31.4442 43.4139 32.8484 42.7321 34.5593 42.8869Z" fill="#EAEAEA"/>
<path d="M39.5998 31.8895C39.3192 32.2738 38.9649 32.7578 39.3136 33.2009C39.7462 33.7493 40.0315 33.1095 40.3485 32.9117C40.8054 32.6263 41.2958 32.6636 41.7489 32.8156C42.5881 33.0973 43.4328 33.0889 44.5507 32.6338C44.1237 32.3167 43.7088 31.9827 43.2687 31.6871C42.0054 30.8365 40.3038 30.9251 39.5998 31.8895Z" fill="#EAEAEA"/>
<path d="M43.5524 23.4542C43.7902 23.7302 44.0429 23.5306 44.2657 23.3991C45.1114 22.8992 45.9207 23.124 46.7262 23.5027C47.4488 23.8431 48.1798 24.15 49.183 24.053C48.7392 23.2415 48.2078 22.6893 47.4749 22.3172C46.1696 21.655 44.9025 21.5216 43.7557 22.6296C43.5403 22.8367 43.256 23.11 43.5524 23.4542Z" fill="#EAEAEA"/>
<path d="M41.048 51.2094C40.124 51.2355 39.6 51.8445 39.1739 52.5599C39.0089 52.8379 38.8989 53.1876 39.1571 53.4553C39.2718 53.5738 39.655 53.6456 39.7147 53.5728C40.8037 52.2456 42.2722 53.2343 43.6941 52.8826C43.0675 51.7261 42.2349 51.1767 41.048 51.2094Z" fill="#EAEAEA"/>
<path d="M42.7063 43.5259C42.0956 42.0224 41.2556 41.0739 39.7451 41.4115C38.6291 41.6605 38.2188 42.554 38.4929 43.7684C39.5745 42.9766 39.5745 42.9766 42.7063 43.5259Z" fill="#EAEAEA"/>
<path d="M36.6377 32.7457C35.8554 31.5789 34.8848 31.1797 33.7986 31.6554C32.7115 32.1311 32.3171 33.0834 32.6201 34.5748C33.6784 33.0871 34.9343 32.4389 36.6377 32.7457Z" fill="#EAEAEA"/>
<path d="M40.3321 23.9903C40.5829 24.0192 40.9251 24.0407 40.9373 23.6685C40.9428 23.4923 40.7909 23.2759 40.651 23.1369C39.6123 22.1053 37.8828 22.5055 36.9364 24.2226C38.1951 23.9129 39.259 23.8644 40.3321 23.9903Z" fill="#EAEAEA"/>
</svg>
