<svg width="80" height="67" viewBox="0 0 80 67" fill="none" xmlns="http://www.w3.org/2000/svg">
<path d="M-11.442 58.7512C-10.726 60.9614 -9.34494 62.5771 -6.92425 63.031C-6.18846 63.1685 -3.55859 64.3418 -2.95705 64.7842C-0.00975609 66.9528 3.30595 67.211 6.73926 66.4843C9.51276 65.8971 11.5182 64.4053 11.8825 61.2466C12.9814 61.7349 14.069 61.9535 15.1815 61.8359C18.9094 61.4424 21.8983 59.8079 23.6956 56.4171C24.1545 55.5509 24.4772 55.4832 25.3056 55.9163C26.6273 56.6065 28.0822 56.7388 29.5642 56.4608C32.5437 55.9017 34.1932 53.8987 35.2756 51.2554C35.4005 50.9504 35.208 50.3517 36.0145 50.5943C38.8026 51.4345 40.7404 50.4798 41.752 47.7365C42.0413 46.9526 42.3389 47.0598 42.9425 47.2576C46.5829 48.4466 49.9986 50.1425 53.4267 51.8165C57.3533 53.7332 61.0946 56.034 65.194 57.5862C66.3315 58.0172 67.2026 58.6096 67.8457 59.6455C68.4639 60.6418 69.3766 61.3809 70.3695 61.9962C72.3822 63.2434 74.5105 63.157 76.3536 61.6787C78.5796 59.8932 79.7005 57.7299 79.1042 54.7076C78.6109 52.2101 77.4349 50.764 74.9548 50.4652C74.6645 50.4298 74.3824 50.3143 74.1014 50.2206C64.8787 47.141 56.8829 41.817 48.9069 36.4544C48.6321 36.269 48.3906 36.1639 48.5676 35.6652C49.5667 32.8522 48.5208 30.9908 45.5339 30.2579C45.0375 30.136 44.9636 30.0642 45.0448 29.5489C45.6151 25.9426 43.0799 22.7537 39.4665 22.5351C39.965 21.0891 40.1607 19.6149 39.7611 18.1334C39.554 17.3672 39.7278 16.8654 40.3324 16.3501C41.65 15.2267 42.7833 13.9327 43.314 12.2357C43.9218 10.2879 43.7085 8.49512 42.1474 7.03032C40.7029 5.67587 39.094 5.74667 37.4496 6.64616C37.3092 6.2568 37.2269 5.96946 37.1041 5.70086C36.1914 3.71448 34.9166 2.18513 32.4844 2.28508C31.8923 2.30902 31.7986 1.86552 31.5342 1.57194C30.1522 0.0363432 27.9532 -0.22705 26.4774 1.11178C25.8696 1.66355 25.6011 1.55424 25.034 1.10761C22.2199 -1.10468 18.3702 0.136287 17.3233 3.59267C17.1557 4.14653 16.9403 4.19962 16.447 4.20066C13.4175 4.20795 11.282 5.81538 9.64076 8.18279C8.99344 9.11664 8.5116 10.3128 8.92372 11.3508C9.45448 12.6875 8.77386 13.0467 7.85179 13.4933C7.47193 13.6776 7.14304 13.9733 6.80377 14.2356C5.05017 15.5922 4.07088 17.3068 4.43825 19.5909C4.78689 21.7564 5.95559 23.2326 8.33362 23.7563C7.8372 24.1155 7.48856 24.3508 7.15866 24.609C4.79208 26.4642 2.88239 28.7004 2.59931 31.781C2.47755 33.1021 2.09665 33.7767 1.04762 34.5481C0.125544 35.2259 -0.445822 35.2831 -1.44178 34.8636C-4.56288 33.5477 -7.57366 34.3004 -9.3002 36.6792C-11.0424 39.08 -10.8634 41.9294 -8.81419 44.402C-11.7938 46.7111 -12.0976 49.5865 -9.66341 52.6432C-9.81743 52.7879 -9.9725 52.9336 -10.1276 53.0794C-11.8187 54.6785 -12.1257 56.6409 -11.442 58.7512ZM75.419 51.7832C76.3931 52.0424 77.2694 52.7369 77.4838 53.8633C77.6107 54.5296 77.5837 55.2261 77.6253 55.9101C77.9802 58.265 76.6294 59.6861 74.907 60.902C74.4813 61.2029 73.9911 61.3736 73.475 61.4288C71.5975 61.6318 71.1042 61.0603 71.509 59.2249C71.9805 57.0917 72.5258 54.9825 73.7351 53.1283C74.1441 52.5026 74.5729 51.5583 75.419 51.7832ZM6.03054 21.4732C4.95548 19.7034 5.11991 17.3703 6.50094 16.0003C7.69776 14.8124 9.03924 13.8202 10.7908 13.6016C11.1581 13.5558 11.4808 13.4788 11.5307 13.0467C11.5703 12.698 11.3715 12.4408 11.0634 12.3627C9.81145 12.0452 9.95196 11.0655 10.1008 10.1994C10.566 7.48943 14.3229 4.90964 17.009 5.451C18.0112 5.65297 18.5618 5.6613 18.4129 4.33288C18.2589 2.95033 19.6649 1.57402 21.3384 1.20964C22.7829 0.894193 24.4907 1.66667 25.0402 2.90244C25.2077 3.27931 25.188 3.82692 25.7479 3.84774C26.391 3.87168 26.3702 3.28451 26.5492 2.86183C26.9114 2.00815 27.5597 1.4824 28.512 1.43555C29.5933 1.38246 30.4717 1.80306 30.9369 2.79312C31.3042 3.57497 31.631 3.85398 32.5927 3.53645C33.906 3.10441 34.7053 4.16839 35.4525 5.05539C35.9604 5.65817 36.105 6.44211 36.3579 7.16982C36.6389 7.97666 37.178 8.31397 37.9356 7.80488C39.0024 7.08758 40.0473 6.83147 41.115 7.72159C42.2671 8.68147 42.5085 9.91307 42.1162 11.3258C41.5989 13.1904 40.3054 14.6125 39.3448 16.3626C37.6984 14.067 36.232 13.4434 34.3005 14.1482C33.8134 14.3262 33.2056 14.5157 33.036 14.9727C32.5843 16.1856 31.7445 16.07 30.6986 16.0554C29.0657 16.0315 28.0447 17.1507 27.7502 18.9642C27.4713 18.705 27.2194 18.4853 26.9832 18.25C24.6936 15.9638 21.9566 15.4037 18.9218 16.2782C15.8934 17.1507 14.0107 19.1547 13.4675 22.2988C13.379 22.8079 13.2593 22.9547 12.7556 22.8391C11.9865 22.6632 11.2154 22.7881 10.464 22.9755C8.47726 23.4731 6.93284 22.9599 6.03054 21.4732ZM1.70222 35.7662C2.24235 35.2946 2.83658 34.8865 3.65978 34.9531C4.62764 35.0312 4.84307 34.4263 4.37267 33.7309C3.76697 32.8335 3.80964 31.9277 4.12602 31.0272C5.28641 27.7249 7.4126 25.3471 10.8345 24.2852C11.8231 23.9781 12.7806 23.951 13.608 24.7193C13.8817 24.9733 14.1897 25.1035 14.5384 24.8984C14.8807 24.6974 14.9578 24.3476 14.8839 23.9978C14.3396 21.417 15.4573 19.5149 17.5065 18.1907C19.8835 16.6551 22.454 16.3344 25.0787 17.6951C26.5544 18.4614 27.6191 19.6919 28.7826 21.0974C28.9377 20.5009 28.7836 20.1375 28.69 19.7679C28.4329 18.7518 28.615 17.8898 29.5673 17.3089C30.5185 16.728 31.4427 16.7842 32.3137 17.4765C32.6478 17.742 32.9319 18.0751 33.2753 18.326C33.5314 18.5124 33.8446 18.5311 34.0871 18.2542C34.2984 18.0137 34.2234 17.7482 34.0423 17.5556C33.4804 16.9591 33.1494 16.3043 33.8675 15.663C34.6241 14.9873 35.5358 14.8238 36.4963 15.284C37.2436 15.6421 37.7098 16.2689 37.9273 17.0247C38.5757 19.2828 39.1033 21.5648 38.7026 24.052C39.3614 23.4877 39.9754 23.5575 40.6092 24.0218C42.2484 25.2211 43.3828 26.6911 43.339 28.8409C43.3297 29.2699 43.3359 29.7009 43.3755 30.1277C43.4306 30.7243 43.5337 31.0793 44.3808 31.124C46.3363 31.2261 47.5935 33.126 47.3052 35.4112C44.5421 33.6133 41.8342 31.8517 39.1262 30.0892C39.0846 30.1423 39.043 30.1954 39.0024 30.2485C41.2025 32.0089 43.3317 33.8683 45.6161 35.5122C51.8802 40.018 58.1546 44.5186 65.1545 47.8688C67.6397 49.0587 70.1696 50.0842 72.9254 50.46C73.8048 50.5797 74.3252 50.6818 73.4531 51.7853C71.4633 54.3016 71.0636 57.403 70.7243 60.8677C65.9319 56.3671 60.1518 53.7852 54.5319 50.942C48.8736 48.0801 43.0841 45.5836 36.5973 45.3556C37.6984 45.6638 38.7942 45.9896 39.9016 46.2738C40.5125 46.431 40.6072 46.6621 40.3335 47.2629C39.5196 49.0462 38.0783 49.8624 36.7284 49.2097C36.2945 49.0004 35.9281 48.7558 35.7543 48.254C35.6055 47.8261 35.2891 47.5054 34.7709 47.6314C34.1995 47.7709 34.0954 48.2269 34.1121 48.7329C34.1735 50.5162 33.4179 51.9769 32.269 53.2532C30.6288 55.0751 27.9823 55.5613 25.803 54.4692C25.5054 54.3203 25.2202 54.1027 24.9954 53.8571C24.0099 52.7816 23.5926 52.8274 23.0888 54.2069C21.8046 57.7267 19.2799 59.6267 15.6311 60.3055C12.739 60.8427 8.79257 58.2816 9.78229 54.7774C10.005 53.9882 9.4451 53.6915 8.69787 53.8581C8.36589 53.932 8.05473 54.0944 7.72691 54.1954C4.8306 55.0907 2.51707 53.1762 2.88757 50.1477C3.00621 49.1764 3.2508 48.2248 3.82319 47.3732C4.46739 46.4123 4.26861 45.9969 3.18106 45.7908C0.229602 45.2317 -1.03591 43.4764 -0.655008 40.4885C-0.421888 38.6365 0.279567 37.0082 1.70222 35.7662ZM-8.82875 53.5291C-8.13252 52.995 -8.10859 52.4943 -8.74654 51.8342C-11.0455 49.4595 -10.5813 46.7236 -7.62778 45.1286C-6.8358 44.7008 -6.66303 44.3353 -7.51849 43.7815C-9.65091 42.3979 -10.1827 40.1023 -8.94636 37.7505C-7.5185 35.0354 -3.24012 33.9599 -0.674763 35.6423C-0.110697 36.0119 -0.625857 36.2284 -0.747621 36.4294C-1.71028 38.016 -2.20879 39.7306 -2.112 41.5765C-1.98087 44.0615 -1.13582 46.1229 1.51592 46.8901C2.18301 47.0827 2.11851 47.3607 1.91765 47.8979C1.22974 49.7354 1.13191 51.5656 2.10602 53.3688C3.19356 55.3833 4.84622 56.2682 7.11289 55.8403C7.89446 55.6925 8.17441 55.8174 8.24726 56.6242C8.38568 58.165 9.20056 59.3706 10.3963 60.293C10.9271 60.7032 10.9968 60.9739 10.6908 61.6225C9.25674 64.652 6.61543 65.2964 3.62234 65.3922C1.38376 65.2839 -0.812145 64.9758 -2.52412 63.2809C-2.85819 62.9498 -3.41289 62.6448 -2.89045 62.0108C-2.61883 61.6808 -2.61466 61.2799 -3.00388 60.9957C-3.37542 60.724 -3.74487 60.8979 -4.08935 61.0811C-6.10209 62.1513 -7.57365 62.0149 -8.96092 60.622C-10.5272 59.0489 -11.0007 56.6742 -10.1057 54.9502C-9.80182 54.362 -9.34286 53.9226 -8.82875 53.5291Z" fill="#EAEAEA"/>
<path d="M49.7956 43.312C51.5524 44.098 53.3101 44.8539 54.9836 45.8148C58.4762 47.8209 62.0198 49.7407 65.7747 51.2201C67.5377 51.9145 69.334 52.5474 71.2832 52.6359C59.825 47.3139 48.8049 41.2455 38.5872 33.7664C38.5133 33.8809 38.4394 33.9944 38.3655 34.1089C41.1255 36.3305 43.8844 38.5522 46.6444 40.7739C46.6204 40.8061 46.5965 40.8384 46.5736 40.8707C42.5211 38.7084 38.4696 36.546 34.417 34.3837C34.3525 34.4639 34.288 34.543 34.2234 34.6232C34.8167 35.0354 35.389 35.481 36.0072 35.8527C40.4906 38.548 45.0167 41.1736 49.7956 43.312Z" fill="#EAEAEA"/>
<path d="M18.9791 49.1326C17.9727 49.1326 17.1703 49.1524 16.37 49.1285C15.2325 49.0941 14.4197 48.6329 14.0878 47.4461C13.7277 46.1624 14.0295 44.6341 14.8402 43.9887C15.0525 43.82 15.2658 43.692 15.5395 43.7628C16.0422 43.8929 16.5188 43.8617 16.7457 43.3359C16.9653 42.8268 16.5979 42.4645 16.3076 42.0804C15.3814 40.8561 15.4573 39.8795 16.5178 38.7666C17.1516 38.1014 17.8791 37.5871 18.7866 37.3757C19.1914 37.282 19.6972 37.358 19.8523 36.8333C20.0157 36.2816 19.6181 35.9921 19.2549 35.6652C18.005 34.5377 18.0331 33.5498 19.3631 32.4983C20.586 31.5322 21.9587 31.2646 23.5843 31.9777C23.27 31.1251 22.7194 30.8867 22.145 30.7232C20.2842 30.1933 17.6085 31.6987 17.0943 33.5623C16.932 34.1515 16.855 34.8001 17.2036 35.3144C17.6647 35.9942 17.444 36.2264 16.8103 36.6314C15.1992 37.661 13.8265 38.9957 14.2449 41.1226C14.4249 42.0377 14.1596 42.4541 13.5809 43.0298C11.869 44.731 11.8679 48.2227 13.4831 49.8531C14.8069 51.1877 17.3327 51.2971 18.9791 49.1326Z" fill="#EAEAEA"/>
<path d="M41.6187 42.7613C40.9058 42.9112 40.2773 42.8144 39.6476 42.7217C38.9743 42.6228 38.2999 42.5291 37.3914 42.4C38.1657 42.8966 38.8067 43.0559 39.4489 43.2162C44.7086 44.529 49.7259 46.4821 54.5631 48.9151C58.9664 51.1295 63.2167 53.6197 67.4878 56.0725C68.0289 56.3838 68.5326 56.8898 69.3309 56.8023C63.4331 51.1461 37.7598 39.4829 32.8965 39.0967C36.0353 40.4147 38.8265 41.588 41.6187 42.7613Z" fill="#EAEAEA"/>
<path d="M26.9301 46.0647C27.9802 46.5061 28.8159 46.1438 29.6381 45.388C29.073 45.0538 28.5661 44.7373 28.0447 44.45C26.7001 43.7087 26.3047 42.879 26.6106 41.3954C27.0071 39.4757 28.0239 38.3607 29.5111 38.2764C30.0772 38.2441 30.7256 38.3253 30.863 37.6174C30.9972 36.923 30.377 36.7377 29.8712 36.4774C28.1769 35.605 27.948 34.0912 29.303 32.7201C30.5196 31.4885 31.987 30.9524 33.9196 31.3719C33.2608 30.4953 32.5219 30.41 31.7445 30.4714C30.6476 30.5588 29.6745 30.9919 28.7992 31.6426C27.0894 32.9148 26.6939 34.4119 27.6545 36.3254C27.9084 36.8303 27.7481 36.9469 27.3849 37.1968C25.2504 38.6616 24.6 40.8062 24.7956 43.2507C24.9008 44.5843 25.673 45.5358 26.9301 46.0647Z" fill="#EAEAEA"/>
<path d="M20.9585 24.8057C21.3904 24.763 21.3519 24.3736 21.1802 23.9978C20.7431 23.04 21.0293 22.5653 22.0606 22.4424C22.3947 22.4029 22.7777 22.6163 23.1399 22.3071C21.6621 21.4669 20.024 21.9552 20.0042 23.2899C19.9917 24.0988 19.6067 24.2039 19.1113 24.4652C17.4357 25.3491 16.6843 27.2928 17.4576 29.0408C17.98 26.9055 18.5129 25.0441 20.9585 24.8057Z" fill="#EAEAEA"/>
<path d="M17.7521 13.4611C18.3224 10.6918 20.868 9.66637 22.9848 11.3737C23.2762 11.609 23.5561 11.7954 23.8881 11.5205C24.2222 11.2447 24.0505 10.9188 23.935 10.5846C23.4854 9.28326 24.089 8.41083 25.445 8.35357C26.2537 8.31922 26.9655 8.58053 27.6035 9.04381C28.3299 9.57164 28.9012 9.71843 29.2166 8.62217C29.4507 7.80701 30.0023 7.96629 30.5102 8.33483C31.1284 8.78354 31.3833 9.47586 31.6227 10.1703C31.8704 10.8886 31.8839 11.6861 32.3304 12.3649C33.1328 10.5461 32.6832 8.52327 31.2158 7.41764C30.3957 6.79924 29.4195 6.51711 28.6619 7.34268C28.103 7.95172 27.7377 7.75703 27.1653 7.53008C25.418 6.83776 23.6623 7.15529 23.0836 8.49932C22.6341 9.54353 22.0575 9.48939 21.1781 9.46128C18.3713 9.37279 16.4002 12.1504 17.5398 14.5334C17.8562 14.2169 17.6803 13.8109 17.7521 13.4611Z" fill="#EAEAEA"/>
<path d="M-5.31841 51.8269C-4.83344 52.2048 -4.86259 52.4755 -4.98123 52.9929C-5.57964 55.5904 -3.99151 58.2212 -1.43968 58.8417C-0.928694 58.9666 -0.78714 59.103 -0.719493 59.6266C-0.515514 61.208 0.69065 61.917 2.02276 62.3772C3.30804 62.8207 4.45284 62.5 5.46961 61.2642C3.93664 61.2538 2.53271 61.5537 1.34526 60.5803C0.865489 60.1867 0.318076 59.7287 0.605312 59.0853C1.23911 57.6632 0.721878 57.4477 -0.60503 57.6069C-1.8133 57.7527 -2.98722 56.8813 -3.44409 55.5935C-3.79481 54.6045 -4.27146 53.5363 -3.23595 52.6295C-2.9508 52.3807 -2.51994 52.2454 -2.63858 51.7529C-2.77179 51.2012 -3.23699 51.2668 -3.66681 51.2074C-4.96145 51.0294 -5.51302 50.2423 -5.31633 48.9524C-5.10819 47.598 -4.20798 46.7912 -2.96224 46.127C-4.64508 46.1603 -5.63895 46.8859 -6.17596 48.3663C-6.69736 49.7968 -6.47464 50.9242 -5.31841 51.8269Z" fill="#EAEAEA"/>
</svg>
