<svg width="37" height="24" viewBox="0 0 37 24" fill="none" xmlns="http://www.w3.org/2000/svg">
<path d="M9.94611 11.9483C10.3405 15.1673 9.67554 18.074 7.42656 20.6871C6.88747 21.3139 7.01547 21.6803 7.99062 21.926C9.82435 22.3872 11.6633 22.8422 13.521 23.2388C16.9647 23.9728 20.423 24.3028 23.9041 23.3367C26.2842 22.6756 27.9078 21.1337 29.9236 20.051C30.47 19.7574 30.2005 19.3525 29.9444 18.9485C28.4188 16.5447 27.2344 14.0336 26.2697 11.3236C28.0389 11.6891 29.676 11.7713 31.3411 11.5787C35.5164 11.0977 37.091 8.98122 35.5601 5.85486C35.5195 5.77261 35.4706 5.69245 35.4279 5.6102C32.1549 -0.566525 23.4837 -4.57884 15.2402 -3.493C8.98658 -2.66846 4.13373 -0.0157926 1.06363 4.52436C0.200878 5.79968 -0.221655 7.19577 0.116576 8.6564C0.921047 12.1336 5.76973 13.8045 9.94611 11.9483ZM1.45285 6.65336C2.44465 3.79768 4.70091 1.74988 7.5764 0.0935242C14.0559 -3.63979 21.6083 -3.61168 28.4365 -0.0178738C31.6699 1.68325 34.048 3.79352 34.8108 6.93342C35.2344 8.67618 34.6589 9.71622 32.5858 10.2805C30.2296 10.9218 27.8547 11.0144 25.6172 9.95254C24.3787 9.36433 23.8605 8.29307 24.2039 7.28218C24.5858 6.15989 25.8721 5.3416 27.2823 5.30829C28.1502 5.28747 28.9547 5.44779 29.3804 6.08598C29.8185 6.74186 29.0078 7.07917 28.6207 7.51226C28.4937 7.65384 28.3386 7.77981 28.0816 8.01926C28.9402 8.00885 29.5115 7.81625 30.011 7.49455C30.8936 6.92508 31.0153 6.06411 30.2775 5.377C29.2888 4.45669 28.0108 4.18705 26.56 4.44836C24.6254 4.79712 23.467 5.80801 23.0435 7.32486C22.648 8.74073 23.4452 9.84323 24.8293 10.6261C25.4725 10.9895 25.612 11.3663 25.6661 11.9348C25.8878 14.2793 27.0294 16.4197 28.1409 18.5519C28.4437 19.1328 28.2887 19.4128 27.7995 19.8334C24.539 22.6391 20.5374 23.2659 16.0187 22.5486C13.6281 22.1696 11.3303 21.5523 8.97931 21.0161C10.3843 18.7747 11.3427 16.5218 11.0701 14.0357C11.0409 13.7702 11.0087 13.5016 10.9254 13.2444C10.5966 12.2273 10.2281 11.2508 10.3541 10.1431C10.4894 8.94478 9.43616 7.92869 8.1821 7.61428C6.76257 7.25927 5.50228 7.84123 5.16509 9.11031C5.46481 8.96664 5.68127 8.849 5.9123 8.75427C6.75424 8.40759 7.61908 8.27537 8.39857 8.81881C9.17599 9.36017 9.35707 10.116 9.07608 10.8593C8.80445 11.5777 7.93545 11.7068 7.10496 11.8025C4.04422 12.1555 0.450642 9.53715 1.45285 6.65336Z" fill="#EAEAEA"/>
<path d="M15.7481 20.1717C18.2854 17.1099 17.5027 11.4422 14.3629 9.79004C16.5942 13.0923 16.0967 16.5404 15.7481 20.1717Z" fill="#EAEAEA"/>
<path d="M18.9337 12.5408C18.788 12.5564 18.6434 12.572 18.4977 12.5887C19.0409 14.9894 18.0252 17.6452 20.4948 19.7326C19.9734 17.3349 19.453 14.9373 18.9337 12.5408Z" fill="#EAEAEA"/>
<path d="M23.5992 17.7211C22.928 15.9335 22.2557 14.145 21.5844 12.3574C21.4845 12.3751 21.3856 12.3918 21.2857 12.4095C21.3784 14.3532 21.3908 16.3177 23.5992 17.7211Z" fill="#EAEAEA"/>
<path d="M9.64639 3.0522C10.1303 3.08136 10.3874 2.85649 10.4446 2.4817C10.403 2.07151 10.1855 1.78313 9.63807 1.79042C9.15726 1.79771 8.90228 2.0434 8.89603 2.42132C8.88979 2.81276 9.18848 3.02514 9.64639 3.0522Z" fill="#EAEAEA"/>
<path d="M12.7852 1.64783C13.1713 1.64367 13.4221 1.48334 13.4575 1.17831C13.4939 0.861819 13.2639 0.692121 12.8684 0.660889C12.4407 0.698368 12.2055 0.878475 12.2138 1.23765C12.2221 1.5354 12.4428 1.65095 12.7852 1.64783Z" fill="#EAEAEA"/>
<path d="M28.5842 3.79881C28.911 3.79048 29.1264 3.64993 29.1441 3.3678C29.0952 3.06901 28.9079 2.86288 28.5207 2.85871C28.1346 2.85455 27.9005 3.03362 27.9203 3.34906C27.939 3.66867 28.2158 3.80818 28.5842 3.79881Z" fill="#EAEAEA"/>
</svg>
