<svg width="44" height="36" viewBox="0 0 44 36" fill="none" xmlns="http://www.w3.org/2000/svg">
<path d="M10.6959 9.7551C10.6202 9.62683 10.5506 9.3813 10.3869 9.25669C9.43807 8.53594 9.48203 7.56354 9.87647 6.66078C10.2233 5.86551 11.1245 5.75923 11.9048 5.68716C13.2005 5.56866 14.4461 5.73723 15.5207 6.58625C15.688 6.71819 15.9653 6.71207 16.1924 6.76949C16.2193 6.55326 16.2693 6.33705 16.2693 6.12082C16.2669 4.72697 16.1362 3.31967 16.295 1.94414C16.3707 1.28569 16.8494 0.442789 17.3989 0.128836C18.0547 -0.244976 18.7886 0.264438 19.4468 0.766519C20.7803 1.7829 20.4128 3.26958 20.7095 4.57426C20.7376 4.69886 20.7278 4.83079 20.7474 5.15574C21.3457 4.62801 21.8855 4.21633 22.3483 3.73258C23.5353 2.4902 25.0972 2.05531 26.686 1.82076C28.0879 1.6143 29.0624 2.84081 28.657 4.22611C28.3797 5.17164 28.6948 5.34022 29.5447 5.29746C30.6487 5.24249 31.7722 5.16551 32.8602 5.30844C35.0412 5.59308 37.0721 6.21611 38.9441 7.5501C40.865 8.9183 41.9604 10.7263 42.7139 12.8213C43.3282 14.5292 43.6041 16.3188 43.6359 18.1402C43.6762 20.4356 42.7408 22.4549 41.8274 24.473C41.4915 25.2158 41.1105 25.9561 40.633 26.6121C39.9968 27.488 39.3117 28.3504 38.5326 29.0993C36.354 31.1943 33.8274 32.8105 30.9918 33.8147C29.0086 34.5171 26.9302 35.0094 24.8554 35.3686C23.0676 35.6776 21.2066 35.553 19.409 35.8242C17.2402 36.1528 15.1654 35.7204 13.0601 35.4125C9.69573 34.919 6.909 33.304 4.42146 31.0648C1.93636 28.8293 0.154669 26.1405 0.00568528 22.7701C-0.0663642 21.1576 0.56132 19.4816 1.04246 17.8849C2.00109 14.7002 4.37504 12.7199 7.16665 11.2039C8.2596 10.6139 9.47713 10.2486 10.6959 9.7551ZM23.9835 10.3427C25.0691 11.5802 25.9374 12.8397 25.7762 14.5621C25.6773 15.6164 25.002 16.3481 23.9347 16.3603C22.3801 16.3775 21.259 15.4527 20.1698 14.5291C19.6703 14.1052 19.4236 14.1639 19.1904 14.7234C18.995 15.1913 18.8167 15.6677 18.5871 16.1172C17.2829 18.6716 14.9993 19.2018 12.8769 17.3327C12.5899 17.0799 12.3872 16.5729 12.3835 16.182C12.3713 14.4815 13.3483 13.1805 14.3484 11.5985C13.0845 11.5191 11.7607 11.0842 10.6934 11.4324C6.96271 12.6503 3.81574 14.7038 2.38819 18.6484C1.76905 20.3599 1.11574 22.0897 1.59078 23.9416C2.28563 26.6487 3.79376 28.8452 6.04561 30.5078C7.63436 31.6818 9.15108 33.0121 11.1904 33.3578C13.4716 33.7438 15.7577 34.318 18.0498 34.3668C20.3517 34.4145 22.6695 33.9515 24.9727 33.6473C28.6276 33.166 31.959 31.8479 35.0156 29.7675C37.8976 27.8056 40.1397 25.3697 41.207 21.9883C41.4817 21.1197 41.8176 20.228 41.853 19.335C41.9128 17.8251 41.9421 16.2675 41.6393 14.8016C41.3389 13.3442 40.8431 11.8196 40.0236 10.6005C38.6657 8.58235 36.4603 7.53422 34.1437 7.092C32.3253 6.74628 30.4093 6.88433 28.5361 6.86845C28.1172 6.86478 27.6006 7.00161 27.2941 7.26425C26.1731 8.22932 25.1216 9.27256 23.9835 10.3427ZM20.6302 8.19388C19.547 7.74555 19.4053 7.47925 19.3418 6.41279C19.2526 4.91632 19.1379 3.4174 18.9217 1.93681C18.8777 1.63507 18.36 1.35533 18.0034 1.17942C17.9216 1.13911 17.5198 1.53124 17.4148 1.78655C16.6918 3.54933 16.8726 5.27548 17.7714 6.92465C18.156 7.63074 17.7091 8.19633 17.3721 8.6129C17.1962 8.83034 16.4513 8.61046 15.9689 8.54327C15.8358 8.52495 15.7369 8.32705 15.6013 8.2452C14.5279 7.59652 13.5363 6.74384 12.121 7.02847C11.2832 7.19705 10.862 7.85551 11.3614 8.43578C12.3823 9.61951 13.656 10.416 15.213 10.7434C15.5317 10.8106 15.9555 11.0121 16.0666 11.2675C16.1851 11.5387 16.0898 12.0102 15.9152 12.2838C15.3205 13.2196 14.5475 14.0539 14.0505 15.0325C13.7964 15.5321 13.728 16.4813 14.0321 16.8294C14.6024 17.483 15.7088 17.0982 16.4134 16.4935C17.5748 15.4954 17.8117 14.0845 18.338 12.792C18.4772 12.45 18.7275 12.1531 18.9266 11.8343C19.238 12.0615 19.6056 12.2399 19.8522 12.5233C20.8182 13.6337 21.7829 14.6989 23.3815 14.8871C24.1117 14.9726 24.5892 14.5304 24.4671 13.7815C24.2253 12.307 23.3253 11.4544 21.9881 10.8936C21.5595 10.7141 21.2651 10.2095 20.9098 9.85406C21.2773 9.60607 21.6144 9.23225 22.0199 9.13208C24.5306 8.50906 25.9667 6.65588 27.2367 4.62923C27.4431 4.30062 27.5469 3.54811 27.3772 3.42106C27.0548 3.1804 26.4344 3.07779 26.0546 3.22316C24.2106 3.92802 22.501 4.85156 21.5289 6.71696C21.2652 7.23003 20.9306 7.70646 20.6302 8.19388Z" fill="#EAEAEA"/>
<path d="M37.7586 16.9418C37.4313 16.1844 37.0064 15.4527 36.7976 14.6635C36.3897 13.1304 35.6619 11.8013 34.6813 10.5711C34.481 10.3195 34.5469 9.85403 34.4908 9.48755C34.8339 9.56085 35.2174 9.56084 35.5153 9.72087C37.3325 10.6969 37.5718 12.5684 37.9797 14.3031C38.1726 15.1241 38.1445 15.9975 38.2154 16.8477C38.0639 16.8795 37.9113 16.91 37.7586 16.9418Z" fill="#EAEAEA"/>
<path d="M33.5595 27.7309C33.7146 27.7309 33.8697 27.7309 34.0224 27.7309C33.5998 26.9247 35.4694 23.7277 36.726 23.1707C37.344 23.8352 37.4758 24.5254 36.8457 25.2669C36.1838 26.0451 35.5501 26.8526 34.8271 27.5697C34.5426 27.8519 34.0517 27.9239 33.6536 28.0913C33.6218 27.9716 33.5913 27.8519 33.5595 27.7309Z" fill="#EAEAEA"/>
<path d="M12.1129 31.4215C10.7256 32.4916 8.23807 31.7342 7.77158 30.0692C7.70319 29.8248 7.89126 29.3228 8.09275 29.2336C8.35897 29.1139 8.99642 29.1884 9.05626 29.3423C9.58015 30.6861 10.7818 30.895 11.937 31.2114C12.009 31.2309 12.0542 31.3494 12.1129 31.4215Z" fill="#EAEAEA"/>
<path d="M38.6128 20.823C38.1597 20.4858 37.4393 20.2378 37.9631 19.4804C38.0767 19.3167 38.7789 19.3008 38.9291 19.4694C39.3601 19.9532 39.2429 20.4699 38.6128 20.823Z" fill="#EAEAEA"/>
<path d="M19.0828 11.4653C17.792 11.4751 17.2071 10.9376 17.2156 10.1252C17.2217 9.48874 18.388 8.18162 18.9228 8.21093C19.4821 8.24147 20.685 9.42643 20.4505 9.94562C20.1452 10.6175 19.4284 11.1025 19.0828 11.4653Z" fill="#EAEAEA"/>
</svg>
