<svg width="44" height="13" viewBox="0 0 44 13" fill="none" xmlns="http://www.w3.org/2000/svg">
<path d="M-10.7516 4.13185C-1.78274 5.97873 7.23503 8.57622 15.8344 3.06787C11.3563 3.40726 6.99359 4.51601 2.48522 4.65552C-1.93989 4.7919 -6.32753 3.80704 -10.7516 4.13185Z" fill="#EAEAEA"/>
<path d="M-41.4256 8.96761C-37.6405 11.6838 -33.3684 11.6088 -29.1108 10.9436C-21.831 9.80672 -14.6074 9.07484 -7.34326 11.0695C-5.0589 11.6963 -2.69961 12.1054 -0.29348 12.1408C10.1428 12.2907 19.3677 8.52827 27.9379 3.05636C33.9553 -0.786263 38.8633 -5.83966 41.7763 -12.5213C43.5913 -16.6846 43.7599 -21.1279 43.6579 -25.2277C43.8306 -35.728 42.2581 -45.536 37.1888 -54.4352C35.124 -58.0613 32.4962 -61.2616 28.1253 -62.8867C21.5896 -65.3176 15.3224 -64.9522 8.97719 -62.6274C-0.259136 -59.2429 -7.89692 -53.3316 -15.132 -46.9196C-26.7421 -36.6296 -35.5965 -24.223 -42.3393 -10.283C-43.9826 -6.88491 -45.3803 -3.38896 -46.4231 0.244408C-46.7332 1.32505 -47.1536 2.6087 -46.4418 3.46864C-44.8651 5.37485 -43.4914 7.48512 -41.4256 8.96761ZM37.219 -47.6328C38.8248 -43.6871 39.8 -39.5977 40.3443 -35.4334C40.8833 -31.3045 40.7793 -27.1287 40.8261 -22.9633C40.8979 -16.5253 38.8446 -10.9597 34.4341 -6.32897C24.8845 3.69559 13.2566 9.12273 -0.69519 9.27681C-3.16376 9.30388 -5.54908 8.71776 -7.90108 8.12538C-13.5574 6.6991 -19.2032 6.91148 -24.9063 7.73186C-28.2429 8.21179 -31.5305 9.14459 -34.9627 8.89994C-38.0151 8.68131 -40.6024 7.61317 -42.8347 5.06564C-39.4607 4.8668 -36.8714 3.27811 -34.4216 1.6811C-28.5925 -2.11781 -22.2327 -4.34363 -15.4494 -5.53359C-3.96615 -7.54808 5.8998 -12.9607 15.1642 -19.7995C21.8675 -24.7478 28.041 -30.1603 32.7533 -37.1002C34.9294 -40.3057 36.5259 -43.7475 37.219 -47.6328ZM-44.2854 0.383911C-41.5182 -8.90668 -36.6029 -17.1125 -31.4545 -25.2183C-25.6536 -34.3517 -18.4747 -42.3087 -10.0522 -48.9674C-2.52477 -54.9183 5.69894 -59.9227 15.3224 -61.958C16.5619 -62.2204 17.8513 -62.2485 19.1169 -62.3849C25.5245 -62.3151 30.4835 -59.9352 33.4558 -53.9542C35.4498 -49.9408 34.9294 -46.1097 33.0811 -42.2993C30.2462 -36.4537 26.0053 -31.6813 21.1525 -27.4952C14.4649 -21.7255 7.28187 -16.6419 -0.63483 -12.6358C-6.64703 -9.5938 -13.1733 -8.28932 -19.6486 -6.82661C-25.1207 -5.59084 -30.1557 -3.4202 -34.8909 -0.438545C-36.6633 0.677498 -38.6052 1.52805 -40.4868 2.46606C-41.027 2.73571 -41.6129 2.88667 -42.2446 2.90853C-44.657 2.99078 -44.9619 2.65451 -44.2854 0.383911Z" fill="#EAEAEA"/>
<path d="M6.50133 0.0373421C11.247 2.95757 21.191 0.686975 25.0156 -4.08325C18.9077 -2.18953 13.2129 1.15442 6.50133 0.0373421Z" fill="#EAEAEA"/>
</svg>
