<svg width="85" height="51" viewBox="0 0 85 51" fill="none" xmlns="http://www.w3.org/2000/svg">
<path d="M18.0429 37.6465C15.9729 40.195 14.0621 42.8352 13.3857 46.1511C12.9267 48.4019 13.8738 49.8844 16.1207 50.3622C16.5734 50.458 17.0459 50.459 17.51 50.5028C19.3125 50.5371 20.9079 49.8386 22.5023 49.1348C26.9971 47.1536 30.9425 44.2719 34.9742 41.5307C39.1881 38.6657 43.4924 35.9526 48.3276 34.2286C52.8412 32.6191 57.5868 32.2016 62.295 31.6041C67.4278 30.9513 72.2317 29.3886 76.3862 26.2248C79.474 23.874 82.3651 21.2921 83.9085 17.5911C85.1241 14.675 84.0646 12.5825 80.9935 11.8038C79.3939 11.3977 77.7475 11.1822 76.1386 10.8106C73.8833 10.289 73.6866 9.86318 74.5764 7.76541C75.7941 4.89411 75.0468 2.75468 72.3014 1.2524C71.4782 0.801611 70.6113 0.464294 69.6872 0.295639C63.9893 -0.748564 58.9741 1.08272 54.2773 4.06854C53.3324 4.66924 52.6715 4.99822 51.635 4.24344C50.7962 3.63232 49.7305 3.33354 48.7616 2.90253C42.0459 -0.0843253 35.8567 1.12747 30.0891 5.32719C27.1793 7.44578 25.1561 10.3171 23.5389 13.4966C23.3182 13.9317 23.2246 14.4419 22.5731 14.5512C16.7264 15.5287 11.8829 18.552 7.47234 22.2791C4.01821 25.1983 1.39043 28.789 0.195689 33.251C-0.531769 35.9662 0.805535 37.7787 3.59881 37.9515C4.44387 38.0036 5.28685 37.9557 6.13399 37.813C8.85025 37.3591 11.2897 36.1629 13.7687 35.0625C15.438 34.3213 17.1208 33.605 18.9545 33.4051C19.5082 33.3447 20.2367 33.1126 20.5853 33.7591C20.9194 34.3785 20.4219 34.8866 20.0462 35.3374C19.3937 36.1213 18.685 36.8563 18.0429 37.6465ZM28.5572 8.17662C33.1394 3.28042 41.0031 0.930707 47.6491 3.86447C51.5049 5.56664 54.6999 7.80913 56.8386 11.5039C57.5389 12.7137 57.5379 13.7776 56.9332 14.9634C52.9223 22.8277 46.1744 26.6079 37.73 27.8478C36.6425 28.0071 35.5383 28.0529 34.4414 28.1518C29.8425 28.0623 25.7067 26.9515 22.6699 23.1807C22.3389 22.7705 22.1173 22.4249 22.2057 21.8335C22.9821 16.651 24.9449 12.0359 28.5572 8.17662ZM21.7072 33.2156C21.2774 32.3463 20.4698 32.1558 19.5571 32.1694C17.6453 32.1996 15.9084 32.8637 14.1839 33.5842C11.4916 34.7106 8.91894 36.1588 5.98726 36.6377C4.89347 36.8167 3.8028 36.8927 2.71213 36.571C1.6683 36.2629 1.16667 35.5945 1.22287 34.5055C1.28531 33.2968 1.70159 32.186 2.20218 31.1074C3.21063 28.9368 4.52401 26.9525 6.15897 25.2129C10.7058 20.376 16.2737 17.1757 22.8801 14.8978C22.0944 16.9175 21.7062 18.6395 21.5012 20.402C21.3679 21.5483 21.5719 22.4519 22.3004 23.5367C26.2936 29.4792 32.1539 30.1288 38.4325 29.4219C45.2273 28.6568 50.9325 25.6199 55.5023 20.4884C56.544 19.3183 57.7981 18.3438 58.716 17.0529C60.1085 15.0936 60.0502 13.6371 58.9345 11.505C57.7336 9.20939 56.3681 7.13243 53.809 5.76029C58.8253 3.16488 63.6198 0.674604 69.3625 1.77815C70.0754 1.91557 70.7487 2.15918 71.3939 2.49129C73.6408 3.64897 74.1237 4.96802 73.1413 7.2761C71.9205 10.1432 72.5804 11.5216 75.6265 12.2806C77.1866 12.6689 78.7893 12.8854 80.3545 13.2581C82.8543 13.8536 83.4402 15.004 82.311 17.336C80.394 21.2963 77.1366 24.0063 73.517 26.2998C69.4447 28.8806 64.8583 29.9706 60.1324 30.3412C51.2791 31.0367 43.3114 34.01 36.0409 39.0686C31.9031 41.9472 27.9432 45.111 23.3828 47.3462C21.446 48.2957 19.5529 49.3722 17.2748 49.2909C14.9062 49.2066 14.1225 48.2394 14.6637 45.9689C15.3755 42.9851 17.1739 40.6261 19.0701 38.3263C19.8256 37.4102 20.6321 36.5356 21.3648 35.6028C21.9185 34.8949 22.1245 34.0579 21.7072 33.2156Z" fill="#EAEAEA"/>
<path d="M77.8849 18.7322C74.1091 20.8206 71.0578 23.975 67.2561 26.0228C71.5428 24.6892 74.9917 22.1188 77.8849 18.7322Z" fill="#EAEAEA"/>
<path d="M3.91208 33.431C5.88527 30.5899 7.88447 27.7884 9.7921 24.9233C6.60231 26.9108 4.78003 29.8487 3.91208 33.431Z" fill="#EAEAEA"/>
<path d="M6.58878 32.3475C7.50461 31.1471 8.19668 30.1841 8.56093 29.0212C7.57538 29.8177 6.39729 30.4871 6.58878 32.3475Z" fill="#EAEAEA"/>
<path d="M70.8694 20.0928C72.3587 19.2329 73.7626 18.2605 74.9282 16.9727C73.3619 17.7306 72.0819 18.8674 70.8694 20.0928Z" fill="#EAEAEA"/>
<path d="M28.1315 23.9999C27.4592 19.3224 27.4634 14.7947 29.5594 10.4805C28.7268 10.7241 28.6717 10.6939 28.3449 11.3008C26.4341 14.8478 26.1427 18.629 26.8525 22.5226C26.9763 23.2014 27.3489 23.8344 28.1315 23.9999Z" fill="#EAEAEA"/>
<path d="M30.9852 23.1358C30.5762 20.8788 30.1328 18.6758 30.546 16.3032C28.7018 17.7066 29.0317 21.9626 30.9852 23.1358Z" fill="#EAEAEA"/>
<path d="M34.8348 21.8918C34.5069 20.3167 34.1791 18.7654 33.8679 17.2111C33.8242 16.9904 33.7857 16.7676 33.5443 16.7374C33.3184 16.7093 33.1852 16.8988 33.0687 17.0841C32.209 18.4552 33.2029 21.2224 34.8348 21.8918Z" fill="#EAEAEA"/>
<path d="M38.0974 20.3292C37.6749 19.2891 37.3293 18.2699 37.1035 17.2132C37.065 17.0341 36.8943 16.777 36.7476 16.7489C36.4364 16.6875 36.3615 17.0071 36.2824 17.2372C35.8567 18.4625 36.6883 19.9211 38.0974 20.3292Z" fill="#EAEAEA"/>
</svg>
