<svg width="43" height="73" viewBox="0 0 43 73" fill="none" xmlns="http://www.w3.org/2000/svg">
<path d="M42.0202 42.7033C42.3084 37.347 40.9659 32.5455 36.1506 29.4035C35.3659 28.8913 35.0547 28.3489 34.9943 27.4713C34.6873 22.9665 35.0786 18.544 36.2203 14.1621C37.3744 9.73231 39.51 5.75643 41.6185 1.75556C41.8745 1.26938 42.1628 0.744654 41.7038 0.25847C41.2834 -0.18503 40.7484 0.0304926 40.2999 0.252243C36.8562 1.95233 33.836 4.0959 31.8462 7.54292C29.6971 11.2669 29.0206 15.3531 28.4711 19.5018C28.1464 21.9525 27.752 24.3907 27.037 26.7654C26.8913 27.2505 26.7654 27.6691 26.1587 27.8502C20.0632 29.6628 16.7059 33.9239 15.3467 39.983C14.5152 43.6861 14.5235 47.4808 14.0635 51.2256C13.5431 55.4586 10.6593 58.4059 6.42261 58.6454C5.57547 58.6933 4.72103 58.6828 3.88222 58.7921C0.769446 59.1971 -0.62199 61.3209 0.261574 64.338C0.879758 66.4493 2.12028 68.1587 3.92071 69.406C8.71735 72.7312 13.9657 73.5359 18.7675 72.3366C23.355 70.9551 27.4668 68.4773 31.0656 65.1188C37.5701 59.0462 41.5362 51.6858 42.0202 42.7033ZM33.7007 27.9408C33.5498 27.9855 33.5123 28.0116 33.4832 28.0043C32.559 27.7607 31.2342 27.7888 30.8252 27.1902C30.4048 26.5749 30.8554 25.3454 30.9636 24.3886C31.6765 18.0568 33.9411 12.2663 37.1278 6.80166C37.2558 6.58303 37.414 6.38212 37.6211 6.19785C34.449 13.1283 32.9504 20.3555 33.7007 27.9408ZM30.1852 16.6534C30.6504 13.6395 31.5308 10.7932 33.0752 8.14987C34.3262 6.00837 36.0215 4.35512 38.1883 3.16204C35.2753 7.3222 33.1117 11.8311 31.5964 16.6545C30.5703 19.9203 29.9562 23.2549 30.1529 26.6936C30.1894 27.3297 29.9718 27.3932 29.4515 27.3724C28.9166 27.3505 28.3775 27.4255 27.6885 27.4682C29.3006 23.9431 29.6273 20.2691 30.1852 16.6534ZM30.6462 62.7462C26.9808 66.4462 22.7993 69.0353 18.0807 70.4408C14.0489 71.4475 9.4594 70.7146 5.22891 67.9412C3.59603 66.8699 2.46996 65.3697 2.04639 63.4145C1.70608 61.8425 2.22334 61.0159 3.79481 60.7921C4.93648 60.6307 6.09685 60.5797 7.251 60.5266C11.7136 60.3246 16.3177 55.8241 15.9514 50.1887C15.7994 47.8494 16.0783 45.5808 16.3749 43.2936C16.5383 42.036 16.7277 40.7846 16.8485 39.5186C17.3199 34.5933 22.001 29.8689 27.0714 29.0412C29.2985 28.6779 31.458 28.7861 33.5113 29.7543C38.0832 31.9115 40.1021 35.7354 40.1521 40.5983C40.2426 49.3496 36.7125 56.6236 30.6462 62.7462Z" fill="#EAEAEA"/>
<path d="M31.2946 32.3977C32.2083 32.9599 32.8702 33.7636 33.4312 34.6496C35.0172 37.1534 35.7676 39.9434 36.0246 42.8574C36.214 44.9989 36.238 47.156 36.3431 49.4808C37.3568 47.9837 37.5534 46.4596 37.568 44.9167C37.6055 40.7898 36.7906 36.9295 33.8506 33.7938C33.1616 33.0588 32.3665 32.48 31.2946 32.3977Z" fill="#EAEAEA"/>
<path d="M33.145 53.4753C35.0318 49.5484 34.8861 44.6897 32.7256 42.7324C33.3198 46.3606 32.9462 49.8805 33.145 53.4753Z" fill="#EAEAEA"/>
<path d="M30.6389 49.896C30.155 52.786 29.6253 55.6709 29.516 58.7993C31.0448 55.8187 31.5808 52.938 30.6389 49.896Z" fill="#EAEAEA"/>
<path d="M27.5283 57.8313C26.8445 59.015 26.5469 60.2404 26.7019 61.3283C27.1869 60.1644 27.8998 59.1628 27.5283 57.8313Z" fill="#EAEAEA"/>
</svg>
