<svg width="56" height="66" viewBox="0 0 56 66" fill="none" xmlns="http://www.w3.org/2000/svg">
<path d="M29.1671 19.6166C29.159 20.9706 28.5403 22.0301 27.8504 23.0596C27.702 23.2805 27.5203 23.4841 27.3283 23.6693C26.383 24.5816 26.3968 24.6242 27.5353 25.2028C29.2982 26.0978 31.2175 26.1921 33.1218 26.2496C36.091 26.3382 38.9728 26.9122 41.827 27.6554C43.3897 28.0626 44.994 28.4411 46.4429 29.1232C47.8033 29.764 49.0453 30.7096 50.2297 31.6586C52.3284 33.3382 53.8073 35.4756 54.5352 38.0995C54.8813 39.35 55.4483 40.5705 55.5805 41.8394C55.7449 43.4119 55.6391 45.0282 55.5046 46.6134C55.3965 47.8799 55.0768 49.1293 54.8353 50.3832C54.4547 52.3572 53.6934 54.1632 52.5457 55.8267C50.4724 58.8337 47.8758 61.2794 44.7341 63.1131C41.8741 64.7823 38.7244 65.2252 35.4596 65.0054C31.9707 64.7708 28.8382 63.4697 25.7218 61.9742C23.3218 60.8216 21.0127 59.5722 19.3085 57.5292C17.3915 55.2296 15.5745 52.8311 13.9059 50.3475C12.1327 47.7074 10.8655 44.7843 9.9202 41.7381C9.54761 40.5395 9.21984 39.3258 8.82081 37.9465C7.85944 38.6356 7.13614 39.6203 5.92408 39.2948C5.67569 39.228 5.49397 38.9117 5.24673 38.6782C6.38059 37.2506 6.04251 35.7332 5.38704 34.316C4.68786 32.8055 3.66442 31.4435 2.98594 29.925C2.12807 28.0051 1.42198 26.0115 0.768807 24.0098C0.551465 23.3438 0.690588 22.5593 0.681388 21.8276C0.674488 21.2651 0.596298 20.6818 0.717044 20.1446C1.01028 18.8367 1.33688 17.5276 1.77846 16.2645C2.0326 15.5397 2.54663 14.907 2.92842 14.2248C3.22511 13.6957 3.44706 13.3356 2.78008 12.7098C1.47717 11.487 0.686004 9.8316 0.316867 8.0911C0.030527 6.73942 -0.0350132 5.30949 0.0155851 3.9233C0.127131 0.874833 3.55055 -0.710341 5.90681 0.307732C7.62025 1.04857 7.99747 1.62373 7.71458 3.12611C7.63868 3.53104 7.40523 3.95784 7.12349 4.26383C5.59519 5.92151 5.71018 7.82537 6.20006 9.80745C6.3645 10.4724 6.70373 10.6806 7.35806 10.3596C9.29459 9.4094 11.3484 9.28172 13.4011 9.76602C15.3342 10.2216 16.9039 11.3167 18.1412 12.9054C19.2556 14.3376 20.4906 15.6766 21.5934 17.1169C23.2839 19.3256 25.4734 20.0963 28.1666 19.6235C28.4518 19.5694 28.7554 19.6143 29.1671 19.6166ZM52.4089 53.0566C52.5021 53.0796 52.594 53.1026 52.6872 53.1256C53.1161 50.8801 53.5589 48.6369 53.9694 46.3891C54.6847 42.4767 53.7497 38.9428 51.5177 35.6953C50.0262 33.5245 48.1253 31.8415 45.7276 30.7648C44.5248 30.2241 43.2909 29.6835 42.0144 29.3913C39.3224 28.777 36.6038 28.2639 33.8773 27.8302C32.0615 27.5415 30.1963 27.561 28.384 27.2574C27.2627 27.0687 26.0599 26.8306 25.3469 25.6756C25.2307 25.4881 24.5983 25.4835 24.274 25.5951C23.8485 25.7412 23.4828 26.0771 23.116 26.3623C23.0769 26.3923 23.1597 26.6603 23.2482 26.7638C24.0716 27.7244 24.9088 28.6746 25.7448 29.6259C26.1036 30.0343 26.4359 30.4887 25.7666 30.8534C25.0836 31.2261 24.3602 31.6667 23.6162 31.7564C22.0143 31.9485 20.3871 31.983 18.7691 31.9888C17.6249 31.9934 17.6422 31.9255 17.5582 33.1277C17.4812 34.2251 17.3972 35.3237 17.2466 36.4119C17.1546 37.0734 16.3749 37.4438 15.8436 37.0815C14.5396 36.1911 12.8526 35.9541 11.767 34.6841C11.7015 34.6082 11.3139 34.6668 11.2173 34.7819C10.8827 35.1811 10.5492 35.6044 10.3319 36.0726C10.1283 36.5109 9.86729 37.078 9.98803 37.4841C10.6826 39.8343 11.3105 42.2282 12.2914 44.4611C13.3149 46.7905 14.6201 49.0142 15.9736 51.1769C17.6594 53.8711 19.834 56.1902 22.1535 58.3529C24.2464 60.3039 27.0201 61.0677 29.5224 62.2664C31.697 63.3086 34.1119 63.6975 36.5602 63.7285C38.7865 63.7573 40.8564 63.1672 42.9206 62.401C44.4696 61.8258 45.6989 60.8618 46.8765 59.7598C49.0073 57.7616 51.2751 55.883 52.4089 53.0566ZM27.0546 21.3778C26.7257 21.3375 26.4072 21.2984 26.0886 21.2605C24.1923 21.0385 22.4743 20.3919 21.1737 18.9482C20.0962 17.753 19.1268 16.4588 18.0814 15.2337C16.7601 13.6853 15.5239 12.0805 13.416 11.4202C11.4059 10.791 9.55794 11.0487 7.69155 11.8482C6.3714 12.4142 5.5216 13.4806 4.62578 14.5228C3.63106 15.6801 2.86748 16.9431 2.51789 18.4478C2.06711 20.3873 1.78078 22.435 2.29136 24.2882C2.90199 26.5038 4.11405 28.5572 5.10186 30.6647C5.4917 31.4953 6.09426 32.2384 6.39325 33.0943C6.87738 34.477 7.19133 35.9196 7.60877 37.4542C7.97675 37.0044 8.41258 36.512 8.80242 35.9863C9.53264 35.0027 10.3848 34.0859 10.2859 32.694C10.264 32.3891 10.6125 31.906 10.9069 31.7829C11.1047 31.7001 11.552 32.059 11.8096 32.3028C12.4041 32.8654 12.9009 33.5395 13.5311 34.0525C14.1601 34.5633 14.903 34.9337 15.6941 35.4261C15.8321 34.9878 15.9897 34.7083 15.9977 34.4253C16.0322 33.2761 16.0644 32.1234 16.015 30.9764C15.9759 30.0619 16.5578 29.4752 17.2707 29.948C18.2931 30.6268 19.4108 30.6233 20.5113 30.659C21.6647 30.6958 22.8894 30.8292 23.9704 29.9756C23.5909 29.3671 23.3103 28.7378 22.8687 28.2547C22.1741 27.4954 21.337 26.8685 20.6355 26.1139C20.3986 25.8596 20.3929 25.3903 20.2825 25.0187C20.67 24.9129 21.1323 24.615 21.4313 24.7323C23.2482 25.4467 26.3784 23.0309 27.0546 21.3778ZM6.13682 1.84114C4.00249 0.775905 1.9061 1.88258 1.44496 4.03606C0.986129 6.17574 1.81411 8.03818 2.64093 9.89142C2.95027 10.5851 3.42982 11.2167 3.91165 11.8114C4.06459 12 4.57746 12.1323 4.7419 12.0196C4.97075 11.8643 5.0869 11.4628 5.1352 11.1499C5.1674 10.9359 4.98225 10.6955 4.9259 10.4597C4.73156 9.64868 4.39464 8.83424 4.40269 8.02324C4.41648 6.69916 4.23824 5.27615 5.4687 4.23852C5.86429 3.90492 6.18396 3.38611 6.33345 2.8903C6.4381 2.54289 6.19202 2.09192 6.13682 1.84114Z" fill="#EAEAEA"/>
<path d="M31.8799 30.6531C32.1962 30.4391 32.4871 30.1055 32.8333 30.0307C34.2857 29.7178 35.6426 30.2723 37.0249 30.6002C38.2346 30.8878 39.4881 31.0327 40.6622 31.4216C42.033 31.8748 43.3497 32.5017 44.6572 33.1218C44.8055 33.192 44.863 33.7844 44.7365 34.0041C44.6192 34.2077 44.1397 34.3952 43.9212 34.3147C42.7793 33.8971 41.6983 33.2989 40.5415 32.9377C38.3899 32.2648 36.2498 31.5205 33.9752 31.3284C33.3358 31.2743 32.7045 31.1121 32.0709 30.9994C32.0076 30.8832 31.9432 30.7682 31.8799 30.6531Z" fill="#EAEAEA"/>
<path d="M51.3104 42.4147C50.8125 40.9238 50.0397 39.9046 48.8737 39.1637C48.6011 38.99 48.3597 38.6794 48.2504 38.3792C48.1998 38.2412 48.4815 37.8212 48.6529 37.7959C49.0243 37.7407 49.4832 37.7442 49.7959 37.9202C51.1966 38.7093 51.3438 40.1784 51.6014 41.5565C51.6439 41.7831 51.4404 42.0546 51.3104 42.4147Z" fill="#EAEAEA"/>
<path d="M47.5792 34.6726C47.8575 35.517 47.892 36.0577 47.2112 36.2555C47.0997 36.2877 46.6156 35.6838 46.6777 35.5492C46.8283 35.2294 47.2021 35.0143 47.5792 34.6726Z" fill="#EAEAEA"/>
<path d="M9.04695 13.6221C10.4246 13.009 11.7149 13.1251 13.0776 13.4933C14.1999 13.797 14.8853 14.2939 14.8577 15.5202C14.2632 15.7894 13.8929 15.8803 13.3409 15.2027C12.6751 14.3871 11.4998 14.3055 10.4212 14.3549C9.87953 14.3802 9.31374 14.4274 9.04695 13.6221Z" fill="#EAEAEA"/>
<path d="M19.5331 20.7359C18.0726 21.0902 16.1441 20.1791 15.7221 18.985C17.1124 18.396 18.827 19.161 19.5331 20.7359Z" fill="#EAEAEA"/>
<path d="M15.4338 17.063C15.4441 16.742 15.3314 16.3152 15.4947 16.1288C15.6925 15.9034 16.1329 15.7826 16.4469 15.8171C16.5918 15.8332 16.8505 16.4164 16.7608 16.5798C16.632 16.8145 16.2318 16.9019 15.9478 17.0514C15.7764 17.056 15.6051 17.0595 15.4338 17.063Z" fill="#EAEAEA"/>
<path d="M21.7931 21.4479C22.2082 21.1752 22.5532 20.9486 22.8982 20.7231C23.0051 20.9578 23.2662 21.3041 23.1914 21.4076C22.9097 21.7987 22.5279 22.1554 21.7931 21.4479Z" fill="#EAEAEA"/>
<path d="M5.08445 4.23412C4.50142 4.30774 4.10584 4.47797 3.87585 4.35028C3.66656 4.2341 3.63549 3.7935 3.52625 3.49671C3.89423 3.38167 4.2634 3.19417 4.63139 3.19532C4.74754 3.19532 4.86136 3.7015 5.08445 4.23412Z" fill="#EAEAEA"/>
</svg>
