<svg width="55" height="36" viewBox="0 0 55 36" fill="none" xmlns="http://www.w3.org/2000/svg">
<path d="M40.0966 33.3263C38.0393 33.8682 35.9763 34.387 33.9259 34.9576C31.4685 35.642 28.9834 36.1367 26.4282 35.8307C24.5997 35.611 22.7633 35.7467 20.9256 35.2382C18.6993 34.6228 16.6972 33.6565 14.7492 32.4877C14.0845 32.0885 13.3382 31.8125 12.7126 31.3627C11.458 30.4608 10.1838 29.56 9.06148 28.5063C7.69993 27.2271 6.43498 25.834 5.22408 24.4087C4.25811 23.2721 3.40484 22.0608 2.96671 20.563C2.30088 18.2888 1.32687 16.0973 0.758787 13.8035C0.286154 11.8962 0.0710964 9.89568 0.00324878 7.9274C-0.0415996 6.65049 0.366648 6.12249 1.93059 6.00975C4.03042 5.8579 6.11989 5.55304 8.20936 5.27926C11.9433 4.79035 15.6749 4.28305 19.4054 3.76884C21.6984 3.45249 23.9834 3.08436 26.2787 2.78066C29.2352 2.38839 32.2286 2.20088 35.1483 1.6303C39.2859 0.821591 43.4602 0.594964 47.6438 0.345335C48.7696 0.278613 49.8908 0.129092 51.0143 0.0267092C52.2597 -0.0883274 52.6542 0.134823 52.8715 1.35766C53.389 4.27499 54.0548 7.19233 54.2342 10.1361C54.3619 12.239 54.0123 14.4396 53.4833 16.4953C52.8462 18.9767 51.9734 21.4373 50.8568 23.7403C50.1518 25.1944 48.9617 26.5058 47.7312 27.5895C45.7728 29.315 43.612 30.8116 41.5088 32.3692C41.0764 32.689 40.5255 32.8489 40.0288 33.0825C40.0518 33.1618 40.0748 33.2447 40.0966 33.3263ZM47.8404 1.57739C44.9632 1.86613 42.1918 2.08123 39.4388 2.43669C36.641 2.79906 33.8638 3.32248 31.0706 3.73201C29.341 3.98509 27.5988 4.15076 25.8636 4.36933C23.2727 4.69604 20.6853 5.04345 18.0944 5.36671C16.1809 5.60483 14.2651 5.82683 12.3481 6.03734C10.8175 6.2053 9.27999 6.3169 7.75284 6.50556C6.67533 6.639 5.60931 6.86102 4.4651 7.05543C4.71464 8.62568 4.92394 10.0602 5.17233 11.4878C5.68176 14.4143 6.99042 17.0901 8.55551 19.4943C10.0424 21.7766 12.179 23.6575 14.142 25.6005C17.0112 28.4419 20.7163 29.5899 24.563 30.2146C27.6655 30.7184 30.7589 30.5597 33.8236 29.5934C36.3443 28.7985 38.9696 28.2854 41.1396 26.6807C42.546 25.6407 44.064 24.6215 45.1208 23.271C46.9113 20.9852 48.0106 18.268 48.8041 15.4658C49.0376 14.6409 49.1905 13.7471 49.1422 12.8981C48.9766 9.95666 48.7351 7.01862 48.4557 4.08634C48.3798 3.26958 48.0681 2.47468 47.8404 1.57739ZM49.2284 1.6395C49.3929 2.49307 49.5688 3.3041 49.7011 4.12201C49.9391 5.58642 50.2875 7.04968 50.3416 8.5233C50.4244 10.7826 50.5049 13.0787 50.2036 15.307C49.8563 17.8758 48.604 20.2133 47.3586 22.4588C45.7567 25.3474 43.2808 27.4503 40.322 28.8698C38.6166 29.6877 36.7445 30.149 34.9701 30.8323C32.5391 31.7687 29.9873 31.9482 27.4413 31.9931C24.9091 32.0379 22.416 31.6491 20.0505 30.6287C18.8764 30.1226 17.5367 29.8982 16.4937 29.2103C14.2961 27.7609 12.0893 26.2781 10.4759 24.1096C9.42718 22.7016 8.18867 21.4177 7.2733 19.9315C6.36368 18.4555 5.6622 16.8312 5.03202 15.2081C4.22935 13.142 3.56813 11.0219 3.58538 8.75451C3.59803 7.02666 3.57043 7.02898 1.78339 7.17623C1.55455 7.19463 1.3211 7.17508 0.927817 7.17163C1.23256 9.20663 1.39471 11.2152 1.8616 13.1501C2.34573 15.1529 3.06905 17.1062 3.79122 19.0423C4.89518 21.9998 6.74892 24.472 9.10979 26.5346C10.6852 27.9116 12.3193 29.2425 14.0408 30.4286C15.5358 31.4581 17.1365 32.3738 18.7878 33.1262C21.0464 34.1557 23.5153 34.3421 25.9693 34.4341C27.0319 34.4732 28.1117 34.4905 29.1616 34.349C30.9855 34.104 32.8082 33.8026 34.5986 33.3838C36.2235 33.0031 37.9025 32.6338 39.3767 31.8964C41.0695 31.0498 42.5771 29.8246 44.1387 28.7249C46.748 26.8877 48.9559 24.7273 50.3186 21.7375C51.4766 19.1964 52.2103 16.5506 52.6392 13.8299C53.1935 10.3202 52.653 6.815 52.147 3.34089C51.8503 1.30359 51.7354 1.32084 49.6493 1.51985C49.5918 1.52676 49.5355 1.55207 49.2284 1.6395Z" fill="#EAEAEA"/>
<path d="M29.7567 8.58319C30.8492 11.6455 31.8612 14.3856 32.8007 17.15C33.309 18.6466 33.8748 20.1593 34.0955 21.7111C34.4302 24.0671 34.49 26.5093 32.3844 28.2142C31.6473 28.8112 30.6365 29.2978 29.7107 29.3795C28.3434 29.5003 26.8358 29.4946 25.5824 29.024C24.3634 28.5662 23.4779 27.3514 23.0525 26.0273C22.6822 24.8781 22.3142 23.6887 22.2314 22.498C22.144 21.2476 22.2958 19.9534 22.5246 18.7121C22.903 16.6518 23.4078 14.6145 23.9034 12.5772C24.0219 12.0895 24.3232 11.6478 24.5244 11.1773C25.1535 9.7048 25.7503 8.21736 26.4161 6.76215C26.5633 6.4412 26.9048 6.14899 27.2291 5.99714C27.3579 5.93618 27.7213 6.2537 27.9099 6.46192C28.5987 7.22116 29.2588 8.008 29.7567 8.58319ZM27.4085 7.83086C25.9136 11.2325 24.5543 14.373 23.9966 17.8195C23.5631 20.4975 23.2549 23.1042 24.6498 25.6327C25.8469 27.8035 26.515 28.1198 28.6827 28.0152C29.7648 27.9622 30.9665 27.9887 31.7726 26.9499C32.7581 25.6788 33.0272 24.1856 32.6926 22.72C32.1418 20.3077 31.369 17.9426 30.6399 15.574C30.2604 14.3396 29.82 13.1191 29.3209 11.9284C28.7724 10.6228 28.1261 9.35854 27.4085 7.83086Z" fill="#EAEAEA"/>
<path d="M30.8167 5.10669C31.2468 5.82797 31.7504 5.49665 32.3565 5.41728C33.3339 5.28958 34.3678 5.45639 35.3602 5.61054C37.5462 5.94989 39.7576 6.22025 41.8896 6.78393C43.6341 7.24408 45.5097 7.58344 46.8126 9.09042C48.1006 10.5813 48.1834 12.3448 48.0557 14.167C47.9269 16.0018 47.5233 17.7791 46.5861 19.3701C45.2176 21.6915 43.8814 22.5336 41.1111 21.8146C38.9354 21.2498 37.5175 19.8762 36.5492 17.8608C35.3544 15.3714 34.017 12.9499 32.7084 10.5169C32.0069 9.2112 31.2272 7.94694 30.5039 6.65277C30.1968 6.10175 30.2451 5.58294 30.8167 5.10669ZM36.6332 14.8365C36.5952 14.8595 36.5573 14.8813 36.5193 14.9032C36.9529 15.6256 37.4278 16.3262 37.8119 17.074C38.5513 18.5119 39.5414 19.6749 41.0743 20.2927C42.46 20.8517 43.802 20.938 44.8082 19.5265C46.348 17.365 46.7344 14.917 46.4964 12.3597C46.3434 10.709 45.3982 9.49533 43.8377 8.919C40.4522 7.6674 36.8551 7.38785 33.3328 6.77586C33.0855 6.73329 32.7785 6.75977 32.5681 6.8771C32.422 6.95878 32.2668 7.3246 32.3323 7.43849C33.7479 9.91638 35.1934 12.3747 36.6332 14.8365Z" fill="#EAEAEA"/>
<path d="M15.4367 8.16652C17.433 7.43374 19.8054 6.54681 22.1916 5.69784C23.0575 5.38954 24.4351 6.40992 24.2442 7.27039C23.8694 8.95108 23.4381 10.6295 22.87 12.2526C22.4158 13.5491 21.8178 14.8179 21.114 15.9993C20.1354 17.6409 19.2764 19.3906 17.7056 20.61C16.1347 21.8305 14.3408 22.2458 12.5469 21.505C10.9116 20.8297 9.88468 19.3676 9.46725 17.6317C9.22806 16.6378 9.1602 15.5795 9.1717 14.551C9.19815 12.3653 10.6149 11.0436 12.2892 9.95877C13.1828 9.37784 14.1418 8.89815 15.4367 8.16652ZM22.5998 7.16339C22.3594 7.18525 22.1329 7.15536 21.9489 7.23129C19.3489 8.30573 16.7327 9.34565 14.1717 10.5075C13.2978 10.9044 12.4525 11.5095 11.7936 12.2078C10.2274 13.8677 10.2561 15.7992 11.0818 17.8307C12.3008 20.8309 15.5505 21.2611 17.586 18.5704C19.2224 16.4077 20.2999 13.9655 21.3831 11.5164C21.9846 10.1532 22.6067 8.80151 22.5998 7.16339Z" fill="#EAEAEA"/>
<path d="M38.1171 25.5452C38.4265 25.0068 38.6553 24.3857 39.0785 23.96C39.3165 23.7208 39.8777 23.8036 40.294 23.7415C40.2423 24.0831 40.2951 24.4949 40.1215 24.7549C39.2648 26.033 39.0658 26.0962 38.1171 25.5452Z" fill="#EAEAEA"/>
<path d="M46.8639 5.32861C47.0571 5.45975 47.3906 5.56789 47.4147 5.72549C47.4687 6.0683 47.3664 6.43527 47.3284 6.79188C47.0869 6.69755 46.696 6.6573 46.6373 6.49625C46.5235 6.18565 46.5971 5.80487 46.5936 5.45401C46.6845 5.4126 46.7742 5.37118 46.8639 5.32861Z" fill="#EAEAEA"/>
<path d="M45.6989 3.50646C45.6782 3.91599 45.6586 4.32436 45.6379 4.73389C45.5574 4.77645 45.4758 4.81788 45.3941 4.86045C45.163 4.62002 44.7686 4.39109 44.7502 4.13571C44.7329 3.90334 45.1262 3.64106 45.3389 3.39258C45.4585 3.43054 45.5781 3.4685 45.6989 3.50646Z" fill="#EAEAEA"/>
<path d="M27.5704 12.9614C28.5835 13.3526 28.7123 14.2349 28.8802 14.9792C29.3643 17.1188 29.7691 19.2781 30.1532 21.4385C30.2855 22.1804 30.2659 22.9489 30.1889 23.7323C29.2608 22.0953 29.0516 20.234 28.6146 18.4659C28.1764 16.6955 27.1104 15.0102 27.5704 12.9614Z" fill="#EAEAEA"/>
<path d="M27.5328 23.8875C27.2039 23.4377 26.9233 23.2202 26.8681 22.9557C26.415 20.7815 25.9723 18.605 25.6066 16.4147C25.5365 15.9936 25.8194 15.5128 25.939 15.0596C26.2598 15.4173 26.7807 15.7325 26.8658 16.1386C27.1476 17.4903 27.2867 18.8719 27.4523 20.2454C27.5685 21.2048 27.6432 22.17 27.7214 23.1328C27.7318 23.272 27.6536 23.4181 27.5328 23.8875Z" fill="#EAEAEA"/>
<path d="M44.1609 18.0668C43.364 17.4272 42.5602 16.7945 41.7713 16.1445C40.1441 14.8032 38.5238 13.4538 36.9047 12.1033C36.746 11.971 36.6379 11.772 36.4688 11.6604C35.9433 11.3141 35.857 10.7942 36.2871 10.4594C36.5367 10.2662 37.2186 10.3202 37.4992 10.5342C38.4088 11.2279 39.231 12.0377 40.0728 12.8188C41.0549 13.7299 42.0438 14.6341 42.9856 15.5866C43.502 16.1089 43.9436 16.7105 44.3817 17.3041C44.4783 17.4352 44.4162 17.6849 44.4277 17.8804C44.338 17.9426 44.2494 18.0047 44.1609 18.0668Z" fill="#EAEAEA"/>
<path d="M43.9224 12.5921C42.9955 12.2665 42.0549 11.9732 41.1429 11.6097C39.7745 11.0644 38.4198 10.4835 37.0732 9.88526C36.8386 9.78058 36.6742 9.51716 36.4775 9.32735C36.6995 9.13754 36.9076 8.80968 37.1468 8.78552C37.6034 8.74066 38.1105 8.77864 38.5348 8.94199C39.5974 9.35382 40.6703 9.77484 41.6512 10.3431C42.5298 10.8516 43.2922 11.5602 44.1064 12.1814C44.0454 12.3183 43.9833 12.4552 43.9224 12.5921Z" fill="#EAEAEA"/>
<path d="M18.524 12.0239C19.2071 13.0626 19.2094 13.2927 18.2734 14.4534C17.5144 15.3944 16.7106 16.2998 15.8975 17.1948C15.74 17.3685 15.4491 17.4202 15.2202 17.5272C15.1432 17.4467 15.065 17.3662 14.9879 17.2856C15.7825 15.9305 16.5783 14.5765 17.3729 13.2214C17.3304 13.1811 17.289 13.1409 17.2464 13.1006C16.3897 13.5792 15.5445 14.0807 14.6694 14.5213C14.3819 14.6662 14.0139 14.6513 13.6827 14.71C13.8012 14.4005 13.8322 13.9933 14.053 13.7989C15.0086 12.9534 16.0125 12.1631 17.0095 11.3659C17.6754 10.8332 18.332 10.2822 19.0484 9.82666C19.2888 9.67366 19.6993 9.78754 20.0316 9.78064C19.9788 10.097 20.0248 10.4927 19.8511 10.7136C19.4693 11.1956 18.9771 11.5879 18.524 12.0239Z" fill="#EAEAEA"/>
</svg>
