<svg width="36" height="80" viewBox="0 0 36 80" fill="none" xmlns="http://www.w3.org/2000/svg">
<path d="M1.89222 23.5565C3.72804 27.345 6.24239 30.6567 9.51231 33.3562C12.0412 35.4436 14.567 37.5351 17.0939 39.6256C17.9348 40.321 18.631 41.1206 19.1118 42.1221C19.4584 42.8425 19.346 43.388 18.9037 44.0377C17.6704 45.8523 15.8263 46.9402 14.1123 48.1666C10.2377 50.939 6.48905 53.8363 3.67809 57.7591C1.72259 60.4867 0.44563 63.4559 1.21055 66.8706C2.51249 72.682 6.25591 76.6068 11.6197 78.7181C15.5599 80.2693 19.73 79.6728 23.7316 78.3413C25.1729 77.8613 26.5966 77.2825 27.6061 76.1081C31.6514 71.4025 33.4341 66.0628 31.7783 59.9068C30.9229 56.7274 29.0871 54.0237 27.1607 51.396C25.3894 48.9797 23.6192 46.5644 21.7792 44.0554C23.8086 43.6421 25.6444 43.0591 27.4677 42.4438C30.4358 41.4412 32.5735 39.6068 33.2832 36.4066C33.5267 35.3061 33.5892 34.1901 33.6392 33.072C33.6579 32.6483 33.6558 32.2339 33.8556 31.8341C36.0016 27.5303 36.1525 22.9891 35.3542 18.3667C35.0077 16.3585 34.4457 14.395 33.304 12.6564C33.2291 12.3305 33.2104 11.9839 32.9304 11.7413C31.335 13.7797 30.3713 17.5901 30.8251 21.0132C31.2611 24.2998 31.2684 27.6469 32.1624 30.8711C32.3258 31.4614 32.1842 31.9445 31.8647 32.4963C29.725 36.19 25.813 37.8422 22.694 40.7427C22.8865 39.9171 23.2226 39.4496 23.5286 38.9707C26.4541 34.3921 27.5 29.5011 25.6767 24.2686C24.6224 21.2432 23.256 18.3251 21.595 15.5735C18.7278 10.822 16.5038 5.90917 17.3739 0C14.9178 2.10923 13.7511 4.66716 13.672 7.755C13.5711 11.7101 14.6264 15.4132 16.2374 18.9601C18.1294 23.1265 19.5021 27.4741 20.9227 31.8071C21.723 34.2484 21.8302 36.7293 21.1579 39.5506C20.7655 36.5429 19.3148 34.4431 17.5227 32.514C15.5214 30.36 13.2547 28.4964 11.0827 26.5288C8.86707 24.5206 6.7898 22.3624 5.67624 19.5286C3.35128 13.6173 5.34529 8.04442 6.94175 2.52357C6.31836 2.81403 5.79488 3.54488 5.20168 4.17681C-0.324506 10.061 -1.48073 16.5958 1.89222 23.5565ZM2.72062 63.5132C3.00681 61.4747 4.08084 59.7663 5.29743 58.1401C7.43506 55.2824 10.0555 52.9452 12.9872 50.8755C8.38624 58.1953 5.79489 65.8951 8.13129 74.7985C4.69589 71.6731 2.03791 68.3771 2.72062 63.5132ZM30.2495 67.1569C29.1485 71.2432 27.6706 75.1347 22.874 76.7567C25.2094 73.0807 26.0326 69.2235 26.5738 65.2559C27.116 61.2832 26.5456 57.3406 26.3927 53.3533C29.5106 56.186 31.4255 62.7959 30.2495 67.1569ZM32.7712 27.0722C32.5755 25.3493 32.486 23.6107 32.2144 21.9002C31.7492 18.9716 32.3039 16.1419 32.8617 13.3029C32.9169 13.025 33.0439 12.8011 33.302 12.6637C34.3104 16.321 34.9369 20.022 34.58 23.8376C34.4041 25.7209 34.121 27.5792 33.3426 29.4948C32.8846 28.6464 32.8596 27.8468 32.7712 27.0722ZM32.1998 34.5305C32.026 37.5007 30.8667 39.6495 28.3294 40.8926C26.3927 41.841 24.3518 42.5364 21.9592 43.2839C25.2343 39.9223 29.419 38.1993 32.1998 34.5305ZM25.0272 50.9421C25.2312 51.242 25.2832 51.573 25.2916 51.9301C25.431 57.8747 25.5008 63.8151 24.05 69.6482C23.4787 71.947 22.6107 74.127 21.4618 76.2029C21.0319 76.9785 20.2722 76.9774 19.601 77.1888C18.9526 77.3939 18.2793 77.5178 17.3364 77.7437C18.3615 75.9301 19.0785 74.3071 19.499 72.5352C20.1203 69.9148 20.2743 67.2787 20.2233 64.6105C20.1484 60.6783 20.0651 56.7472 20.0027 52.814C19.96 50.1353 20.3191 47.5107 21.1808 44.7019C22.4484 47.0162 23.7045 49.0005 25.0272 50.9421ZM17.224 17.1841C15.5245 13.0302 14.6774 8.76381 15.6577 4.27988C15.715 4.01545 15.7795 3.75309 15.8555 3.49386C15.8981 3.35019 15.971 3.21589 16.1448 2.80883C16.2322 7.79977 17.8328 11.9516 20.1775 15.9014C22.0539 19.0632 23.6827 22.3749 24.6089 25.9458C25.531 29.499 25.1709 32.9647 23.2383 36.2181C22.4536 29.4511 19.7467 23.3483 17.224 17.1841ZM19.654 45.3151C19.7644 45.1829 19.8528 45.1829 20.0246 45.2922C20.292 45.4619 20.2483 45.6284 20.1661 45.8596C19.8445 46.7684 19.4719 47.6648 19.2315 48.5955C18.3115 52.1539 18.6196 55.7987 18.5197 59.4155C18.4187 63.1071 18.7996 66.8165 18.1315 70.4894C17.6996 72.8631 16.9763 75.1222 15.7212 77.2054C15.4402 77.6719 15.179 77.8967 14.6368 77.777C13.9603 77.6281 13.2724 77.5313 12.597 77.3803C11.1035 77.0472 10.2627 76.1217 9.82972 74.6329C8.29154 69.3515 8.79838 64.1795 10.5124 59.0563C10.7934 58.2172 11.2014 57.4208 11.5511 56.6045C12.4648 54.3017 13.723 52.1748 14.9147 50.0103C16.0438 47.9615 18.2231 47.0277 19.654 45.3151ZM5.01226 5.60309C4.07042 7.7727 3.48345 10.0308 3.23472 12.3878C2.72477 17.2247 4.23484 21.3557 7.47874 24.9255C9.98062 27.6781 13.0362 29.8238 15.639 32.4619C16.8067 33.6456 17.9691 34.8283 18.8288 36.2681C19.5645 37.5007 20.0766 38.7927 20.0037 40.3543C16.7973 37.1853 13.16 34.6992 9.8953 31.78C5.56698 27.9103 2.25647 23.3722 1.37707 17.4412C0.708934 12.926 2.13781 9.03136 5.01226 5.60309Z" fill="#EAEAEA"/>
<path d="M15.1395 60.1672C15.5204 65.1623 14.3308 69.9378 14.1789 74.9974C16.2832 71.6462 16.7744 63.6132 15.1395 60.1672Z" fill="#EAEAEA"/>
<path d="M10.6758 70.9266C10.7206 68.8413 10.8163 66.781 10.3959 64.7437C10.2949 66.8206 9.34373 68.9236 10.6758 70.9266Z" fill="#EAEAEA"/>
<path d="M12.8041 65.1528C12.9384 67.2215 12.5398 69.3088 13.0404 71.3639C13.4494 69.2755 13.696 67.1944 12.8041 65.1528Z" fill="#EAEAEA"/>
<path d="M22.2694 66.7686C21.8239 68.529 21.0278 70.2208 21.1329 72.0916C22.2017 70.4561 22.9115 68.7476 22.2694 66.7686Z" fill="#EAEAEA"/>
<path d="M5.5243 69.9792C4.00902 65.6806 4.04026 64.5229 5.79594 59.938C2.70711 62.2534 2.53537 68.5946 5.5243 69.9792Z" fill="#EAEAEA"/>
<path d="M6.45679 68.9778C6.24137 66.6999 6.12376 64.4251 6.60457 61.9692C5.11635 64.2554 5.06016 67.0986 6.45679 68.9778Z" fill="#EAEAEA"/>
<path d="M28.189 62.0327C28.1817 65.9794 26.8714 69.5826 25.967 73.3076C28.4158 70.605 29.5814 64.7937 28.189 62.0327Z" fill="#EAEAEA"/>
</svg>
