<svg width="27" height="131" viewBox="0 0 27 131" fill="none" xmlns="http://www.w3.org/2000/svg">
<path d="M71.046 126.436C76.619 121.861 81.4645 116.64 85.823 110.917C86.8138 109.616 87.0656 108.428 86.7815 106.85C83.6791 89.5951 80.915 72.2778 77.3891 55.101C75.7781 47.2513 74.3512 39.3547 72.1283 31.6413C71.9305 30.9552 72.0377 30.3504 72.3583 29.7944C72.7881 29.0501 72.6112 28.6919 71.84 28.3442C67.7625 26.5057 64.2418 23.8301 60.8657 20.9421C60.4473 20.584 60.2402 20.1759 60.2309 19.6574C60.1154 13.4266 58.2545 7.48514 57.2097 1.40835C57.0265 0.341248 56.5457 -0.0991204 55.3864 0.0185216C50.4326 0.520322 45.4757 0.979427 42.955 1.41252C28.7878 3.71122 17.3504 6.90734 6.05555 10.6792C5.09393 11.0009 5.00027 11.3101 5.27086 12.2491C6.63211 16.9767 8.30868 21.6292 8.76763 26.5858C8.8561 27.5467 8.71144 28.3182 8.17652 29.099C5.75478 32.6335 3.22687 36.0867 0.417988 39.3245C0.145321 39.6379 -0.126277 39.8492 0.0631328 40.3322C1.16108 43.1213 1.57422 46.1009 2.4276 48.9597C5.43214 59.029 8.19107 69.1556 10.1299 79.5018C12.3446 91.3202 13.5435 103.246 14.3469 115.224C14.3937 115.92 14.6966 116.229 15.3179 116.522C21.5851 119.469 27.9792 122.085 34.6356 124.022C41.9362 126.145 49.1473 128.63 56.7049 129.744C61.8908 130.511 66.7613 129.953 71.046 126.436ZM84.8167 108.854C84.2401 109.592 83.6813 110.344 82.8435 111.447C82.0442 104.951 81.4218 98.7681 79.2436 92.8245C78.6088 93.3607 78.973 93.8666 79.0147 94.3143C79.5225 99.7758 80.3791 105.188 81.6009 110.53C82.0015 112.282 81.5509 113.472 80.1158 114.677C79.7359 110.258 78.9106 106.085 76.9853 102.183C76.9406 102.474 76.8198 102.777 76.8635 103.055C77.5057 107.182 77.6056 111.398 78.7608 115.437C79.1635 116.842 77.9625 117.147 77.4068 118.367C76.9072 114.734 76.4285 111.532 75.1973 108.525C75.0558 108.54 74.9143 108.555 74.7727 108.57C74.8498 109.812 74.8737 111.059 75.0173 112.294C75.2702 114.469 75.5689 116.639 75.8998 118.805C76.1579 120.493 74.55 120.761 73.9828 121.648C73.7081 119.954 73.4385 118.255 73.1555 116.559C73.0243 115.773 72.9119 114.981 72.708 114.212C72.5675 113.684 72.5675 112.813 71.7609 112.966C71.074 113.096 71.304 113.843 71.3623 114.374C71.6454 116.947 71.8702 119.53 72.2553 122.089C72.3864 122.96 72.172 123.481 71.5559 124.005C70.6182 124.801 69.7222 125.647 68.6065 126.653C67.2599 118.993 65.833 111.666 64.2397 104.373C64.12 103.829 64.0763 103.387 64.6133 102.929C70.5037 97.9061 75.5887 92.1093 80.5508 86.1991C80.608 86.1304 80.7048 86.094 80.8453 86.0003C81.2262 86.3823 81.1461 86.9081 81.2283 87.3599C82.4709 94.1675 83.4544 101.024 85.0394 107.767C85.1434 108.213 85.0779 108.52 84.8167 108.854ZM77.1268 62.2366C77.9927 67.5794 78.6556 72.966 79.8025 78.2473C80.4852 81.3935 79.9399 83.6495 77.6961 86.0232C73.3615 90.6091 69.3184 95.4699 64.6445 99.7404C63.7235 100.582 63.4404 100.618 63.1802 99.2917C61.8408 92.4549 60.5347 85.6098 58.8727 78.8418C58.6438 77.9079 58.8009 77.3676 59.6408 76.7544C65.3866 72.5547 70.6786 67.8126 75.8301 62.9112C76.0757 62.678 76.3296 62.4542 76.5794 62.2262C76.7615 62.2282 76.9447 62.2324 77.1268 62.2366ZM71.66 32.5835C73.219 41.3546 74.7592 50.1288 76.3068 58.902C76.4035 59.4486 76.4785 59.9066 75.9269 60.3543C70.1 65.0777 64.4947 70.0707 58.5459 74.6462C58.3971 74.7607 58.2181 74.8367 57.9788 74.9731C56.1201 67.9823 54.2925 61.0633 52.4359 54.1515C51.7137 51.4624 50.9342 48.7879 50.1609 46.1134C49.9934 45.5335 49.8612 45.1191 50.7042 44.9546C53.3913 44.4299 55.7152 43.0567 57.9652 41.5867C62.6745 38.5124 67.0975 35.0696 71.0605 31.05C71.5954 31.481 71.5694 32.0702 71.66 32.5835ZM10.5067 72.3507C10.6919 72.0113 10.8834 72.0727 11.0697 72.1195C25.2525 75.7092 39.6966 77.3634 54.2842 77.9579C54.433 77.9642 54.584 77.9787 54.7318 77.9662C56.1919 77.8403 56.8819 78.441 57.1764 79.9557C58.5928 87.2329 60.1247 94.4871 61.639 101.867C54.9087 100.836 48.348 99.7904 41.8883 98.2288C33.0485 96.0914 24.2368 93.8354 15.3991 91.6898C14.2501 91.4107 13.8005 90.9225 13.6444 89.7377C12.8691 83.8629 11.6837 78.0568 10.5067 72.3507ZM60.2226 21.8843C62.7338 24.9118 65.7685 27.2927 69.2216 29.1406C70.026 29.5716 70.0989 29.8704 69.3891 30.4743C64.5467 34.598 59.6938 38.7061 54.3602 42.1968C53.2851 42.9006 52.1789 43.5534 50.8832 43.9729C54.5954 36.6999 58.2265 29.4748 59.3993 21.3648C59.9801 21.1785 60.0373 21.6615 60.2226 21.8843ZM7.13164 11.5849C7.96005 11.1747 8.9123 10.8811 9.85415 10.9748C10.2309 11.0123 10.1747 11.6536 10.2267 12.0315C10.6076 14.806 11.3996 17.4785 12.2332 20.1384C12.431 20.7714 12.5693 21.4648 13.2926 22.0915C12.9076 18.4206 12.3123 15.0225 11.2529 11.7098C11.0936 11.2122 10.5556 10.6282 11.6056 10.3398C12.6786 10.0452 12.5891 10.8083 12.7442 11.3954C13.2386 13.2683 13.2833 15.2505 14.1013 17.0454C14.2616 17.3972 14.4572 17.7335 14.6726 18.1479C15.0275 15.5847 13.9962 13.3568 13.5924 11.0279C13.5091 10.5469 13.0523 9.90044 13.9733 9.73594C14.8256 9.58499 14.5831 10.372 14.7028 10.75C15.2835 12.5802 15.2419 14.6082 16.5074 16.3187C16.9008 14.3365 16.1317 12.6031 15.7165 10.8322C15.4667 9.76823 15.628 9.28414 16.8134 8.98951C29.2447 5.89646 41.7613 3.29895 54.5413 2.12565C55.3395 2.05278 55.6705 2.16627 55.8287 3.01684C56.7861 8.15769 57.8008 13.2881 58.802 18.4206C58.9466 19.1598 59.0309 19.7199 57.959 19.8677C47.6476 21.2909 37.4622 23.4813 27.1539 24.9305C21.7151 25.6957 16.2587 25.7873 10.7866 25.7519C10.233 25.7488 10.1289 25.5468 10.0696 25.0825C9.54714 20.9619 8.13906 17.06 7.0921 13.0685C6.96618 12.5864 6.50409 11.8951 7.13164 11.5849ZM6.73928 33.0155C8.08388 31.3092 9.6002 29.708 10.4442 27.654C10.6336 27.1938 10.9916 27.1189 11.4037 27.122C24.013 27.2105 36.3986 25.3084 48.7279 22.916C48.8538 22.8921 48.9922 22.9254 49.3492 22.9431C48.0327 24.6057 46.8234 26.133 45.4559 27.8611C48.2283 26.3318 48.9246 22.6609 52.5618 22.206C51.0736 24.6598 49.1827 26.5952 48.2273 29.1261C50.1714 27.2261 51.7522 25.0148 53.4204 22.8837C53.9887 22.1581 54.5694 21.6615 55.7173 21.8448C52.9781 26.058 50.0277 30.1161 48.6935 35.383C50.0371 33.9411 50.7427 32.4908 51.5565 31.1197C53.2841 28.2089 54.9888 25.2845 56.6924 22.359C57.0806 21.6927 57.4771 21.0743 58.5387 21.1514C57.9111 24.2746 56.9995 27.2865 55.7922 30.2005C53.9835 34.5678 52.0883 38.9008 50.265 43.2629C50.06 43.7522 49.8258 43.9833 49.3055 43.9916C33.4055 44.23 17.5679 43.7928 2.08418 39.5743C1.94785 39.5369 1.8188 39.4713 1.52324 39.3536C3.29661 37.2069 5.06165 35.1456 6.73928 33.0155ZM6.21372 56.3795C10.157 57.3706 13.8952 58.3034 17.7792 56.5085C16.4585 56.0838 15.2482 56.5231 14.0534 56.5117C11.4839 56.4867 9.03094 55.886 6.55196 55.3602C5.13347 55.0594 5.50916 53.7549 5.01274 52.8075C11.9678 54.4774 18.8136 55.228 25.4513 51.8403C18.9666 53.1844 12.51 53.0657 6.06698 51.5655C4.19995 51.1303 4.07819 51.0491 3.82114 48.7535C9.8427 50.1954 15.8341 50.5931 21.8629 48.5589C21.0127 48.1601 20.1551 48.4964 19.335 48.4516C18.4421 48.4027 17.545 48.4235 16.65 48.4308C12.4643 48.4641 8.30766 48.1706 4.18539 47.4064C3.35907 47.2534 2.92508 46.9192 2.67635 46.079C2.10187 44.1363 1.60337 42.1583 0.477315 40.1063C1.95409 40.5155 3.21023 40.8465 4.45701 41.2099C16.804 44.8089 29.4757 45.674 42.2463 45.6917C44.335 45.6949 46.4258 45.6751 48.5124 45.5918C49.1473 45.5658 49.3658 45.725 49.4772 46.3445C51.159 55.7111 53.6827 64.8872 55.8068 74.1528C56.093 75.3989 55.9785 75.6748 54.5684 75.6217C40.04 75.0679 25.6334 73.5677 11.4017 70.5142C10.3173 70.282 9.88954 69.8573 9.61791 68.7912C8.57304 64.7018 7.39597 60.6479 6.21372 56.3795ZM32.7415 121.647C32.0463 121.454 31.7851 121.092 31.6987 120.418C31.5374 119.164 31.3053 117.919 31.1024 116.669C30.9712 116.679 30.8391 116.687 30.7079 116.697C30.2948 118.056 30.9151 119.458 30.5623 120.908C30.1699 120.799 29.8088 120.659 29.4352 120.604C27.9282 120.383 27.2507 119.675 27.438 118.02C27.6222 116.396 27.2143 114.793 26.3994 113.131C25.3472 115.34 25.8697 117.385 26.4514 119.444C25.7489 119.551 25.2546 119.135 24.6874 119.032C23.7622 118.864 23.5353 118.33 23.6248 117.435C23.8642 115.042 23.4209 112.722 22.6924 110.182C21.6725 112.984 22.0294 115.538 22.7777 118.204C21.4487 117.97 20.6952 117.699 20.5152 116.089C20.0562 111.989 19.2924 107.918 18.1372 103.939C18.0404 103.607 17.98 103.26 17.5585 102.977C17.1318 107.84 18.4764 112.351 19.6399 117.031C18.3724 116.828 17.3192 116.194 16.1838 115.818C15.6936 115.655 15.8861 115.281 15.8726 114.954C15.5864 108.04 15.2065 101.13 14.2283 94.2737C14.0243 92.8443 14.7039 93.2608 15.4521 93.4742C27.5868 96.9295 39.7111 100.423 52.1331 102.745C55.1106 103.302 58.1349 103.567 61.0863 104.288C61.8419 104.472 62.2332 104.715 62.4018 105.574C63.7516 112.462 65.1451 119.344 66.6011 126.211C66.8477 127.373 66.5678 127.788 65.4344 127.989C62.0938 128.581 58.7874 128.319 55.5039 127.677C47.785 126.165 40.3064 123.739 32.7415 121.647Z" fill="#EAEAEA"/>
<path d="M18.8386 83.3247C19.5057 84.5334 19.9636 85.4631 20.5152 86.3335C20.9856 87.0757 21.6402 87.6254 22.6185 87.4401C23.6186 87.2506 23.9131 86.4271 24.1359 85.5995C24.292 85.0217 24.3492 84.4168 24.4679 83.7287C25.0434 84.244 25.033 84.8228 25.1745 85.3371C25.8198 87.6869 26.439 90.0439 27.1113 92.3852C27.2851 92.9891 27.5275 93.7782 28.3736 93.5481C29.074 93.3566 28.9752 92.6226 28.9575 92.0177C28.8305 87.4953 27.2643 83.3726 25.443 79.3218C25.1485 78.6669 24.7603 78.0121 23.9048 78.1933C23.1399 78.3557 23.0431 79.0553 22.9526 79.7174C22.7153 81.4477 22.4603 83.1748 22.146 85.3611C21.684 84.5064 21.4227 84.0452 21.1834 83.5736C20.3071 81.8454 19.4443 80.1099 18.5639 78.3838C18.2808 77.8289 17.8916 77.2979 17.186 77.503C16.4585 77.7144 16.4856 78.3515 16.5699 78.9824C16.7021 79.9693 16.7603 80.9667 16.9175 81.9484C17.3785 84.8374 17.748 87.7472 18.8262 90.5311C19.538 88.2376 18.9063 85.9274 18.8386 83.3247Z" fill="#EAEAEA"/>
</svg>
