<svg width="76" height="54" viewBox="0 0 76 54" fill="none" xmlns="http://www.w3.org/2000/svg">
<path d="M21.878 39.2043C23.5035 40.3016 25.3196 40.0756 26.838 38.8097C27.1075 38.5848 27.3677 38.3485 27.8391 37.9362C27.8433 40.2672 29.1921 41.4041 30.9738 42.1745C31.6055 42.4472 32.2372 42.7741 32.9012 42.9043C34.251 43.1666 35.5009 43.8922 36.909 43.8308C38.98 43.7402 40.5483 42.7023 41.7108 41.0543C43.6143 42.6773 44.9672 45.1967 48.0643 44.2337C48.1091 45.2373 48.1424 46.1691 48.1934 47.1009C48.2392 47.9379 48.5337 48.6885 49.104 49.2996C50.2165 50.4906 51.4196 51.5952 52.836 52.4031C54.855 53.5535 57.0072 54.2187 59.3623 53.6201C65.4848 52.0647 70.4033 48.7968 73.6628 43.302C75.1125 40.8565 76.0751 38.1809 75.5901 35.2909C74.8398 30.8288 71.7447 28.1334 68.1043 25.9336C67.7598 25.7254 67.3831 25.766 66.9606 25.9388C65.769 26.4271 64.5388 26.8227 63.0714 27.3453C63.801 25.7806 64.032 24.4064 63.2546 23.1227C62.0141 21.0749 60.4509 19.2728 58.6578 17.6799C58.1374 17.2177 57.565 17.149 56.8615 17.3395C55.2983 17.7622 53.7175 18.1109 52.2896 18.9219C51.9733 19.1021 51.6881 19.2915 51.3894 18.8189C50.2717 17.049 48.4515 16.0642 46.8498 14.8357C46.2181 14.3516 45.4241 14.1163 44.7924 14.5047C42.304 16.0309 40.8345 14.7285 39.3682 12.8577C38.4482 11.6844 37.2597 10.7235 36.2044 9.65428C31.619 5.00898 26.1064 2.1054 19.7091 0.880049C15.0571 -0.0111154 10.3979 -0.582662 5.76044 0.970629C1.77555 2.30529 -0.0519536 4.78201 0.00112272 8.9786C0.0489955 12.84 1.28016 16.4119 3.15761 19.7257C7.73362 27.8024 14.2506 34.053 21.878 39.2043ZM42.2124 39.8612C41.4163 39.1543 40.7721 38.4536 40.6722 37.3834C41.3476 38.0705 42.9305 38.1465 42.2124 39.8612ZM41.0135 35.397C42.4414 36.1331 42.4414 36.1331 42.2884 37.5916C41.3205 37.0701 40.028 36.8525 41.0135 35.397ZM42.6797 34.8828C42.4112 35.3388 42.2353 34.9962 42.0189 34.9265C40.7388 34.5121 41.6265 33.7573 41.6994 33.0171C42.5975 33.4762 43.2958 33.8365 42.6797 34.8828ZM48.9874 45.9515C49.001 41.4894 51.0522 37.9727 53.756 34.7037C54.0797 34.3122 54.472 33.6959 55.1256 34.3632C55.6428 34.8911 55.8614 35.3856 55.1068 35.9072C54.88 36.0644 54.7187 36.3174 54.5334 36.5318C53.7654 37.4188 53.7654 37.4199 52.632 36.9503C53.4948 37.6958 53.167 38.3319 52.6591 39.1179C50.4351 42.5618 49.5568 46.1993 51.5487 50.3272C49.7545 49.1966 48.9812 47.9192 48.9874 45.9515ZM58.1478 33.1171C57.4464 33.646 56.7991 34.2466 56.1278 34.8172C54.8977 33.2795 54.906 33.292 56.8344 31.9105C57.3902 31.5117 57.7544 31.3139 58.2155 32.0854C58.4923 32.5476 58.6349 32.7496 58.1478 33.1171ZM58.2675 31.1109C59.7453 29.9303 59.7453 29.9303 60.8818 31.0849C59.9347 31.7907 59.0689 32.8641 58.2675 31.1109ZM74.0655 37.3845C73.899 40.2079 72.3421 43.1874 70.0577 45.8172C67.5673 48.6833 64.4337 50.6426 61.041 52.3156C58.1821 53.7253 53.1576 51.9294 52.2803 47.8151C51.787 45.5028 52.1554 43.3655 53.2388 41.3437C55.9602 36.2695 60.1647 32.761 65.3995 30.606C70.0681 28.6842 74.0811 31.6065 74.0655 37.3845ZM67.0376 26.9914C67.6641 26.7478 67.918 27.0955 68.2708 27.4026C68.634 27.717 69.0014 28.0273 69.4989 28.452C68.3093 28.5426 67.2395 28.4093 66.2008 28.6602C65.0144 28.9465 63.8561 29.3328 62.8404 29.9949C61.9495 30.5758 61.1784 30.656 60.2833 29.8481C62.5178 28.7071 64.7844 27.869 67.0376 26.9914ZM61.7601 23.1862C63.0496 25.0227 62.2128 27.0372 60.0554 28.6613C58.281 29.998 56.2433 30.9725 54.6146 32.5205C54.3711 32.7527 54.1681 32.9776 53.7966 32.6954C53.5218 32.4862 53.2523 32.6652 53.3709 32.9495C53.6759 33.6772 53.1076 33.9687 52.7663 34.3758C50.7879 36.7338 49.3226 39.3823 48.465 42.3306C48.2267 43.1479 47.876 43.6153 47.0663 43.7371C46.2764 43.8558 45.5875 43.5716 45.1722 42.9334C44.246 41.5082 43.2562 40.0798 43.4342 38.9336C43.6663 34.0822 45.6322 30.7153 48.1841 27.6535C50.637 24.7104 53.7799 22.7615 57.4932 21.7901C59.5517 21.2508 60.7215 21.7079 61.7601 23.1862ZM56.2881 18.6304C57.3059 18.3233 58.1364 18.1672 58.6932 19.3155C58.8087 19.5549 59.0595 19.7278 59.3623 20.0547C55.4618 20.3763 52.2688 22.0369 49.4215 24.3845C46.546 26.7561 44.5957 29.8179 43.2448 33.2285C41.9127 32.913 41.8888 32.203 42.4601 31.1505C45.6072 25.3517 49.6899 20.621 56.2881 18.6304ZM49.7128 18.6835C50.79 19.2353 50.8535 19.7371 49.8773 20.4076C47.7303 21.8817 45.8997 23.7057 44.093 25.6661C43.7288 24.7093 43.9036 23.7557 43.683 22.8687C43.5706 22.419 43.4967 21.7818 42.8483 21.8682C42.2489 21.9484 42.3914 22.5449 42.3873 22.9697C42.3769 23.9649 42.66 24.9269 43.1064 25.7733C43.4363 26.398 43.4051 26.8196 43.0835 27.3818C41.69 29.8231 40.7325 32.4258 40.0145 35.1503C39.5607 36.8691 39.4077 38.3933 40.7586 39.7488C41.2529 40.2443 41.2092 40.5785 40.5494 40.9064C39.7897 41.2843 39.0726 41.7445 38.2556 42.0069C36.1295 42.6877 34.5861 41.9506 33.8326 39.8404C33.0947 37.7749 33.2259 35.6719 33.7785 33.6064C35.375 27.64 38.9009 23.1092 44.1606 19.9193C45.3491 19.1989 46.6667 18.7679 48.0467 18.5836C48.5972 18.5087 49.1665 18.4035 49.7128 18.6835ZM46.6209 16.4379C47.1631 16.8356 47.7105 17.225 48.3599 17.6945C38.4783 18.4368 28.7581 32.7558 32.7565 41.3687C30.1724 40.972 28.9766 39.5978 28.909 36.841C28.808 32.7423 30.2213 29.1214 32.6077 25.8753C35.3614 22.1274 38.5887 18.8491 42.5465 16.3422C44.5519 15.072 44.7507 15.0668 46.6209 16.4379ZM39.9343 15.6373C40.36 16.1891 40.4078 16.414 39.7917 16.8127C35.8245 19.3821 32.9189 22.9405 30.4878 26.931C28.9236 29.4962 27.9058 32.2415 27.6955 35.2638C27.6008 36.6266 26.0512 38.2517 24.6317 38.538C23.3797 38.7899 21.9737 38.056 21.2098 36.7047C20.3034 35.1024 20.0692 33.344 20.0994 31.5347C20.0827 23.4465 26.4415 15.2615 33.9263 13.7603C36.2543 13.2918 38.3504 13.5823 39.9343 15.6373ZM2.13043 13.3064C5.56582 18.9407 9.66102 23.966 15.2965 27.5952C13.366 25.4027 11.4115 23.2299 9.51012 21.0124C6.89273 17.9589 4.36691 14.8284 2.48218 11.2492C1.84423 10.0374 1.23334 8.81203 1.47895 7.32329C1.90356 4.74974 3.45421 3.22976 5.81351 2.39585C8.41945 1.47554 11.1024 1.23712 13.8499 1.44742C20.8414 1.98045 27.3281 3.87522 32.8075 8.46117C34.2302 9.65217 35.5446 10.9744 36.8715 12.2028C27.9952 12.1726 23.6191 17.9767 20.2638 24.9477C18.5966 28.4104 18.4144 32.1416 19.2991 35.9936C12.0952 29.5628 4.93723 23.0905 2.13043 13.3064Z" fill="#EAEAEA"/>
<path d="M26.4425 14.2673C20.8872 7.95215 14.1018 4.19384 5.50443 4.25839C9.2718 5.2318 12.9778 6.35721 16.4465 8.17181C19.9131 9.98745 22.9978 12.4267 26.4425 14.2673Z" fill="#EAEAEA"/>
<path d="M2.15747 7.63563C3.73207 11.4772 6.14756 14.6452 9.87331 16.7576C7.41619 13.6239 4.95906 10.4913 2.50194 7.35767C2.38642 7.45032 2.27195 7.54298 2.15747 7.63563Z" fill="#EAEAEA"/>
<path d="M22.4555 3.46826C25.2207 5.67327 27.7538 8.19581 31.0383 9.69288C28.8403 6.69041 25.9523 4.64989 22.4555 3.46826Z" fill="#EAEAEA"/>
<path d="M9.77759 2.98306C12.4158 3.91899 14.953 4.5551 17.5788 4.8112C15.079 4.01374 12.7592 2.43024 9.77759 2.98306Z" fill="#EAEAEA"/>
<path d="M9.2614 11.4189C7.95947 9.49815 5.417 7.40975 4.26285 7.27441C5.61265 9.12129 7.18102 10.558 9.2614 11.4189Z" fill="#EAEAEA"/>
<path d="M5.59494 5.73877C6.50973 6.43525 7.32254 7.32329 8.63383 7.26811C7.72946 6.55289 6.86565 5.76063 5.59494 5.73877Z" fill="#EAEAEA"/>
<path d="M57.4818 46.2379C59.5049 45.7527 61.2897 44.1432 61.4895 42.5452C59.8837 43.554 58.4954 44.6263 57.4818 46.2379Z" fill="#EAEAEA"/>
<path d="M69.0222 38.6691C69.2345 38.4651 69.4125 38.1434 69.2876 37.905C69.1263 37.5958 68.7631 37.7426 68.5269 37.8758C67.406 38.5067 66.2685 39.1178 65.3829 40.1287C66.7181 39.9319 68.0117 39.6384 69.0222 38.6691Z" fill="#EAEAEA"/>
<path d="M63.8738 43.8569C63.6688 45.2843 64.0164 46.3565 65.0072 47.3497C65.6389 45.7673 65.335 44.8314 63.8738 43.8569Z" fill="#EAEAEA"/>
<path d="M59.5299 36.7402C60.7621 36.1176 61.5322 35.4753 62.2743 34.4519C60.6872 34.8277 59.7089 35.6439 59.5299 36.7402Z" fill="#EAEAEA"/>
<path d="M63.9727 36.5537C63.2525 37.0805 63.1401 37.8384 63.0496 38.5963C63.0329 38.7348 63.0891 38.9368 63.187 39.019C63.317 39.1294 63.5117 39.0544 63.597 38.9014C63.9977 38.1778 64.5732 37.4761 63.9727 36.5537Z" fill="#EAEAEA"/>
<path d="M59.9149 41.3239C60.0939 41.198 60.658 41.4093 60.5363 40.9252C60.3833 40.3151 59.7245 40.2277 59.1823 40.1298C58.9013 40.0788 58.5599 40.186 58.6286 40.566C58.7462 41.2282 59.3259 41.2354 59.9149 41.3239Z" fill="#EAEAEA"/>
<path d="M29.6698 19.8891C29.6625 19.3508 29.5324 18.849 29.2535 18.3951C28.9694 17.9318 28.6676 17.6997 28.3335 18.3774C27.8891 19.279 28.3262 22.8915 28.9912 23.6484C29.1203 23.7952 29.2524 24.0097 29.4741 23.8993C29.5823 23.8452 29.6334 23.6463 29.6781 23.5037C29.9039 22.7895 29.7291 22.0628 29.7312 21.1457C29.7156 20.8552 29.6771 20.3721 29.6698 19.8891Z" fill="#EAEAEA"/>
<path d="M26.7433 25.737C25.1905 25.6579 23.9781 25.8432 22.799 26.2232C22.3785 26.3585 21.9393 26.6156 22.0986 27.1789C22.2318 27.6494 22.6751 27.7432 23.0831 27.6672C24.3902 27.4225 25.6151 26.9915 26.7433 25.737Z" fill="#EAEAEA"/>
<path d="M24.9689 32.2311C24.8398 32.5444 24.9272 32.9005 25.255 33.0723C25.6276 33.2659 25.9336 32.9879 26.0408 32.7141C26.5455 31.4201 27.223 30.1656 27.0794 28.6602C26.1365 29.72 25.4975 30.9464 24.9689 32.2311Z" fill="#EAEAEA"/>
<path d="M32.4141 21.9629C32.9657 21.2779 33.2509 20.6668 33.1 19.6934C32.3777 20.3982 32.0551 21.0062 32.4141 21.9629Z" fill="#EAEAEA"/>
<path d="M56.2912 29.5546C56.3536 29.6619 56.5451 29.6942 56.5795 29.7119C57.2278 29.742 59.7869 28.498 60.1408 28.0701C60.3073 27.8681 60.4551 27.6307 60.3427 27.4194C60.2074 27.1654 59.9035 27.2716 59.686 27.3465C58.5339 27.7442 57.5484 28.4605 56.5024 29.0612C56.3266 29.1632 56.1663 29.3412 56.2912 29.5546Z" fill="#EAEAEA"/>
<path d="M55.5595 25.2872C55.1329 25.5277 54.0141 27.638 54.1119 28.146C54.1546 28.3709 54.2046 28.6416 54.7062 28.5489C55.1766 28.4813 56.4015 26.0743 56.107 25.5058C55.9935 25.2862 55.879 25.1071 55.5595 25.2872Z" fill="#EAEAEA"/>
<path d="M50.1167 32.9714C49.0895 33.9396 48.0831 34.9255 47.3577 36.5319C48.8064 35.5772 49.8617 34.6455 50.6516 33.4378C50.7827 33.2369 50.943 32.9912 50.713 32.7809C50.4486 32.5383 50.279 32.8184 50.1167 32.9714Z" fill="#EAEAEA"/>
<path d="M51.8526 26.7519C51.3416 26.8561 51.3666 27.3485 51.4519 27.7441C51.5539 28.2136 51.7298 28.6665 51.8817 29.1246C51.9473 29.3234 52.0732 29.5233 52.2918 29.5067C52.6321 29.4806 52.5509 29.1621 52.5852 28.9455C52.6164 28.7477 52.6123 28.5447 52.6352 28.1272C52.6321 28.0627 52.6518 27.7764 52.5977 27.5047C52.5186 27.1007 52.3604 26.6478 51.8526 26.7519Z" fill="#EAEAEA"/>
<path d="M49.6952 31.6075C49.7274 31.5908 49.7461 31.5481 49.8762 31.3899C48.9125 31.1327 48.1112 30.9891 47.3338 31.4888C47.1433 31.6106 47.2026 31.8115 47.3286 31.8802C48.1726 32.3456 48.9396 31.9937 49.6952 31.6075Z" fill="#EAEAEA"/>
<path d="M37.0047 27.7481C38.5054 28.4561 39.8729 28.3135 41.2799 27.6534C39.2995 26.374 38.2588 26.3885 37.0047 27.7481Z" fill="#EAEAEA"/>
<path d="M39.8052 31.4587C39.6262 31.1672 39.3026 31.2307 39.0487 31.3722C37.7165 32.1156 36.3262 32.7985 35.5862 34.4507C37.3055 34.053 38.3545 32.962 39.5003 32.0291C39.6668 31.8959 39.9749 31.7356 39.8052 31.4587Z" fill="#EAEAEA"/>
<path d="M37.3773 37.1191C38.5897 36.4622 39.1839 35.3128 40.0925 34.0115C38.52 34.5393 37.4106 35.9218 37.3773 37.1191Z" fill="#EAEAEA"/>
</svg>
