<svg width="53" height="81" viewBox="0 0 53 81" fill="none" xmlns="http://www.w3.org/2000/svg">
<path d="M44.0006 38.1196C40.3842 35.6138 36.1339 34.7028 31.8253 34.0855C29.005 33.6815 26.143 33.8564 23.3238 33.4358C21.2246 33.1225 19.4804 32.1345 18.9226 30.8227C20.109 31.1225 21.2299 30.8466 22.2706 30.3688C28.5367 27.4944 33.785 23.3988 37.5149 17.5698C38.7117 15.699 39.4538 13.6334 39.4475 11.3566C39.4454 10.505 39.0458 10.0813 38.2445 9.91889C36.9134 9.65029 35.5948 9.72836 34.2918 10.0615C28.1662 11.6283 23.2051 14.7755 20.0091 20.4151C19.8114 19.2709 19.776 18.1486 19.5324 17.0482C18.2378 11.19 15.202 6.21473 11.5408 1.55902C11.111 1.01245 10.5376 0.6085 9.9631 0.197273C9.5541 -0.0952703 9.30537 -0.0276034 8.95152 0.174366C7.58715 0.952053 6.65363 2.11493 5.96572 3.47978C3.49194 8.38951 3.63245 13.3846 5.67849 18.3548C7.91914 23.7986 12.0914 27.5569 16.991 30.6228C17.17 30.7342 17.3709 30.7602 17.4833 31.0059C18.1514 32.4603 18.1941 33.8856 17.4104 35.316C16.8932 36.2592 16.2167 37.0702 15.4664 37.8365C13.003 40.3507 9.96934 42.1465 7.22186 44.3037C1.97771 48.4222 -0.863434 53.6307 0.233477 60.3831C1.50315 68.1996 7.31657 76.1992 18.6884 75.4746C20.1631 75.3809 21.6399 75.3174 23.1177 75.2643C26.755 75.1321 29.9156 76.0847 32.1209 79.1882C32.4997 79.7212 33.0034 80.1001 33.6414 80.426C33.6414 79.9231 33.6674 79.5234 33.6372 79.1278C33.426 76.3585 34.4781 74.1421 36.5741 72.3462C38.0561 71.075 39.5724 69.8538 41.2053 68.7742C42.9568 67.6166 44.6906 66.4277 46.2423 65.0097C49.8755 61.6897 52.4086 57.7898 52.4502 52.7156C52.5064 46.2474 49.0804 41.6406 44.0006 38.1196ZM25.5374 15.7302C28.699 13.0786 32.4362 11.5627 35.9726 11.0974C38.2372 11.0766 38.2601 11.1182 37.9614 12.7371C37.5024 15.2201 36.2931 17.3459 34.6883 19.2396C30.5057 24.1754 25.527 28.0233 19.2567 30.044C18.3211 30.3459 17.9069 30.0419 18.0619 29.0341C18.8851 23.6851 21.3891 19.2084 25.5374 15.7302ZM17.7539 26.2909C17.5634 26.9509 17.5301 27.6557 17.3792 28.6239C16.6372 26.4356 15.3186 24.7303 15.3894 22.492C15.4653 20.1173 15.3967 17.7374 15.379 15.3596C15.3748 14.8224 15.3207 14.2852 15.2135 13.748C14.3362 16.0206 14.3299 18.3828 14.3653 20.7836C13.5889 19.4073 13.1383 17.9133 12.6804 16.4329C12.2058 14.8994 11.8416 13.3305 11.4596 11.7699C11.0777 10.2083 10.7197 8.64042 10.3763 7.07047C10.0349 5.50885 9.72478 3.94099 9.26686 2.38666C9.26686 3.05816 9.26686 3.73071 9.26686 4.40324C9.63111 7.55043 9.47605 10.7601 10.5657 13.8219C10.4762 13.8667 10.3867 13.9104 10.2972 13.9551C9.25853 12.8589 8.21991 11.7616 7.06576 10.5425C7.71724 12.608 8.76524 14.205 10.4387 15.372C10.7426 15.5834 11.0121 15.7739 11.1433 16.1664C12.7387 20.9449 14.5162 25.6454 17.3272 29.8962C11.8863 25.5965 6.65155 21.1563 5.58482 13.749C5.06446 10.1354 5.52862 6.68736 7.46747 3.51311C7.88167 2.49077 8.56022 1.62666 9.16383 0.715716C9.40632 0.349256 9.57387 0.355505 9.8226 0.653254C9.96309 0.821909 10.1192 0.983278 10.2306 1.16963C13.1508 6.03772 16.1876 10.8694 17.5697 16.4412C18.3741 19.6759 18.7103 22.9834 17.7539 26.2909ZM46.4151 63.2201C44.5626 65.1378 42.3709 66.6307 40.1864 68.1319C38.4828 69.3031 36.8853 70.6003 35.395 72.0266C33.8537 73.5007 32.814 75.2206 32.8026 77.5266C32.0959 76.879 31.5131 76.2388 30.8263 75.736C28.3712 73.938 25.5197 73.7152 22.5963 73.7756C20.237 73.8245 17.8923 74.1722 15.5174 73.9463C9.13989 73.3394 5.06238 69.7487 2.57612 64.1654C-0.590768 57.0558 1.45319 50.1306 8.07524 45.0345C10.6385 43.0616 13.4058 41.3459 15.7099 39.0441C17.3334 37.4221 18.6104 35.6481 18.5937 33.111C21.5691 35.1984 24.9181 35.1828 28.2328 35.3264C33.1523 35.5399 37.9551 36.3467 42.2658 38.8192C46.5067 41.2522 49.6122 44.7409 50.7112 49.5892C51.9101 54.8904 50.1273 59.3775 46.4151 63.2201Z" fill="#EAEAEA"/>
<path d="M8.12936 60.9194C8.25424 57.7763 9.46979 55.0279 11.0662 52.4013C12.3037 50.366 13.846 48.5211 14.9169 46.3796C15.5819 45.0491 16.0846 43.6874 15.7932 42.156C15.4976 43.5167 14.9086 44.7243 14.1603 45.857C13.3922 47.021 12.6315 48.1901 11.8145 49.3207C10.3482 51.3498 8.99107 53.4382 8.07004 55.7733C6.27273 60.3291 6.50376 64.6558 9.63631 68.6182C11.5075 70.9856 13.4193 71.7185 16.4894 71.2823C16.3156 71.2209 16.1845 71.1428 16.0481 71.1313C11.802 70.7888 7.95556 65.2732 8.12936 60.9194Z" fill="#EAEAEA"/>
<path d="M23.8608 47.5331C23.5506 44.2173 23.0521 40.9327 21.3256 37.9729C21.8834 39.8635 22.3549 41.7666 22.6338 43.7165C23.1968 47.6622 23.1385 51.6704 23.9315 55.5953C25.0253 61.0089 26.6374 66.2184 29.7273 70.8835C30.3871 71.8788 31.2821 72.6502 32.3551 73.607C31.7733 72.4597 31.3643 71.5227 30.845 70.6503C26.5906 63.5127 24.6267 55.7066 23.8608 47.5331Z" fill="#EAEAEA"/>
<path d="M42.8205 47.5811C40.7286 45.6676 38.2403 44.411 35.6406 43.3303C33.4645 42.4256 31.2634 41.5532 29.3963 40.0697C28.5554 39.4024 27.7541 38.6861 26.833 37.9053C26.9725 38.5008 27.2951 38.8079 27.5584 39.141C29.3183 41.369 31.7077 42.7109 34.2617 43.8384C36.7219 44.9242 39.1645 46.0548 41.2667 47.7726C43.9538 49.9672 45.1798 52.7042 44.6199 56.1971C44.3024 58.1793 43.7623 60.1115 43.3575 62.0719C43.4459 62.101 43.5344 62.1301 43.6218 62.1583C44.2161 60.834 44.9133 59.5441 45.3858 58.1782C46.7887 54.1347 46.0592 50.544 42.8205 47.5811Z" fill="#EAEAEA"/>
<path d="M11.4118 64.4048C11.5668 66.9898 14.9419 70.0943 17.4958 69.9777C15.2676 68.2266 12.8771 66.9627 11.4118 64.4048Z" fill="#EAEAEA"/>
<path d="M46.9573 57.9065C48.7983 56.196 48.637 52.6876 46.6586 50.8386C47.664 53.1092 47.1769 55.461 46.9573 57.9065Z" fill="#EAEAEA"/>
<path d="M16.0856 64.0737C16.6975 66.9888 18.9444 69.1063 21.3891 68.8867C19.2036 67.5457 17.4042 66.0736 16.0856 64.0737Z" fill="#EAEAEA"/>
<path d="M24.8026 67.678C23.5215 65.8759 22.2591 64.0998 20.8292 62.0874C21.0363 64.8171 22.971 67.4344 24.8026 67.678Z" fill="#EAEAEA"/>
<path d="M33.2043 58.8474C33.4697 59.7125 33.7153 60.3976 33.887 61.1003C34.0598 61.8093 34.1555 62.5349 34.2898 63.2533C34.3564 63.6114 34.4219 63.9695 34.5104 64.3214C34.5572 64.5067 34.6936 64.6743 34.8975 64.6296C35.0047 64.6067 35.114 64.4432 35.1619 64.3204C35.753 62.7806 34.7789 59.9343 33.2043 58.8474Z" fill="#EAEAEA"/>
<path d="M38.1518 61.948C38.1799 62.1884 38.2413 62.5143 38.5411 62.5226C38.846 62.531 38.9168 62.2103 38.9428 61.9677C39 61.4264 39.0375 60.8808 39.05 60.3374C39.0781 59.0329 38.7398 57.869 37.5826 56.7759C37.7865 58.6561 37.9603 60.303 38.1518 61.948Z" fill="#EAEAEA"/>
<path d="M48.7421 50.2305C49.2229 52.5656 48.9961 54.8966 48.7151 57.4139C50.2949 54.9289 50.2907 52.2595 48.7421 50.2305Z" fill="#EAEAEA"/>
<path d="M29.2038 60.0833C30.155 61.8312 29.9698 64.055 31.5423 65.7873C31.7858 63.9863 30.5765 60.9848 29.2038 60.0833Z" fill="#EAEAEA"/>
<path d="M41.2209 59.8783C42.8413 58.1813 43.1473 55.6828 41.9452 53.561C41.8994 55.6682 41.6955 57.7493 41.2209 59.8783Z" fill="#EAEAEA"/>
<path d="M6.66924 66.4297C6.80662 68.6524 8.90886 70.6482 11.0569 70.745C9.42297 69.454 7.93371 68.2578 6.66924 66.4297Z" fill="#EAEAEA"/>
<path d="M26.3189 20.4587C26.9798 19.7872 27.6396 19.6518 28.4826 19.8059C29.2787 19.9506 30.0811 20.061 31.0729 20.2161C30.1508 19.1219 28.9832 19.2719 27.8831 19.0407C29.6981 17.3761 31.4111 15.803 33.1252 14.231C29.9146 15.5188 27.2764 17.5791 24.7142 19.8923C25.4905 18.7128 26.2679 17.5333 27.1994 16.1184C26.0244 16.6587 25.3927 17.3323 24.9587 18.1433C23.4601 20.9418 21.8147 23.6433 19.9685 26.2356C19.2629 27.2267 18.6052 28.3126 18.3419 29.8045C18.7061 29.3485 18.9372 29.084 19.1401 28.8009C21.2819 25.8078 23.7348 23.0822 26.3189 20.4587Z" fill="#EAEAEA"/>
</svg>
