<svg width="51" height="32" viewBox="0 0 51 32" fill="none" xmlns="http://www.w3.org/2000/svg">
<path d="M42.4708 35.8022C40.0352 37.5232 37.3995 38.7391 34.6326 39.7456C32.5719 40.4957 30.4583 40.6751 28.3148 40.7085C24.0887 40.7764 19.9293 40.1276 15.9286 38.8656C13.5436 38.1133 11.2942 36.8697 9.45545 35.0326C8.31699 33.8949 6.99681 32.932 5.91699 31.746C4.96483 30.7003 4.13688 29.5086 3.42736 28.2811C2.49014 26.6614 1.60467 24.9922 0.904343 23.2609C-0.888444 18.8297 0.117767 14.7206 2.74773 10.9566C3.3618 10.0766 4.45886 9.53128 5.34433 8.84451C5.94116 8.38092 6.49773 7.8069 7.17276 7.5124C9.56238 6.46902 11.9946 5.83747 14.7039 6.02038C19.0806 6.31718 23.4585 5.93986 27.6673 4.60314C29.168 4.12688 30.5158 3.18359 31.9613 2.51178C33.6011 1.75024 34.9466 0.361731 36.8233 0.124756C37.7329 0.0108697 38.6886 -0.0673675 39.5809 0.0833304C41.9912 0.492861 44.2831 1.30043 46.1254 2.97536C46.8579 3.64142 47.3868 4.541 47.971 5.36006C48.3344 5.86968 48.5575 6.49087 48.9692 6.95102C49.7604 7.8368 50.0835 8.90318 50.417 9.99488C51.1645 12.444 50.9621 14.9633 50.8505 17.4401C50.7252 20.2205 50.2618 23.0067 49.2027 25.6008C48.2528 27.9268 47.3052 30.2827 45.5297 32.1785C44.451 33.3323 43.4862 34.592 42.4708 35.8022ZM4.59227 11.273C2.93977 12.2071 2.13365 13.9073 1.70242 15.841C1.47587 16.8591 1.09752 17.8853 1.11477 18.9022C1.13202 19.8846 1.62535 20.8486 1.80935 21.8391C2.13134 23.5658 3.10879 24.9681 3.97931 26.4198C4.73369 27.6772 5.44898 28.9828 6.37125 30.1102C8.03064 32.1383 10.0155 33.8074 12.2084 35.288C14.7533 37.0078 17.5201 37.9706 20.4939 38.425C22.5604 38.7414 24.6544 38.8668 26.7255 39.1555C28.9932 39.4719 31.2196 39.1325 33.3562 38.5435C36.9567 37.5519 40.2836 35.9288 42.8882 33.1403C44.0037 31.945 45.1513 30.7314 46.0069 29.3532C46.8613 27.9774 47.2247 26.3002 48.0653 24.9128C49.0658 23.2609 49.0957 21.3973 49.4108 19.643C49.7834 17.5655 49.5649 15.3809 49.5867 13.2424C49.6166 10.2744 48.4345 7.69875 46.5301 5.58668C45.0789 3.97731 43.3597 2.50142 41.1391 1.90553C39.643 1.50405 38.094 1.30965 36.6347 1.87218C35.0915 2.46807 33.6287 3.27674 32.1441 4.01988C30.6308 4.77797 29.1899 5.72588 27.611 6.29646C26.2 6.80607 24.651 6.95103 23.1514 7.19146C20.4145 7.62975 17.6684 7.78964 14.8901 7.55151C13.5895 7.43993 12.2234 7.44915 10.9584 7.72753C8.58375 8.25325 6.5196 9.48644 4.59227 11.273Z" fill="#EAEAEA"/>
<path d="M37.8316 29.0761C35.1119 31.5505 30.3074 32.1867 26.6896 29.9769C25.1947 29.0646 24.1793 27.7509 23.119 26.3831C22.153 25.1372 21.6079 23.7349 20.9019 22.3959C19.9175 20.53 20.0636 18.4927 20.8938 16.6901C21.6137 15.1256 22.6498 13.6002 23.8803 12.4004C26.0491 10.2837 28.7964 9.74998 31.7701 10.3654C34.2633 10.8819 36.6299 11.7447 38.3065 13.7072C39.4243 15.0163 40.672 16.3427 40.856 18.2581C40.9342 19.0668 41.4172 19.8341 41.5195 20.6439C41.7196 22.2199 41.3516 23.7235 40.7743 25.2086C40.3362 26.3359 39.9498 27.4414 38.916 28.1823C38.5365 28.4526 38.1927 28.7759 37.8316 29.0761ZM24.2034 13.7417C23.9205 14.1225 23.326 14.8323 22.8281 15.6053C21.7103 17.3389 21.0962 19.1692 21.9575 21.2249C23.0189 23.7614 24.2425 26.191 26.4447 27.9602C27.7177 28.9829 29.154 29.6352 30.8053 29.779C32.9166 29.963 34.8221 29.3752 36.5264 28.1788C37.8787 27.2298 39.2863 26.3118 39.7325 24.5207C40.0498 23.2472 40.6317 22.0152 40.1971 20.6669C39.9797 19.994 39.376 19.2796 39.499 18.7021C39.698 17.7692 39.2023 17.1848 38.8803 16.5291C38.4905 15.7353 38.0432 14.8449 37.3647 14.3434C36.186 13.4737 34.875 12.6926 33.5043 12.191C30.3442 11.0326 27.2749 11.1879 24.2034 13.7417Z" fill="#EAEAEA"/>
<path d="M3.9392 19.3509C2.4707 18.0314 2.7743 15.351 4.42679 14.6355C5.00522 14.3847 5.22372 14.8713 5.20532 15.2901C5.19037 15.6421 4.97416 16.0205 4.75682 16.3219C4.24049 17.0398 3.75061 17.7369 4.00475 18.6986C4.05305 18.8827 3.9691 19.1001 3.9392 19.3509Z" fill="#EAEAEA"/>
<path d="M9.16186 29.1325C8.95601 29.1889 8.67195 29.3637 8.54431 29.2855C7.50934 28.6505 6.73543 27.7831 6.50314 26.5511C6.46519 26.3475 6.63422 25.931 6.76417 25.9069C6.97921 25.8655 7.35295 25.9908 7.46334 26.1692C8.04177 27.0986 8.55928 28.0661 9.16186 29.1325Z" fill="#EAEAEA"/>
<path d="M6.11845 21.2178C6.01726 21.9356 5.95629 22.4717 5.83784 22.9951C5.82979 23.0308 5.3882 22.9675 5.14786 22.9502C5.20076 22.4188 5.23183 21.8815 5.33417 21.3593C5.34912 21.2868 5.72057 21.2845 6.11845 21.2178Z" fill="#EAEAEA"/>
<path d="M36.8282 24.7953C36.6799 23.6012 37.5872 21.5697 38.4623 21.0083C39.1097 21.5616 38.9844 22.2553 38.6819 22.8754C38.2956 23.6714 37.9632 24.5859 36.8282 24.7953Z" fill="#EAEAEA"/>
<path d="M30.5391 27.1675C31.1819 26.8224 31.5786 26.5406 32.0202 26.3945C32.3065 26.3002 32.6585 26.4026 32.9804 26.4164C32.9425 26.8374 33.0172 27.5621 32.8482 27.6242C32.2237 27.8543 31.52 27.898 30.8427 27.921C30.7472 27.9245 30.6357 27.4183 30.5391 27.1675Z" fill="#EAEAEA"/>
<path d="M34.7166 27.0088C34.7994 26.5095 34.8627 26.1322 34.9248 25.7549C35.1824 25.8182 35.6228 25.8251 35.6631 25.9551C35.762 26.2749 35.7275 26.6683 35.6274 26.995C35.6033 27.0732 35.1111 27.0076 34.7166 27.0088Z" fill="#EAEAEA"/>
</svg>
