<svg width="192" height="72" viewBox="0 0 192 72" fill="none" xmlns="http://www.w3.org/2000/svg">
<g opacity="0.65">
<path d="M71.1009 49.8732C62.845 45.9062 59.3509 35.9637 63.3099 27.6836C71.5658 31.6506 75.0599 41.5931 71.1009 49.8732Z" fill="white"/>
<path d="M56.9315 66.2232C52.2449 58.3389 54.8231 48.1193 62.6919 43.4189C67.3784 51.303 64.8003 61.5229 56.9315 66.2232Z" fill="white"/>
<path d="M36.0998 71.9799C36.5485 62.8133 44.3377 55.7314 53.4864 56.1815C53.0377 65.3483 45.2485 72.4302 36.0998 71.9799Z" fill="white"/>
<path d="M15.5793 65.2224C21.0136 57.8362 31.4109 56.2587 38.7825 61.7089C33.3483 69.0951 22.9512 70.6726 15.5793 65.2224Z" fill="white"/>
<path d="M2.20839 48.2034C10.8121 45.0656 20.3431 49.5196 23.4746 58.1487C14.8706 61.2861 5.33988 56.8321 2.20839 48.2034Z" fill="white"/>
<path d="M0.468896 26.6162C9.36734 28.776 14.8472 37.7729 12.6918 46.6971C3.79338 44.5376 -1.68623 35.5407 0.468896 26.6162Z" fill="white"/>
<path d="M70.4589 22.4943C70.23 22.7327 70.0054 22.9756 69.7323 23.2668C69.2083 22.5915 68.7283 21.9645 68.2394 21.3333C67.6935 20.6268 67.143 19.9207 66.5925 19.2097C66.4032 18.9671 66.1786 18.8036 65.857 18.9537C65.4916 19.1214 65.4212 19.4572 65.6854 19.797C66.381 20.702 67.0814 21.5982 67.777 22.4986C68.0854 22.8916 68.3805 23.2888 68.7017 23.6686C68.8779 23.8803 68.8517 23.9952 68.6225 24.1364C68.4289 24.2555 68.2439 24.4058 68.0809 24.5647C67.852 24.781 67.7111 24.7722 67.5084 24.5073C66.5221 23.2139 65.5135 21.9425 64.5095 20.6623C64.2364 20.3134 63.9987 20.2694 63.6993 20.4945C63.4043 20.7197 63.3955 20.9712 63.6683 21.3244C64.6415 22.5826 65.6236 23.8406 66.6013 25.0945C66.6675 25.1826 66.7291 25.2709 66.826 25.4077C66.5087 25.6241 66.2225 25.8404 65.9098 26.017C65.8394 26.0567 65.6458 26.0081 65.5839 25.9333C64.2276 24.3175 62.8712 22.6972 61.5371 21.0641C60.7839 20.1413 60.7092 19.0906 61.0747 17.9958C61.1628 17.7354 61.2286 17.528 61.2771 17.3602C61.2375 17.3116 61.1979 17.2585 61.1671 17.2013C56.3802 9.06096 47.9162 3.84741 38.5186 3.26473C30.1076 2.74378 21.9606 6.06782 16.2754 12.0364C15.5665 12.7779 14.9014 13.5504 14.2805 14.3717C13.4307 15.4753 12.6599 16.6538 11.9817 17.89C11.7924 18.2298 11.5062 18.4727 11.1716 18.605C11.1716 18.6933 11.1716 18.7816 11.1758 18.8788C11.2069 19.6689 11.2773 20.4591 11.2112 21.2407C11.1012 22.5121 10.401 23.492 9.47169 24.313C8.67464 25.0148 7.81145 25.6329 6.77665 25.9156C6.2658 26.0567 5.71106 26.1627 5.18681 26.1362C4.284 26.0833 3.68079 25.43 3.50462 24.4719C3.49151 24.3881 3.48267 24.3087 3.46955 24.2335C3.33728 22.9181 3.65 21.6953 4.19163 20.5211C4.56165 19.7175 5.0152 18.9671 5.72417 18.4064C6.46849 17.8237 7.34907 17.5854 8.24761 17.3954C8.35308 17.3734 8.46312 17.3557 8.57344 17.3468C8.71854 17.3294 8.85509 17.3071 8.9828 17.2674C8.97396 17.1836 8.97396 17.0996 8.97852 17.0202C8.99164 16.7907 9.05349 16.5567 9.17664 16.3449C15.0291 5.70148 26.6243 -0.69087 38.717 0.0595564C44.816 0.435055 50.5673 2.5626 55.3542 6.07669C55.4115 6.11641 55.4685 6.15613 55.5258 6.20014C55.9443 6.50934 56.3537 6.83168 56.759 7.17146C57.393 7.68784 58.0096 8.23109 58.5997 8.80491C60.6474 10.7824 62.4442 13.0471 63.9282 15.5679C63.9721 15.6473 64.0075 15.7268 64.0383 15.8062C64.5272 15.8282 65.0204 15.8637 65.487 15.9828C66.249 16.1814 66.7157 16.8304 67.1607 17.4308C68.2835 18.9537 69.3668 20.5034 70.4766 22.0351C70.6086 22.216 70.6043 22.344 70.4589 22.4943Z" fill="white"/>
<path d="M134.049 42.5833C131.679 41.9817 130.241 39.5638 130.841 37.1865C133.211 37.7881 134.65 40.2062 134.049 42.5833Z" fill="white"/>
<path d="M134.448 40.2615C134.861 38.1791 136.883 36.8234 138.961 37.2375C138.548 39.3196 136.526 40.6753 134.448 40.2615Z" fill="white"/>
<path d="M180.833 57.9821C177.127 57.9821 174.647 56.3246 174.163 53.3526L177.469 52.4953C177.84 54.4957 179.18 55.1244 180.833 55.1244C182.487 55.1244 183.285 54.4671 183.285 53.5812C183.285 52.6953 182.572 52.2953 180.89 51.9809L180.092 51.838C177.127 51.2951 174.676 50.1806 174.676 47.3801C174.676 44.5795 176.899 43.0078 180.263 43.0078C183.427 43.0078 185.594 44.551 186.25 46.8371L182.914 47.8659C182.601 46.4085 181.631 45.8655 180.263 45.8655C178.895 45.8655 178.154 46.3799 178.154 47.2086C178.154 48.1231 178.952 48.4946 180.263 48.7232L181.061 48.8661C184.254 49.4376 186.763 50.352 186.763 53.324C186.763 56.296 184.425 57.9821 180.833 57.9821Z" fill="white"/>
<path d="M160.986 57.5824H157.394V43.4083H160.929V45.2658H161.442C161.898 44.2942 163.039 43.1797 165.576 43.1797C168.883 43.1797 171.078 45.6087 171.078 49.1237V57.5824H167.486V49.4094C167.486 47.2662 166.402 46.2088 164.464 46.2088C162.269 46.2088 160.986 47.752 160.986 50.381V57.5824Z" fill="white"/>
<path d="M146.667 57.9821C142.448 57.9821 139.255 55.2958 139.255 50.7235V50.2663C139.255 45.694 142.448 43.0078 146.667 43.0078C150.886 43.0078 154.079 45.694 154.079 50.2663V50.7235C154.079 55.2958 150.886 57.9821 146.667 57.9821ZM146.667 54.7815C148.862 54.7815 150.487 53.2955 150.487 50.6378V50.3521C150.487 47.6944 148.89 46.2084 146.667 46.2084C144.443 46.2084 142.847 47.6944 142.847 50.3521V50.6378C142.847 53.2955 144.472 54.7815 146.667 54.7815Z" fill="white"/>
<path d="M135.959 57.5823H132.367V43.4082H135.959V57.5823Z" fill="white"/>
<path d="M128.774 57.5827H124.783C122.901 57.5827 121.647 56.3253 121.647 54.3821V46.3806H118.112V43.4086H121.647V39.0078H125.239V43.4086H129.116V46.3806H125.239V53.7534C125.239 54.325 125.524 54.6107 126.037 54.6107H128.774V57.5827Z" fill="white"/>
<path d="M108.306 57.9821C105.284 57.9821 103.004 56.3532 103.004 53.4383C103.004 50.5235 105.284 49.0089 108.477 49.0089H112.354V48.2088C112.354 46.8943 111.556 45.9226 109.731 45.9226C107.935 45.9226 107.137 46.8371 106.881 48.1231L103.574 47.0086C104.258 44.8653 106.111 43.0078 109.788 43.0078C113.494 43.0078 115.832 44.9225 115.832 48.466V53.7527C115.832 54.3242 116.117 54.61 116.63 54.61H117.77V57.582H115.376C113.979 57.582 112.953 56.839 112.953 55.6959V55.6673H112.411C112.154 56.3817 111.271 57.9821 108.306 57.9821ZM108.933 55.0672C110.929 55.0672 112.354 53.867 112.354 51.9809V51.6952H108.733C107.394 51.6952 106.595 52.2953 106.595 53.324C106.595 54.3528 107.394 55.0672 108.933 55.0672Z" fill="white"/>
<path d="M88.7809 57.582H85.132V36.6924H93.0855C97.8176 36.6924 100.583 39.0928 100.583 43.2079C100.583 46.0084 99.2715 48.0088 96.8199 49.009L100.782 57.582H96.7914L93.2565 49.7806H88.7809V57.582ZM88.7809 39.9501V46.5514H93.0855C95.3945 46.5514 96.7629 45.3226 96.7629 43.2079C96.7629 41.1218 95.3945 39.9501 93.0855 39.9501H88.7809Z" fill="white"/>
<path d="M183.362 34.5493C179.97 34.5493 176.977 31.9203 176.977 27.2908V26.8336C176.977 22.2042 179.942 19.5751 183.362 19.5751C185.928 19.5751 187.154 20.6039 187.752 21.6041H188.266V14.1455H191.857V34.1493H188.323V32.4347H187.81C187.154 33.5206 185.928 34.5493 183.362 34.5493ZM184.446 31.4059C186.641 31.4059 188.323 29.9485 188.323 27.2051V26.9193C188.323 24.176 186.669 22.7185 184.446 22.7185C182.222 22.7185 180.569 24.176 180.569 26.9193V27.2051C180.569 29.9485 182.251 31.4059 184.446 31.4059Z" fill="white"/>
<path d="M167.651 34.5494C163.403 34.5494 160.524 31.6918 160.524 27.2338V26.8909C160.524 22.4329 163.375 19.5752 167.594 19.5752C171.756 19.5752 174.464 22.5472 174.464 26.8909V28.1197H164.173C164.258 30.0629 165.769 31.406 167.765 31.406C169.76 31.406 170.587 30.3772 171.072 29.2913L174.008 30.8345C173.21 32.349 171.528 34.5494 167.651 34.5494ZM164.201 25.4334H170.815C170.644 23.8046 169.418 22.7186 167.565 22.7186C165.627 22.7186 164.458 23.8046 164.201 25.4334Z" fill="white"/>
<path d="M147.234 34.1498H143.642V19.9757H147.177V21.8332H147.69C148.146 20.8616 149.286 19.7471 151.823 19.7471C155.13 19.7471 157.325 22.1761 157.325 25.691V34.1498H153.733V25.9768C153.733 23.8335 152.65 22.7762 150.712 22.7762C148.517 22.7762 147.234 24.3194 147.234 26.9484V34.1498Z" fill="white"/>
<path d="M129.668 34.1498H126.076V19.9757H129.611V21.8332H130.124C130.58 20.8616 131.72 19.7471 134.257 19.7471C137.564 19.7471 139.759 22.1761 139.759 25.691V34.1498H136.167V25.9768C136.167 23.8335 135.084 22.7762 133.145 22.7762C130.95 22.7762 129.668 24.3194 129.668 26.9484V34.1498Z" fill="white"/>
<path d="M113.985 34.5494C110.963 34.5494 108.683 32.9206 108.683 30.0057C108.683 27.0909 110.963 25.5763 114.156 25.5763H118.033V24.7762C118.033 23.4616 117.235 22.49 115.41 22.49C113.614 22.49 112.816 23.4045 112.56 24.6904L109.253 23.5759C109.937 21.4327 111.79 19.5752 115.467 19.5752C119.173 19.5752 121.511 21.4898 121.511 25.0334V30.3201C121.511 30.8916 121.796 31.1774 122.309 31.1774H123.449V34.1494H121.055C119.658 34.1494 118.632 33.4064 118.632 32.2633V32.2347H118.09C117.833 32.9491 116.95 34.5494 113.985 34.5494ZM114.612 31.6346C116.608 31.6346 118.033 30.4344 118.033 28.5483V28.2625H114.413C113.073 28.2625 112.275 28.8626 112.275 29.8914C112.275 30.9202 113.073 31.6346 114.612 31.6346Z" fill="white"/>
<path d="M105.615 34.1493H102.023V14.1455H105.615V34.1493Z" fill="white"/>
<path d="M88.4673 34.1493H84.7044V14.1455H92.9144C96.6773 14.1455 99.3 16.546 99.3 20.2895V20.6896C99.3 24.4332 96.5633 26.8336 92.9144 26.8336H88.4673V34.1493ZM88.4673 17.5747V23.4044H92.5438C94.3113 23.4044 95.5371 22.3471 95.5371 20.6324V20.3467C95.5371 18.6321 94.3398 17.5747 92.5438 17.5747H88.4673Z" fill="white"/>
<path d="M191.857 14.1458H188.266V21.6044H187.753L187.694 21.5103C187.096 20.5722 185.926 19.6377 183.599 19.5785L183.362 19.5754C179.942 19.5754 176.977 22.2045 176.977 26.8339V27.2911L176.979 27.5066C177.069 31.9306 179.93 34.4685 183.204 34.5479L183.362 34.5497C185.928 34.5497 187.154 33.5209 187.81 32.435H188.323V34.1496H191.857V14.1458ZM188.18 27.2054V26.9196C188.18 25.5771 187.776 24.5655 187.116 23.8905C186.456 23.2152 185.526 22.8617 184.446 22.8617C183.365 22.8617 182.435 23.2152 181.775 23.8905C181.116 24.5655 180.711 25.5771 180.711 26.9196V27.2054C180.711 28.5474 181.122 29.5587 181.786 30.2343C182.45 30.9101 183.38 31.2633 184.446 31.2633V31.4062L184.343 31.4051C182.232 31.361 180.621 29.9516 180.57 27.3329L180.569 27.2054V26.9196C180.569 24.1763 182.222 22.7189 184.446 22.7189L184.549 22.72C186.721 22.7649 188.323 24.2191 188.323 26.9196V27.2054L188.321 27.3329C188.27 29.9939 186.607 31.4062 184.446 31.4062V31.2633C185.511 31.2633 186.442 30.9101 187.106 30.2343C187.769 29.5587 188.18 28.5474 188.18 27.2054ZM192 34.2925H188.18V32.5778H187.888C187.552 33.1139 187.075 33.6343 186.371 34.0244C185.637 34.4313 184.664 34.6925 183.362 34.6925C181.629 34.6925 179.995 34.0204 178.794 32.7547C177.593 31.4888 176.834 29.6376 176.834 27.2911V26.8339C176.834 24.488 177.586 22.6366 178.783 21.3703C179.98 20.1046 181.615 19.4325 183.362 19.4325C185.916 19.4325 187.191 20.4384 187.832 21.4615H188.123V14.0029H192V34.2925Z" fill="white"/>
<path d="M174.464 28.12V26.8912C174.464 22.6152 171.84 19.6689 167.788 19.5778L167.594 19.5755C163.375 19.5755 160.524 22.4332 160.524 26.8912V27.2341L160.526 27.4418C160.613 31.7118 163.38 34.4614 167.453 34.5477L167.651 34.5497C171.528 34.5497 173.21 32.3493 174.008 30.8348L171.072 29.2916C170.587 30.3775 169.76 31.4063 167.765 31.4063V31.2634C168.737 31.2634 169.411 31.0136 169.899 30.6424C170.389 30.2695 170.704 29.7648 170.942 29.2333L171.004 29.0947L174.201 30.7747L174.134 30.9016C173.729 31.6698 173.096 32.6188 172.068 33.3755C171.038 34.1337 169.618 34.6926 167.651 34.6926C165.494 34.6926 163.674 33.9665 162.393 32.664C161.112 31.3614 160.382 29.4945 160.382 27.2341V26.8912C160.382 24.631 161.105 22.7644 162.375 21.4619C163.645 20.159 165.451 19.4326 167.594 19.4326C169.71 19.4326 171.467 20.1893 172.694 21.507C173.92 22.8238 174.607 24.6896 174.607 26.8912V28.2629H164.325C164.476 30.042 165.89 31.2634 167.765 31.2634V31.4063L167.579 31.4026C165.676 31.322 164.256 30.0026 164.173 28.12H174.464ZM167.737 22.7221C169.494 22.7872 170.649 23.8557 170.815 25.4337H164.201C164.458 23.8049 165.627 22.7189 167.565 22.7189L167.737 22.7221ZM167.565 22.8618C166.623 22.8618 165.881 23.1253 165.344 23.5751C164.846 23.9929 164.516 24.5799 164.372 25.2909H170.653C170.545 24.5807 170.222 23.9932 169.729 23.5745C169.199 23.1247 168.464 22.8618 167.565 22.8618Z" fill="white"/>
<path d="M157.325 25.6904C157.325 22.2306 155.198 19.8227 151.978 19.7481L151.823 19.7464C149.286 19.7464 148.146 20.8609 147.69 21.8325H147.177V19.975H143.642V34.1491H147.234V26.9477C147.234 24.3187 148.517 22.7755 150.712 22.7755L150.891 22.7787C152.717 22.8427 153.733 23.9 153.733 25.9761V34.1491H157.325V25.6904ZM147.319 21.6896H147.601C148.107 20.686 149.305 19.6035 151.823 19.6035C153.514 19.6035 154.928 20.2253 155.919 21.3036C156.909 22.3806 157.468 23.9032 157.468 25.6904V34.292H153.591V25.9761C153.591 24.9271 153.326 24.1681 152.847 23.6714C152.369 23.1756 151.656 22.9184 150.712 22.9184C149.65 22.9184 148.823 23.2899 148.259 23.9672C147.692 24.6479 147.376 25.6546 147.376 26.9477V34.292H143.499V19.8321H147.319V21.6896Z" fill="white"/>
<path d="M139.759 25.6904C139.759 22.2306 137.632 19.8227 134.411 19.7481L134.257 19.7464C131.72 19.7464 130.58 20.8609 130.124 21.8325H129.611V19.975H126.076V34.1491H129.668V26.9477C129.668 24.3187 130.95 22.7755 133.145 22.7755L133.325 22.7787C135.151 22.8427 136.167 23.9 136.167 25.9761V34.1491H139.759V25.6904ZM129.753 21.6896H130.035C130.541 20.686 131.739 19.6035 134.257 19.6035C135.947 19.6035 137.362 20.2253 138.353 21.3036C139.343 22.3806 139.902 23.9032 139.902 25.6904V34.292H136.025V25.9761C136.025 24.9271 135.76 24.1681 135.281 23.6714C134.803 23.1756 134.09 22.9184 133.145 22.9184C132.084 22.9184 131.257 23.2899 130.693 23.9672C130.126 24.6479 129.81 25.6546 129.81 26.9477V34.292H125.933V19.8321H129.753V21.6896Z" fill="white"/>
<path d="M108.54 30.006C108.54 28.5069 109.129 27.3561 110.136 26.5845C111.137 25.817 112.54 25.4337 114.156 25.4337V25.5766L114.007 25.5778C110.893 25.6244 108.683 27.1366 108.683 30.006L108.684 30.1418C108.753 32.9266 110.94 34.4992 113.844 34.5486L113.985 34.5497C116.95 34.5497 117.833 32.9494 118.09 32.235H118.632V32.2636L118.635 32.3696C118.694 33.4172 119.638 34.1042 120.925 34.1474L121.055 34.1497H123.449V31.1777H122.309V31.0348H123.592V34.2925H121.055C120.333 34.2925 119.694 34.1005 119.233 33.749C118.798 33.4172 118.525 32.9457 118.492 32.3779H118.188C118.039 32.754 117.739 33.3035 117.141 33.773C116.489 34.2848 115.495 34.6926 113.985 34.6926C112.451 34.6926 111.09 34.2791 110.111 33.4818C109.128 32.682 108.54 31.5046 108.54 30.006ZM117.891 28.5486V28.4057H114.413C113.762 28.4057 113.262 28.552 112.927 28.8055C112.598 29.055 112.417 29.4188 112.417 29.8917C112.417 30.3655 112.599 30.7585 112.954 31.0365C113.313 31.318 113.862 31.492 114.612 31.492V31.6349L114.47 31.6326C113.071 31.5912 112.324 30.9331 112.277 29.9875L112.275 29.8917C112.275 28.895 113.024 28.3009 114.289 28.2646L114.413 28.2629H118.033V28.5486L118.029 28.7235C117.943 30.5084 116.545 31.6349 114.612 31.6349V31.492C115.582 31.492 116.402 31.2005 116.977 30.6919C117.55 30.1849 117.891 29.4531 117.891 28.5486ZM117.891 24.7765C117.891 24.1484 117.701 23.6183 117.308 23.2442C116.914 22.8696 116.298 22.6332 115.411 22.6332C114.537 22.6332 113.924 22.8553 113.5 23.217C113.076 23.5797 112.824 24.0966 112.7 24.7187L112.668 24.8779L109.208 23.7117L109.074 23.6668L109.117 23.5328C109.467 22.4366 110.118 21.409 111.154 20.6563C112.191 19.9036 113.604 19.4326 115.467 19.4326C117.343 19.4326 118.892 19.9173 119.973 20.8683C121.057 21.8219 121.653 23.2288 121.653 25.0337V30.3204C121.653 30.5838 121.719 30.7576 121.821 30.865C121.922 30.9711 122.078 31.0348 122.309 31.0348V31.1777L122.216 31.1743C121.792 31.1428 121.545 30.8931 121.514 30.4241L121.511 30.3204V25.0337C121.511 21.5456 119.246 19.6358 115.64 19.5769L115.467 19.5755C111.79 19.5755 109.937 21.433 109.253 23.5763L112.56 24.6907C112.817 23.4048 113.615 22.4903 115.411 22.4903L115.579 22.4932C117.284 22.5515 118.033 23.5031 118.033 24.7765V25.5766H114.156V25.4337H117.891V24.7765Z" fill="white"/>
<path d="M105.615 14.1458H102.023V34.1496H105.615V14.1458ZM105.757 34.2925H101.88V14.0029H105.757V34.2925Z" fill="white"/>
<path d="M99.3 20.6899V20.2898C99.3 16.6048 96.7589 14.221 93.09 14.1475L92.9147 14.1458V14.0029C94.8264 14.0029 96.4598 14.6133 97.6163 15.7104C98.7737 16.8083 99.4425 18.3832 99.4425 20.2898V20.6899C99.4425 22.5985 98.7441 24.1731 97.573 25.2702C96.4028 26.3661 94.7702 26.9768 92.9147 26.9768H88.6099V34.2925H84.5619V14.0029H92.9147V14.1458H84.7044V34.1496H88.4673V26.8339H92.9147L93.0849 26.8322C96.5918 26.7596 99.2156 24.45 99.298 20.8645L99.3 20.6899ZM95.3945 20.6327V20.347C95.3945 19.5248 95.1086 18.8721 94.618 18.4238C94.1259 17.974 93.4144 17.7179 92.5438 17.7179H88.6099V23.2618H92.5438V23.4047H88.4673V17.575H92.5438C94.3397 17.575 95.537 18.6324 95.537 20.347V20.6327L95.5336 20.7916C95.4601 22.4125 94.2559 23.4047 92.5438 23.4047V23.2618C93.3996 23.2618 94.1117 23.006 94.6077 22.556C95.1023 22.107 95.3945 21.454 95.3945 20.6327Z" fill="white"/>
</g>
</svg>
