<svg width="129" height="49" viewBox="0 0 129 49" fill="none" xmlns="http://www.w3.org/2000/svg">
<path d="M47.6862 33.3674C42.1491 30.7133 39.8057 24.0613 42.4609 18.5216C47.998 21.1757 50.3414 27.8276 47.6862 33.3674Z" fill="#F9A720"/>
<path d="M38.183 44.3064C35.0398 39.0314 36.769 32.194 42.0464 29.0493C45.1896 34.3241 43.4605 41.1617 38.183 44.3064Z" fill="#F9A720"/>
<path d="M24.2115 48.1576C24.5124 42.0247 29.7366 37.2866 35.8725 37.5878C35.5715 43.7208 30.3474 48.4589 24.2115 48.1576Z" fill="#F9A720"/>
<path d="M10.4488 43.6365C14.0935 38.6947 21.0668 37.6394 26.0108 41.2858C22.3661 46.2275 15.393 47.2829 10.4488 43.6365Z" fill="#F9A720"/>
<path d="M1.48112 32.2502C7.25147 30.151 13.6438 33.1309 15.744 38.9041C9.97347 41.0032 3.58136 38.0233 1.48112 32.2502Z" fill="#F9A720"/>
<path d="M0.314483 17.8073C6.28252 19.2523 9.9578 25.2716 8.5122 31.2423C2.54416 29.7975 -1.13092 23.7782 0.314483 17.8073Z" fill="#F9A720"/>
<path d="M47.2556 15.0497C47.1021 15.2092 46.9514 15.3717 46.7683 15.5665C46.4169 15.1147 46.0949 14.6952 45.767 14.2729C45.4009 13.8003 45.0317 13.3278 44.6625 12.8522C44.5355 12.6898 44.3849 12.5805 44.1692 12.6808C43.9241 12.7931 43.8769 13.0177 44.0541 13.2451C44.5206 13.8506 44.9904 14.4501 45.4569 15.0526C45.6638 15.3155 45.8616 15.5812 46.0771 15.8353C46.1953 15.977 46.1777 16.0538 46.024 16.1483C45.8941 16.228 45.7701 16.3286 45.6607 16.4349C45.5072 16.5796 45.4127 16.5737 45.2768 16.3965C44.6153 15.5311 43.9388 14.6805 43.2654 13.824C43.0823 13.5905 42.9228 13.5611 42.7221 13.7118C42.5242 13.8624 42.5183 14.0307 42.7012 14.267C43.354 15.1088 44.0126 15.9504 44.6684 16.7894C44.7128 16.8482 44.7541 16.9073 44.8191 16.9989C44.6063 17.1436 44.4143 17.2884 44.2046 17.4065C44.1574 17.4331 44.0275 17.4006 43.986 17.3505C43.0764 16.2695 42.1667 15.1855 41.2719 14.0928C40.7668 13.4754 40.7167 12.7724 40.9618 12.04C41.0209 11.8658 41.065 11.727 41.0975 11.6148C41.071 11.5823 41.0444 11.5467 41.0237 11.5085C37.8132 6.06218 32.1366 2.57409 25.8338 2.18425C20.1927 1.83571 14.7286 4.05964 10.9157 8.05287C10.4402 8.54901 9.99412 9.0658 9.57771 9.61528C9.00777 10.3537 8.49079 11.1421 8.03594 11.9692C7.90899 12.1966 7.71703 12.3591 7.49258 12.4476C7.49258 12.5067 7.49257 12.5657 7.49544 12.6308C7.51628 13.1594 7.56351 13.688 7.51915 14.211C7.44535 15.0616 6.97579 15.7172 6.3525 16.2665C5.81793 16.736 5.239 17.1496 4.54498 17.3387C4.20236 17.4331 3.83031 17.504 3.4787 17.4863C2.8732 17.4509 2.46864 17.0138 2.35048 16.3728C2.34169 16.3167 2.33576 16.2636 2.32697 16.2133C2.23825 15.3332 2.44799 14.5151 2.81125 13.7295C3.05942 13.1919 3.36361 12.6898 3.8391 12.3147C4.3383 11.9249 4.92889 11.7654 5.53153 11.6383C5.60227 11.6236 5.67607 11.6117 5.75006 11.6058C5.84737 11.5941 5.93895 11.5792 6.02461 11.5526C6.01868 11.4966 6.01868 11.4404 6.02174 11.3872C6.03054 11.2337 6.07202 11.0771 6.15462 10.9355C10.0798 3.81454 17.8565 -0.462223 25.9668 0.0398459C30.0574 0.291071 33.9147 1.71449 37.1251 4.06557C37.1636 4.09215 37.2018 4.11872 37.2402 4.14817C37.5209 4.35504 37.7955 4.5707 38.0673 4.79803C38.4925 5.14351 38.9061 5.50696 39.3019 5.89088C40.6752 7.21392 41.8803 8.72911 42.8756 10.4156C42.905 10.4688 42.9288 10.5219 42.9494 10.5751C43.2773 10.5898 43.6081 10.6135 43.921 10.6932C44.4321 10.8261 44.7451 11.2603 45.0435 11.662C45.7966 12.6808 46.5232 13.7177 47.2675 14.7425C47.356 14.8635 47.3531 14.9491 47.2556 15.0497Z" fill="#F9A720"/>
<path d="M89.9045 28.4899C88.3147 28.0874 87.3502 26.4698 87.7528 24.8792C89.3426 25.2817 90.3073 26.8996 89.9045 28.4899Z" fill="#F9A720"/>
<path d="M90.1721 26.9365C90.449 25.5432 91.8049 24.6362 93.1987 24.9133C92.9219 26.3063 91.5659 27.2133 90.1721 26.9365Z" fill="#F9A720"/>
<path d="M121.282 38.7928C118.796 38.7928 117.133 37.6839 116.808 35.6955L119.026 35.122C119.274 36.4603 120.173 36.8809 121.282 36.8809C122.391 36.8809 122.926 36.4412 122.926 35.8485C122.926 35.2558 122.448 34.9881 121.32 34.7778L120.785 34.6822C118.796 34.319 117.152 33.5733 117.152 31.6996C117.152 29.8259 118.643 28.7744 120.899 28.7744C123.022 28.7744 124.475 29.8068 124.914 31.3364L122.678 32.0247C122.467 31.0496 121.817 30.6863 120.899 30.6863C119.982 30.6863 119.485 31.0305 119.485 31.5849C119.485 32.1967 120.02 32.4453 120.899 32.5982L121.435 32.6938C123.576 33.0762 125.259 33.688 125.259 35.6764C125.259 37.6648 123.691 38.7928 121.282 38.7928Z" fill="#9E78F6"/>
<path d="M107.971 38.5252H105.562V29.0421H107.932V30.2848H108.277C108.583 29.6348 109.347 28.8891 111.049 28.8891C113.267 28.8891 114.739 30.5143 114.739 32.8659V38.5252H112.33V33.0571C112.33 31.6232 111.603 30.9158 110.303 30.9158C108.831 30.9158 107.971 31.9482 107.971 33.7072V38.5252Z" fill="#9E78F6"/>
<path d="M98.367 38.7928C95.5374 38.7928 93.396 36.9956 93.396 33.9366V33.6307C93.396 30.5716 95.5374 28.7744 98.367 28.7744C101.197 28.7744 103.338 30.5716 103.338 33.6307V33.9366C103.338 36.9956 101.197 38.7928 98.367 38.7928ZM98.367 36.6515C99.8392 36.6515 100.929 35.6573 100.929 33.8792V33.688C100.929 31.9099 99.8583 30.9157 98.367 30.9157C96.8757 30.9157 95.805 31.9099 95.805 33.688V33.8792C95.805 35.6573 96.8948 36.6515 98.367 36.6515Z" fill="#9E78F6"/>
<path d="M91.1855 38.5251H88.7765V29.0421H91.1855V38.5251Z" fill="#9E78F6"/>
<path d="M86.3663 38.5252H83.6896C82.4278 38.5252 81.5865 37.6839 81.5865 36.3838V31.0305H79.2157V29.0421H81.5865V26.0977H83.9955V29.0421H86.5957V31.0305H83.9955V35.9632C83.9955 36.3456 84.1867 36.5368 84.5309 36.5368H86.3663V38.5252Z" fill="#9E78F6"/>
<path d="M72.6389 38.7928C70.6123 38.7928 69.0828 37.703 69.0828 35.7529C69.0828 33.8027 70.6123 32.7894 72.7537 32.7894H75.3539V32.2541C75.3539 31.3746 74.8185 30.7246 73.5949 30.7246C72.3904 30.7246 71.8551 31.3364 71.683 32.1967L69.4652 31.4511C69.924 30.0171 71.1668 28.7744 73.6331 28.7744C76.1186 28.7744 77.6864 30.0554 77.6864 32.4261V35.9632C77.6864 36.3456 77.8776 36.5368 78.2217 36.5368H78.9865V38.5252H77.3805C76.4437 38.5252 75.7554 38.0281 75.7554 37.2633V37.2442H75.3921C75.22 37.7222 74.6273 38.7928 72.6389 38.7928ZM73.0596 36.8427C74.3979 36.8427 75.3539 36.0397 75.3539 34.7778V34.5866H72.9257C72.0271 34.5866 71.4918 34.9881 71.4918 35.6764C71.4918 36.3647 72.0271 36.8427 73.0596 36.8427Z" fill="#9E78F6"/>
<path d="M59.5439 38.5251H57.0966V24.5491H62.4309C65.6046 24.5491 67.4592 26.1551 67.4592 28.9082C67.4592 30.7819 66.5797 32.1202 64.9355 32.7894L67.593 38.5251H64.9163L62.5456 33.3056H59.5439V38.5251ZM59.5439 26.7286V31.1452H62.4309C63.9795 31.1452 64.8972 30.323 64.8972 28.9082C64.8972 27.5125 63.9795 26.7286 62.4309 26.7286H59.5439Z" fill="#9E78F6"/>
<path d="M122.978 23.1151C120.703 23.1151 118.695 21.3562 118.695 18.2589V17.953C118.695 14.8557 120.684 13.0967 122.978 13.0967C124.699 13.0967 125.521 13.785 125.922 14.4542H126.267V9.46407H128.676V22.8475H126.305V21.7003H125.961C125.521 22.4268 124.699 23.1151 122.978 23.1151ZM123.705 21.012C125.177 21.012 126.305 20.037 126.305 18.2015V18.0103C126.305 16.1749 125.196 15.1998 123.705 15.1998C122.213 15.1998 121.104 16.1749 121.104 18.0103V18.2015C121.104 20.037 122.232 21.012 123.705 21.012Z" fill="#9E78F6"/>
<path d="M112.441 23.1151C109.592 23.1151 107.661 21.2032 107.661 18.2206V17.9912C107.661 15.0086 109.573 13.0967 112.402 13.0967C115.194 13.0967 117.01 15.0851 117.01 17.9912V18.8133H110.108C110.165 20.1134 111.179 21.012 112.517 21.012C113.855 21.012 114.41 20.3237 114.735 19.5972L116.704 20.6297C116.169 21.643 115.041 23.1151 112.441 23.1151ZM110.127 17.0161H114.563C114.448 15.9263 113.626 15.1998 112.383 15.1998C111.083 15.1998 110.299 15.9263 110.127 17.0161Z" fill="#9E78F6"/>
<path d="M98.7473 22.8475H96.3383V13.3644H98.709V14.6071H99.0532C99.3591 13.9571 100.124 13.2114 101.825 13.2114C104.043 13.2114 105.515 14.8366 105.515 17.1882V22.8475H103.106V17.3794C103.106 15.9455 102.38 15.2381 101.08 15.2381C99.6076 15.2381 98.7473 16.2705 98.7473 18.0295V22.8475Z" fill="#9E78F6"/>
<path d="M86.9659 22.8475H84.5569V13.3644H86.9276V14.6071H87.2718C87.5777 13.9571 88.3425 13.2114 90.0441 13.2114C92.2619 13.2114 93.7341 14.8366 93.7341 17.1882V22.8475H91.325V17.3794C91.325 15.9455 90.5985 15.2381 89.2984 15.2381C87.8262 15.2381 86.9659 16.2705 86.9659 18.0295V22.8475Z" fill="#9E78F6"/>
<path d="M76.4479 23.1151C74.4212 23.1151 72.8917 22.0253 72.8917 20.0752C72.8917 18.125 74.4212 17.1117 76.5626 17.1117H79.1628V16.5764C79.1628 15.6969 78.6274 15.0469 77.4038 15.0469C76.1993 15.0469 75.664 15.6587 75.4919 16.519L73.2741 15.7734C73.733 14.3395 74.9757 13.0967 77.4421 13.0967C79.9275 13.0967 81.4953 14.3777 81.4953 16.7485V20.2855C81.4953 20.6679 81.6865 20.8591 82.0307 20.8591H82.7954V22.8475H81.1894C80.2526 22.8475 79.5643 22.3504 79.5643 21.5856V21.5665H79.201C79.029 22.0445 78.4363 23.1151 76.4479 23.1151ZM76.8685 21.165C78.2068 21.165 79.1628 20.362 79.1628 19.1001V18.9089H76.7346C75.8361 18.9089 75.3007 19.3104 75.3007 19.9987C75.3007 20.687 75.8361 21.165 76.8685 21.165Z" fill="#9E78F6"/>
<path d="M70.8341 22.8475H68.4251V9.46407H70.8341V22.8475Z" fill="#9E78F6"/>
<path d="M59.3336 22.8475H56.8098V9.46407H62.3161C64.8399 9.46407 66.5988 11.0701 66.5988 13.5747V13.8424C66.5988 16.347 64.7634 17.953 62.3161 17.953H59.3336V22.8475ZM59.3336 11.7584V15.6587H62.0676C63.253 15.6587 64.0751 14.9513 64.0751 13.8041V13.6129C64.0751 12.4658 63.2721 11.7584 62.0676 11.7584H59.3336Z" fill="#9E78F6"/>
<path d="M128.676 9.46407H126.267V14.4542H125.922L125.883 14.3913C125.482 13.7636 124.698 13.1384 123.137 13.0988L122.978 13.0967C120.684 13.0967 118.695 14.8557 118.695 17.953V18.2589L118.697 18.403C118.757 21.3629 120.676 23.0608 122.872 23.114L122.978 23.1151C124.699 23.1151 125.521 22.4268 125.961 21.7003H126.305V22.8475H128.676V9.46407ZM126.209 18.2015V18.0103C126.209 17.1121 125.938 16.4353 125.496 15.9837C125.053 15.5319 124.429 15.2954 123.705 15.2954C122.98 15.2954 122.356 15.5319 121.914 15.9837C121.471 16.4353 121.2 17.1121 121.2 18.0103V18.2015C121.2 19.0994 121.476 19.776 121.921 20.228C122.366 20.6801 122.99 20.9164 123.705 20.9164V21.012L123.636 21.0113C122.22 20.9818 121.139 20.0389 121.105 18.2868L121.104 18.2015V18.0103C121.104 16.1749 122.213 15.1998 123.705 15.1998L123.774 15.2006C125.23 15.2306 126.305 16.2036 126.305 18.0103V18.2015L126.304 18.2868C126.269 20.0672 125.154 21.012 123.705 21.012V20.9164C124.419 20.9164 125.043 20.6801 125.489 20.228C125.934 19.776 126.209 19.0994 126.209 18.2015ZM128.771 22.9431H126.209V21.7959H126.014C125.788 22.1546 125.468 22.5028 124.996 22.7637C124.504 23.036 123.851 23.2107 122.978 23.2107C121.815 23.2107 120.719 22.7611 119.914 21.9143C119.109 21.0673 118.6 19.8287 118.6 18.2589V17.953C118.6 16.3835 119.104 15.1447 119.907 14.2976C120.71 13.4508 121.806 13.0011 122.978 13.0011C124.691 13.0011 125.546 13.6741 125.976 14.3586H126.171V9.36847H128.771V22.9431Z" fill="#9E78F6"/>
<path d="M117.01 18.8133V17.9912C117.01 15.1304 115.25 13.1592 112.533 13.0982L112.403 13.0967C109.573 13.0967 107.661 15.0086 107.661 17.9912V18.2206L107.662 18.3596C107.72 21.2164 109.576 23.0561 112.308 23.1138L112.441 23.1151C115.041 23.1151 116.169 21.643 116.704 20.6297L114.735 19.5972C114.41 20.3237 113.855 21.012 112.517 21.012V20.9164C113.169 20.9164 113.621 20.7493 113.948 20.501C114.277 20.2515 114.489 19.9138 114.648 19.5582L114.689 19.4655L116.833 20.5895L116.789 20.6744C116.517 21.1883 116.093 21.8233 115.403 22.3295C114.712 22.8368 113.76 23.2107 112.441 23.2107C110.994 23.2107 109.773 22.7249 108.914 21.8535C108.055 20.982 107.565 19.733 107.565 18.2206V17.9912C107.565 16.4791 108.05 15.2302 108.902 14.3588C109.754 13.4871 110.966 13.0011 112.403 13.0011C113.822 13.0011 115 13.5074 115.823 14.389C116.645 15.27 117.106 16.5183 117.106 17.9912V18.9089H110.21C110.311 20.0993 111.26 20.9164 112.517 20.9164V21.012L112.393 21.0096C111.116 20.9556 110.164 20.0729 110.108 18.8133H117.01ZM112.499 15.2019C113.677 15.2455 114.452 15.9604 114.563 17.0161H110.127C110.299 15.9263 111.083 15.1998 112.383 15.1998L112.499 15.2019ZM112.383 15.2954C111.751 15.2954 111.253 15.4717 110.894 15.7726C110.559 16.0521 110.338 16.4449 110.242 16.9205H114.454C114.382 16.4454 114.165 16.0523 113.834 15.7722C113.479 15.4713 112.986 15.2954 112.383 15.2954Z" fill="#9E78F6"/>
<path d="M105.515 17.1882C105.515 14.8735 104.089 13.2625 101.929 13.2126L101.825 13.2114C100.124 13.2114 99.3591 13.9571 99.0532 14.6071H98.709V13.3644H96.3383V22.8475H98.7473V18.0295C98.7473 16.2705 99.6076 15.2381 101.08 15.2381L101.2 15.2402C102.425 15.283 103.106 15.9904 103.106 17.3794V22.8475H105.515V17.1882ZM98.8046 14.5115H98.9937C99.3331 13.8401 100.136 13.1158 101.825 13.1158C102.959 13.1158 103.908 13.5319 104.572 14.2532C105.237 14.9738 105.611 15.9925 105.611 17.1882V22.9431H103.011V17.3794C103.011 16.6775 102.833 16.1697 102.512 15.8375C102.191 15.5057 101.713 15.3337 101.08 15.3337C100.368 15.3337 99.8132 15.5822 99.4348 16.0353C99.0545 16.4908 98.8429 17.1643 98.8429 18.0295V22.9431H96.2427V13.2688H98.8046V14.5115Z" fill="#9E78F6"/>
<path d="M93.7341 17.1882C93.7341 14.8735 92.3076 13.2625 90.1475 13.2126L90.0441 13.2114C88.3425 13.2114 87.5777 13.9571 87.2718 14.6071H86.9276V13.3644H84.5569V22.8475H86.9659V18.0295C86.9659 16.2705 87.8262 15.2381 89.2984 15.2381L89.4187 15.2402C90.6433 15.283 91.325 15.9904 91.325 17.3794V22.8475H93.7341V17.1882ZM87.0232 14.5115H87.2123C87.5517 13.8401 88.3549 13.1158 90.0441 13.1158C91.1774 13.1158 92.1261 13.5319 92.7909 14.2532C93.4551 14.9738 93.8297 15.9925 93.8297 17.1882V22.9431H91.2294V17.3794C91.2294 16.6775 91.0516 16.1697 90.7304 15.8375C90.4098 15.5057 89.9316 15.3337 89.2984 15.3337C88.5864 15.3337 88.0318 15.5822 87.6534 16.0353C87.2731 16.4908 87.0615 17.1643 87.0615 18.0295V22.9431H84.4613V13.2688H87.0232V14.5115Z" fill="#9E78F6"/>
<path d="M72.7961 20.0752C72.7961 19.0722 73.1911 18.3023 73.8662 17.7861C74.5381 17.2725 75.4785 17.0161 76.5626 17.0161V17.1117L76.4628 17.1125C74.3738 17.1437 72.8917 18.1554 72.8917 20.0752L72.8929 20.166C72.9389 22.0292 74.4054 23.0813 76.3534 23.1144L76.4481 23.1151C78.4365 23.1151 79.029 22.0445 79.201 21.5665H79.5645V21.5856L79.5664 21.6565C79.6064 22.3574 80.239 22.8171 81.1024 22.8459L81.1896 22.8475H82.7954V20.8591H82.0307V20.7635H82.891V22.9431H81.1896C80.7051 22.9431 80.2771 22.8146 79.9677 22.5794C79.6758 22.3574 79.4926 22.042 79.4708 21.6621H79.2664C79.1666 21.9137 78.9658 22.2814 78.5645 22.5955C78.1271 22.9379 77.4602 23.2107 76.4481 23.2107C75.4187 23.2107 74.5063 22.9341 73.8496 22.4007C73.1905 21.8655 72.7961 21.0778 72.7961 20.0752ZM79.0672 19.1001V19.0045H76.7348C76.2982 19.0045 75.9626 19.1024 75.7386 19.272C75.5179 19.4389 75.3965 19.6823 75.3965 19.9987C75.3965 20.3157 75.5185 20.5786 75.7565 20.7646C75.9972 20.953 76.3657 21.0694 76.8685 21.0694V21.165L76.7733 21.1635C75.8345 21.1357 75.3338 20.6954 75.3024 20.0628L75.3009 19.9987C75.3009 19.3318 75.8032 18.9344 76.6515 18.9101L76.7348 18.9089H79.1628V19.1001L79.1599 19.2171C79.1026 20.4113 78.165 21.165 76.8685 21.165V21.0694C77.5189 21.0694 78.0688 20.8744 78.4544 20.5341C78.8389 20.1949 79.0672 19.7052 79.0672 19.1001ZM79.0672 16.5764C79.0672 16.1562 78.9399 15.8015 78.6764 15.5512C78.4125 15.3006 77.9994 15.1425 77.404 15.1425C76.818 15.1425 76.4071 15.291 76.1228 15.5331C75.838 15.7757 75.669 16.1215 75.5858 16.5378L75.5646 16.6443L73.2437 15.864L73.1544 15.834L73.1833 15.7443C73.4179 15.0109 73.854 14.3234 74.5491 13.8198C75.2445 13.3162 76.1924 13.0011 77.4421 13.0011C78.7003 13.0011 79.7388 13.3254 80.464 13.9617C81.1909 14.5997 81.5909 15.5409 81.5909 16.7485V20.2855C81.5909 20.4618 81.6351 20.578 81.7033 20.6499C81.7708 20.7208 81.876 20.7635 82.0307 20.7635V20.8591L81.9679 20.8568C81.6836 20.8358 81.5184 20.6687 81.4976 20.3549L81.4953 20.2855V16.7485C81.4953 14.4148 79.9763 13.137 77.5581 13.0977L77.4421 13.0967C74.9757 13.0967 73.7329 14.3395 73.2741 15.7734L75.4921 16.519C75.6642 15.6587 76.1995 15.0469 77.404 15.0469L77.5166 15.0488C78.6605 15.0878 79.1628 15.7244 79.1628 16.5764V17.1117H76.5626V17.0161H79.0672V16.5764Z" fill="#9E78F6"/>
<path d="M70.8341 9.46407H68.4251V22.8475H70.8341V9.46407ZM70.9297 22.9431H68.3295V9.36847H70.9297V22.9431Z" fill="#9E78F6"/>
<path d="M66.5988 13.8424V13.5747C66.5988 11.1093 64.8946 9.51435 62.4339 9.46522L62.3163 9.46407V9.36847C63.5985 9.36847 64.694 9.77686 65.4697 10.5108C66.2459 11.2454 66.6944 12.2991 66.6944 13.5747V13.8424C66.6944 15.1193 66.226 16.1728 65.4406 16.9068C64.6558 17.64 63.5608 18.0486 62.3163 18.0486H59.4292V22.9431H56.7142V9.36847H62.3163V9.46407H56.8098V22.8475H59.3336V17.953H62.3163L62.4305 17.9518C64.7825 17.9033 66.5422 16.358 66.5975 13.9592L66.5988 13.8424ZM63.9795 13.8041V13.6129C63.9795 13.0629 63.7877 12.6262 63.4587 12.3262C63.1287 12.0253 62.6515 11.854 62.0676 11.854H59.4292V15.5631H62.0676V15.6587H59.3336V11.7584H62.0676C63.2721 11.7584 64.0751 12.4658 64.0751 13.6129V13.8041L64.0728 13.9104C64.0235 14.9949 63.2159 15.6587 62.0676 15.6587V15.5631C62.6416 15.5631 63.1191 15.392 63.4518 15.0908C63.7835 14.7905 63.9795 14.3536 63.9795 13.8041Z" fill="#9E78F6"/>
</svg>
