<svg width="1440" height="1275" viewBox="0 0 1440 1275" fill="none" xmlns="http://www.w3.org/2000/svg">
<path d="M70 -25V75H-30V-25H70ZM-29.5 74.5H69.5V-24.5H-29.5V74.5Z" fill="#F5F5F5"/>
<path d="M170 -25V75H70V-25H170ZM70.5 74.5H169.5V-24.5H70.5V74.5Z" fill="#F5F5F5"/>
<path d="M270 -25V75H170V-25H270ZM170.5 74.5H269.5V-24.5H170.5V74.5Z" fill="#F5F5F5"/>
<path d="M370 -25V75H270V-25H370ZM270.5 74.5H369.5V-24.5H270.5V74.5Z" fill="#F5F5F5"/>
<path d="M470 -25V75H370V-25H470ZM370.5 74.5H469.5V-24.5H370.5V74.5Z" fill="#F5F5F5"/>
<path d="M570 -25V75H470V-25H570ZM470.5 74.5H569.5V-24.5H470.5V74.5Z" fill="#F5F5F5"/>
<path d="M670 -25V75H570V-25H670ZM570.5 74.5H669.5V-24.5H570.5V74.5Z" fill="#F5F5F5"/>
<path d="M770 -25V75H670V-25H770ZM670.5 74.5H769.5V-24.5H670.5V74.5Z" fill="#F5F5F5"/>
<path d="M870 -25V75H770V-25H870ZM770.5 74.5H869.5V-24.5H770.5V74.5Z" fill="#F5F5F5"/>
<path d="M970 -25V75H870V-25H970ZM870.5 74.5H969.5V-24.5H870.5V74.5Z" fill="#F5F5F5"/>
<path d="M1070 -25V75H970V-25H1070ZM970.5 74.5H1069.5V-24.5H970.5V74.5Z" fill="#F5F5F5"/>
<path d="M1170 -25V75H1070V-25H1170ZM1070.5 74.5H1169.5V-24.5H1070.5V74.5Z" fill="#F5F5F5"/>
<path d="M1270 -25V75H1170V-25H1270ZM1170.5 74.5H1269.5V-24.5H1170.5V74.5Z" fill="#F5F5F5"/>
<path d="M1370 -25V75H1270V-25H1370ZM1270.5 74.5H1369.5V-24.5H1270.5V74.5Z" fill="#F5F5F5"/>
<path d="M1470 -25V75H1370V-25H1470ZM1370.5 74.5H1469.5V-24.5H1370.5V74.5Z" fill="#F5F5F5"/>
<path d="M70 75V175H-30V75H70ZM-29.5 174.5H69.5V75.5H-29.5V174.5Z" fill="#F5F5F5"/>
<path d="M170 75V175H70V75H170ZM70.5 174.5H169.5V75.5H70.5V174.5Z" fill="#F5F5F5"/>
<path d="M270 75V175H170V75H270ZM170.5 174.5H269.5V75.5H170.5V174.5Z" fill="#F5F5F5"/>
<path d="M370 75V175H270V75H370ZM270.5 174.5H369.5V75.5H270.5V174.5Z" fill="#F5F5F5"/>
<path d="M470 75V175H370V75H470ZM370.5 174.5H469.5V75.5H370.5V174.5Z" fill="#F5F5F5"/>
<path d="M570 75V175H470V75H570ZM470.5 174.5H569.5V75.5H470.5V174.5Z" fill="#F5F5F5"/>
<path d="M670 75V175H570V75H670ZM570.5 174.5H669.5V75.5H570.5V174.5Z" fill="#F5F5F5"/>
<path d="M770 75V175H670V75H770ZM670.5 174.5H769.5V75.5H670.5V174.5Z" fill="#F5F5F5"/>
<path d="M870 75V175H770V75H870ZM770.5 174.5H869.5V75.5H770.5V174.5Z" fill="#F5F5F5"/>
<path d="M970 75V175H870V75H970ZM870.5 174.5H969.5V75.5H870.5V174.5Z" fill="#F5F5F5"/>
<path d="M1070 75V175H970V75H1070ZM970.5 174.5H1069.5V75.5H970.5V174.5Z" fill="#F5F5F5"/>
<path d="M1170 75V175H1070V75H1170ZM1070.5 174.5H1169.5V75.5H1070.5V174.5Z" fill="#F5F5F5"/>
<path d="M1270 75V175H1170V75H1270ZM1170.5 174.5H1269.5V75.5H1170.5V174.5Z" fill="#F5F5F5"/>
<path d="M1370 75V175H1270V75H1370ZM1270.5 174.5H1369.5V75.5H1270.5V174.5Z" fill="#F5F5F5"/>
<path d="M1470 75V175H1370V75H1470ZM1370.5 174.5H1469.5V75.5H1370.5V174.5Z" fill="#F5F5F5"/>
<path d="M70 175V275H-30V175H70ZM-29.5 274.5H69.5V175.5H-29.5V274.5Z" fill="#F5F5F5"/>
<path d="M170 175V275H70V175H170ZM70.5 274.5H169.5V175.5H70.5V274.5Z" fill="#F5F5F5"/>
<path d="M270 175V275H170V175H270ZM170.5 274.5H269.5V175.5H170.5V274.5Z" fill="#F5F5F5"/>
<path d="M370 175V275H270V175H370ZM270.5 274.5H369.5V175.5H270.5V274.5Z" fill="#F5F5F5"/>
<path d="M470 175V275H370V175H470ZM370.5 274.5H469.5V175.5H370.5V274.5Z" fill="#F5F5F5"/>
<path d="M570 175V275H470V175H570ZM470.5 274.5H569.5V175.5H470.5V274.5Z" fill="#F5F5F5"/>
<path d="M670 175V275H570V175H670ZM570.5 274.5H669.5V175.5H570.5V274.5Z" fill="#F5F5F5"/>
<path d="M770 175V275H670V175H770ZM670.5 274.5H769.5V175.5H670.5V274.5Z" fill="#F5F5F5"/>
<path d="M870 175V275H770V175H870ZM770.5 274.5H869.5V175.5H770.5V274.5Z" fill="#F5F5F5"/>
<path d="M970 175V275H870V175H970ZM870.5 274.5H969.5V175.5H870.5V274.5Z" fill="#F5F5F5"/>
<path d="M1070 175V275H970V175H1070ZM970.5 274.5H1069.5V175.5H970.5V274.5Z" fill="#F5F5F5"/>
<path d="M1170 175V275H1070V175H1170ZM1070.5 274.5H1169.5V175.5H1070.5V274.5Z" fill="#F5F5F5"/>
<path d="M1270 175V275H1170V175H1270ZM1170.5 274.5H1269.5V175.5H1170.5V274.5Z" fill="#F5F5F5"/>
<path d="M1370 175V275H1270V175H1370ZM1270.5 274.5H1369.5V175.5H1270.5V274.5Z" fill="#F5F5F5"/>
<path d="M1470 175V275H1370V175H1470ZM1370.5 274.5H1469.5V175.5H1370.5V274.5Z" fill="#F5F5F5"/>
<path d="M70 275V375H-30V275H70ZM-29.5 374.5H69.5V275.5H-29.5V374.5Z" fill="#F5F5F5"/>
<path d="M170 275V375H70V275H170ZM70.5 374.5H169.5V275.5H70.5V374.5Z" fill="#F5F5F5"/>
<path d="M270 275V375H170V275H270ZM170.5 374.5H269.5V275.5H170.5V374.5Z" fill="#F5F5F5"/>
<path d="M370 275V375H270V275H370ZM270.5 374.5H369.5V275.5H270.5V374.5Z" fill="#F5F5F5"/>
<path d="M470 275V375H370V275H470ZM370.5 374.5H469.5V275.5H370.5V374.5Z" fill="#F5F5F5"/>
<path d="M570 275V375H470V275H570ZM470.5 374.5H569.5V275.5H470.5V374.5Z" fill="#F5F5F5"/>
<path d="M670 275V375H570V275H670ZM570.5 374.5H669.5V275.5H570.5V374.5Z" fill="#F5F5F5"/>
<path d="M770 275V375H670V275H770ZM670.5 374.5H769.5V275.5H670.5V374.5Z" fill="#F5F5F5"/>
<path d="M870 275V375H770V275H870ZM770.5 374.5H869.5V275.5H770.5V374.5Z" fill="#F5F5F5"/>
<path d="M970 275V375H870V275H970ZM870.5 374.5H969.5V275.5H870.5V374.5Z" fill="#F5F5F5"/>
<path d="M1070 275V375H970V275H1070ZM970.5 374.5H1069.5V275.5H970.5V374.5Z" fill="#F5F5F5"/>
<path d="M1170 275V375H1070V275H1170ZM1070.5 374.5H1169.5V275.5H1070.5V374.5Z" fill="#F5F5F5"/>
<path d="M1270 275V375H1170V275H1270ZM1170.5 374.5H1269.5V275.5H1170.5V374.5Z" fill="#F5F5F5"/>
<path d="M1370 275V375H1270V275H1370ZM1270.5 374.5H1369.5V275.5H1270.5V374.5Z" fill="#F5F5F5"/>
<path d="M1470 275V375H1370V275H1470ZM1370.5 374.5H1469.5V275.5H1370.5V374.5Z" fill="#F5F5F5"/>
<path d="M70 375V475H-30V375H70ZM-29.5 474.5H69.5V375.5H-29.5V474.5Z" fill="#F5F5F5"/>
<path d="M170 375V475H70V375H170ZM70.5 474.5H169.5V375.5H70.5V474.5Z" fill="#F5F5F5"/>
<path d="M270 375V475H170V375H270ZM170.5 474.5H269.5V375.5H170.5V474.5Z" fill="#F5F5F5"/>
<path d="M370 375V475H270V375H370ZM270.5 474.5H369.5V375.5H270.5V474.5Z" fill="#F5F5F5"/>
<path d="M470 375V475H370V375H470ZM370.5 474.5H469.5V375.5H370.5V474.5Z" fill="#F5F5F5"/>
<path d="M570 375V475H470V375H570ZM470.5 474.5H569.5V375.5H470.5V474.5Z" fill="#F5F5F5"/>
<path d="M670 375V475H570V375H670ZM570.5 474.5H669.5V375.5H570.5V474.5Z" fill="#F5F5F5"/>
<path d="M770 375V475H670V375H770ZM670.5 474.5H769.5V375.5H670.5V474.5Z" fill="#F5F5F5"/>
<path d="M870 375V475H770V375H870ZM770.5 474.5H869.5V375.5H770.5V474.5Z" fill="#F5F5F5"/>
<path d="M970 375V475H870V375H970ZM870.5 474.5H969.5V375.5H870.5V474.5Z" fill="#F5F5F5"/>
<path d="M1070 375V475H970V375H1070ZM970.5 474.5H1069.5V375.5H970.5V474.5Z" fill="#F5F5F5"/>
<path d="M1170 375V475H1070V375H1170ZM1070.5 474.5H1169.5V375.5H1070.5V474.5Z" fill="#F5F5F5"/>
<path d="M1270 375V475H1170V375H1270ZM1170.5 474.5H1269.5V375.5H1170.5V474.5Z" fill="#F5F5F5"/>
<path d="M1370 375V475H1270V375H1370ZM1270.5 474.5H1369.5V375.5H1270.5V474.5Z" fill="#F5F5F5"/>
<path d="M1470 375V475H1370V375H1470ZM1370.5 474.5H1469.5V375.5H1370.5V474.5Z" fill="#F5F5F5"/>
<path d="M70 475V575H-30V475H70ZM-29.5 574.5H69.5V475.5H-29.5V574.5Z" fill="#F5F5F5"/>
<path d="M170 475V575H70V475H170ZM70.5 574.5H169.5V475.5H70.5V574.5Z" fill="#F5F5F5"/>
<path d="M270 475V575H170V475H270ZM170.5 574.5H269.5V475.5H170.5V574.5Z" fill="#F5F5F5"/>
<path d="M370 475V575H270V475H370ZM270.5 574.5H369.5V475.5H270.5V574.5Z" fill="#F5F5F5"/>
<path d="M470 475V575H370V475H470ZM370.5 574.5H469.5V475.5H370.5V574.5Z" fill="#F5F5F5"/>
<path d="M570 475V575H470V475H570ZM470.5 574.5H569.5V475.5H470.5V574.5Z" fill="#F5F5F5"/>
<path d="M670 475V575H570V475H670ZM570.5 574.5H669.5V475.5H570.5V574.5Z" fill="#F5F5F5"/>
<path d="M770 475V575H670V475H770ZM670.5 574.5H769.5V475.5H670.5V574.5Z" fill="#F5F5F5"/>
<path d="M870 475V575H770V475H870ZM770.5 574.5H869.5V475.5H770.5V574.5Z" fill="#F5F5F5"/>
<path d="M970 475V575H870V475H970ZM870.5 574.5H969.5V475.5H870.5V574.5Z" fill="#F5F5F5"/>
<path d="M1070 475V575H970V475H1070ZM970.5 574.5H1069.5V475.5H970.5V574.5Z" fill="#F5F5F5"/>
<path d="M1170 475V575H1070V475H1170ZM1070.5 574.5H1169.5V475.5H1070.5V574.5Z" fill="#F5F5F5"/>
<path d="M1270 475V575H1170V475H1270ZM1170.5 574.5H1269.5V475.5H1170.5V574.5Z" fill="#F5F5F5"/>
<path d="M1370 475V575H1270V475H1370ZM1270.5 574.5H1369.5V475.5H1270.5V574.5Z" fill="#F5F5F5"/>
<path d="M1470 475V575H1370V475H1470ZM1370.5 574.5H1469.5V475.5H1370.5V574.5Z" fill="#F5F5F5"/>
<path d="M70 575V675H-30V575H70ZM-29.5 674.5H69.5V575.5H-29.5V674.5Z" fill="#F5F5F5"/>
<path d="M170 575V675H70V575H170ZM70.5 674.5H169.5V575.5H70.5V674.5Z" fill="#F5F5F5"/>
<path d="M270 575V675H170V575H270ZM170.5 674.5H269.5V575.5H170.5V674.5Z" fill="#F5F5F5"/>
<path d="M370 575V675H270V575H370ZM270.5 674.5H369.5V575.5H270.5V674.5Z" fill="#F5F5F5"/>
<path d="M470 575V675H370V575H470ZM370.5 674.5H469.5V575.5H370.5V674.5Z" fill="#F5F5F5"/>
<path d="M570 575V675H470V575H570ZM470.5 674.5H569.5V575.5H470.5V674.5Z" fill="#F5F5F5"/>
<path d="M670 575V675H570V575H670ZM570.5 674.5H669.5V575.5H570.5V674.5Z" fill="#F5F5F5"/>
<path d="M770 575V675H670V575H770ZM670.5 674.5H769.5V575.5H670.5V674.5Z" fill="#F5F5F5"/>
<path d="M870 575V675H770V575H870ZM770.5 674.5H869.5V575.5H770.5V674.5Z" fill="#F5F5F5"/>
<path d="M970 575V675H870V575H970ZM870.5 674.5H969.5V575.5H870.5V674.5Z" fill="#F5F5F5"/>
<path d="M1070 575V675H970V575H1070ZM970.5 674.5H1069.5V575.5H970.5V674.5Z" fill="#F5F5F5"/>
<path d="M1170 575V675H1070V575H1170ZM1070.5 674.5H1169.5V575.5H1070.5V674.5Z" fill="#F5F5F5"/>
<path d="M1270 575V675H1170V575H1270ZM1170.5 674.5H1269.5V575.5H1170.5V674.5Z" fill="#F5F5F5"/>
<path d="M1370 575V675H1270V575H1370ZM1270.5 674.5H1369.5V575.5H1270.5V674.5Z" fill="#F5F5F5"/>
<path d="M1470 575V675H1370V575H1470ZM1370.5 674.5H1469.5V575.5H1370.5V674.5Z" fill="#F5F5F5"/>
<path d="M70 675V775H-30V675H70ZM-29.5 774.5H69.5V675.5H-29.5V774.5Z" fill="#F5F5F5"/>
<path d="M170 675V775H70V675H170ZM70.5 774.5H169.5V675.5H70.5V774.5Z" fill="#F5F5F5"/>
<path d="M270 675V775H170V675H270ZM170.5 774.5H269.5V675.5H170.5V774.5Z" fill="#F5F5F5"/>
<path d="M370 675V775H270V675H370ZM270.5 774.5H369.5V675.5H270.5V774.5Z" fill="#F5F5F5"/>
<path d="M470 675V775H370V675H470ZM370.5 774.5H469.5V675.5H370.5V774.5Z" fill="#F5F5F5"/>
<path d="M570 675V775H470V675H570ZM470.5 774.5H569.5V675.5H470.5V774.5Z" fill="#F5F5F5"/>
<path d="M670 675V775H570V675H670ZM570.5 774.5H669.5V675.5H570.5V774.5Z" fill="#F5F5F5"/>
<path d="M770 675V775H670V675H770ZM670.5 774.5H769.5V675.5H670.5V774.5Z" fill="#F5F5F5"/>
<path d="M870 675V775H770V675H870ZM770.5 774.5H869.5V675.5H770.5V774.5Z" fill="#F5F5F5"/>
<path d="M970 675V775H870V675H970ZM870.5 774.5H969.5V675.5H870.5V774.5Z" fill="#F5F5F5"/>
<path d="M1070 675V775H970V675H1070ZM970.5 774.5H1069.5V675.5H970.5V774.5Z" fill="#F5F5F5"/>
<path d="M1170 675V775H1070V675H1170ZM1070.5 774.5H1169.5V675.5H1070.5V774.5Z" fill="#F5F5F5"/>
<path d="M1270 675V775H1170V675H1270ZM1170.5 774.5H1269.5V675.5H1170.5V774.5Z" fill="#F5F5F5"/>
<path d="M1370 675V775H1270V675H1370ZM1270.5 774.5H1369.5V675.5H1270.5V774.5Z" fill="#F5F5F5"/>
<path d="M1470 675V775H1370V675H1470ZM1370.5 774.5H1469.5V675.5H1370.5V774.5Z" fill="#F5F5F5"/>
<path d="M70 775V875H-30V775H70ZM-29.5 874.5H69.5V775.5H-29.5V874.5Z" fill="#F5F5F5"/>
<path d="M170 775V875H70V775H170ZM70.5 874.5H169.5V775.5H70.5V874.5Z" fill="#F5F5F5"/>
<path d="M270 775V875H170V775H270ZM170.5 874.5H269.5V775.5H170.5V874.5Z" fill="#F5F5F5"/>
<path d="M370 775V875H270V775H370ZM270.5 874.5H369.5V775.5H270.5V874.5Z" fill="#F5F5F5"/>
<path d="M470 775V875H370V775H470ZM370.5 874.5H469.5V775.5H370.5V874.5Z" fill="#F5F5F5"/>
<path d="M570 775V875H470V775H570ZM470.5 874.5H569.5V775.5H470.5V874.5Z" fill="#F5F5F5"/>
<path d="M670 775V875H570V775H670ZM570.5 874.5H669.5V775.5H570.5V874.5Z" fill="#F5F5F5"/>
<path d="M770 775V875H670V775H770ZM670.5 874.5H769.5V775.5H670.5V874.5Z" fill="#F5F5F5"/>
<path d="M870 775V875H770V775H870ZM770.5 874.5H869.5V775.5H770.5V874.5Z" fill="#F5F5F5"/>
<path d="M970 775V875H870V775H970ZM870.5 874.5H969.5V775.5H870.5V874.5Z" fill="#F5F5F5"/>
<path d="M1070 775V875H970V775H1070ZM970.5 874.5H1069.5V775.5H970.5V874.5Z" fill="#F5F5F5"/>
<path d="M1170 775V875H1070V775H1170ZM1070.5 874.5H1169.5V775.5H1070.5V874.5Z" fill="#F5F5F5"/>
<path d="M1270 775V875H1170V775H1270ZM1170.5 874.5H1269.5V775.5H1170.5V874.5Z" fill="#F5F5F5"/>
<path d="M1370 775V875H1270V775H1370ZM1270.5 874.5H1369.5V775.5H1270.5V874.5Z" fill="#F5F5F5"/>
<path d="M1470 775V875H1370V775H1470ZM1370.5 874.5H1469.5V775.5H1370.5V874.5Z" fill="#F5F5F5"/>
<path d="M70 875V975H-30V875H70ZM-29.5 974.5H69.5V875.5H-29.5V974.5Z" fill="#F5F5F5"/>
<path d="M170 875V975H70V875H170ZM70.5 974.5H169.5V875.5H70.5V974.5Z" fill="#F5F5F5"/>
<path d="M270 875V975H170V875H270ZM170.5 974.5H269.5V875.5H170.5V974.5Z" fill="#F5F5F5"/>
<path d="M370 875V975H270V875H370ZM270.5 974.5H369.5V875.5H270.5V974.5Z" fill="#F5F5F5"/>
<path d="M470 875V975H370V875H470ZM370.5 974.5H469.5V875.5H370.5V974.5Z" fill="#F5F5F5"/>
<path d="M570 875V975H470V875H570ZM470.5 974.5H569.5V875.5H470.5V974.5Z" fill="#F5F5F5"/>
<path d="M670 875V975H570V875H670ZM570.5 974.5H669.5V875.5H570.5V974.5Z" fill="#F5F5F5"/>
<path d="M770 875V975H670V875H770ZM670.5 974.5H769.5V875.5H670.5V974.5Z" fill="#F5F5F5"/>
<path d="M870 875V975H770V875H870ZM770.5 974.5H869.5V875.5H770.5V974.5Z" fill="#F5F5F5"/>
<path d="M970 875V975H870V875H970ZM870.5 974.5H969.5V875.5H870.5V974.5Z" fill="#F5F5F5"/>
<path d="M1070 875V975H970V875H1070ZM970.5 974.5H1069.5V875.5H970.5V974.5Z" fill="#F5F5F5"/>
<path d="M1170 875V975H1070V875H1170ZM1070.5 974.5H1169.5V875.5H1070.5V974.5Z" fill="#F5F5F5"/>
<path d="M1270 875V975H1170V875H1270ZM1170.5 974.5H1269.5V875.5H1170.5V974.5Z" fill="#F5F5F5"/>
<path d="M1370 875V975H1270V875H1370ZM1270.5 974.5H1369.5V875.5H1270.5V974.5Z" fill="#F5F5F5"/>
<path d="M1470 875V975H1370V875H1470ZM1370.5 974.5H1469.5V875.5H1370.5V974.5Z" fill="#F5F5F5"/>
<path d="M70 975V1075H-30V975H70ZM-29.5 1074.5H69.5V975.5H-29.5V1074.5Z" fill="#F5F5F5"/>
<path d="M170 975V1075H70V975H170ZM70.5 1074.5H169.5V975.5H70.5V1074.5Z" fill="#F5F5F5"/>
<path d="M270 975V1075H170V975H270ZM170.5 1074.5H269.5V975.5H170.5V1074.5Z" fill="#F5F5F5"/>
<path d="M370 975V1075H270V975H370ZM270.5 1074.5H369.5V975.5H270.5V1074.5Z" fill="#F5F5F5"/>
<path d="M470 975V1075H370V975H470ZM370.5 1074.5H469.5V975.5H370.5V1074.5Z" fill="#F5F5F5"/>
<path d="M570 975V1075H470V975H570ZM470.5 1074.5H569.5V975.5H470.5V1074.5Z" fill="#F5F5F5"/>
<path d="M670 975V1075H570V975H670ZM570.5 1074.5H669.5V975.5H570.5V1074.5Z" fill="#F5F5F5"/>
<path d="M770 975V1075H670V975H770ZM670.5 1074.5H769.5V975.5H670.5V1074.5Z" fill="#F5F5F5"/>
<path d="M870 975V1075H770V975H870ZM770.5 1074.5H869.5V975.5H770.5V1074.5Z" fill="#F5F5F5"/>
<path d="M970 975V1075H870V975H970ZM870.5 1074.5H969.5V975.5H870.5V1074.5Z" fill="#F5F5F5"/>
<path d="M1070 975V1075H970V975H1070ZM970.5 1074.5H1069.5V975.5H970.5V1074.5Z" fill="#F5F5F5"/>
<path d="M1170 975V1075H1070V975H1170ZM1070.5 1074.5H1169.5V975.5H1070.5V1074.5Z" fill="#F5F5F5"/>
<path d="M1270 975V1075H1170V975H1270ZM1170.5 1074.5H1269.5V975.5H1170.5V1074.5Z" fill="#F5F5F5"/>
<path d="M1370 975V1075H1270V975H1370ZM1270.5 1074.5H1369.5V975.5H1270.5V1074.5Z" fill="#F5F5F5"/>
<path d="M1470 975V1075H1370V975H1470ZM1370.5 1074.5H1469.5V975.5H1370.5V1074.5Z" fill="#F5F5F5"/>
<path d="M70 1075V1175H-30V1075H70ZM-29.5 1174.5H69.5V1075.5H-29.5V1174.5Z" fill="#F5F5F5"/>
<path d="M170 1075V1175H70V1075H170ZM70.5 1174.5H169.5V1075.5H70.5V1174.5Z" fill="#F5F5F5"/>
<path d="M270 1075V1175H170V1075H270ZM170.5 1174.5H269.5V1075.5H170.5V1174.5Z" fill="#F5F5F5"/>
<path d="M370 1075V1175H270V1075H370ZM270.5 1174.5H369.5V1075.5H270.5V1174.5Z" fill="#F5F5F5"/>
<path d="M470 1075V1175H370V1075H470ZM370.5 1174.5H469.5V1075.5H370.5V1174.5Z" fill="#F5F5F5"/>
<path d="M570 1075V1175H470V1075H570ZM470.5 1174.5H569.5V1075.5H470.5V1174.5Z" fill="#F5F5F5"/>
<path d="M670 1075V1175H570V1075H670ZM570.5 1174.5H669.5V1075.5H570.5V1174.5Z" fill="#F5F5F5"/>
<path d="M770 1075V1175H670V1075H770ZM670.5 1174.5H769.5V1075.5H670.5V1174.5Z" fill="#F5F5F5"/>
<path d="M870 1075V1175H770V1075H870ZM770.5 1174.5H869.5V1075.5H770.5V1174.5Z" fill="#F5F5F5"/>
<path d="M970 1075V1175H870V1075H970ZM870.5 1174.5H969.5V1075.5H870.5V1174.5Z" fill="#F5F5F5"/>
<path d="M1070 1075V1175H970V1075H1070ZM970.5 1174.5H1069.5V1075.5H970.5V1174.5Z" fill="#F5F5F5"/>
<path d="M1170 1075V1175H1070V1075H1170ZM1070.5 1174.5H1169.5V1075.5H1070.5V1174.5Z" fill="#F5F5F5"/>
<path d="M1270 1075V1175H1170V1075H1270ZM1170.5 1174.5H1269.5V1075.5H1170.5V1174.5Z" fill="#F5F5F5"/>
<path d="M1370 1075V1175H1270V1075H1370ZM1270.5 1174.5H1369.5V1075.5H1270.5V1174.5Z" fill="#F5F5F5"/>
<path d="M1470 1075V1175H1370V1075H1470ZM1370.5 1174.5H1469.5V1075.5H1370.5V1174.5Z" fill="#F5F5F5"/>
<path d="M70 1175V1275H-30V1175H70ZM-29.5 1274.5H69.5V1175.5H-29.5V1274.5Z" fill="#F5F5F5"/>
<path d="M170 1175V1275H70V1175H170ZM70.5 1274.5H169.5V1175.5H70.5V1274.5Z" fill="#F5F5F5"/>
<path d="M270 1175V1275H170V1175H270ZM170.5 1274.5H269.5V1175.5H170.5V1274.5Z" fill="#F5F5F5"/>
<path d="M370 1175V1275H270V1175H370ZM270.5 1274.5H369.5V1175.5H270.5V1274.5Z" fill="#F5F5F5"/>
<path d="M470 1175V1275H370V1175H470ZM370.5 1274.5H469.5V1175.5H370.5V1274.5Z" fill="#F5F5F5"/>
<path d="M570 1175V1275H470V1175H570ZM470.5 1274.5H569.5V1175.5H470.5V1274.5Z" fill="#F5F5F5"/>
<path d="M670 1175V1275H570V1175H670ZM570.5 1274.5H669.5V1175.5H570.5V1274.5Z" fill="#F5F5F5"/>
<path d="M770 1175V1275H670V1175H770ZM670.5 1274.5H769.5V1175.5H670.5V1274.5Z" fill="#F5F5F5"/>
<path d="M870 1175V1275H770V1175H870ZM770.5 1274.5H869.5V1175.5H770.5V1274.5Z" fill="#F5F5F5"/>
<path d="M970 1175V1275H870V1175H970ZM870.5 1274.5H969.5V1175.5H870.5V1274.5Z" fill="#F5F5F5"/>
<path d="M1070 1175V1275H970V1175H1070ZM970.5 1274.5H1069.5V1175.5H970.5V1274.5Z" fill="#F5F5F5"/>
<path d="M1170 1175V1275H1070V1175H1170ZM1070.5 1274.5H1169.5V1175.5H1070.5V1274.5Z" fill="#F5F5F5"/>
<path d="M1270 1175V1275H1170V1175H1270ZM1170.5 1274.5H1269.5V1175.5H1170.5V1274.5Z" fill="#F5F5F5"/>
<path d="M1370 1175V1275H1270V1175H1370ZM1270.5 1274.5H1369.5V1175.5H1270.5V1274.5Z" fill="#F5F5F5"/>
<path d="M1470 1175V1275H1370V1175H1470ZM1370.5 1274.5H1469.5V1175.5H1370.5V1274.5Z" fill="#F5F5F5"/>
</svg>
