<svg width="32" height="32" viewBox="0 0 32 32" fill="none" xmlns="http://www.w3.org/2000/svg">
<path d="M5.97764 26.005C4.35264 24.3475 4.35264 21.7025 5.97764 20.045L10.6626 15.36C11.1726 14.85 11.8426 14.4675 12.5426 14.2775C13.2426 14.0875 13.9776 14.0875 14.6451 14.245C15.3451 14.435 16.0151 14.7875 16.5576 15.2975L16.6201 15.36C18.2776 17.0175 18.2776 19.6625 16.6201 21.32L11.9351 26.005C10.2801 27.6625 7.60264 27.6625 5.97764 26.005ZM19.2351 12.7475C16.1451 9.65749 11.0776 9.65749 7.98514 12.7475L3.33264 17.4325C0.242637 20.5225 0.242637 25.59 3.33264 28.6825C6.42264 31.775 11.4901 31.7725 14.5826 28.6825L19.2676 23.9975C22.3251 20.905 22.3251 15.84 19.2351 12.7475Z" fill="#84B0C1"/>
<path d="M16.7148 12.12C17.5548 11.6975 18.3573 11.9925 18.3573 11.9925C16.6223 10.71 14.7298 10.345 13.0998 10.4475C13.0898 10.46 13.0823 10.4725 13.0723 10.4875C12.3573 11.585 12.1973 13.035 12.6423 14.255C13.3123 14.09 14.0073 14.095 14.6423 14.2475C14.9023 14.3175 15.0998 14.385 15.4898 14.5675C15.4923 14.565 15.3548 12.805 16.7148 12.12ZM11.6898 14.615C11.7223 14.3725 11.7373 14.1275 11.7523 13.8825C11.8223 12.8275 12.0023 11.7775 12.2873 10.76C12.3073 10.6875 12.3273 10.61 12.3473 10.5325C11.5748 10.655 10.8173 10.89 10.1048 11.24C8.99484 12.6725 9.35984 14.5275 10.6623 15.3625C10.9598 15.065 11.3098 14.8125 11.6898 14.615Z" fill="#2F7889"/>
<path d="M26.0226 5.99502C27.6476 7.65252 27.6476 10.2975 26.0226 11.955L21.3376 16.64C20.8276 17.15 20.1576 17.5325 19.4576 17.7225C18.7576 17.9125 18.0226 17.9125 17.3551 17.755C16.6551 17.565 15.9851 17.2125 15.4426 16.7025L15.3801 16.64C13.7226 14.9825 13.7226 12.3375 15.3801 10.68L20.0651 5.99502C21.7201 4.33752 24.3976 4.33752 26.0226 5.99502ZM12.7651 19.2525C15.8551 22.3425 20.9226 22.3425 24.0151 19.2525L28.6676 14.5675C31.7576 11.4775 31.7576 6.41002 28.6676 3.31752C25.5776 0.225022 20.5101 0.227522 17.4176 3.31752L12.7351 8.00252C9.67511 11.095 9.67511 16.16 12.7651 19.2525Z" fill="#84B0C1"/>
<path d="M12.6124 9.855C12.6224 9.8475 12.6324 9.8375 12.6424 9.83C12.7749 9.715 12.9224 9.605 13.0949 9.575C13.2674 9.545 13.4699 9.6225 13.5299 9.7875C13.5749 9.91 13.5349 10.045 13.4924 10.1675C12.8349 12.155 12.3074 14.6775 12.9474 16.735C13.0099 16.935 13.0699 17.1925 12.9024 17.3175C12.8049 17.3925 12.6599 17.38 12.5524 17.3225C11.3774 16.6875 11.1724 14.9675 11.1174 13.7875C11.0524 12.2975 11.4649 10.8625 12.6124 9.855Z" fill="#A8E3F0"/>
<path d="M17.8299 17.835C17.6699 17.815 17.4999 17.7825 17.4999 17.7825C17.4999 17.7825 17.4749 18.85 16.6224 19.735C15.6774 20.715 14.7349 20.69 14.7349 20.69C15.2324 20.9775 16.2249 21.275 16.5849 21.36L16.6224 21.3225C17.5799 20.3625 17.9799 19.0725 17.8299 17.835ZM22.6899 15.2875L21.3574 16.62C21.6899 18.105 21.5999 19.665 21.0849 21.105C21.7324 20.875 22.3549 20.5575 22.9349 20.155C23.8924 18.515 23.6824 16.5775 22.6899 15.2875Z" fill="#2F7889"/>
<path d="M19.9726 17.5025C19.8151 17.105 19.5076 16.7025 19.1226 16.74C18.8826 16.7625 18.5101 16.9875 18.5351 17.675C18.5526 18.2075 18.7551 18.7275 18.4651 19.425C18.0401 20.445 18.1376 20.72 18.2401 20.8825C18.3526 21.06 18.5601 21.14 18.7526 21.1375C19.2601 21.135 19.6801 20.67 19.9101 20.16C20.2826 19.345 20.3051 18.3375 19.9726 17.5025ZM12.3126 27.045C12.4726 26.9125 12.8876 26.47 13.0801 26.75C13.0101 27.52 12.4176 28.1475 11.7676 28.5675C10.9676 29.085 10.0201 29.39 9.06756 29.3625C8.27756 29.34 6.96756 29.02 6.50756 28.2875C6.13256 27.6925 6.92506 27.59 7.36506 27.755C8.93256 28.3525 10.7051 28.365 12.3126 27.045Z" fill="#A8E3F0"/>
</svg>
