<svg width="40" height="40" viewBox="0 0 40 40" fill="none" xmlns="http://www.w3.org/2000/svg">
<path d="M2.85744 20C2.85744 10.5329 10.5332 2.85715 20.0003 2.85715C29.4674 2.85715 37.1432 10.5329 37.1432 20C37.1432 29.4671 29.4674 37.1429 20.0003 37.1429C17.1919 37.1469 14.4259 36.4579 11.9474 35.1371L5.13315 37.0757C4.82726 37.1626 4.50371 37.1662 4.19595 37.0862C3.88818 37.0062 3.60736 36.8455 3.3825 36.6207C3.15764 36.3958 2.99691 36.115 2.91691 35.8072C2.83691 35.4994 2.84054 35.1759 2.92744 34.87L4.86458 28.0557C3.54285 25.5765 2.85342 22.8095 2.85744 20ZM13.5717 16.7857C13.5717 17.3771 14.0517 17.8571 14.6432 17.8571H25.3574C25.6416 17.8571 25.9141 17.7443 26.1151 17.5433C26.316 17.3424 26.4289 17.0699 26.4289 16.7857C26.4289 16.5016 26.316 16.229 26.1151 16.0281C25.9141 15.8272 25.6416 15.7143 25.3574 15.7143H14.6432C14.359 15.7143 14.0865 15.8272 13.8855 16.0281C13.6846 16.229 13.5717 16.5016 13.5717 16.7857ZM14.6432 22.1429C14.359 22.1429 14.0865 22.2557 13.8855 22.4567C13.6846 22.6576 13.5717 22.9301 13.5717 23.2143C13.5717 23.4984 13.6846 23.771 13.8855 23.9719C14.0865 24.1728 14.359 24.2857 14.6432 24.2857H21.0717C21.3559 24.2857 21.6284 24.1728 21.8293 23.9719C22.0303 23.771 22.1432 23.4984 22.1432 23.2143C22.1432 22.9301 22.0303 22.6576 21.8293 22.4567C21.6284 22.2557 21.3559 22.1429 21.0717 22.1429H14.6432Z" fill="white"/>
</svg>
