<svg width="40" height="40" viewBox="0 0 40 40" fill="none" xmlns="http://www.w3.org/2000/svg">
<path opacity="0.5" d="M35 26.6633V16.6633C35 11.95 35 9.59334 33.535 8.12834C32.255 6.84834 30.2917 6.68667 26.6667 6.66667H13.3333C9.70833 6.68667 7.745 6.84834 6.465 8.12834C5 9.59334 5 11.95 5 16.6633V26.6633C5 31.3783 5 33.735 6.465 35.2C7.92833 36.6633 10.2867 36.6633 15 36.6633H25C29.7133 36.6633 32.0717 36.6633 33.535 35.2C35 33.7333 35 31.3783 35 26.6633Z" fill="#9E78F6"/>
<path d="M13.3333 5.83333C13.3333 5.17029 13.5967 4.5344 14.0655 4.06556C14.5344 3.59672 15.1703 3.33333 15.8333 3.33333H24.1666C24.8297 3.33333 25.4656 3.59672 25.9344 4.06556C26.4033 4.5344 26.6666 5.17029 26.6666 5.83333V7.49999C26.6666 8.16304 26.4033 8.79892 25.9344 9.26776C25.4656 9.7366 24.8297 9.99999 24.1666 9.99999H15.8333C15.1703 9.99999 14.5344 9.7366 14.0655 9.26776C13.5967 8.79892 13.3333 8.16304 13.3333 7.49999V5.83333Z" fill="#9E78F6"/>
<path fill-rule="evenodd" clip-rule="evenodd" d="M20 15.4167C20.3315 15.4167 20.6495 15.5484 20.8839 15.7828C21.1183 16.0172 21.25 16.3352 21.25 16.6667V20.4167H25C25.3315 20.4167 25.6495 20.5484 25.8839 20.7828C26.1183 21.0172 26.25 21.3352 26.25 21.6667C26.25 21.9982 26.1183 22.3161 25.8839 22.5506C25.6495 22.785 25.3315 22.9167 25 22.9167H21.25V26.6667C21.25 26.9982 21.1183 27.3161 20.8839 27.5506C20.6495 27.785 20.3315 27.9167 20 27.9167C19.6685 27.9167 19.3505 27.785 19.1161 27.5506C18.8817 27.3161 18.75 26.9982 18.75 26.6667V22.9167H15C14.6685 22.9167 14.3505 22.785 14.1161 22.5506C13.8817 22.3161 13.75 21.9982 13.75 21.6667C13.75 21.3352 13.8817 21.0172 14.1161 20.7828C14.3505 20.5484 14.6685 20.4167 15 20.4167H18.75V16.6667C18.75 16.3352 18.8817 16.0172 19.1161 15.7828C19.3505 15.5484 19.6685 15.4167 20 15.4167Z" fill="#9E78F6"/>
</svg>
