<svg width="30" height="30" viewBox="0 0 30 30" fill="none" xmlns="http://www.w3.org/2000/svg">
<path d="M9.66683 1.6665H20.3335M11.0002 1.6665V3.45717M19.0002 1.6665V5.38517C19.0002 6.43822 19.312 7.4677 19.8962 8.34384L20.7708 9.65584C21.3553 10.5324 21.6671 11.5623 21.6668 12.6158V14.1238M9.40016 9.39984L9.2295 9.65584C8.64504 10.5324 8.33326 11.5623 8.3335 12.6158V25.6665C8.3335 26.3737 8.61445 27.052 9.11454 27.5521C9.61464 28.0522 10.2929 28.3332 11.0002 28.3332H19.0002C19.7074 28.3332 20.3857 28.0522 20.8858 27.5521C21.3859 27.052 21.6668 26.3737 21.6668 25.6665V21.6665" stroke="white" stroke-width="2.66667" stroke-linecap="round" stroke-linejoin="round"/>
<path d="M8.33341 18.9998C9.38908 18.5576 10.5222 18.3298 11.6667 18.3298C12.8113 18.3298 13.9444 18.5576 15.0001 18.9998C16.4457 19.6057 18.0291 19.8062 19.5801 19.5798M1.66675 1.6665L28.3334 28.3332" stroke="white" stroke-width="2.66667" stroke-linecap="round" stroke-linejoin="round"/>
</svg>
