<svg width="40" height="40" viewBox="0 0 40 40" fill="none" xmlns="http://www.w3.org/2000/svg">
<path opacity="0.5" d="M5 16.6667C5 10.3817 5 7.23833 6.95333 5.28666C8.90667 3.33499 12.0483 3.33333 18.3333 3.33333H21.6667C27.9517 3.33333 31.095 3.33333 33.0467 5.28666C34.9983 7.23999 35 10.3817 35 16.6667V23.3333C35 29.6183 35 32.7617 33.0467 34.7133C31.0933 36.665 27.9517 36.6667 21.6667 36.6667H18.3333C12.0483 36.6667 8.905 36.6667 6.95333 34.7133C5.00167 32.76 5 29.6183 5 23.3333V16.6667Z" fill="#9E78F6"/>
<path d="M27.5317 27.5017C27.8233 27.275 28.0883 27.01 28.6167 26.4817L35.2117 19.885C35.3717 19.7267 35.2983 19.4517 35.0867 19.3767C34.0538 19.0187 33.1166 18.4292 32.3467 17.6533C31.5708 16.8834 30.9813 15.9461 30.6233 14.9133C30.5483 14.7017 30.2733 14.6283 30.115 14.7883L23.5167 21.3833C22.9883 21.9117 22.7233 22.1767 22.4967 22.4683C22.2267 22.8139 21.9978 23.1839 21.81 23.5783C21.6517 23.9117 21.5333 24.2683 21.2967 24.9783L20.99 25.895L20.5033 27.3533L20.0483 28.72C19.9916 28.8913 19.9836 29.075 20.0252 29.2506C20.0668 29.4261 20.1565 29.5867 20.284 29.7143C20.4116 29.8419 20.5722 29.9315 20.7478 29.9731C20.9233 30.0147 21.107 30.0067 21.2783 29.95L22.645 29.495L24.1033 29.0083L25.02 28.7017C25.73 28.465 26.0867 28.3483 26.42 28.1883C26.8144 27.9994 27.1861 27.7706 27.5317 27.5017ZM37.2783 17.82C37.9544 17.1437 38.3341 16.2265 38.334 15.2702C38.3338 14.314 37.9538 13.3969 37.2775 12.7208C36.6012 12.0448 35.684 11.665 34.7277 11.6652C33.7715 11.6653 32.8544 12.0454 32.1783 12.7217L31.9683 12.935C31.8669 13.0341 31.7914 13.1566 31.7484 13.2918C31.7054 13.4269 31.6962 13.5705 31.7217 13.71C31.755 13.8883 31.8133 14.1517 31.9217 14.4633C32.1383 15.0883 32.5483 15.9083 33.32 16.68C34.0917 17.4517 34.9117 17.8617 35.5367 18.0783C35.85 18.1867 36.1117 18.245 36.29 18.2783C36.4295 18.3023 36.5727 18.2924 36.7076 18.2495C36.8424 18.2066 36.965 18.1319 37.065 18.0317L37.2783 17.82Z" fill="#9E78F6"/>
<path fill-rule="evenodd" clip-rule="evenodd" d="M12.0833 15C12.0833 14.6685 12.215 14.3505 12.4494 14.1161C12.6838 13.8817 13.0018 13.75 13.3333 13.75H24.1666C24.4982 13.75 24.8161 13.8817 25.0505 14.1161C25.2849 14.3505 25.4166 14.6685 25.4166 15C25.4166 15.3315 25.2849 15.6495 25.0505 15.8839C24.8161 16.1183 24.4982 16.25 24.1666 16.25H13.3333C13.0018 16.25 12.6838 16.1183 12.4494 15.8839C12.215 15.6495 12.0833 15.3315 12.0833 15ZM12.0833 21.6667C12.0833 21.3351 12.215 21.0172 12.4494 20.7828C12.6838 20.5484 13.0018 20.4167 13.3333 20.4167H18.3333C18.6648 20.4167 18.9828 20.5484 19.2172 20.7828C19.4516 21.0172 19.5833 21.3351 19.5833 21.6667C19.5833 21.9982 19.4516 22.3161 19.2172 22.5505C18.9828 22.785 18.6648 22.9167 18.3333 22.9167H13.3333C13.0018 22.9167 12.6838 22.785 12.4494 22.5505C12.215 22.3161 12.0833 21.9982 12.0833 21.6667ZM12.0833 28.3333C12.0833 28.0018 12.215 27.6839 12.4494 27.4494C12.6838 27.215 13.0018 27.0833 13.3333 27.0833H15.8333C16.1648 27.0833 16.4828 27.215 16.7172 27.4494C16.9516 27.6839 17.0833 28.0018 17.0833 28.3333C17.0833 28.6649 16.9516 28.9828 16.7172 29.2172C16.4828 29.4516 16.1648 29.5833 15.8333 29.5833H13.3333C13.0018 29.5833 12.6838 29.4516 12.4494 29.2172C12.215 28.9828 12.0833 28.6649 12.0833 28.3333Z" fill="#9E78F6"/>
</svg>
