<svg width="40" height="40" viewBox="0 0 40 40" fill="none" xmlns="http://www.w3.org/2000/svg">
<path opacity="0.5" d="M3.33337 20C3.33337 12.1433 3.33337 8.21499 5.77337 5.77333C8.21671 3.33333 12.1434 3.33333 20 3.33333C27.8567 3.33333 31.785 3.33333 34.225 5.77333C36.6667 8.21666 36.6667 12.1433 36.6667 20C36.6667 27.8567 36.6667 31.785 34.225 34.225C31.7867 36.6667 27.8567 36.6667 20 36.6667C12.1434 36.6667 8.21504 36.6667 5.77337 34.225C3.33337 31.7867 3.33337 27.8567 3.33337 20Z" fill="#9E78F6"/>
<path d="M21.25 11.6667C21.25 11.3352 21.1183 11.0172 20.8839 10.7828C20.6495 10.5484 20.3316 10.4167 20 10.4167C19.6685 10.4167 19.3506 10.5484 19.1162 10.7828C18.8817 11.0172 18.75 11.3352 18.75 11.6667V20.3167L15.8834 17.45C15.6464 17.2292 15.333 17.109 15.0092 17.1147C14.6853 17.1204 14.3764 17.2516 14.1473 17.4806C13.9183 17.7097 13.7871 18.0186 13.7814 18.3425C13.7757 18.6663 13.8959 18.9797 14.1167 19.2167L19.1167 24.2167C19.3511 24.4508 19.6688 24.5822 20 24.5822C20.3313 24.5822 20.649 24.4508 20.8834 24.2167L25.8834 19.2167C26.0062 19.1022 26.1047 18.9642 26.173 18.8109C26.2413 18.6576 26.2781 18.492 26.281 18.3242C26.284 18.1564 26.2531 17.9897 26.1902 17.834C26.1274 17.6784 26.0338 17.537 25.9151 17.4183C25.7964 17.2996 25.655 17.206 25.4994 17.1431C25.3437 17.0803 25.177 17.0494 25.0092 17.0524C24.8413 17.0553 24.6758 17.092 24.5225 17.1604C24.3691 17.2287 24.2311 17.3272 24.1167 17.45L21.25 20.3167V11.6667ZM13.3334 27.0833C13.0019 27.0833 12.6839 27.215 12.4495 27.4495C12.2151 27.6839 12.0834 28.0018 12.0834 28.3333C12.0834 28.6649 12.2151 28.9828 12.4495 29.2172C12.6839 29.4516 13.0019 29.5833 13.3334 29.5833H26.6667C26.9982 29.5833 27.3162 29.4516 27.5506 29.2172C27.785 28.9828 27.9167 28.6649 27.9167 28.3333C27.9167 28.0018 27.785 27.6839 27.5506 27.4495C27.3162 27.215 26.9982 27.0833 26.6667 27.0833H13.3334Z" fill="#9E78F6"/>
</svg>
