<svg width="15" height="8" viewBox="0 0 15 8" fill="none" xmlns="http://www.w3.org/2000/svg">
<path d="M5.96933 6.02467L5.44467 7.98467L4.15667 7.64L4.68133 5.68C3.89603 5.39056 3.16613 4.96867 2.52333 4.43267L1.088 5.868L0.145333 4.92533L1.58067 3.48933C0.77005 2.51851 0.225392 1.35384 0 0.109333L0.6 0C2.52623 1.38855 4.84147 2.13393 7.216 2.13C9.68533 2.13 11.9707 1.34067 13.832 0L14.432 0.108667C14.2069 1.35334 13.6625 2.51823 12.852 3.48933L14.2873 4.92533L13.3447 5.868L11.9087 4.43267C11.2659 4.9689 10.536 5.39101 9.75067 5.68067L10.276 7.64L8.988 7.98467L8.46267 6.02467C7.63756 6.16597 6.79444 6.16597 5.96933 6.02467Z" fill="#797979"/>
</svg>
