<svg width="62" height="62" viewBox="0 0 62 62" fill="none" xmlns="http://www.w3.org/2000/svg">
<path d="M56.3909 2.45605H5.60901C4.77399 2.45605 3.97317 2.78776 3.38273 3.37821C2.79228 3.96866 2.46057 4.76947 2.46057 5.60449V56.3912C2.46057 57.2262 2.79228 58.027 3.38273 58.6175C3.97317 59.2079 4.77399 59.5396 5.60901 59.5396H32.9374V37.4376H25.5071V28.8206H32.9374V22.4656C32.9374 15.0934 37.4421 11.0779 44.0199 11.0779C46.2397 11.07 48.4582 11.1832 50.6656 11.417V19.1234H46.1173C42.5378 19.1234 41.8451 20.8235 41.8451 23.3181V28.8206H50.3749L49.2657 37.4376H41.8451V59.5445H56.3763C57.211 59.5432 58.011 59.2111 58.6012 58.6209C59.1914 58.0307 59.5235 57.2307 59.5248 56.396V5.60933C59.5261 4.77599 59.1969 3.97613 58.6095 3.38505C58.022 2.79397 57.2242 2.4599 56.3909 2.45605Z" fill="black"/>
</svg>
