<svg width="40" height="40" viewBox="0 0 40 40" fill="none" xmlns="http://www.w3.org/2000/svg">
<path d="M16.6663 1.66669C18.8281 1.6661 20.9577 2.19117 22.8714 3.19665C24.7852 4.20213 26.4257 5.65787 27.6517 7.43841C28.8777 9.21895 29.6524 11.2709 29.909 13.4174C30.1656 15.5639 29.8964 17.7407 29.1247 19.76L23.6663 15.6667C21.4697 14.0184 18.333 15.5867 18.333 18.3334V28.23C17.7863 28.2989 17.2308 28.3334 16.6663 28.3334C14.5745 28.3346 12.5117 27.8436 10.6447 26.9L10.443 26.7917L4.36801 28.3084C4.25109 28.3378 4.12919 28.3414 4.01072 28.3191C3.89224 28.2969 3.78001 28.2491 3.68177 28.1793C3.58353 28.1094 3.50163 28.019 3.4417 27.9144C3.38178 27.8098 3.34526 27.6934 3.33467 27.5734V27.4367L3.35801 27.2984L4.87467 21.225L4.76967 21.025C4.00887 19.5229 3.53949 17.8902 3.38634 16.2134L3.34467 15.5767L3.33301 15C3.33301 11.4638 4.73777 8.07242 7.23825 5.57193C9.73874 3.07145 13.1301 1.66669 16.6663 1.66669ZM22.6663 17L35.9997 27C37.2813 27.9617 36.6013 30 34.9997 30H27.6663C27.3643 30.0002 27.0679 30.0825 26.809 30.2381C26.5501 30.3937 26.3383 30.6167 26.1963 30.8834L23.1363 36.6167C22.3197 38.15 19.9997 37.5684 19.9997 35.8334V18.3334C19.9997 18.2467 20.0052 18.1634 20.0163 18.0834C20.0603 17.7985 20.1772 17.5299 20.3556 17.3036C20.5341 17.0774 20.7681 16.9011 21.0349 16.7921C21.3017 16.683 21.5921 16.6448 21.878 16.6813C22.1639 16.7177 22.4355 16.8275 22.6663 17Z" fill="white"/>
</svg>
