<svg width="32" height="32" viewBox="0 0 32 32" fill="none" xmlns="http://www.w3.org/2000/svg">
<path d="M10.6667 5.33333L24 5.34V5.33333C24.8098 5.33366 25.6004 5.57975 26.2673 6.03908C26.9342 6.49841 27.446 7.14933 27.735 7.90579C28.024 8.66225 28.0766 9.48861 27.8858 10.2756C27.6951 11.0626 27.27 11.7732 26.6667 12.3133V21.3333M25.88 25.8907C25.4 26.3707 24.7333 26.6667 24 26.6667H8C7.29276 26.6667 6.61448 26.3857 6.11438 25.8856C5.61428 25.3855 5.33333 24.7072 5.33333 24V12.3147C4.87004 11.9003 4.50969 11.3836 4.28089 10.8057C4.05208 10.2277 3.96112 9.6044 4.01521 8.98518C4.06931 8.36595 4.26697 7.76785 4.59252 7.23833C4.91806 6.70882 5.36254 6.26246 5.89067 5.93467M4 4L28 28" stroke="white" stroke-width="2" stroke-linecap="round" stroke-linejoin="round"/>
</svg>
