<svg width="32" height="32" viewBox="0 0 32 32" fill="none" xmlns="http://www.w3.org/2000/svg">
<g clip-path="url(#clip0_9969_11585)">
<path d="M25.3813 16.9932C25.7947 15.8732 26.004 14.6865 26 13.4932C26 6.58916 21.5227 0.993164 16 0.993164C10.4773 0.993164 6 6.59316 6 13.4932C5.99634 14.6827 6.18685 15.8649 6.564 16.9932M18.5893 30.9932C21.1323 29.901 23.3393 28.1525 24.9843 25.9268C26.6292 23.701 27.653 21.0781 27.9507 18.3265C27.9947 17.6412 27.684 16.9932 27 16.9932H5C4.31333 16.9932 4.00533 17.6358 4.04933 18.3265C4.34705 21.0781 5.3708 23.701 7.01573 25.9268C8.66067 28.1525 10.8677 29.901 13.4107 30.9932M4 30.9932H28" stroke="white" stroke-width="2" stroke-linecap="round" stroke-linejoin="round"/>
</g>
<defs>
<clipPath id="clip0_9969_11585">
<rect width="32" height="32" fill="white"/>
</clipPath>
</defs>
</svg>
