<svg width="62" height="62" viewBox="0 0 62 62" fill="none" xmlns="http://www.w3.org/2000/svg">
<g clip-path="url(#clip0_10527_733)">
<path d="M31 20.667C28.2595 20.667 25.6311 21.7557 23.6933 23.6936C21.7554 25.6314 20.6667 28.2598 20.6667 31.0003C20.6667 33.7409 21.7554 36.3692 23.6933 38.3071C25.6311 40.245 28.2595 41.3337 31 41.3337C33.7406 41.3337 36.3689 40.245 38.3068 38.3071C40.2447 36.3692 41.3334 33.7409 41.3334 31.0003C41.3334 28.2598 40.2447 25.6314 38.3068 23.6936C36.3689 21.7557 33.7406 20.667 31 20.667Z" fill="black"/>
<path fill-rule="evenodd" clip-rule="evenodd" d="M18.6 0C13.667 0 8.93599 1.95964 5.44781 5.44781C1.95964 8.93599 0 13.667 0 18.6L0 43.4C0 48.333 1.95964 53.064 5.44781 56.5522C8.93599 60.0404 13.667 62 18.6 62H43.4C48.333 62 53.064 60.0404 56.5522 56.5522C60.0404 53.064 62 48.333 62 43.4V18.6C62 13.667 60.0404 8.93599 56.5522 5.44781C53.064 1.95964 48.333 0 43.4 0L18.6 0ZM16.5333 31C16.5333 27.1632 18.0575 23.4835 20.7705 20.7705C23.4835 18.0575 27.1632 16.5333 31 16.5333C34.8368 16.5333 38.5164 18.0575 41.2295 20.7705C43.9425 23.4835 45.4667 27.1632 45.4667 31C45.4667 34.8368 43.9425 38.5164 41.2295 41.2295C38.5164 43.9425 34.8368 45.4667 31 45.4667C27.1632 45.4667 23.4835 43.9425 20.7705 41.2295C18.0575 38.5164 16.5333 34.8368 16.5333 31ZM45.4667 16.5333H49.6V12.4H45.4667V16.5333Z" fill="black"/>
</g>
<defs>
<clipPath id="clip0_10527_733">
<rect width="62" height="62" fill="white"/>
</clipPath>
</defs>
</svg>
