<svg width="32" height="32" viewBox="0 0 32 32" fill="none" xmlns="http://www.w3.org/2000/svg">
<path d="M23.8721 9.90261L25.7641 8.01128C25.9482 8.19559 26.177 8.32898 26.4281 8.39843C26.6791 8.46788 26.944 8.47101 27.1966 8.40751C27.4493 8.34401 27.6811 8.21605 27.8696 8.03614C28.058 7.85623 28.1965 7.63052 28.2716 7.38107C28.3467 7.13161 28.3558 6.86694 28.298 6.61291C28.2402 6.35888 28.1176 6.12419 27.9419 5.93175C27.7663 5.73932 27.5438 5.59574 27.2961 5.51503C27.0484 5.43432 26.784 5.41924 26.5287 5.47128C26.5808 5.21591 26.5658 4.9514 26.485 4.70359C26.4043 4.45579 26.2607 4.23315 26.0682 4.05745C25.8757 3.88175 25.6409 3.75898 25.3868 3.70114C25.1327 3.64331 24.8679 3.65238 24.6183 3.72747C24.3688 3.80256 24.1429 3.94111 23.9629 4.12958C23.7829 4.31804 23.6549 4.54998 23.5913 4.80273C23.5277 5.05548 23.5308 5.3204 23.6002 5.57161C23.6697 5.82281 23.8031 6.05171 23.9874 6.23594L22.0967 8.12794M8.12807 22.0973L6.23607 23.9886C6.05195 23.804 5.82307 23.6703 5.57181 23.6007C5.32056 23.531 5.05552 23.5277 4.80262 23.5912C4.54972 23.6546 4.31762 23.7826 4.129 23.9626C3.94039 24.1427 3.80172 24.3686 3.72656 24.6182C3.65139 24.8679 3.64231 25.1328 3.70019 25.387C3.75807 25.6413 3.88094 25.8761 4.05678 26.0686C4.23262 26.2612 4.45541 26.4047 4.70337 26.4854C4.95133 26.566 5.21596 26.5809 5.4714 26.5286C5.41912 26.784 5.43402 27.0487 5.51464 27.2966C5.59527 27.5446 5.73886 27.7674 5.93138 27.9432C6.1239 28.1191 6.35876 28.2419 6.61299 28.2998C6.86722 28.3577 7.13212 28.3486 7.38179 28.2735C7.63146 28.1983 7.85735 28.0596 8.03737 27.871C8.2174 27.6824 8.34539 27.4503 8.40884 27.1974C8.47229 26.9445 8.46902 26.6795 8.39936 26.4282C8.3297 26.1769 8.19602 25.9481 8.01141 25.7639L9.90341 23.8726C9.67074 23.4759 9.49341 23.0559 9.37741 22.6226C8.93931 22.5042 8.51911 22.3275 8.12807 22.0973Z" stroke="white" stroke-width="2" stroke-linecap="round" stroke-linejoin="round"/>
<path d="M8.1279 22.0975C7.7699 21.8875 7.43057 21.6328 7.1239 21.3261C6.65746 20.86 6.28743 20.3064 6.03498 19.6972C5.78253 19.088 5.65259 18.435 5.65259 17.7755C5.65259 17.116 5.78253 16.463 6.03498 15.8538C6.28743 15.2445 6.65746 14.691 7.1239 14.2248C7.54717 13.8033 8.04255 13.461 8.58657 13.2141C9.11857 12.9701 9.6999 12.9208 10.2559 12.7741C11.4546 12.4588 12.4686 11.3995 12.7766 10.1961C12.9039 9.69881 12.9552 9.18148 13.1599 8.70281C13.4105 8.11296 13.7722 7.57678 14.2252 7.12348C14.6914 6.65723 15.2448 6.28738 15.854 6.03504C16.4631 5.78271 17.1159 5.65283 17.7752 5.65283C18.4345 5.65283 19.0874 5.78271 19.6965 6.03504C20.3056 6.28738 20.8591 6.65723 21.3252 7.12348C21.6241 7.42428 21.8835 7.76188 22.0972 8.12815C22.3273 8.51922 22.5037 8.93942 22.6219 9.37748C23.0602 9.4958 23.4807 9.67249 23.8719 9.90281C24.2381 10.1163 24.5757 10.3755 24.8766 10.6741C25.3429 11.1404 25.7128 11.694 25.9652 12.3033C26.2175 12.9126 26.3473 13.5656 26.3472 14.2251C26.3471 14.8846 26.217 15.5375 25.9645 16.1467C25.7119 16.7559 25.3418 17.3094 24.8752 17.7755C24.4221 18.2282 23.8861 18.5897 23.2966 18.8401C22.8179 19.0455 22.3006 19.0961 21.8032 19.2235C20.6012 19.5315 19.5412 20.5448 19.2259 21.7441C19.0792 22.3001 19.0299 22.8821 18.7859 23.4141C18.539 23.9579 18.1967 24.4531 17.7752 24.8761C17.309 25.3426 16.7555 25.7126 16.1463 25.9651C15.5371 26.2175 14.884 26.3475 14.2246 26.3475C13.5651 26.3475 12.9121 26.2175 12.3029 25.9651C11.6936 25.7126 11.1401 25.3426 10.6739 24.8761C10.3753 24.5757 10.1161 24.2386 9.90257 23.8728" stroke="white" stroke-width="2" stroke-linecap="round" stroke-linejoin="round"/>
</svg>
