<svg width="18" height="20" viewBox="0 0 18 20" fill="none" xmlns="http://www.w3.org/2000/svg">
<path fill-rule="evenodd" clip-rule="evenodd" d="M6.707 0.407964C6 1.03496 6 2.18196 6 4.47496V15.523C6 17.816 6 18.963 6.707 19.59C7.414 20.217 8.495 20.029 10.657 19.652L12.987 19.246C15.381 18.828 16.578 18.619 17.289 17.741C18 16.862 18 15.592 18 13.051V6.94696C18 4.40696 18 3.13696 17.29 2.25796C16.578 1.37996 15.38 1.17096 12.986 0.753964L10.658 0.346964C8.496 -0.0300364 7.415 -0.218036 6.708 0.408964M9 8.16796C9.414 8.16796 9.75 8.51896 9.75 8.95196V11.046C9.75 11.479 9.414 11.83 9 11.83C8.586 11.83 8.25 11.479 8.25 11.046V8.95196C8.25 8.51896 8.586 8.16796 9 8.16796Z" fill="#F04D3E"/>
<path d="M4.547 2.49896C2.489 2.50196 1.416 2.54696 0.732 3.23096C1.19209e-07 3.96296 0 5.14096 0 7.49896V12.499C0 14.856 1.19209e-07 16.034 0.732 16.767C1.416 17.45 2.489 17.496 4.547 17.499C4.5 16.875 4.5 16.155 4.5 15.376V4.62196C4.5 3.84196 4.5 3.12196 4.547 2.49896Z" fill="#F04D3E"/>
</svg>
