<svg width="32" height="32" viewBox="0 0 32 32" fill="none" xmlns="http://www.w3.org/2000/svg">
<path d="M16.1024 15.328C16.2077 15.3444 16.3152 15.3396 16.4186 15.3139C16.522 15.2882 16.6192 15.2421 16.7046 15.1783C16.7899 15.1145 16.8617 15.0343 16.9156 14.9424C16.9695 14.8505 17.0045 14.7488 17.0186 14.6431C17.0327 14.5375 17.0255 14.4301 16.9975 14.3273C16.9695 14.2245 16.9213 14.1283 16.8556 14.0444C16.7899 13.9605 16.7081 13.8906 16.6151 13.8387C16.522 13.7868 16.4195 13.7541 16.3136 13.7424C14.8096 13.5424 13.4656 14.6848 13.4656 16.352C13.4656 16.5641 13.5499 16.7676 13.6999 16.9176C13.8499 17.0677 14.0534 17.152 14.2656 17.152C14.4777 17.152 14.6812 17.0677 14.8313 16.9176C14.9813 16.7676 15.0656 16.5641 15.0656 16.352C15.0656 15.6208 15.5904 15.2592 16.1024 15.328ZM16.6528 23.944C18.5602 23.944 20.3895 23.1862 21.7383 21.8375C23.087 20.4887 23.8448 18.6594 23.8448 16.752C23.8448 14.8445 23.087 13.0152 21.7383 11.6664C20.3895 10.3177 18.5602 9.55996 16.6528 9.55996C14.7453 9.55996 12.916 10.3177 11.5673 11.6664C10.2185 13.0152 9.46077 14.8445 9.46077 16.752C9.46077 18.6594 10.2185 20.4887 11.5673 21.8375C12.916 23.1862 14.7453 23.944 16.6528 23.944ZM16.6528 22.344C15.1697 22.344 13.7473 21.7548 12.6986 20.7061C11.6499 19.6574 11.0608 18.2351 11.0608 16.752C11.0608 15.2689 11.6499 13.8465 12.6986 12.7978C13.7473 11.7491 15.1697 11.16 16.6528 11.16C18.1359 11.16 19.5582 11.7491 20.6069 12.7978C21.6556 13.8465 22.2448 15.2689 22.2448 16.752C22.2448 18.2351 21.6556 19.6574 20.6069 20.7061C19.5582 21.7548 18.1359 22.344 16.6528 22.344ZM18.6016 3.31996C20.2736 3.42876 21.8432 3.92636 22.9648 4.63356C25.536 6.25756 26.6448 8.04316 27.2848 9.16156C27.9072 10.2464 29.1344 12.6544 28.9584 15.28C28.9123 15.9872 28.8193 16.6906 28.68 17.3856L28.616 17.728C28.5264 18.2464 28.4704 18.7776 28.5648 19.9328C28.6768 21.2944 28.4016 22.7856 27.8256 24.1088C27.2496 25.4288 26.3456 26.648 25.1408 27.4C22.6368 28.9648 19.6208 29.304 16.792 28.1728C15.4976 27.656 15.0608 27.5328 14.5712 27.504C14.2267 27.4913 13.8818 27.4945 13.5376 27.5136H13.5264C13.0624 27.5328 12.4672 27.5552 11.64 27.5552C8.00317 27.5552 5.58397 25.3792 4.34877 23.0048C2.53917 19.5232 2.58877 14.2528 6.56797 11.112C7.78397 10.152 8.14717 9.83196 8.55677 9.14876C9.23037 8.02556 9.87037 7.14556 10.6448 6.38716C11.4208 5.62556 12.3024 5.01276 13.4352 4.39036C15.0816 3.48476 16.9232 3.20956 18.6016 3.31836M18.4976 4.91516C17.0576 4.81916 15.5312 5.06236 14.2048 5.79196C13.1584 6.36796 12.4064 6.89916 11.7648 7.52796C11.1232 8.15836 10.5632 8.91356 9.92957 9.96956C9.35037 10.9344 8.76477 11.4144 7.55997 12.3648C4.34397 14.904 4.20637 19.2608 5.76797 22.2656C6.79997 24.2496 8.74077 25.9536 11.64 25.9536C12.4368 25.9536 13.0096 25.9312 13.4688 25.9136H13.4992C13.9408 25.8976 14.3152 25.8816 14.672 25.9056C15.4448 25.9536 16.096 26.1696 17.3856 26.6864C19.7232 27.6208 22.2048 27.3472 24.2928 26.0416C25.1536 25.504 25.8768 24.5776 26.3584 23.4672C26.8416 22.36 27.0592 21.1344 26.9712 20.0624C26.8656 18.784 26.9232 18.1168 27.04 17.4512L27.112 17.0656C27.2032 16.5808 27.3008 16.0656 27.3616 15.1712C27.5056 13.048 26.4928 10.9952 25.8976 9.95516C25.32 8.95036 24.3712 7.41116 22.1104 5.98556C21.2464 5.43996 19.944 5.01116 18.4976 4.91516Z" fill="white"/>
</svg>
