<svg width="24" height="24" viewBox="0 0 24 24" fill="none" xmlns="http://www.w3.org/2000/svg">
<path d="M8.65 20H6C5.45 20 4.97933 19.8043 4.588 19.413C4.19667 19.0217 4.00067 18.5507 4 18V15.35L2.075 13.4C1.89167 13.2 1.75 12.9793 1.65 12.738C1.55 12.4967 1.5 12.2507 1.5 12C1.5 11.7493 1.55 11.5037 1.65 11.263C1.75 11.0223 1.89167 10.8013 2.075 10.6L4 8.65V6C4 5.45 4.196 4.97933 4.588 4.588C4.98 4.19667 5.45067 4.00067 6 4H8.65L10.6 2.075C10.8 1.89167 11.021 1.75 11.263 1.65C11.505 1.55 11.7507 1.5 12 1.5C12.2493 1.5 12.4953 1.55 12.738 1.65C12.9807 1.75 13.2013 1.89167 13.4 2.075L15.35 4H18C18.55 4 19.021 4.196 19.413 4.588C19.805 4.98 20.0007 5.45067 20 6V8.65L21.925 10.6C22.1083 10.8 22.25 11.021 22.35 11.263C22.45 11.505 22.5 11.7507 22.5 12C22.5 12.2493 22.45 12.4953 22.35 12.738C22.25 12.9807 22.1083 13.2013 21.925 13.4L20 15.35V18C20 18.55 19.8043 19.021 19.413 19.413C19.0217 19.805 18.5507 20.0007 18 20H15.35L13.4 21.925C13.2 22.1083 12.9793 22.25 12.738 22.35C12.4967 22.45 12.2507 22.5 12 22.5C11.7493 22.5 11.5037 22.45 11.263 22.35C11.0223 22.25 10.8013 22.1083 10.6 21.925L8.65 20ZM8.5 18H10V14C10.4333 13.9 10.7917 13.671 11.075 13.313C11.3583 12.955 11.5 12.5423 11.5 12.075V8.5C11.5 8.36667 11.45 8.25 11.35 8.15C11.25 8.05 11.1333 8 11 8C10.8667 8 10.75 8.05 10.65 8.15C10.55 8.25 10.5 8.36667 10.5 8.5V11.775H9.75V8.5C9.75 8.36667 9.7 8.25 9.6 8.15C9.5 8.05 9.38333 8 9.25 8C9.11667 8 9 8.05 8.9 8.15C8.8 8.25 8.75 8.36667 8.75 8.5V11.775H8V8.5C8 8.36667 7.95 8.25 7.85 8.15C7.75 8.05 7.63333 8 7.5 8C7.36667 8 7.25 8.05 7.15 8.15C7.05 8.25 7 8.36667 7 8.5V12.075C7 12.5417 7.14167 12.9543 7.425 13.313C7.70833 13.6717 8.06667 13.9007 8.5 14V18ZM14 18H15.5V14.8C15.9333 14.5667 16.2917 14.1543 16.575 13.563C16.8583 12.9717 17 12.284 17 11.5C17 10.5333 16.779 9.70833 16.337 9.025C15.895 8.34167 15.366 8 14.75 8C14.1167 8 13.5833 8.34167 13.15 9.025C12.7167 9.70833 12.5 10.5333 12.5 11.5C12.5 12.2667 12.6417 12.946 12.925 13.538C13.2083 14.13 13.5667 14.5507 14 14.8V18Z" fill="#EE542B"/>
</svg>
