<svg width="32" height="32" viewBox="0 0 32 32" fill="none" xmlns="http://www.w3.org/2000/svg">
<path fill-rule="evenodd" clip-rule="evenodd" d="M12.5867 5.04395C12.7635 5.04395 12.9331 5.11418 13.0581 5.23921C13.1831 5.36423 13.2534 5.5338 13.2534 5.71061V10.1106C13.2534 10.2874 13.1831 10.457 13.0581 10.582C12.9331 10.707 12.7635 10.7773 12.5867 10.7773C12.4099 10.7773 12.2403 10.707 12.1153 10.582C11.9903 10.457 11.92 10.2874 11.92 10.1106V5.71061C11.92 5.5338 11.9903 5.36423 12.1153 5.23921C12.2403 5.11418 12.4099 5.04395 12.5867 5.04395Z" fill="white"/>
<path fill-rule="evenodd" clip-rule="evenodd" d="M7.85335 9.26961C8.60669 9.08961 9.37535 9.22627 10.1734 9.63827C10.8234 9.97494 11.2847 10.1289 11.644 10.2029C12.0027 10.2776 12.288 10.2789 12.6327 10.2789V11.6123H12.6194C12.2754 11.6123 11.8727 11.6123 11.374 11.5089C10.8694 11.4043 10.2927 11.2009 9.56069 10.8223C8.97535 10.5203 8.53402 10.4776 8.16335 10.5663C7.77402 10.6596 7.36269 10.9196 6.88869 11.4089C5.80069 12.5343 5.46269 13.6929 5.34469 14.5836C5.27802 15.6796 5.47602 17.8436 6.45669 19.9589C6.79002 20.6789 7.26335 21.6723 7.84069 22.4503C8.12869 22.8383 8.41802 23.1369 8.69602 23.3209C8.96602 23.4989 9.19002 23.5476 9.39335 23.5129C11.4754 23.1543 11.8667 23.1456 12.2727 23.1456H12.964V24.4789H12.2534C11.972 24.4789 11.64 24.4789 9.62002 24.8269C8.99335 24.9349 8.42869 24.7423 7.96135 24.4336C7.50202 24.1303 7.10535 23.6963 6.77002 23.2449C6.10002 22.3429 5.57602 21.2289 5.24735 20.5196C4.15535 18.1649 3.93269 15.7616 4.01535 14.4769L4.01735 14.4556L4.02002 14.4343C4.16135 13.3383 4.58269 11.8749 5.93069 10.4823C6.49402 9.89961 7.11935 9.44494 7.85402 9.26894" fill="white"/>
<path fill-rule="evenodd" clip-rule="evenodd" d="M9.76004 7.6065C10.7574 8.5605 11.298 9.71717 11.298 10.6132C11.298 10.79 11.3683 10.9596 11.4933 11.0846C11.6183 11.2096 11.7879 11.2798 11.9647 11.2798C12.1415 11.2798 12.3111 11.2096 12.4361 11.0846C12.5611 10.9596 12.6314 10.79 12.6314 10.6132C12.6314 9.2465 11.8527 7.76317 10.6814 6.6425C9.49604 5.50984 7.8287 4.6665 5.9307 4.6665C5.75389 4.6665 5.58432 4.73674 5.4593 4.86177C5.33428 4.98679 5.26404 5.15636 5.26404 5.33317C5.26404 5.50998 5.33428 5.67955 5.4593 5.80457C5.58432 5.9296 5.75389 5.99984 5.9307 5.99984C7.4267 5.99984 8.77604 6.66584 9.75937 7.6065" fill="white"/>
<path fill-rule="evenodd" clip-rule="evenodd" d="M5.716 4.67261C5.89138 4.65073 6.06828 4.6994 6.2078 4.80791C6.34731 4.91643 6.43802 5.0759 6.46 5.25127C6.788 7.87127 9.09 9.25127 10.9493 9.99461C11.1135 10.0603 11.2449 10.1885 11.3145 10.351C11.3841 10.5136 11.3863 10.6971 11.3207 10.8613C11.255 11.0254 11.1268 11.1568 10.9642 11.2264C10.8017 11.2961 10.6182 11.2983 10.454 11.2326C8.54133 10.4679 5.564 8.82994 5.13733 5.41661C5.11546 5.24122 5.16412 5.06432 5.27264 4.92481C5.38115 4.78529 5.54062 4.69458 5.716 4.67261ZM17.1747 9.26861C16.4067 9.09261 15.6187 9.22461 14.7947 9.63394C14.1147 9.97128 13.63 10.1273 13.25 10.2026C12.87 10.2779 12.5687 10.2793 12.21 10.2793C12.0332 10.2793 11.8636 10.3495 11.7386 10.4745C11.6136 10.5996 11.5433 10.7691 11.5433 10.9459C11.5433 11.1228 11.6136 11.2923 11.7386 11.4173C11.8636 11.5424 12.0332 11.6126 12.21 11.6126H12.2227C12.5807 11.6126 12.996 11.6126 13.5093 11.5106C14.03 11.4073 14.6267 11.2053 15.3867 10.8279C16.0027 10.5226 16.4747 10.4759 16.8773 10.5679C17.2947 10.6639 17.7287 10.9293 18.222 11.4193C19.366 12.5546 19.712 13.7206 19.8313 14.6086C19.8572 14.7817 19.9502 14.9377 20.0902 15.0429C20.2301 15.1481 20.4058 15.1939 20.5793 15.1707C20.7528 15.1474 20.9102 15.0568 21.0175 14.9184C21.1248 14.7801 21.1733 14.6051 21.1527 14.4313C21.0047 13.3293 20.5633 11.8646 19.1613 10.4726C18.574 9.88994 17.928 9.44061 17.1747 9.26861ZM17.8047 22.8533C17.7416 22.7926 17.6672 22.7449 17.5857 22.7129C17.5041 22.6809 17.4171 22.6654 17.3296 22.667C17.2421 22.6687 17.1557 22.6876 17.0755 22.7226C16.9953 22.7577 16.9227 22.8082 16.862 22.8713C16.3573 23.3953 15.9333 23.5713 15.5747 23.5126C13.4067 23.1539 13.0013 23.1459 12.5847 23.1459C12.4079 23.1459 12.2383 23.2162 12.1133 23.3412C11.9882 23.4662 11.918 23.6358 11.918 23.8126C11.918 23.9894 11.9882 24.159 12.1133 24.284C12.2383 24.409 12.4079 24.4793 12.5847 24.4793H12.6033C12.9013 24.4793 13.248 24.4793 15.3567 24.8279C16.3713 24.9959 17.2133 24.4279 17.8227 23.7959C17.8835 23.7329 17.9313 23.6584 17.9633 23.5768C17.9953 23.4952 18.0109 23.4082 18.0092 23.3205C18.0076 23.2329 17.9886 23.1465 17.9535 23.0662C17.9184 22.9859 17.8678 22.914 17.8047 22.8533Z" fill="white"/>
<path fill-rule="evenodd" clip-rule="evenodd" d="M21.7667 10.735C21.098 11.9417 20.9247 13.2077 21.1907 14.063C21.2167 14.1466 21.226 14.2345 21.218 14.3217C21.21 14.4089 21.185 14.4937 21.1442 14.5712C21.1035 14.6487 21.0479 14.7174 20.9806 14.7734C20.9133 14.8294 20.8356 14.8717 20.752 14.8977C20.6684 14.9237 20.5805 14.9329 20.4933 14.925C20.4061 14.917 20.3214 14.8919 20.2438 14.8512C20.1663 14.8105 20.0976 14.7549 20.0416 14.6876C19.9856 14.6203 19.9434 14.5426 19.9174 14.459C19.5114 13.153 19.8154 11.5057 20.6007 10.0883C21.396 8.65367 22.738 7.35433 24.5507 6.79033C24.6343 6.76433 24.7222 6.75505 24.8094 6.76302C24.8966 6.771 24.9814 6.79607 25.0589 6.8368C25.1364 6.87753 25.2051 6.93314 25.2611 7.00043C25.3171 7.06772 25.3594 7.14539 25.3854 7.229C25.4114 7.31261 25.4206 7.40052 25.4127 7.48771C25.4047 7.57491 25.3796 7.65968 25.3389 7.73718C25.2982 7.81469 25.2426 7.88341 25.1753 7.93943C25.108 7.99545 25.0303 8.03766 24.9467 8.06367C23.518 8.50767 22.4267 9.545 21.7667 10.735Z" fill="white"/>
<path fill-rule="evenodd" clip-rule="evenodd" d="M23.146 11.5858C22.3673 12.7258 21.314 13.4478 20.4307 13.5944C20.3432 13.6075 20.2592 13.6378 20.1836 13.6836C20.1079 13.7294 20.0422 13.7898 19.9901 13.8613C19.938 13.9328 19.9007 14.0139 19.8803 14.1C19.8599 14.186 19.8568 14.2753 19.8712 14.3625C19.8856 14.4498 19.9173 14.5333 19.9643 14.6082C20.0113 14.6831 20.0727 14.7479 20.145 14.7988C20.2173 14.8497 20.299 14.8858 20.3854 14.9048C20.4717 14.9239 20.561 14.9256 20.648 14.9098C21.9967 14.6864 23.3327 13.6758 24.2467 12.3378C25.172 10.9831 25.7313 9.20044 25.4213 7.32778C25.4071 7.24137 25.3759 7.15861 25.3297 7.08424C25.2834 7.00987 25.223 6.94534 25.1518 6.89433C25.0806 6.84332 25 6.80683 24.9148 6.78695C24.8295 6.76706 24.7411 6.76417 24.6547 6.77844C24.5683 6.79271 24.4855 6.82386 24.4111 6.87012C24.3368 6.91637 24.2722 6.97681 24.2212 7.04801C24.1702 7.1192 24.1337 7.19974 24.1138 7.28503C24.094 7.37033 24.0911 7.4587 24.1053 7.54511C24.35 9.02111 23.9133 10.4618 23.1453 11.5851" fill="white"/>
<path fill-rule="evenodd" clip-rule="evenodd" d="M21.1867 15.3333C20.7447 15.3333 20.3208 15.5089 20.0082 15.8215C19.6956 16.134 19.52 16.558 19.52 17C19.52 17.442 19.6956 17.866 20.0082 18.1785C20.3208 18.4911 20.7447 18.6667 21.1867 18.6667C21.6287 18.6667 22.0527 18.4911 22.3652 18.1785C22.6778 17.866 22.8534 17.442 22.8534 17C22.8534 16.558 22.6778 16.134 22.3652 15.8215C22.0527 15.5089 21.6287 15.3333 21.1867 15.3333ZM18.1867 17C18.1867 16.606 18.2643 16.2159 18.4151 15.8519C18.5658 15.488 18.7868 15.1573 19.0654 14.8787C19.344 14.6001 19.6747 14.3791 20.0387 14.2284C20.4026 14.0776 20.7927 14 21.1867 14C21.5807 14 21.9708 14.0776 22.3348 14.2284C22.6987 14.3791 23.0294 14.6001 23.308 14.8787C23.5866 15.1573 23.8076 15.488 23.9583 15.8519C24.1091 16.2159 24.1867 16.606 24.1867 17C24.1867 17.7956 23.8706 18.5587 23.308 19.1213C22.7454 19.6839 21.9824 20 21.1867 20C20.3911 20 19.628 19.6839 19.0654 19.1213C18.5028 18.5587 18.1867 17.7956 18.1867 17Z" fill="white"/>
<path fill-rule="evenodd" clip-rule="evenodd" d="M25.23 12.06C25.9789 12.3287 26.5903 12.8839 26.9299 13.6034C27.2695 14.3229 27.3093 15.1478 27.0407 15.8967C27.0111 15.9791 26.9656 16.0549 26.9068 16.1198C26.848 16.1846 26.7769 16.2372 26.6977 16.2746C26.6186 16.312 26.5328 16.3335 26.4453 16.3377C26.3579 16.3419 26.2704 16.3289 26.188 16.2994C26.1056 16.2698 26.0298 16.2243 25.965 16.1655C25.9001 16.1067 25.8475 16.0356 25.8101 15.9564C25.7727 15.8773 25.7513 15.7915 25.747 15.704C25.7428 15.6166 25.7558 15.5291 25.7854 15.4467C25.9348 15.0307 25.9128 14.5723 25.7242 14.1725C25.5357 13.7727 25.1961 13.4641 24.78 13.3147C24.364 13.1653 23.9056 13.1873 23.5058 13.3758C23.106 13.5644 22.7974 13.904 22.648 14.32C22.6201 14.4045 22.5755 14.4825 22.517 14.5494C22.4584 14.6164 22.3871 14.6709 22.3071 14.7099C22.2272 14.7488 22.1402 14.7714 22.0514 14.7763C21.9626 14.7811 21.8738 14.7681 21.79 14.7381C21.7063 14.7081 21.6295 14.6616 21.564 14.6014C21.4985 14.5412 21.4457 14.4686 21.4088 14.3877C21.3718 14.3068 21.3514 14.2193 21.3487 14.1304C21.3461 14.0415 21.3613 13.953 21.3934 13.87C21.6622 13.1213 22.2174 12.51 22.9369 12.1706C23.6564 11.8311 24.4812 11.7914 25.23 12.06Z" fill="white"/>
<path fill-rule="evenodd" clip-rule="evenodd" d="M24.1687 15.4503C24.8512 15.2545 25.581 15.3071 26.2284 15.5987C26.8758 15.8904 27.3988 16.4021 27.7044 17.043C28.0101 17.6838 28.0786 18.4123 27.8977 19.099C27.7169 19.7856 27.2984 20.3858 26.7167 20.793C26.5716 20.8898 26.3943 20.926 26.2229 20.8936C26.0515 20.8613 25.8995 20.763 25.7997 20.6199C25.6999 20.4768 25.6602 20.3003 25.689 20.1283C25.7179 19.9562 25.813 19.8023 25.954 19.6996C26.1375 19.5713 26.2932 19.4074 26.4119 19.2176C26.5306 19.0277 26.6099 18.816 26.6449 18.5948C26.68 18.3737 26.6702 18.1478 26.616 17.9306C26.5618 17.7134 26.4645 17.5093 26.3297 17.3305C26.1949 17.1517 26.0255 17.002 25.8316 16.8901C25.6377 16.7782 25.4232 16.7066 25.201 16.6795C24.9787 16.6523 24.7533 16.6702 24.5382 16.7321C24.323 16.794 24.1225 16.8986 23.9487 17.0396C23.8807 17.0949 23.8026 17.1362 23.7187 17.1612C23.6348 17.1863 23.5468 17.1945 23.4597 17.1856C23.3726 17.1766 23.2881 17.1505 23.211 17.1089C23.134 17.0673 23.0659 17.0109 23.0107 16.943C22.9554 16.875 22.9141 16.7969 22.8891 16.713C22.864 16.6291 22.8558 16.541 22.8648 16.4539C22.8737 16.3668 22.8998 16.2824 22.9414 16.2053C22.983 16.1283 23.0394 16.0602 23.1074 16.005C23.4203 15.7506 23.7812 15.562 24.1687 15.4503ZM18.52 19.333C18.078 19.333 17.6541 19.5086 17.3415 19.8211C17.0289 20.1337 16.8534 20.5576 16.8534 20.9996C16.8534 21.4417 17.0289 21.8656 17.3415 22.1781C17.6541 22.4907 18.078 22.6663 18.52 22.6663C18.962 22.6663 19.386 22.4907 19.6985 22.1781C20.0111 21.8656 20.1867 21.4417 20.1867 20.9996C20.1867 20.5576 20.0111 20.1337 19.6985 19.8211C19.386 19.5086 18.962 19.333 18.52 19.333ZM15.52 20.9996C15.52 20.204 15.8361 19.4409 16.3987 18.8783C16.9613 18.3157 17.7244 17.9996 18.52 17.9996C19.3157 17.9996 20.0787 18.3157 20.6413 18.8783C21.2039 19.4409 21.52 20.204 21.52 20.9996C21.52 21.7953 21.2039 22.5583 20.6413 23.1209C20.0787 23.6836 19.3157 23.9996 18.52 23.9996C17.7244 23.9996 16.9613 23.6836 16.3987 23.1209C15.8361 22.5583 15.52 21.7953 15.52 20.9996Z" fill="white"/>
<path fill-rule="evenodd" clip-rule="evenodd" d="M23.8533 19.3333C23.4113 19.3333 22.9874 19.5089 22.6748 19.8215C22.3623 20.134 22.1867 20.558 22.1867 21C22.1867 21.442 22.3623 21.866 22.6748 22.1785C22.9874 22.4911 23.4113 22.6667 23.8533 22.6667C24.2954 22.6667 24.7193 22.4911 25.0318 22.1785C25.3444 21.866 25.52 21.442 25.52 21C25.52 20.558 25.3444 20.134 25.0318 19.8215C24.7193 19.5089 24.2954 19.3333 23.8533 19.3333ZM20.8533 21C20.8533 20.2044 21.1694 19.4413 21.732 18.8787C22.2946 18.3161 23.0577 18 23.8533 18C24.649 18 25.412 18.3161 25.9747 18.8787C26.5373 19.4413 26.8533 20.2044 26.8533 21C26.8533 21.7956 26.5373 22.5587 25.9747 23.1213C25.412 23.6839 24.649 24 23.8533 24C23.0577 24 22.2946 23.6839 21.732 23.1213C21.1694 22.5587 20.8533 21.7956 20.8533 21Z" fill="white"/>
<path fill-rule="evenodd" clip-rule="evenodd" d="M21.1867 23.3333C20.7447 23.3333 20.3208 23.5089 20.0082 23.8215C19.6956 24.134 19.52 24.558 19.52 25C19.52 25.442 19.6956 25.866 20.0082 26.1785C20.3208 26.4911 20.7447 26.6667 21.1867 26.6667C21.6287 26.6667 22.0527 26.4911 22.3652 26.1785C22.6778 25.866 22.8534 25.442 22.8534 25C22.8534 24.558 22.6778 24.134 22.3652 23.8215C22.0527 23.5089 21.6287 23.3333 21.1867 23.3333ZM18.1867 25C18.1867 24.606 18.2643 24.2159 18.4151 23.8519C18.5658 23.488 18.7868 23.1573 19.0654 22.8787C19.344 22.6001 19.6747 22.3791 20.0387 22.2284C20.4026 22.0776 20.7927 22 21.1867 22C21.5807 22 21.9708 22.0776 22.3348 22.2284C22.6987 22.3791 23.0294 22.6001 23.308 22.8787C23.5866 23.1573 23.8076 23.488 23.9583 23.8519C24.1091 24.2159 24.1867 24.606 24.1867 25C24.1867 25.7956 23.8706 26.5587 23.308 27.1213C22.7454 27.6839 21.9824 28 21.1867 28C20.3911 28 19.628 27.6839 19.0654 27.1213C18.5028 26.5587 18.1867 25.7956 18.1867 25Z" fill="white"/>
<path fill-rule="evenodd" clip-rule="evenodd" d="M25.2227 22.6439C25.2521 22.5615 25.2975 22.4856 25.3562 22.4207C25.4149 22.3557 25.4859 22.303 25.565 22.2655C25.6441 22.2279 25.7299 22.2064 25.8173 22.202C25.9048 22.1976 25.9922 22.2105 26.0747 22.2399C26.4976 22.391 26.8813 22.635 27.1973 22.9541C27.5133 23.2731 27.7537 23.6591 27.9007 24.0834C28.0476 24.5078 28.0975 24.9597 28.0465 25.4059C27.9955 25.8521 27.845 26.2811 27.606 26.6614C27.3671 27.0416 27.0458 27.3634 26.666 27.6029C26.2861 27.8424 25.8573 27.9936 25.4112 28.0453C24.9651 28.097 24.5131 28.0479 24.0885 27.9016C23.6639 27.7553 23.2776 27.5155 22.958 27.1999C22.8941 27.1388 22.8429 27.0656 22.8076 26.9845C22.7722 26.9034 22.7534 26.8161 22.7521 26.7277C22.7508 26.6392 22.7671 26.5514 22.8001 26.4693C22.8331 26.3873 22.8821 26.3126 22.9443 26.2496C23.0064 26.1867 23.0805 26.1368 23.1621 26.1027C23.2438 26.0687 23.3314 26.0512 23.4198 26.0514C23.5083 26.0515 23.5958 26.0693 23.6773 26.1036C23.7589 26.1379 23.8328 26.1881 23.8947 26.2513C24.0722 26.4266 24.2868 26.5598 24.5227 26.6411C24.7585 26.7224 25.0096 26.7497 25.2574 26.721C25.5052 26.6923 25.7435 26.6084 25.9545 26.4753C26.1656 26.3423 26.344 26.1636 26.4768 25.9524C26.6096 25.7412 26.6932 25.5028 26.7216 25.255C26.75 25.0071 26.7224 24.7561 26.6408 24.5203C26.5592 24.2846 26.4257 24.0701 26.2502 23.8928C26.0747 23.7155 25.8616 23.5799 25.6267 23.4959C25.5441 23.4665 25.4682 23.4212 25.4032 23.3624C25.3382 23.3036 25.2854 23.2326 25.2479 23.1534C25.2104 23.0742 25.1888 22.9884 25.1845 22.9008C25.1802 22.8133 25.1932 22.7265 25.2227 22.6439Z" fill="white"/>
</svg>
