<svg width="32" height="32" viewBox="0 0 32 32" fill="none" xmlns="http://www.w3.org/2000/svg">
<path d="M29.3333 10.6665C29.3348 8.67195 28.5911 6.74879 27.2481 5.27411C25.9052 3.79944 24.0598 2.87961 22.0738 2.695C20.0878 2.51039 18.1045 3.07431 16.5127 4.27618C14.9209 5.47805 13.8355 7.23118 13.4693 9.19183C12.712 11.6452 12.0253 12.9825 11.6493 13.6038L8.29332 16.9598C8.17376 17.0795 8.08652 17.2276 8.03976 17.3901C7.993 17.5527 7.98824 17.7245 8.02594 17.8894C8.06364 18.0543 8.14256 18.207 8.25531 18.3331C8.36806 18.4592 8.51097 18.5546 8.67065 18.6105L5.94932 21.3332C5.24778 21.3435 4.5674 21.575 4.00509 21.9946C3.44278 22.4142 3.02721 23.0006 2.81757 23.6701C2.60792 24.3397 2.6149 25.0583 2.8375 25.7237C3.06009 26.3891 3.48697 26.9672 4.05732 27.3758C4.27332 27.5305 4.46932 27.7265 4.62398 27.9425C5.03294 28.5133 5.61169 28.9403 6.27769 29.1627C6.94369 29.3852 7.66292 29.3916 8.33279 29.1811C9.00266 28.9706 9.58896 28.554 10.0081 27.9906C10.4272 27.4273 10.6576 26.7459 10.6666 26.0438L13.3866 23.3238C13.4417 23.4844 13.5367 23.6284 13.6628 23.7421C13.7888 23.8558 13.9417 23.9356 14.1071 23.9739C14.2725 24.0122 14.445 24.0077 14.6082 23.9609C14.7714 23.9141 14.92 23.8266 15.04 23.7065L18.4053 20.3412C19.036 19.9638 20.376 19.2812 22.8253 18.5278C24.6558 18.1804 26.3076 17.2049 27.4957 15.7697C28.6838 14.3345 29.3337 12.5296 29.3333 10.6665ZM13.3333 20.5492L9.17865 24.7025C8.84311 25.0502 8.65901 25.5167 8.66665 25.9998C8.66658 26.2821 8.57689 26.5572 8.41051 26.7852C8.24414 27.0133 8.00966 27.1827 7.74085 27.269C7.47205 27.3553 7.18279 27.354 6.91474 27.2654C6.64669 27.1768 6.4137 27.0054 6.24932 26.7758C5.96477 26.3813 5.61856 26.035 5.22398 25.7505C4.99446 25.5861 4.82304 25.3531 4.73441 25.0851C4.64578 24.817 4.64452 24.5278 4.73081 24.259C4.8171 23.9902 4.98649 23.7557 5.21457 23.5893C5.44266 23.4229 5.71766 23.3332 5.99998 23.3332C6.39865 23.3332 6.89732 23.2132 7.28665 22.8238L11.444 18.6665H13.3333V20.5492ZM21.3333 4.6665C22.8323 4.66474 24.2777 5.22416 25.3849 6.23463C26.4921 7.24511 27.181 8.63344 27.316 10.1264C27.4509 11.6193 27.0221 13.1086 26.114 14.3013C25.206 15.4939 23.8843 16.3034 22.4093 16.5705L22.2947 16.5972C19.5453 17.4398 18.016 18.2278 17.2546 18.7012C17.1911 18.7435 17.1313 18.7912 17.076 18.8438L15.3333 20.5852V17.6665C15.3333 17.4013 15.228 17.1469 15.0404 16.9594C14.8529 16.7719 14.5985 16.6665 14.3333 16.6665H11.4133L13.1466 14.9345C13.1982 14.8799 13.245 14.821 13.2866 14.7585C13.7586 14.0038 14.552 12.4785 15.3986 9.7225C15.4097 9.68383 15.4191 9.64468 15.4266 9.60516C15.6756 8.21991 16.4036 6.96627 17.4834 6.06348C18.5631 5.16068 19.9259 4.66619 21.3333 4.6665Z" fill="white"/>
</svg>
