<svg width="27" height="21" viewBox="0 0 27 21" fill="none" xmlns="http://www.w3.org/2000/svg">
<path d="M7.5 0L8.063 1.375C8.414 2.23 8.891 4.367 8.781 5.375C7.418 6.215 6.582 7.035 5.937 7.719C5.149 7.082 3.59 6 1 6H0V7C0 8.914 0.691 10.469 0.938 11C0.688 11.527 0 13.027 0 15V16H1C3.57 16 5.148 14.914 5.938 14.281C7.121 15.5 8.808 16.785 10.938 17.75C10.844 18.371 10.77 19.238 11.031 20.25L11.219 21H12C13.234 21 14.297 20.387 15.156 19.844C15.859 19.398 16.199 19.086 16.375 18.937C20.352 18.797 22.891 16.652 24.25 14.531C25.656 12.34 26 10.156 26 10.156L26.031 9.906L25.938 9.656C25.938 9.656 23.648 3.367 17.438 3.062C16.778 2.262 15.855 1.598 14.563 1.062C13.035 0.43 11.113 0 9 0H7.5ZM10.406 2.125C11.668 2.265 12.848 2.52 13.781 2.906C15.059 3.434 15.949 4.191 16.156 4.531L16.438 5H17C21.996 5 23.793 9.73 23.938 10.125C23.868 10.492 23.578 11.887 22.563 13.469C21.402 15.277 19.523 17 16 17H15.625L15.344 17.25C15.344 17.25 14.816 17.7 14.094 18.156C13.714 18.395 13.391 18.438 13 18.594C13.04 18.137 13 17.469 13 17.469L13.219 16.594L12.406 16.312C9.93 15.367 7.824 13.586 6.75 12.344L6.062 11.531L5.312 12.281C5.312 12.281 3.98 13.215 2.25 13.656C2.508 12.484 2.906 11.438 2.906 11.438L3.125 11L2.906 10.562C2.906 10.562 2.473 9.414 2.219 8.187C4.062 8.594 5.312 9.719 5.312 9.719L6.062 10.469L6.75 9.656C7.645 8.645 10.055 6.125 13.594 5.656L13.312 3.687C12.355 3.813 11.52 4.09 10.719 4.407C10.668 3.567 10.625 2.844 10.406 2.125ZM19.5 9C19.1022 9 18.7206 9.15804 18.4393 9.43934C18.158 9.72064 18 10.1022 18 10.5C18 10.8978 18.158 11.2794 18.4393 11.5607C18.7206 11.842 19.1022 12 19.5 12C19.8978 12 20.2794 11.842 20.5607 11.5607C20.842 11.2794 21 10.8978 21 10.5C21 10.1022 20.842 9.72064 20.5607 9.43934C20.2794 9.15804 19.8978 9 19.5 9Z" fill="white"/>
</svg>
