<svg width="40" height="40" viewBox="0 0 40 40" fill="none" xmlns="http://www.w3.org/2000/svg">
<path opacity="0.5" d="M20 36.6667C12.1433 36.6667 8.21499 36.6667 5.77333 34.225C3.33333 31.7867 3.33333 27.8567 3.33333 20C3.33333 12.1433 3.33333 8.21499 5.77333 5.77333C8.21666 3.33333 12.1433 3.33333 20 3.33333C27.8567 3.33333 31.785 3.33333 34.225 5.77333C36.6667 8.21666 36.6667 12.1433 36.6667 20C36.6667 27.8567 36.6667 31.785 34.225 34.225C31.7867 36.6667 27.8567 36.6667 20 36.6667Z" fill="#9E78F6"/>
<path d="M20 13.75C20.3315 13.75 20.6495 13.8817 20.8839 14.1161C21.1183 14.3505 21.25 14.6685 21.25 15V18.75H25C25.3315 18.75 25.6495 18.8817 25.8839 19.1161C26.1183 19.3505 26.25 19.6685 26.25 20C26.25 20.3315 26.1183 20.6495 25.8839 20.8839C25.6495 21.1183 25.3315 21.25 25 21.25H21.25V25C21.25 25.3315 21.1183 25.6495 20.8839 25.8839C20.6495 26.1183 20.3315 26.25 20 26.25C19.6685 26.25 19.3505 26.1183 19.1161 25.8839C18.8817 25.6495 18.75 25.3315 18.75 25V21.25H15C14.6685 21.25 14.3505 21.1183 14.1161 20.8839C13.8817 20.6495 13.75 20.3315 13.75 20C13.75 19.6685 13.8817 19.3505 14.1161 19.1161C14.3505 18.8817 14.6685 18.75 15 18.75H18.75V15C18.75 14.6685 18.8817 14.3505 19.1161 14.1161C19.3505 13.8817 19.6685 13.75 20 13.75Z" fill="#9E78F6"/>
</svg>
