<svg width="24" height="24" viewBox="0 0 24 24" fill="none" xmlns="http://www.w3.org/2000/svg">
<path fill-rule="evenodd" clip-rule="evenodd" d="M14.25 4.48V7.537C14.25 7.648 14.25 7.807 14.27 7.943C14.2881 8.08295 14.3376 8.21701 14.4146 8.33525C14.4916 8.45349 14.5943 8.55286 14.715 8.626C14.833 8.69259 14.9638 8.73343 15.0988 8.74584C15.2337 8.75825 15.3698 8.74195 15.498 8.698C15.628 8.658 15.77 8.59 15.876 8.539L17 8.005L18.124 8.539C18.23 8.589 18.372 8.658 18.502 8.699C18.6303 8.7428 18.7664 8.75894 18.9013 8.74635C19.0363 8.73377 19.167 8.69276 19.285 8.626C19.4055 8.55275 19.508 8.45333 19.5848 8.3351C19.6617 8.21687 19.711 8.08286 19.729 7.943C19.75 7.807 19.75 7.648 19.75 7.537V3.031C19.8633 3.02567 19.974 3.02133 20.082 3.018C21.154 2.98 22 3.86 22 4.933V16.143C22 17.255 21.094 18.153 19.985 18.223C19.015 18.283 17.877 18.402 17 18.633C15.918 18.919 15.01 19.701 13.627 20.069C13.001 20.236 12.303 20.326 12 20.392V5.174C12.32 5.095 13.382 4.971 13.674 4.803C13.8587 4.695 14.0507 4.58733 14.25 4.48ZM19.728 12.818C19.752 12.9136 19.7568 13.013 19.7424 13.1105C19.7279 13.208 19.6943 13.3017 19.6436 13.3862C19.5929 13.4707 19.526 13.5444 19.4468 13.603C19.3676 13.6617 19.2776 13.7041 19.182 13.728L15.182 14.728C14.9889 14.7763 14.7846 14.7459 14.6139 14.6435C14.4433 14.5411 14.3203 14.3751 14.272 14.182C14.2237 13.9889 14.2541 13.7846 14.3565 13.6139C14.4589 13.4433 14.6249 13.3203 14.818 13.272L18.818 12.272C18.9136 12.248 19.013 12.2432 19.1105 12.2576C19.208 12.2721 19.3017 12.3057 19.3862 12.3564C19.4707 12.4071 19.5444 12.474 19.603 12.5532C19.6617 12.6324 19.7041 12.7224 19.728 12.818Z" fill="#9E78F6"/>
<path d="M18.25 3.151C17.63 3.224 17.02 3.331 16.5 3.487C16.2457 3.56448 15.9954 3.65459 15.75 3.757V6.939L16.5 6.583L16.508 6.578C16.6596 6.49681 16.8281 6.45228 17 6.448C17.0473 6.448 17.0933 6.45133 17.138 6.458C17.313 6.487 17.453 6.558 17.492 6.578L17.501 6.583L18.25 6.939V3.151Z" fill="#9E78F6"/>
<path opacity="0.5" d="M12 5.21399C11.666 5.14999 10.943 5.05299 10.282 4.87499C8.938 4.51499 8.05 3.76499 7 3.48699C6.113 3.25299 4.959 3.13499 3.982 3.07499C2.886 3.00699 2 3.89999 2 4.99799V16.144C2 17.254 2.906 18.154 4.015 18.223C4.985 18.283 6.123 18.402 7 18.633C7.486 18.762 8.216 19.064 8.873 19.359C9.878 19.81 10.925 20.156 12 20.393V5.21399Z" fill="#9E78F6"/>
<path d="M4.273 12.818C4.29696 12.7224 4.3395 12.6326 4.3982 12.5535C4.4569 12.4744 4.53061 12.4076 4.61511 12.357C4.69962 12.3064 4.79326 12.2729 4.8907 12.2585C4.98814 12.2441 5.08746 12.249 5.183 12.273L9.183 13.273C9.37594 13.3214 9.54176 13.4445 9.64396 13.6151C9.74617 13.7858 9.7764 13.99 9.728 14.183C9.67959 14.3759 9.55653 14.5417 9.38587 14.644C9.21521 14.7462 9.01094 14.7764 8.818 14.728L4.818 13.728C4.72246 13.704 4.63257 13.6615 4.55348 13.6028C4.47438 13.5441 4.40762 13.4704 4.35701 13.3859C4.30641 13.3014 4.27294 13.2077 4.25852 13.1103C4.24411 13.0128 4.24902 12.9135 4.273 12.818ZM5.182 8.27299C5.08592 8.24746 4.98572 8.24128 4.88724 8.25482C4.78875 8.26836 4.69394 8.30134 4.60831 8.35185C4.52269 8.40236 4.44796 8.46939 4.38848 8.54904C4.32899 8.62869 4.28593 8.71937 4.2618 8.81581C4.23768 8.91225 4.23296 9.01253 4.24794 9.11081C4.26291 9.20908 4.29728 9.30341 4.34903 9.38828C4.40078 9.47316 4.4689 9.5469 4.5494 9.60522C4.62991 9.66354 4.72121 9.70527 4.818 9.72799L8.818 10.728C9.0098 10.773 9.21162 10.7408 9.37983 10.6382C9.54804 10.5356 9.66914 10.371 9.71696 10.1799C9.76477 9.98873 9.73546 9.78646 9.63536 9.61677C9.53526 9.44708 9.3724 9.32359 9.182 9.27299L5.182 8.27299Z" fill="#9E78F6"/>
</svg>
