<svg width="12" height="12" viewBox="0 0 12 12" fill="none" xmlns="http://www.w3.org/2000/svg">
<path fill-rule="evenodd" clip-rule="evenodd" d="M4.04042 0.096409C5.01416 -0.0972791 6.02356 0.00231183 6.94081 0.382216C7.8581 0.762168 8.64246 1.40564 9.19407 2.23117C9.74559 3.05667 10.0398 4.02745 10.0398 5.02024C10.0397 5.67934 9.90982 6.33187 9.65761 6.94081C9.46935 7.39531 9.21534 7.81859 8.905 8.19797L11.5267 10.8197C11.6204 10.9135 11.6726 11.0408 11.6726 11.1732C11.6726 11.3057 11.6204 11.433 11.5267 11.5267C11.4806 11.5735 11.4253 11.6103 11.3646 11.6355C11.304 11.6606 11.2389 11.6735 11.1732 11.6732C11.1076 11.6735 11.0425 11.6606 10.9818 11.6355C10.9212 11.6103 10.8659 11.5735 10.8197 11.5267L8.19797 8.905C7.81859 9.21534 7.39531 9.46935 6.94081 9.65761C6.33187 9.90982 5.67934 10.0397 5.02024 10.0398C4.02745 10.0398 3.05667 9.74559 2.23117 9.19407C1.40564 8.64246 0.762168 7.8581 0.382216 6.94081C0.00231183 6.02356 -0.0972791 5.01416 0.096409 4.04042C0.290129 3.0667 0.76809 2.17212 1.47011 1.47011C2.17212 0.76809 3.0667 0.290129 4.04042 0.096409ZM5.02024 1.00657C4.22911 1.00657 3.45538 1.24152 2.79758 1.68104C2.13988 2.12056 1.62699 2.74514 1.32427 3.47597C1.02157 4.20684 0.942728 5.01128 1.09706 5.78716C1.25143 6.563 1.6321 7.27598 2.19146 7.83534C2.75085 8.39469 3.46377 8.77541 4.23964 8.92974C5.01555 9.08407 5.81994 9.00462 6.55084 8.70188C7.28155 8.39915 7.90628 7.88683 8.34576 7.22922C8.78528 6.57142 9.02024 5.79769 9.02024 5.00657C9.02022 3.94577 8.59842 2.92856 7.84836 2.17844C7.09828 1.42836 6.081 1.00664 5.02024 1.00657Z" fill="#797979"/>
</svg>
