<svg width="40" height="40" viewBox="0 0 40 40" fill="none" xmlns="http://www.w3.org/2000/svg">
<path d="M9.43333 11.2C7.37222 13.6688 6.24533 16.784 6.25 20C6.25 23.3467 7.445 26.415 9.43333 28.8L14.1883 24.045C13.3758 22.8525 12.9412 21.443 12.9412 20C12.9412 18.557 13.3758 17.1475 14.1883 15.955L9.43333 11.2ZM30.5667 11.2L25.8117 15.955C26.6242 17.1475 27.0588 18.557 27.0588 20C27.0588 21.443 26.6242 22.8525 25.8117 24.045L30.5667 28.7983C32.6274 26.33 33.7543 23.2155 33.75 20C33.7547 16.784 32.6278 13.6688 30.5667 11.2ZM3.75 20C3.75 11.025 11.025 3.75 20 3.75C28.975 3.75 36.25 11.025 36.25 20C36.25 28.975 28.975 36.25 20 36.25C11.025 36.25 3.75 28.975 3.75 20ZM23.2417 16.76C21.4817 15 18.5167 15 16.7583 16.76C15 18.5167 15 21.4817 16.76 23.2417C18.52 25.0017 21.4833 25 23.2433 23.2417C25.0017 21.4817 25.0017 18.5183 23.2433 16.7583" fill="white"/>
</svg>
