<svg width="24" height="24" viewBox="0 0 24 24" fill="none" xmlns="http://www.w3.org/2000/svg">
<path d="M5.58595 21.414C5.08395 20.912 5.01195 19.397 5.00195 18H18.999C18.989 19.397 18.917 20.912 18.415 21.414C17.829 22 16.885 22 15 22H8.99995C7.11495 22 6.17195 22 5.58595 21.414Z" fill="#9E78F6"/>
<path opacity="0.5" d="M2 10C1.99991 9.28105 2.15487 8.57052 2.45432 7.91689C2.75377 7.26326 3.19065 6.68189 3.73518 6.21244C4.27972 5.74299 4.91909 5.39649 5.60969 5.19657C6.3003 4.99666 7.02589 4.94803 7.737 5.054C8.0394 4.16332 8.61319 3.38972 9.37779 2.84185C10.1424 2.29398 11.0594 1.99936 12 1.99936C12.9406 1.99936 13.8576 2.29398 14.6222 2.84185C15.3868 3.38972 15.9606 4.16332 16.263 5.054C16.503 5.018 16.7487 5 17 5C18.1493 4.99925 19.2638 5.39445 20.1558 6.11909C21.0479 6.84372 21.6631 7.85355 21.8978 8.9786C22.1326 10.1037 21.9726 11.2752 21.4448 12.2962C20.9171 13.3171 20.0537 14.125 19 14.584V18H5V14.584C4.10811 14.1948 3.3492 13.5537 2.81631 12.7394C2.28342 11.9252 1.99972 10.9731 2 10Z" fill="#9E78F6"/>
<path d="M11.043 13.67C10.165 13.024 9 11.984 9 11C9 9.32699 10.65 8.70299 12 9.99499C13.35 8.70299 15 9.32699 15 11C15 11.985 13.835 13.025 12.957 13.67C12.537 13.977 12.327 14.131 12 14.131C11.672 14.131 11.463 13.977 11.043 13.669" fill="#9E78F6"/>
</svg>
