<svg width="62" height="62" viewBox="0 0 62 62" fill="none" xmlns="http://www.w3.org/2000/svg">
<g clip-path="url(#clip0_10527_728)">
<path d="M47.4688 0C55.4941 0 62 6.50586 62 14.5312V47.4688C62 55.4941 55.4941 62 47.4688 62H14.5312C6.50586 62 0 55.4941 0 47.4688V14.5312C0 6.50586 6.50586 0 14.5312 0H47.4688ZM45.9131 16.1387C42.5268 12.5383 36.8611 12.3647 33.2588 15.751C32.1173 16.8241 31.2773 18.1782 30.8232 19.6777C30.3693 21.1772 30.3174 22.7698 30.6719 24.2959C27.1159 24.1184 23.6366 23.1948 20.4609 21.585C17.2853 19.9752 14.4835 17.7153 12.2383 14.9521C9.86568 19.0397 11.0773 24.2671 15.0068 26.8936C13.5837 26.8509 12.1911 26.4673 10.9473 25.7744V25.8877C10.9473 30.1454 13.9497 33.8112 18.1221 34.6543C16.8057 35.0141 15.4239 35.0671 14.084 34.8086C14.6558 36.5854 15.7686 38.1394 17.2666 39.2529C18.7646 40.3664 20.5733 40.9841 22.4395 41.0195C19.2719 43.5076 15.36 44.8587 11.332 44.8555C10.6198 44.8542 9.91015 44.8113 9.20312 44.7266C13.2934 47.3511 18.0532 48.7434 22.9131 48.7363V48.7432C39.3639 48.7429 48.3604 35.1128 48.3604 23.2949C48.3604 22.9071 48.3606 22.5229 48.334 22.1387C50.0854 20.8722 51.5967 19.3034 52.7969 17.5059C51.1652 18.23 49.434 18.705 47.6611 18.9141C49.5279 17.7963 50.9251 16.0376 51.5928 13.9668C49.8369 15.0083 47.916 15.7433 45.9131 16.1387Z" fill="black"/>
</g>
<defs>
<clipPath id="clip0_10527_728">
<rect width="62" height="62" fill="white"/>
</clipPath>
</defs>
</svg>
