<svg width="32" height="32" viewBox="0 0 32 32" fill="none" xmlns="http://www.w3.org/2000/svg">
<path d="M6.74522 15.6558C9.30255 15.9705 11.6412 14.0705 11.9679 11.4132C12.2946 8.75584 9.25322 6.1945 10.3572 2.6665C4.88655 3.4585 3.00122 7.86784 2.70389 10.2745C2.37722 12.9318 4.18789 15.3412 6.74522 15.6558Z" stroke="white" stroke-width="2" stroke-linejoin="round"/>
<path d="M9.33328 26.6665C6.76661 20.4318 6.35995 14.9252 6.84395 10.6665" stroke="white" stroke-width="2" stroke-linecap="round" stroke-linejoin="round"/>
<path d="M12.6772 23.5571C14.2439 26.7464 18.0279 27.6264 21.1279 25.5224C24.2279 23.4184 24.7172 17.5864 29.3332 15.5531C24.4065 10.0958 18.2625 12.0664 15.4559 13.9718C12.3545 16.0758 11.1105 20.3678 12.6772 23.5584V23.5571Z" stroke="white" stroke-width="2" stroke-linejoin="round"/>
<path d="M8 29.3332C11.1707 23.8718 15.0187 20.5732 18.6667 18.6665" stroke="white" stroke-width="2" stroke-linecap="round" stroke-linejoin="round"/>
</svg>
