<svg width="26" height="30" viewBox="0 0 26 30" fill="none" xmlns="http://www.w3.org/2000/svg">
<path d="M10.3333 11.3398C7.14133 9.6105 3.77333 6.61984 1 1.6665M12.488 4.89184C9.77333 3.11184 6.46267 3.85584 5.092 6.5545C3.72133 9.25317 4.81067 12.8838 7.524 14.6652C9.98 16.2772 15.356 17.9438 19.6667 13.3265C15.6267 11.6065 15.2 6.67317 12.488 4.89184Z" stroke="white" stroke-width="2" stroke-linecap="round" stroke-linejoin="round"/>
<path d="M2.33333 13.6665C1.48 14.2932 1 15.0065 1 15.7625C1 18.2865 6.37333 20.3332 13 20.3332C19.6267 20.3332 25 18.2865 25 15.7625C25 15.0065 24.52 14.2945 23.6667 13.6665" stroke="white" stroke-width="2" stroke-linecap="round"/>
<path d="M25 16.333C25 21.1023 21.6587 25.2863 18.06 27.6423C17.32 28.1277 16.44 28.333 15.556 28.333H10.444C9.56 28.333 8.68 28.1277 7.94 27.6423C4.34133 25.2863 1 21.1023 1 16.333" stroke="white" stroke-width="2" stroke-linecap="round"/>
</svg>
