<svg width="62" height="62" viewBox="0 0 62 62" fill="none" xmlns="http://www.w3.org/2000/svg">
<path d="M38.9386 6.45801C43.6506 6.45801 47.4455 6.45801 50.4344 6.85842C53.5344 7.27692 56.1436 8.16817 58.2154 10.2426C60.2898 12.3144 61.1811 14.9262 61.5996 18.0262C62 21.0125 62 24.8074 62 29.5194V32.4799C62 37.1919 62 40.9869 61.5996 43.9758C61.1811 47.0758 60.2898 49.6849 58.2154 51.7568C56.1436 53.8312 53.5344 54.7224 50.4318 55.1409C47.4455 55.5414 43.6506 55.5414 38.9386 55.5414H23.0614C18.3494 55.5414 14.5545 55.5414 11.5656 55.1409C8.46558 54.7224 5.85642 53.8312 3.782 51.7568C1.71017 49.6849 0.818917 47.0758 0.400417 43.9732C0 40.9869 0 37.1919 0 32.4799V29.5194C0 24.8074 0 21.0125 0.400417 18.0236C0.818917 14.9236 1.71017 12.3144 3.78458 10.24C5.85642 8.16818 8.46817 7.27692 11.5682 6.85842C14.5545 6.45801 18.3494 6.45801 23.0614 6.45801H38.9386ZM42.6224 31.0023L24.025 20.2323V41.7722L42.6224 31.0023Z" fill="black"/>
</svg>
